M48
;Layer_Color=9474304
;FILE_FORMAT=4:4
METRIC,LZ
;TYPE=PLATED
T1F00S00C0.2000
T2F00S00C0.3000
T3F00S00C0.4000
T4F00S00C0.8000
T5F00S00C0.9000
T6F00S00C2.0000
%
T01
X0031564Y0018179
X0032664
Y0019279
Y0020379
X0031564
Y0019279
X0033764
Y0020379
Y0018179
T02
X0032625Y0019275
T03
X00285Y0013275
X0031025Y001135
X0034925Y001215
X00371Y002205
X0036675Y00279
X0035075Y0027725
X0035225Y00342
X0035Y00367
X003365Y003825
X0032375Y003945
X0029475Y00379
X002595Y00378
X0020575Y003785
X00224Y004405
X0022425Y0045975
Y0047725
X00284Y00413
X00285Y00305
X0027825Y003065
X0026225Y0028325
X00243Y0029275
X0023325Y0027925
X0023525Y00321
X0019975Y0025425
X001535Y0025275
X00156Y00179
X0017325Y0015925
X001905Y0016625
X0023625Y0017125
X0048625Y0021175
X0048575Y0023725
X0048925Y0041525
X0048875Y004365
X004405Y004155
X003715Y00332
X0015Y0040675
X001425Y0026975
X001075
X0006275Y0027075
X000625Y002525
X00056Y00231
X000565Y00199
X000895Y001985
X0009025Y00177
X001085Y001765
X00061Y00161
X000425Y0015275
X0002625Y0015225
X000095Y001525
X00011Y0027825
X0002825Y0027775
X000465
T04
X002601Y0030575
X003089
T05
X002875Y000385
Y000639
X0032085Y00095
X0034625
X003675Y000639
Y000385
X004625Y0005155
Y0007695
Y0010235
Y0012775
Y0015315
Y0017855
Y0020395
Y0022935
Y0025475
Y0028015
X001735Y003705
Y003959
Y004213
Y004467
T06
X0003Y00025
X0047
Y0047
X0003
M30
