M48
;Layer_Color=9474304
;FILE_FORMAT=4:4
METRIC,LZ
;TYPE=PLATED
T1F00S00C0.2000
T2F00S00C0.3000
T3F00S00C0.8000
T4F00S00C0.9000
T5F00S00C3.5000
%
T01
X0031Y0025125
X00321
Y0026225
Y0027325
X0031
Y0026225
X00332
Y0027325
Y0025125
T02
X0001625Y0004525
X0005625
X0013625
X0017625
X0033625
X0037625
X0041625
X0049625
X0053625
X0055625Y0008525
X0051625
X0047625
X0041625Y0012525
X0037875Y00125
Y0011475
Y0013525
X0036875Y0014675
X0035625Y0016525
X0031625
X003345Y0012475
X0029075
X0025625Y0012525
X0027625Y0008525
X0029625Y0020525
X0026575Y0024225
X0025625Y0028525
X002655Y00302
X0025625Y0036525
X0031625Y0032525
X0035125Y0030175
X004106Y0030925
X0045175Y003085
X0047625Y0032525
X00515775Y00325266
X005092Y003358
X0049625Y0036525
X0053625
Y0028525
X0055625Y0024525
X0051625
X0049625Y0020525
X0053625
X0055625Y0016525
X0051625
X0053625Y0012525
X0046125Y0019975
X0044875Y0018875
X0041625Y0020525
X0037625
X0043625Y0024525
X0041625Y0036525
X0021625
X0019625Y0032525
X0015625
X0011625
X0007625
X0003625
X0001625Y0036525
X0005625
X0009625
X0013625
X0017625Y0028525
Y0020525
X0019625Y0016525
X0023625
X0021625Y0012525
X0017625
X0019625Y0008525
X0023625
X0015625Y0016525
X0011625
X0007625
Y0024525
X0011625
X0009625Y0028525
X0001625
Y0012525
X0003625Y0008525
X0007625
T03
X002933Y00351
X002445
T04
X00546Y0006475
X005714
X004612Y003249
X00436Y003251
Y003505
X004106
Y003251
X003852
Y003505
X003598
Y003251
X003344
Y003505
X0046155Y0035055
X0019125Y003629
Y003375
X002136Y00147
X00239
T05
X00485Y00125
Y00275
X0005
Y00125
M30
