M48
;Layer_Color=9474304
;FILE_FORMAT=4:4
METRIC,LZ
;TYPE=PLATED
T1F00S00C0.2000
T2F00S00C0.3000
T3F00S00C0.4000
T4F00S00C0.8000
T5F00S00C0.9000
%
T01
X0032089Y0018754
X0033189
Y0019854
X0032089
T02
X0032625Y0019275
T03
X000105Y001165
X0002725Y0011625
X000435Y0011675
X00062Y00125
X0009125Y00141
X001095Y001405
X0017425Y0012325
X001915Y0013025
X0023725Y0013525
X0027025Y0013975
X00282Y0010675
X0030125Y0016025
X0036Y00166
X0036425Y0022125
X0036675Y00279
X0035075Y0027725
X0035225Y00342
X0035Y00367
X003365Y003825
X0032025Y0039475
X0029475Y00379
X002595Y00378
X0020575Y003785
X00212Y0032175
X0023525Y00321
X00243Y0029275
X0026225Y0028325
X0027925Y002705
X0026925Y0025425
X002365Y0024475
X0020075Y0021825
X001545Y0021675
X001435Y0023375
X0014575Y0029775
X00164Y0028825
X00189Y0028775
X0021225Y00288
X0018725Y0032125
X0016875Y00322
X0015575Y0033325
X001445Y003445
X0015Y0040675
X00224Y004405
X0022425Y0045975
Y0047725
X00284Y00413
X00285Y00305
X003715Y00332
X004405Y004155
X0048925Y0041525
X0048875Y004365
X0048575Y0023725
X0048625Y0021175
X00157Y00143
X000905Y001625
X000575Y00163
X00057Y00195
X000635Y002165
X0006375Y0023475
X000475Y0024175
X0002925
X00012Y0024225
X001085Y0023375
X0013275Y0031025
X001205Y0032325
X0010825Y00335
X000955Y00347
X00084Y00359
X0007325Y0037175
X0006725Y0038875
X0006675Y0040575
X0010175Y0040425
Y0038925
X00112Y0037725
X00122Y0036575
X001325Y003555
X00112Y00453
X00057Y0045225
T04
X002601Y0030575
X003089
T05
X002875Y000385
Y000639
X0031935Y000955
X0034475
X003675Y000639
Y000385
X0046325Y0003405
Y0005945
Y0008485
Y0011025
Y0013565
Y0016105
Y0018645
Y0021185
Y0023725
Y0026265
X001735Y003705
Y003959
Y004213
Y004467
M30
