G04 Layer_Color=16711935*
%FSLAX44Y44*%
%MOMM*%
G71*
G01*
G75*
%ADD71C,0.1000*%
D71*
X315640Y208790D02*
G03*
X315640Y208790I-5000J0D01*
G01*
X79141Y484626D02*
G03*
X75374Y480860I28109J-31877D01*
G01*
X75373Y424641D02*
G03*
X79139Y420874I31877J28109D01*
G01*
X135359Y420873D02*
G03*
X139126Y424640I-28109J31877D01*
G01*
X139127Y480859D02*
G03*
X135360Y484626I-31877J-28109D01*
G01*
X113599Y452749D02*
G03*
X113599Y452749I-6350J0D01*
G01*
X133250D02*
G03*
X133250Y452749I-26001J0D01*
G01*
X139001D02*
G03*
X139001Y452749I-31752J0D01*
G01*
X301640Y167790D02*
Y217790D01*
X351640Y167790D02*
Y217790D01*
X301640D02*
X351640D01*
X301640Y167790D02*
X351640D01*
X49500Y85400D02*
Y94600D01*
X2000Y42500D02*
Y137500D01*
Y42500D02*
X49500Y42500D01*
X2000Y137500D02*
X49500Y137500D01*
X2000Y85400D02*
X49500D01*
X2000Y94600D02*
X49500D01*
X2000Y52500D02*
X49500D01*
X2000Y127500D02*
X49500D01*
X-14997Y42498D02*
X2002D01*
X-14997D02*
Y137498D01*
X2000Y137500D01*
X-46997Y63499D02*
X-14997D01*
X-46997Y116501D02*
X-14997D01*
X-46997Y63499D02*
Y116501D01*
X-79748Y58249D02*
X-52247D01*
X-79748Y121751D02*
X-52247D01*
Y58249D02*
X-46997Y63499D01*
X-52247Y121751D02*
X-46997Y116501D01*
X-52247Y58249D02*
Y121751D01*
X-79748Y58249D02*
Y121751D01*
X-92497Y63499D02*
X-84997D01*
X-92998Y63998D02*
X-92497Y63499D01*
X-84997D02*
X-79748Y58249D01*
X-84997Y116501D02*
X-79748Y121751D01*
X-92998Y116002D02*
X-92497Y116501D01*
X-84997D01*
X-92998Y63998D02*
Y116002D01*
X-84997Y63499D02*
Y116501D01*
X49500Y42500D02*
Y52500D01*
Y127500D02*
Y137500D01*
X264760Y231720D02*
X274260D01*
X264760Y249220D02*
X274260D01*
X264760Y231720D02*
Y249220D01*
X274260Y231720D02*
Y249220D01*
X427750Y367700D02*
Y404800D01*
X360750Y367700D02*
Y404800D01*
X427750D01*
X360750Y367700D02*
X427750D01*
X47000Y252500D02*
Y262500D01*
Y167500D02*
Y177500D01*
X-87497Y188499D02*
Y241501D01*
X-95498Y188999D02*
Y241001D01*
X-94997Y241501D02*
X-87497D01*
X-95498Y241001D02*
X-94997Y241501D01*
X-87497D02*
X-82247Y246751D01*
X-87497Y188499D02*
X-82247Y183249D01*
X-95498Y188999D02*
X-94997Y188499D01*
X-87497D01*
X-82247Y183249D02*
Y246751D01*
X-54747Y183249D02*
Y246751D01*
X-49497Y241501D01*
X-54747Y183249D02*
X-49497Y188499D01*
X-82247Y246751D02*
X-54747D01*
X-82247Y183249D02*
X-54747D01*
X-49497Y188499D02*
Y241501D01*
X-17497D01*
X-49497Y188499D02*
X-17497D01*
Y262498D02*
X-500Y262500D01*
X-17497Y167498D02*
Y262498D01*
Y167498D02*
X-498D01*
X-500Y252500D02*
X47000D01*
X-500Y177500D02*
X47000D01*
X-500Y219600D02*
X47000D01*
X-500Y210400D02*
X47000D01*
X-500Y262500D02*
X47000Y262500D01*
X-500Y167500D02*
X47000Y167500D01*
X-500Y167500D02*
Y262500D01*
X47000Y210400D02*
Y219600D01*
X186020Y182190D02*
X195520D01*
X186020Y199690D02*
X195520D01*
X186020Y182190D02*
Y199690D01*
X195520Y182190D02*
Y199690D01*
X151500Y226250D02*
Y235750D01*
X169000Y226250D02*
Y235750D01*
X151500D02*
X169000D01*
X151500Y226250D02*
X169000D01*
X119980Y213940D02*
X129480D01*
X119980Y231440D02*
X129480D01*
X119980Y213940D02*
Y231440D01*
X129480Y213940D02*
Y231440D01*
X201070Y228100D02*
Y237600D01*
X218570Y228100D02*
Y237600D01*
X201070D02*
X218570D01*
X201070Y228100D02*
X218570D01*
X201100Y211590D02*
Y221090D01*
X218600Y211590D02*
Y221090D01*
X201100D02*
X218600D01*
X201100Y211590D02*
X218600D01*
X88000Y210250D02*
Y219750D01*
X105500Y210250D02*
Y219750D01*
X88000D02*
X105500D01*
X88000Y210250D02*
X105500D01*
X264760Y199970D02*
X274260D01*
X264760Y217470D02*
X274260D01*
X264760Y199970D02*
Y217470D01*
X274260Y199970D02*
Y217470D01*
X75498Y424750D02*
Y480750D01*
X79248Y420998D02*
X135248D01*
X139001Y424749D02*
Y480749D01*
X79251Y484501D02*
X135251D01*
X75498Y433750D02*
X88250D01*
Y420998D02*
Y433750D01*
X126248D02*
X139000D01*
X126248Y420998D02*
Y433750D01*
X126249Y471749D02*
Y484501D01*
Y471749D02*
X139001D01*
X75499D02*
X88251D01*
Y484501D01*
X100979Y451749D02*
X113521D01*
X100979Y453748D02*
X113521D01*
M02*
