G04 Layer_Color=32768*
%FSLAX44Y44*%
%MOMM*%
G71*
G01*
G75*
%ADD65C,0.0500*%
D65*
X500Y124000D02*
Y231500D01*
X-1499Y98000D02*
X500D01*
Y99000D01*
X167Y99333D01*
X-166D01*
X-500Y99000D01*
Y98000D01*
Y99000D01*
X-833Y99333D01*
X-1166D01*
X-1499Y99000D01*
Y98000D01*
X500Y100333D02*
Y100999D01*
X167Y101332D01*
X-500D01*
X-833Y100999D01*
Y100333D01*
X-500Y99999D01*
X167D01*
X500Y100333D01*
X-833Y102332D02*
Y102998D01*
X-500Y103332D01*
X500D01*
Y102332D01*
X167Y101999D01*
X-166Y102332D01*
Y103332D01*
X-833Y103998D02*
X500D01*
X-166D01*
X-500Y104331D01*
X-833Y104664D01*
Y104998D01*
X-1499Y107330D02*
X500D01*
Y106331D01*
X167Y105997D01*
X-500D01*
X-833Y106331D01*
Y107330D01*
X-1499Y111329D02*
Y109996D01*
X500D01*
Y111329D01*
X-500Y109996D02*
Y110663D01*
X-1499Y113328D02*
X500D01*
Y112329D01*
X167Y111995D01*
X-500D01*
X-833Y112329D01*
Y113328D01*
X1166Y114661D02*
Y114995D01*
X833Y115328D01*
X-833D01*
Y114328D01*
X-500Y113995D01*
X167D01*
X500Y114328D01*
Y115328D01*
Y116994D02*
Y116327D01*
X167Y115994D01*
X-500D01*
X-833Y116327D01*
Y116994D01*
X-500Y117327D01*
X-166D01*
Y115994D01*
M02*
