G04 Layer_Color=65535*
%FSLAX44Y44*%
%MOMM*%
G71*
G01*
G75*
%ADD25C,0.2540*%
%ADD27C,0.2500*%
%ADD29C,0.2000*%
D25*
X319447Y76403D02*
X309290D01*
Y61168D01*
X319447D01*
X309290Y68786D02*
X314368D01*
X324525Y76403D02*
X334682Y61168D01*
Y76403D02*
X324525Y61168D01*
X339760Y76403D02*
X349917D01*
X344838D01*
Y61168D01*
X309290Y52025D02*
Y41868D01*
X314368Y36790D01*
X319447Y41868D01*
Y52025D01*
X334682Y49486D02*
X332143Y52025D01*
X327064D01*
X324525Y49486D01*
Y39329D01*
X327064Y36790D01*
X332143D01*
X334682Y39329D01*
X347378Y52025D02*
X342299D01*
X339760Y49486D01*
Y39329D01*
X342299Y36790D01*
X347378D01*
X349917Y39329D01*
Y49486D01*
X347378Y52025D01*
X34097Y377697D02*
Y367540D01*
X49332D01*
Y377697D01*
X41714Y367540D02*
Y372618D01*
X34097Y382775D02*
X49332Y392932D01*
X34097D02*
X49332Y382775D01*
X34097Y398010D02*
Y408167D01*
Y403088D01*
X49332D01*
X61014Y377697D02*
X58475Y375158D01*
Y370079D01*
X61014Y367540D01*
X71171D01*
X73710Y370079D01*
Y375158D01*
X71171Y377697D01*
X58475Y382775D02*
X73710D01*
Y392932D01*
X58475Y398010D02*
X73710D01*
X68632D01*
X58475Y408167D01*
X66093Y400549D01*
X73710Y408167D01*
X388040Y85525D02*
Y70290D01*
X395658D01*
X398197Y72829D01*
Y82986D01*
X395658Y85525D01*
X388040D01*
X413432Y82986D02*
X410893Y85525D01*
X405814D01*
X403275Y82986D01*
Y72829D01*
X405814Y70290D01*
X410893D01*
X413432Y72829D01*
X418510Y85525D02*
Y70290D01*
X428667D01*
X433745Y85525D02*
Y70290D01*
Y75368D01*
X443902Y85525D01*
X436284Y77908D01*
X443902Y70290D01*
X81157Y13500D02*
X71000D01*
X81157Y23657D01*
Y26196D01*
X78618Y28735D01*
X73539D01*
X71000Y26196D01*
X96392Y28735D02*
X86235D01*
Y21117D01*
X91313D01*
X86235D01*
Y13500D01*
X101470Y28735D02*
X111627D01*
X106549D01*
Y13500D01*
X126862Y26196D02*
X124323Y28735D01*
X119244D01*
X116705Y26196D01*
Y16039D01*
X119244Y13500D01*
X124323D01*
X126862Y16039D01*
Y21117D01*
X121784D01*
X157332Y13500D02*
X147175D01*
X157332Y23657D01*
Y26196D01*
X154793Y28735D01*
X149715D01*
X147175Y26196D01*
X162410D02*
X164950Y28735D01*
X170028D01*
X172567Y26196D01*
Y16039D01*
X170028Y13500D01*
X164950D01*
X162410Y16039D01*
Y26196D01*
X177645Y13500D02*
X182724D01*
X180185D01*
Y28735D01*
X177645Y26196D01*
X190341D02*
X192881Y28735D01*
X197959D01*
X200498Y26196D01*
Y23657D01*
X197959Y21117D01*
X200498Y18578D01*
Y16039D01*
X197959Y13500D01*
X192881D01*
X190341Y16039D01*
Y18578D01*
X192881Y21117D01*
X190341Y23657D01*
Y26196D01*
X192881Y21117D02*
X197959D01*
X72250Y35750D02*
Y45907D01*
X77328Y50985D01*
X82407Y45907D01*
Y35750D01*
Y43368D01*
X72250D01*
X87485Y50985D02*
X97642Y35750D01*
Y50985D02*
X87485Y35750D01*
X112877Y50985D02*
X102720D01*
Y43368D01*
X107799Y45907D01*
X110338D01*
X112877Y43368D01*
Y38289D01*
X110338Y35750D01*
X105259D01*
X102720Y38289D01*
X117955Y48446D02*
X120494Y50985D01*
X125573D01*
X128112Y48446D01*
Y38289D01*
X125573Y35750D01*
X120494D01*
X117955Y38289D01*
Y48446D01*
X140808Y35750D02*
Y50985D01*
X133190Y43368D01*
X143347D01*
X148425Y48446D02*
X150964Y50985D01*
X156043D01*
X158582Y48446D01*
Y45907D01*
X156043Y43368D01*
X153504D01*
X156043D01*
X158582Y40828D01*
Y38289D01*
X156043Y35750D01*
X150964D01*
X148425Y38289D01*
X178895Y50985D02*
Y35750D01*
X186513D01*
X189052Y38289D01*
Y40828D01*
X186513Y43368D01*
X178895D01*
X186513D01*
X189052Y45907D01*
Y48446D01*
X186513Y50985D01*
X178895D01*
X201748D02*
X196670D01*
X194131Y48446D01*
Y38289D01*
X196670Y35750D01*
X201748D01*
X204287Y38289D01*
Y48446D01*
X201748Y50985D01*
X209366Y35750D02*
Y45907D01*
X214444Y50985D01*
X219522Y45907D01*
Y35750D01*
Y43368D01*
X209366D01*
X224601Y35750D02*
Y50985D01*
X232218D01*
X234757Y48446D01*
Y43368D01*
X232218Y40828D01*
X224601D01*
X229679D02*
X234757Y35750D01*
X239836Y50985D02*
Y35750D01*
X247453D01*
X249993Y38289D01*
Y48446D01*
X247453Y50985D01*
X239836D01*
X81907Y111696D02*
X79367Y114235D01*
X74289D01*
X71750Y111696D01*
Y101539D01*
X74289Y99000D01*
X79367D01*
X81907Y101539D01*
X86985Y111696D02*
X89524Y114235D01*
X94603D01*
X97142Y111696D01*
Y109157D01*
X92063Y104078D01*
Y101539D02*
Y99000D01*
X387750Y58485D02*
Y43250D01*
X395368D01*
X397907Y45789D01*
Y55946D01*
X395368Y58485D01*
X387750D01*
X402985Y43250D02*
Y53407D01*
X408063Y58485D01*
X413142Y53407D01*
Y43250D01*
Y50868D01*
X402985D01*
X418220Y58485D02*
X428377D01*
X423298D01*
Y43250D01*
X433455D02*
Y53407D01*
X438534Y58485D01*
X443612Y53407D01*
Y43250D01*
Y50868D01*
X433455D01*
X299000Y245485D02*
Y232789D01*
X301539Y230250D01*
X306618D01*
X309157Y232789D01*
Y245485D01*
X314235Y230250D02*
X319313D01*
X316774D01*
Y245485D01*
X314235Y242946D01*
X-81609Y165575D02*
X-86688D01*
X-84149D01*
Y152879D01*
X-86688Y150340D01*
X-89227D01*
X-91766Y152879D01*
X-66374Y150340D02*
X-76531D01*
X-66374Y160497D01*
Y163036D01*
X-68913Y165575D01*
X-73992D01*
X-76531Y163036D01*
X314157Y383446D02*
X311618Y385985D01*
X306539D01*
X304000Y383446D01*
Y373289D01*
X306539Y370750D01*
X311618D01*
X314157Y373289D01*
X319235Y370750D02*
X324313D01*
X321774D01*
Y385985D01*
X319235Y383446D01*
X194304Y338657D02*
X191765Y336118D01*
Y331039D01*
X194304Y328500D01*
X204461D01*
X207000Y331039D01*
Y336118D01*
X204461Y338657D01*
X207000Y353892D02*
Y343735D01*
X196843Y353892D01*
X194304D01*
X191765Y351353D01*
Y346274D01*
X194304Y343735D01*
X232907Y371946D02*
X230368Y374485D01*
X225289D01*
X222750Y371946D01*
Y361789D01*
X225289Y359250D01*
X230368D01*
X232907Y361789D01*
X237985Y371946D02*
X240524Y374485D01*
X245603D01*
X248142Y371946D01*
Y369407D01*
X245603Y366867D01*
X243063D01*
X245603D01*
X248142Y364328D01*
Y361789D01*
X245603Y359250D01*
X240524D01*
X237985Y361789D01*
X225804Y191157D02*
X223265Y188617D01*
Y183539D01*
X225804Y181000D01*
X235961D01*
X238500Y183539D01*
Y188617D01*
X235961Y191157D01*
X238500Y203853D02*
X223265D01*
X230882Y196235D01*
Y206392D01*
X227804Y255657D02*
X225265Y253118D01*
Y248039D01*
X227804Y245500D01*
X237961D01*
X240500Y248039D01*
Y253118D01*
X237961Y255657D01*
X225265Y270892D02*
Y260735D01*
X232882D01*
X230343Y265813D01*
Y268353D01*
X232882Y270892D01*
X237961D01*
X240500Y268353D01*
Y263274D01*
X237961Y260735D01*
X243054Y145657D02*
X240515Y143118D01*
Y138039D01*
X243054Y135500D01*
X253211D01*
X255750Y138039D01*
Y143118D01*
X253211Y145657D01*
X240515Y160892D02*
X243054Y155813D01*
X248132Y150735D01*
X253211D01*
X255750Y153274D01*
Y158353D01*
X253211Y160892D01*
X250672D01*
X248132Y158353D01*
Y150735D01*
X245054Y294907D02*
X242515Y292367D01*
Y287289D01*
X245054Y284750D01*
X255211D01*
X257750Y287289D01*
Y292367D01*
X255211Y294907D01*
X242515Y299985D02*
Y310142D01*
X245054D01*
X255211Y299985D01*
X257750D01*
X176804Y277297D02*
X174265Y274757D01*
Y269679D01*
X176804Y267140D01*
X186961D01*
X189500Y269679D01*
Y274757D01*
X186961Y277297D01*
X176804Y282375D02*
X174265Y284914D01*
Y289993D01*
X176804Y292532D01*
X179343D01*
X181882Y289993D01*
X184422Y292532D01*
X186961D01*
X189500Y289993D01*
Y284914D01*
X186961Y282375D01*
X184422D01*
X181882Y284914D01*
X179343Y282375D01*
X176804D01*
X181882Y284914D02*
Y289993D01*
X168804Y132907D02*
X166265Y130367D01*
Y125289D01*
X168804Y122750D01*
X178961D01*
X181500Y125289D01*
Y130367D01*
X178961Y132907D01*
Y137985D02*
X181500Y140524D01*
Y145603D01*
X178961Y148142D01*
X168804D01*
X166265Y145603D01*
Y140524D01*
X168804Y137985D01*
X171343D01*
X173883Y140524D01*
Y148142D01*
X146304Y177157D02*
X143765Y174618D01*
Y169539D01*
X146304Y167000D01*
X156461D01*
X159000Y169539D01*
Y174618D01*
X156461Y177157D01*
X159000Y182235D02*
Y187313D01*
Y184774D01*
X143765D01*
X146304Y182235D01*
Y194931D02*
X143765Y197470D01*
Y202549D01*
X146304Y205088D01*
X156461D01*
X159000Y202549D01*
Y197470D01*
X156461Y194931D01*
X146304D01*
X119647Y301426D02*
X117107Y303965D01*
X112029D01*
X109490Y301426D01*
Y291269D01*
X112029Y288730D01*
X117107D01*
X119647Y291269D01*
X124725Y288730D02*
X129803D01*
X127264D01*
Y303965D01*
X124725Y301426D01*
X137421Y288730D02*
X142499D01*
X139960D01*
Y303965D01*
X137421Y301426D01*
X119554Y134157D02*
X117015Y131617D01*
Y126539D01*
X119554Y124000D01*
X129711D01*
X132250Y126539D01*
Y131617D01*
X129711Y134157D01*
X132250Y139235D02*
Y144313D01*
Y141774D01*
X117015D01*
X119554Y139235D01*
X132250Y162088D02*
Y151931D01*
X122093Y162088D01*
X119554D01*
X117015Y159549D01*
Y154470D01*
X119554Y151931D01*
X75804Y134407D02*
X73265Y131868D01*
Y126789D01*
X75804Y124250D01*
X85961D01*
X88500Y126789D01*
Y131868D01*
X85961Y134407D01*
X88500Y139485D02*
Y144563D01*
Y142024D01*
X73265D01*
X75804Y139485D01*
Y152181D02*
X73265Y154720D01*
Y159798D01*
X75804Y162338D01*
X78343D01*
X80883Y159798D01*
Y157259D01*
Y159798D01*
X83422Y162338D01*
X85961D01*
X88500Y159798D01*
Y154720D01*
X85961Y152181D01*
X359157Y143446D02*
X356618Y145985D01*
X351539D01*
X349000Y143446D01*
Y133289D01*
X351539Y130750D01*
X356618D01*
X359157Y133289D01*
X364235Y130750D02*
X369313D01*
X366774D01*
Y145985D01*
X364235Y143446D01*
X384548Y130750D02*
Y145985D01*
X376931Y138368D01*
X387088D01*
X261054Y118407D02*
X258515Y115868D01*
Y110789D01*
X261054Y108250D01*
X271211D01*
X273750Y110789D01*
Y115868D01*
X271211Y118407D01*
X273750Y123485D02*
Y128563D01*
Y126024D01*
X258515D01*
X261054Y123485D01*
X258515Y146338D02*
Y136181D01*
X266133D01*
X263593Y141259D01*
Y143799D01*
X266133Y146338D01*
X271211D01*
X273750Y143799D01*
Y138720D01*
X271211Y136181D01*
X310157Y268196D02*
X307617Y270735D01*
X302539D01*
X300000Y268196D01*
Y258039D01*
X302539Y255500D01*
X307617D01*
X310157Y258039D01*
X315235Y255500D02*
X320313D01*
X317774D01*
Y270735D01*
X315235Y268196D01*
X338088Y270735D02*
X333009Y268196D01*
X327931Y263118D01*
Y258039D01*
X330470Y255500D01*
X335549D01*
X338088Y258039D01*
Y260578D01*
X335549Y263118D01*
X327931D01*
X410804Y311407D02*
X408265Y308867D01*
Y303789D01*
X410804Y301250D01*
X420961D01*
X423500Y303789D01*
Y308867D01*
X420961Y311407D01*
X423500Y316485D02*
Y321563D01*
Y319024D01*
X408265D01*
X410804Y316485D01*
X408265Y329181D02*
Y339338D01*
X410804D01*
X420961Y329181D01*
X423500D01*
X378804Y292907D02*
X376265Y290368D01*
Y285289D01*
X378804Y282750D01*
X388961D01*
X391500Y285289D01*
Y290368D01*
X388961Y292907D01*
X391500Y297985D02*
Y303064D01*
Y300524D01*
X376265D01*
X378804Y297985D01*
Y310681D02*
X376265Y313220D01*
Y318298D01*
X378804Y320838D01*
X381343D01*
X383882Y318298D01*
X386422Y320838D01*
X388961D01*
X391500Y318298D01*
Y313220D01*
X388961Y310681D01*
X386422D01*
X383882Y313220D01*
X381343Y310681D01*
X378804D01*
X383882Y313220D02*
Y318298D01*
X350554Y293157D02*
X348015Y290618D01*
Y285539D01*
X350554Y283000D01*
X360711D01*
X363250Y285539D01*
Y290618D01*
X360711Y293157D01*
X363250Y298235D02*
Y303313D01*
Y300774D01*
X348015D01*
X350554Y298235D01*
X360711Y310931D02*
X363250Y313470D01*
Y318549D01*
X360711Y321088D01*
X350554D01*
X348015Y318549D01*
Y313470D01*
X350554Y310931D01*
X353093D01*
X355633Y313470D01*
Y321088D01*
X344657Y483196D02*
X342118Y485735D01*
X337039D01*
X334500Y483196D01*
Y473039D01*
X337039Y470500D01*
X342118D01*
X344657Y473039D01*
X359892Y470500D02*
X349735D01*
X359892Y480657D01*
Y483196D01*
X357353Y485735D01*
X352274D01*
X349735Y483196D01*
X364970D02*
X367509Y485735D01*
X372588D01*
X375127Y483196D01*
Y473039D01*
X372588Y470500D01*
X367509D01*
X364970Y473039D01*
Y483196D01*
X450420Y449667D02*
X447881Y452206D01*
X442802D01*
X440263Y449667D01*
Y439510D01*
X442802Y436971D01*
X447881D01*
X450420Y439510D01*
X465655Y436971D02*
X455498D01*
X465655Y447128D01*
Y449667D01*
X463116Y452206D01*
X458037D01*
X455498Y449667D01*
X470733Y436971D02*
X475812D01*
X473272D01*
Y452206D01*
X470733Y449667D01*
X-84069Y290687D02*
X-89148D01*
X-86608D01*
Y277991D01*
X-89148Y275452D01*
X-91687D01*
X-94226Y277991D01*
X-78991Y275452D02*
X-73913D01*
X-76452D01*
Y290687D01*
X-78991Y288148D01*
X164407Y486735D02*
X159328D01*
X161868D01*
Y474039D01*
X159328Y471500D01*
X156789D01*
X154250Y474039D01*
X169485Y484196D02*
X172024Y486735D01*
X177103D01*
X179642Y484196D01*
Y481657D01*
X177103Y479118D01*
X174563D01*
X177103D01*
X179642Y476578D01*
Y474039D01*
X177103Y471500D01*
X172024D01*
X169485Y474039D01*
X261895Y163000D02*
X277130D01*
Y173157D01*
Y188392D02*
Y178235D01*
X266973Y188392D01*
X264434D01*
X261895Y185853D01*
Y180774D01*
X264434Y178235D01*
X262765Y256500D02*
X278000D01*
Y266657D01*
X265304Y271735D02*
X262765Y274274D01*
Y279353D01*
X265304Y281892D01*
X267843D01*
X270382Y279353D01*
Y276813D01*
Y279353D01*
X272922Y281892D01*
X275461D01*
X278000Y279353D01*
Y274274D01*
X275461Y271735D01*
X200935Y180780D02*
X216170D01*
Y190937D01*
Y203633D02*
X200935D01*
X208552Y196015D01*
Y206172D01*
X198015Y246250D02*
X213250D01*
Y256407D01*
X198015Y271642D02*
Y261485D01*
X205632D01*
X203093Y266563D01*
Y269103D01*
X205632Y271642D01*
X210711D01*
X213250Y269103D01*
Y264024D01*
X210711Y261485D01*
X153905Y243700D02*
X169140D01*
Y253857D01*
X153905Y269092D02*
X156444Y264013D01*
X161523Y258935D01*
X166601D01*
X169140Y261474D01*
Y266553D01*
X166601Y269092D01*
X164062D01*
X161523Y266553D01*
Y258935D01*
X188015Y123000D02*
X203250D01*
Y133157D01*
X188015Y138235D02*
Y148392D01*
X190554D01*
X200711Y138235D01*
X203250D01*
X99335Y226500D02*
X114570D01*
Y236657D01*
X101874Y241735D02*
X99335Y244274D01*
Y249353D01*
X101874Y251892D01*
X104413D01*
X106952Y249353D01*
X109492Y251892D01*
X112031D01*
X114570Y249353D01*
Y244274D01*
X112031Y241735D01*
X109492D01*
X106952Y244274D01*
X104413Y241735D01*
X101874D01*
X106952Y244274D02*
Y249353D01*
X63730Y240395D02*
Y225160D01*
X73887D01*
X78965Y227699D02*
X81504Y225160D01*
X86583D01*
X89122Y227699D01*
Y237856D01*
X86583Y240395D01*
X81504D01*
X78965Y237856D01*
Y235317D01*
X81504Y232778D01*
X89122D01*
X451324Y301486D02*
Y316721D01*
X458941D01*
X461481Y314182D01*
Y309104D01*
X458941Y306564D01*
X451324D01*
X466559Y301486D02*
X471637D01*
X469098D01*
Y316721D01*
X466559Y314182D01*
X302750Y82000D02*
X287515D01*
Y89618D01*
X290054Y92157D01*
X295133D01*
X297672Y89618D01*
Y82000D01*
X302750Y107392D02*
Y97235D01*
X292593Y107392D01*
X290054D01*
X287515Y104853D01*
Y99774D01*
X290054Y97235D01*
X155000Y357750D02*
X139765D01*
Y365368D01*
X142304Y367907D01*
X147382D01*
X149922Y365368D01*
Y357750D01*
X142304Y372985D02*
X139765Y375524D01*
Y380603D01*
X142304Y383142D01*
X144843D01*
X147382Y380603D01*
Y378063D01*
Y380603D01*
X149922Y383142D01*
X152461D01*
X155000Y380603D01*
Y375524D01*
X152461Y372985D01*
X278250Y6500D02*
Y18496D01*
X284248D01*
X286247Y16497D01*
Y12498D01*
X284248Y10499D01*
X278250D01*
X296244Y6500D02*
Y18496D01*
X290246Y12498D01*
X298244D01*
X275250Y357000D02*
Y372235D01*
X282868D01*
X285407Y369696D01*
Y364618D01*
X282868Y362078D01*
X275250D01*
X280328D02*
X285407Y357000D01*
X290485D02*
X295563D01*
X293024D01*
Y372235D01*
X290485Y369696D01*
X360468Y452793D02*
Y440097D01*
X363007Y437558D01*
X368086D01*
X370625Y440097D01*
Y452793D01*
X385860Y437558D02*
X375703D01*
X385860Y447715D01*
Y450254D01*
X383321Y452793D01*
X378242D01*
X375703Y450254D01*
X229046Y353139D02*
Y350600D01*
X234124Y345522D01*
X239203Y350600D01*
Y353139D01*
X234124Y345522D02*
Y337904D01*
X244281D02*
X249359D01*
X246820D01*
Y353139D01*
X244281Y350600D01*
X380500Y81750D02*
X365265D01*
Y89368D01*
X367804Y91907D01*
X372882D01*
X375422Y89368D01*
Y81750D01*
X365265Y107142D02*
Y96985D01*
X372882D01*
X370343Y102063D01*
Y104603D01*
X372882Y107142D01*
X377961D01*
X380500Y104603D01*
Y99524D01*
X377961Y96985D01*
X25000Y295500D02*
X14843D01*
X9765Y300578D01*
X14843Y305657D01*
X25000D01*
X17383D01*
Y295500D01*
X25000Y310735D02*
X9765D01*
X25000Y320892D01*
X9765D01*
Y325970D02*
Y336127D01*
Y331049D01*
X25000D01*
X9765Y356440D02*
Y366597D01*
Y361519D01*
X25000D01*
X9765Y371675D02*
X25000Y381832D01*
X9765D02*
X25000Y371675D01*
Y386910D02*
X14843Y397067D01*
X25000Y402146D02*
X9765D01*
Y409763D01*
X12304Y412302D01*
X17383D01*
X19922Y409763D01*
Y402146D01*
Y407224D02*
X25000Y412302D01*
X9765Y417381D02*
X25000Y427537D01*
X9765D02*
X25000Y417381D01*
X404000Y287985D02*
Y277828D01*
X409078Y272750D01*
X414157Y277828D01*
Y287985D01*
X429392Y285446D02*
X426853Y287985D01*
X421774D01*
X419235Y285446D01*
Y275289D01*
X421774Y272750D01*
X426853D01*
X429392Y275289D01*
X444627Y285446D02*
X442088Y287985D01*
X437009D01*
X434470Y285446D01*
Y275289D01*
X437009Y272750D01*
X442088D01*
X444627Y275289D01*
X413657Y259446D02*
X411118Y261985D01*
X406039D01*
X403500Y259446D01*
Y249289D01*
X406039Y246750D01*
X411118D01*
X413657Y249289D01*
Y254368D01*
X408578D01*
X418735Y246750D02*
Y261985D01*
X428892Y246750D01*
Y261985D01*
X433970D02*
Y246750D01*
X441588D01*
X444127Y249289D01*
Y259446D01*
X441588Y261985D01*
X433970D01*
X390750Y233696D02*
X393289Y236235D01*
X398368D01*
X400907Y233696D01*
Y231157D01*
X398368Y228617D01*
X395828D01*
X398368D01*
X400907Y226078D01*
Y223539D01*
X398368Y221000D01*
X393289D01*
X390750Y223539D01*
X405985Y221000D02*
Y223539D01*
X408524D01*
Y221000D01*
X405985D01*
X418681Y233696D02*
X421220Y236235D01*
X426298D01*
X428838Y233696D01*
Y231157D01*
X426298Y228617D01*
X423759D01*
X426298D01*
X428838Y226078D01*
Y223539D01*
X426298Y221000D01*
X421220D01*
X418681Y223539D01*
X433916Y236235D02*
Y226078D01*
X438994Y221000D01*
X444073Y226078D01*
Y236235D01*
X405250Y211985D02*
X410328D01*
X407789D01*
Y196750D01*
X405250D01*
X410328D01*
X417946D02*
Y211985D01*
X425563D01*
X428103Y209446D01*
Y204368D01*
X425563Y201828D01*
X417946D01*
X423024D02*
X428103Y196750D01*
X443338Y199289D02*
Y209446D01*
X440798Y211985D01*
X435720D01*
X433181Y209446D01*
Y199289D01*
X435720Y196750D01*
X440798D01*
X438259Y201828D02*
X443338Y196750D01*
X440798D02*
X443338Y199289D01*
X414157Y134446D02*
X411618Y136985D01*
X406539D01*
X404000Y134446D01*
Y124289D01*
X406539Y121750D01*
X411618D01*
X414157Y124289D01*
X419235Y136985D02*
Y121750D01*
X429392D01*
X434470Y136985D02*
Y121750D01*
Y126828D01*
X444627Y136985D01*
X437009Y129368D01*
X444627Y121750D01*
X396250Y172250D02*
Y187485D01*
X401328Y182407D01*
X406407Y187485D01*
Y172250D01*
X419103Y187485D02*
X414024D01*
X411485Y184946D01*
Y174789D01*
X414024Y172250D01*
X419103D01*
X421642Y174789D01*
Y184946D01*
X419103Y187485D01*
X436877Y184946D02*
X434338Y187485D01*
X429259D01*
X426720Y184946D01*
Y182407D01*
X429259Y179867D01*
X434338D01*
X436877Y177328D01*
Y174789D01*
X434338Y172250D01*
X429259D01*
X426720Y174789D01*
X441955Y187485D02*
X447034D01*
X444494D01*
Y172250D01*
X441955D01*
X447034D01*
X393250Y146250D02*
Y161485D01*
X398328Y156407D01*
X403407Y161485D01*
Y146250D01*
X408485Y161485D02*
X413563D01*
X411024D01*
Y146250D01*
X408485D01*
X413563D01*
X431338Y158946D02*
X428798Y161485D01*
X423720D01*
X421181Y158946D01*
Y156407D01*
X423720Y153868D01*
X428798D01*
X431338Y151328D01*
Y148789D01*
X428798Y146250D01*
X423720D01*
X421181Y148789D01*
X444034Y161485D02*
X438955D01*
X436416Y158946D01*
Y148789D01*
X438955Y146250D01*
X444034D01*
X446573Y148789D01*
Y158946D01*
X444034Y161485D01*
X412907Y109196D02*
X410368Y111735D01*
X405289D01*
X402750Y109196D01*
Y106657D01*
X405289Y104117D01*
X410368D01*
X412907Y101578D01*
Y99039D01*
X410368Y96500D01*
X405289D01*
X402750Y99039D01*
X428142Y111735D02*
X417985D01*
Y96500D01*
X428142D01*
X417985Y104117D02*
X423063D01*
X433220Y111735D02*
Y96500D01*
X443377D01*
X345407Y18446D02*
X342868Y20985D01*
X337789D01*
X335250Y18446D01*
Y15907D01*
X337789Y13368D01*
X342868D01*
X345407Y10828D01*
Y8289D01*
X342868Y5750D01*
X337789D01*
X335250Y8289D01*
X350485Y20985D02*
Y18446D01*
X355563Y13368D01*
X360642Y18446D01*
Y20985D01*
X355563Y13368D02*
Y5750D01*
X375877Y18446D02*
X373338Y20985D01*
X368259D01*
X365720Y18446D01*
Y15907D01*
X368259Y13368D01*
X373338D01*
X375877Y10828D01*
Y8289D01*
X373338Y5750D01*
X368259D01*
X365720Y8289D01*
X391112Y18446D02*
X388573Y20985D01*
X383494D01*
X380955Y18446D01*
Y8289D01*
X383494Y5750D01*
X388573D01*
X391112Y8289D01*
X396190Y20985D02*
Y5750D01*
X406347D01*
X411425Y20985D02*
Y5750D01*
Y10828D01*
X421582Y20985D01*
X413965Y13368D01*
X421582Y5750D01*
X100907Y74735D02*
X90750D01*
Y59500D01*
X100907D01*
X90750Y67118D02*
X95828D01*
X105985Y74735D02*
X116142Y59500D01*
Y74735D02*
X105985Y59500D01*
X121220Y74735D02*
X131377D01*
X126299D01*
Y59500D01*
X136455Y56961D02*
X146612D01*
X151690Y74735D02*
Y64578D01*
X156769Y59500D01*
X161847Y64578D01*
Y74735D01*
X177082Y72196D02*
X174543Y74735D01*
X169465D01*
X166925Y72196D01*
Y62039D01*
X169465Y59500D01*
X174543D01*
X177082Y62039D01*
X189778Y74735D02*
X184700D01*
X182160Y72196D01*
Y62039D01*
X184700Y59500D01*
X189778D01*
X192317Y62039D01*
Y72196D01*
X189778Y74735D01*
X197395Y56961D02*
X207552D01*
X212631Y74735D02*
X222787D01*
X217709D01*
Y59500D01*
X227866Y74735D02*
Y62039D01*
X230405Y59500D01*
X235483D01*
X238022Y62039D01*
Y74735D01*
X243101Y59500D02*
Y74735D01*
X253258Y59500D01*
Y74735D01*
X268493D02*
X258336D01*
Y59500D01*
X268493D01*
X258336Y67118D02*
X263414D01*
X204657Y425946D02*
X202118Y428485D01*
X197039D01*
X194500Y425946D01*
Y415789D01*
X197039Y413250D01*
X202118D01*
X204657Y415789D01*
Y420868D01*
X199578D01*
X209735Y413250D02*
Y428485D01*
X217353D01*
X219892Y425946D01*
Y420868D01*
X217353Y418328D01*
X209735D01*
X224970Y413250D02*
Y423407D01*
X230049Y428485D01*
X235127Y423407D01*
Y413250D01*
Y420868D01*
X224970D01*
X240205Y428485D02*
Y413250D01*
X247823D01*
X250362Y415789D01*
Y425946D01*
X247823Y428485D01*
X240205D01*
X265597Y425946D02*
X263058Y428485D01*
X257980D01*
X255440Y425946D01*
Y415789D01*
X257980Y413250D01*
X263058D01*
X265597Y415789D01*
X270675Y413250D02*
X275754D01*
X273214D01*
Y428485D01*
X270675Y425946D01*
X204407Y401446D02*
X201868Y403985D01*
X196789D01*
X194250Y401446D01*
Y391289D01*
X196789Y388750D01*
X201868D01*
X204407Y391289D01*
Y396367D01*
X199328D01*
X209485Y388750D02*
Y403985D01*
X217103D01*
X219642Y401446D01*
Y396367D01*
X217103Y393828D01*
X209485D01*
X224720Y388750D02*
Y398907D01*
X229799Y403985D01*
X234877Y398907D01*
Y388750D01*
Y396367D01*
X224720D01*
X239955Y403985D02*
Y388750D01*
X247573D01*
X250112Y391289D01*
Y401446D01*
X247573Y403985D01*
X239955D01*
X265347Y401446D02*
X262808Y403985D01*
X257729D01*
X255190Y401446D01*
Y391289D01*
X257729Y388750D01*
X262808D01*
X265347Y391289D01*
X280582Y388750D02*
X270425D01*
X280582Y398907D01*
Y401446D01*
X278043Y403985D01*
X272965D01*
X270425Y401446D01*
D27*
X294890Y217790D02*
G03*
X294890Y217790I-1250J0D01*
G01*
X441500Y338750D02*
G03*
X441500Y338750I-1250J0D01*
G01*
X362000Y357250D02*
G03*
X362000Y357250I-1250J0D01*
G01*
X327500Y436750D02*
G03*
X327500Y436750I-1250J0D01*
G01*
D29*
X99250Y85250D02*
Y93250D01*
X300140Y213040D02*
Y219290D01*
X306390D01*
X346890D02*
X353140D01*
Y213040D02*
Y219290D01*
Y166290D02*
Y172540D01*
X346890Y166290D02*
X353140D01*
X300140D02*
Y172540D01*
Y166290D02*
X306390D01*
X52000Y99000D02*
Y121500D01*
Y58500D02*
Y81000D01*
X300200Y25800D02*
Y76600D01*
X274800D02*
X300200D01*
X274800Y25800D02*
Y76600D01*
Y25800D02*
X300200D01*
X308150Y82300D02*
X358950D01*
Y107700D01*
X308150D02*
X358950D01*
X308150Y82300D02*
Y107700D01*
X255750Y334750D02*
X263750D01*
X273000Y338000D02*
Y350500D01*
X297000D01*
Y336500D02*
Y350500D01*
X273000Y336500D02*
X297000D01*
X273000D02*
Y338000D01*
X287000Y262250D02*
X295000D01*
X249750Y245250D02*
X257750D01*
X266010Y226470D02*
X273010D01*
X440250Y421250D02*
X440750D01*
X485750D02*
X486250D01*
Y345250D02*
Y421250D01*
X440250Y345250D02*
Y421250D01*
X485750Y345250D02*
X486250D01*
X440250D02*
X440750D01*
X440250Y368250D02*
X486250D01*
X427750Y372250D02*
Y400250D01*
X360750Y372250D02*
Y400250D01*
X427750D01*
X360750Y372250D02*
X427750D01*
X449800Y38850D02*
X475200D01*
X449800D02*
Y292850D01*
X475200D01*
Y273800D02*
Y292850D01*
Y38850D02*
Y273800D01*
X49500Y183500D02*
Y206000D01*
Y224000D02*
Y246500D01*
X227500Y282250D02*
X341500D01*
Y329250D01*
X227500D02*
X341500D01*
X227500Y282250D02*
Y329250D01*
X68660Y168860D02*
X76660D01*
X120730Y167590D02*
X128730D01*
X120730Y277790D02*
X128730D01*
X226490Y212340D02*
Y220340D01*
X187270Y176940D02*
X194270D01*
X169640Y204130D02*
X177640D01*
X146250Y227500D02*
Y234500D01*
X121230Y208690D02*
X128230D01*
X179150Y257470D02*
X187150D01*
X195820Y229350D02*
Y236350D01*
X228380Y228850D02*
Y236850D01*
X195850Y212840D02*
Y219840D01*
X145210Y212340D02*
Y220340D01*
X82750Y211500D02*
Y218500D01*
X266010Y194720D02*
X273010D01*
X248500Y167750D02*
X256500D01*
X341750Y133750D02*
Y141750D01*
X243750Y436750D02*
Y437250D01*
Y482250D02*
Y482750D01*
X319750D01*
X243750Y436750D02*
X319750D01*
Y482250D02*
Y482750D01*
Y436750D02*
Y437250D01*
X296750Y436750D02*
Y482750D01*
X337630Y234460D02*
X345630D01*
X280750Y140750D02*
X288750D01*
X75498Y441750D02*
Y463750D01*
X96248Y420998D02*
X118248D01*
X139000Y441748D02*
Y463748D01*
X96250Y484500D02*
X118250D01*
X380200Y25800D02*
Y76600D01*
X354800D02*
X380200D01*
X354800Y25800D02*
Y76600D01*
Y25800D02*
X380200D01*
X432000Y298000D02*
X440000D01*
X362000Y268250D02*
X370000D01*
X160800Y459400D02*
X186200D01*
Y357800D02*
Y459400D01*
X160800Y357800D02*
Y459400D01*
Y357800D02*
X186200D01*
X305000Y334750D02*
X313000D01*
X220500Y301500D02*
Y309500D01*
M02*
