G04 Layer_Color=32768*
%FSLAX44Y44*%
%MOMM*%
G71*
G01*
G75*
%ADD70C,0.0500*%
%ADD71C,0.1000*%
D70*
X292390Y158540D02*
Y227040D01*
X360890Y158540D02*
Y227040D01*
X292390D02*
X360890D01*
X292390Y158540D02*
X360890D01*
X53000Y39500D02*
Y140500D01*
X-94000D02*
X53000D01*
X-94000Y39500D02*
X53000D01*
X-94000D02*
Y140500D01*
X430250Y342750D02*
Y429750D01*
X358250Y342750D02*
Y429750D01*
X430250D01*
X358250Y342750D02*
X430250D01*
X-96500Y164500D02*
Y265500D01*
Y164500D02*
X50500D01*
X-96500Y265500D02*
X50500D01*
Y164500D02*
Y265500D01*
X69250Y414750D02*
X145250D01*
Y490750D01*
X69250D02*
X145250D01*
X69250Y414750D02*
Y490750D01*
D71*
X321640Y192790D02*
X331640D01*
X326640Y187790D02*
Y197790D01*
X-3000Y90000D02*
X7000D01*
X2000Y85000D02*
Y95000D01*
X264010Y228470D02*
X275010D01*
X264010Y252470D02*
X275010D01*
X264010Y228470D02*
Y252470D01*
X275010Y228470D02*
Y252470D01*
X269510Y235720D02*
Y245220D01*
X264760Y240470D02*
X274260D01*
X389250Y386250D02*
X399250D01*
X394250Y381250D02*
Y391250D01*
X-500Y210000D02*
Y220000D01*
X-5500Y215000D02*
X4500D01*
X185270Y178940D02*
X196270D01*
X185270Y202940D02*
X196270D01*
X185270Y178940D02*
Y202940D01*
X196270Y178940D02*
Y202940D01*
X190770Y186190D02*
Y195690D01*
X186020Y190940D02*
X195520D01*
X148250Y225500D02*
Y236500D01*
X172250Y225500D02*
Y236500D01*
X148250D02*
X172250D01*
X148250Y225500D02*
X172250D01*
X155500Y231000D02*
X165000D01*
X160250Y226250D02*
Y235750D01*
X119230Y210690D02*
X130230D01*
X119230Y234690D02*
X130230D01*
X119230Y210690D02*
Y234690D01*
X130230Y210690D02*
Y234690D01*
X124730Y217940D02*
Y227440D01*
X119980Y222690D02*
X129480D01*
X197820Y227350D02*
Y238350D01*
X221820Y227350D02*
Y238350D01*
X197820D02*
X221820D01*
X197820Y227350D02*
X221820D01*
X205070Y232850D02*
X214570D01*
X209820Y228100D02*
Y237600D01*
X197850Y210840D02*
Y221840D01*
X221850Y210840D02*
Y221840D01*
X197850D02*
X221850D01*
X197850Y210840D02*
X221850D01*
X205100Y216340D02*
X214600D01*
X209850Y211590D02*
Y221090D01*
X84750Y209500D02*
Y220500D01*
X108750Y209500D02*
Y220500D01*
X84750D02*
X108750D01*
X84750Y209500D02*
X108750D01*
X92000Y215000D02*
X101500D01*
X96750Y210250D02*
Y219750D01*
X264010Y196720D02*
X275010D01*
X264010Y220720D02*
X275010D01*
X264010Y196720D02*
Y220720D01*
X275010Y196720D02*
Y220720D01*
X269510Y203970D02*
Y213470D01*
X264760Y208720D02*
X274260D01*
X107250Y447750D02*
Y457750D01*
X102250Y452750D02*
X112250D01*
M02*
