G04 Layer_Color=255*
%FSLAX44Y44*%
%MOMM*%
G71*
G01*
G75*
%ADD10R,0.6000X0.9000*%
%ADD11R,0.9000X0.8000*%
%ADD12R,1.0000X0.8000*%
%ADD13R,0.8000X0.8000*%
%ADD14R,1.0000X1.1000*%
%ADD15R,0.8000X0.9000*%
%ADD16R,2.6000X2.4000*%
%ADD17R,0.9000X0.8000*%
%ADD18R,1.0000X1.4000*%
%ADD19R,0.8000X0.9000*%
%ADD20R,1.1000X1.0000*%
%ADD21R,0.7000X0.4000*%
%ADD22R,1.1000X0.2500*%
%ADD23R,0.2500X1.1000*%
%ADD24R,3.2500X3.2500*%
%ADD25R,5.0000X1.0000*%
%ADD26R,5.0000X1.4000*%
%ADD27R,2.4000X2.6000*%
%ADD39R,1.5000X1.5000*%
%ADD40C,1.5000*%
%ADD41R,1.5000X1.5000*%
%ADD42C,1.4000*%
%ADD43P,1.5154X8X22.5*%
%ADD44C,5.0000*%
D10*
X115750Y70750D02*
D03*
X103750D02*
D03*
X420250Y185000D02*
D03*
X408250D02*
D03*
X305500Y308500D02*
D03*
X293500D02*
D03*
D11*
X94750Y116250D02*
D03*
Y97250D02*
D03*
X114750Y106750D02*
D03*
X303000Y134250D02*
D03*
Y115250D02*
D03*
X323000Y124750D02*
D03*
X347250Y134250D02*
D03*
Y115250D02*
D03*
X367250Y124750D02*
D03*
D12*
X441000Y91700D02*
D03*
Y59300D02*
D03*
D13*
X410500Y144750D02*
D03*
X401000Y168750D02*
D03*
X420000D02*
D03*
D14*
X462500Y76250D02*
D03*
Y59250D02*
D03*
X420000Y74500D02*
D03*
Y91500D02*
D03*
X228000Y60250D02*
D03*
Y43250D02*
D03*
X338750Y58250D02*
D03*
Y75250D02*
D03*
X142500Y146250D02*
D03*
Y163250D02*
D03*
X276500Y225250D02*
D03*
Y242250D02*
D03*
X195500Y206000D02*
D03*
Y189000D02*
D03*
X229000Y273750D02*
D03*
Y290750D02*
D03*
X135000Y306000D02*
D03*
Y289000D02*
D03*
X276500Y298250D02*
D03*
Y281250D02*
D03*
X173750Y242250D02*
D03*
Y225250D02*
D03*
X153000Y225250D02*
D03*
Y242250D02*
D03*
X229250Y237750D02*
D03*
Y254750D02*
D03*
D15*
X480000Y189000D02*
D03*
X461000D02*
D03*
X470500Y169000D02*
D03*
D16*
X401000Y226000D02*
D03*
X465000D02*
D03*
D17*
X320250Y74500D02*
D03*
Y60500D02*
D03*
X245000Y272750D02*
D03*
Y286750D02*
D03*
X195500Y225500D02*
D03*
Y239500D02*
D03*
X134250Y228250D02*
D03*
Y242250D02*
D03*
X211250Y192250D02*
D03*
Y206250D02*
D03*
X134750Y258750D02*
D03*
Y272750D02*
D03*
X245000Y242000D02*
D03*
Y256000D02*
D03*
D18*
X398750Y92000D02*
D03*
Y118000D02*
D03*
D19*
X374250Y89500D02*
D03*
X360250D02*
D03*
X273250Y60500D02*
D03*
X259250D02*
D03*
X153750Y272000D02*
D03*
X167750D02*
D03*
X81750Y199750D02*
D03*
X95750D02*
D03*
X325000Y217000D02*
D03*
X311000D02*
D03*
D20*
X295000Y40750D02*
D03*
X312000D02*
D03*
X259000D02*
D03*
X276000D02*
D03*
X338750Y308500D02*
D03*
X321750D02*
D03*
X244500Y386000D02*
D03*
X227500D02*
D03*
X328000Y201250D02*
D03*
X311000D02*
D03*
X78500Y175000D02*
D03*
X95500D02*
D03*
X195000Y255250D02*
D03*
X212000D02*
D03*
X293250Y386000D02*
D03*
X310250D02*
D03*
X98500Y229750D02*
D03*
X81500D02*
D03*
X195000Y272250D02*
D03*
X212000D02*
D03*
X239000Y316250D02*
D03*
X222000D02*
D03*
X86000Y50750D02*
D03*
X103000D02*
D03*
X281250Y153250D02*
D03*
X264250D02*
D03*
D21*
X117500Y212250D02*
D03*
Y205750D02*
D03*
Y199250D02*
D03*
X134000Y212250D02*
D03*
Y205750D02*
D03*
Y199250D02*
D03*
D22*
X297250Y277250D02*
D03*
Y272250D02*
D03*
Y267250D02*
D03*
Y262250D02*
D03*
Y257250D02*
D03*
Y252250D02*
D03*
Y247250D02*
D03*
X344750D02*
D03*
Y252250D02*
D03*
Y257250D02*
D03*
Y262250D02*
D03*
Y267250D02*
D03*
Y272250D02*
D03*
Y277250D02*
D03*
D23*
X306000Y238500D02*
D03*
X311000D02*
D03*
X316000D02*
D03*
X321000D02*
D03*
X326000D02*
D03*
X331000D02*
D03*
X336000D02*
D03*
Y286000D02*
D03*
X331000D02*
D03*
X326000D02*
D03*
X321000D02*
D03*
X316000D02*
D03*
X311000D02*
D03*
X306000D02*
D03*
D24*
X321000Y262250D02*
D03*
D25*
X26000Y199750D02*
D03*
D26*
Y157250D02*
D03*
Y242250D02*
D03*
D27*
X559500Y199750D02*
D03*
Y263750D02*
D03*
D39*
X461550Y350550D02*
D03*
X213600Y147000D02*
D03*
X546000Y64750D02*
D03*
D40*
X461200Y324900D02*
D03*
X436000Y350500D02*
D03*
Y325100D02*
D03*
X410600Y350500D02*
D03*
Y325100D02*
D03*
X385200Y350500D02*
D03*
Y325100D02*
D03*
X359800Y350500D02*
D03*
Y325100D02*
D03*
X334400Y350500D02*
D03*
Y325100D02*
D03*
X191250Y337500D02*
D03*
X239000Y147000D02*
D03*
X571400Y64750D02*
D03*
D41*
X191250Y362900D02*
D03*
D42*
X293300Y351000D02*
D03*
D43*
X244500D02*
D03*
D44*
X50000Y125000D02*
D03*
Y275000D02*
D03*
X485000D02*
D03*
Y125000D02*
D03*
M02*
