G04 Layer_Color=8388736*
%FSLAX44Y44*%
%MOMM*%
G71*
G01*
G75*
%ADD41R,1.2032X1.3032*%
%ADD42R,0.8032X1.1032*%
%ADD43R,3.0032X3.0032*%
%ADD44O,0.5032X1.1032*%
%ADD45O,1.1032X0.5032*%
%ADD46R,1.1032X1.0032*%
%ADD47R,2.6032X2.8032*%
%ADD48R,3.5032X2.6032*%
%ADD49R,1.2032X2.6032*%
%ADD50R,5.2032X1.2032*%
%ADD51R,5.2032X1.6032*%
%ADD52R,1.0032X1.1032*%
%ADD53R,1.3032X1.2032*%
%ADD54R,2.8032X2.6032*%
%ADD55C,2.0032*%
%ADD56C,1.7032*%
%ADD57R,1.7032X1.7032*%
%ADD58R,1.7032X1.7032*%
%ADD59C,1.6032*%
%ADD60P,1.7353X8X22.5*%
%ADD61C,0.7032*%
%ADD62C,1.4732*%
%ADD63C,0.8032*%
G36*
X121383Y438009D02*
X121514Y437984D01*
X121599Y437954D01*
X121640Y437941D01*
X121759Y437882D01*
X121870Y437808D01*
X121970Y437720D01*
Y437720D01*
X121970D01*
X122058Y437620D01*
X122132Y437509D01*
X122191Y437390D01*
X122204Y437349D01*
X122233Y437264D01*
X122260Y437133D01*
X122268Y437000D01*
Y437000D01*
Y437000D01*
Y426130D01*
Y426130D01*
X122265Y426085D01*
X122264Y426041D01*
X122261Y426019D01*
X122260Y425997D01*
X122251Y425954D01*
X122244Y425910D01*
X122238Y425888D01*
X122233Y425867D01*
X122219Y425824D01*
X122207Y425782D01*
X122198Y425761D01*
X122191Y425740D01*
X122171Y425700D01*
X122153Y425660D01*
X121229Y423884D01*
X121223Y423874D01*
X121218Y423864D01*
X121189Y423818D01*
X121159Y423770D01*
X121152Y423761D01*
X121146Y423752D01*
X118778Y420522D01*
X118771Y420514D01*
X118765Y420504D01*
X118729Y420463D01*
X118693Y420420D01*
X118685Y420413D01*
X118677Y420404D01*
X115846Y417573D01*
X115837Y417565D01*
X115830Y417557D01*
X115787Y417521D01*
X115745Y417485D01*
X115736Y417479D01*
X115728Y417472D01*
X112498Y415103D01*
X112489Y415098D01*
X112480Y415090D01*
X112432Y415061D01*
X112386Y415032D01*
X112376Y415027D01*
X112366Y415021D01*
X110590Y414097D01*
X110549Y414079D01*
X110510Y414059D01*
X110489Y414052D01*
X110468Y414043D01*
X110426Y414031D01*
X110384Y414016D01*
X110362Y414012D01*
X110340Y414006D01*
X110296Y413999D01*
X110253Y413991D01*
X110231Y413989D01*
X110209Y413986D01*
X110164Y413985D01*
X110120Y413982D01*
X99249Y413982D01*
X99116Y413991D01*
X98986Y414016D01*
X98860Y414059D01*
X98740Y414118D01*
X98629Y414192D01*
X98529Y414280D01*
X98441Y414380D01*
X98367Y414491D01*
X98308Y414610D01*
X98266Y414737D01*
X98240Y414867D01*
X98231Y415000D01*
Y433999D01*
X98231Y433999D01*
X98234Y434041D01*
X98234Y434082D01*
X98238Y434107D01*
X98240Y434132D01*
X98248Y434173D01*
X98254Y434214D01*
X98261Y434238D01*
X98266Y434263D01*
X98279Y434302D01*
X98291Y434342D01*
X98300Y434365D01*
X98308Y434389D01*
X98327Y434426D01*
X98343Y434464D01*
X98356Y434486D01*
X98367Y434508D01*
X98391Y434543D01*
X98412Y434579D01*
X98427Y434598D01*
X98441Y434619D01*
X98469Y434650D01*
X98495Y434683D01*
X98513Y434700D01*
X98529Y434719D01*
X98560Y434747D01*
X98590Y434776D01*
X98610Y434790D01*
X98629Y434807D01*
X98664Y434830D01*
X98697Y434855D01*
X98719Y434867D01*
X98740Y434881D01*
X98778Y434899D01*
X98814Y434920D01*
X99238Y435120D01*
X99995Y435626D01*
X100622Y436253D01*
X101128Y437011D01*
X101329Y437435D01*
X101349Y437471D01*
X101367Y437508D01*
X101381Y437529D01*
X101393Y437551D01*
X101418Y437584D01*
X101441Y437619D01*
X101458Y437638D01*
X101473Y437658D01*
X101502Y437688D01*
X101529Y437719D01*
X101548Y437735D01*
X101565Y437754D01*
X101598Y437780D01*
X101629Y437807D01*
X101650Y437821D01*
X101670Y437836D01*
X101706Y437858D01*
X101740Y437881D01*
X101762Y437892D01*
X101784Y437905D01*
X101822Y437921D01*
X101860Y437940D01*
X101883Y437948D01*
X101906Y437958D01*
X101946Y437969D01*
X101986Y437983D01*
X102010Y437988D01*
X102034Y437994D01*
X102075Y438000D01*
X102116Y438009D01*
X102142Y438010D01*
X102166Y438014D01*
X102207Y438015D01*
X102249Y438017D01*
X121250Y438018D01*
X121250D01*
X121250D01*
X121383Y438009D01*
D02*
G37*
G36*
X66291Y438016D02*
X66332Y438016D01*
X66357Y438012D01*
X66382Y438010D01*
X66423Y438002D01*
X66464Y437996D01*
X66488Y437989D01*
X66513Y437984D01*
X66552Y437971D01*
X66592Y437960D01*
X66615Y437950D01*
X66639Y437942D01*
X66676Y437923D01*
X66714Y437906D01*
X66736Y437894D01*
X66758Y437883D01*
X66793Y437859D01*
X66829Y437838D01*
X66848Y437822D01*
X66869Y437809D01*
X66900Y437781D01*
X66933Y437755D01*
X66950Y437737D01*
X66969Y437721D01*
X66997Y437689D01*
X67026Y437659D01*
X67041Y437640D01*
X67057Y437621D01*
X67080Y437586D01*
X67105Y437553D01*
X67117Y437531D01*
X67131Y437510D01*
X67149Y437472D01*
X67170Y437436D01*
X67370Y437012D01*
X67876Y436255D01*
X68503Y435628D01*
X69261Y435122D01*
X69685Y434921D01*
X69721Y434901D01*
X69758Y434883D01*
X69779Y434869D01*
X69801Y434857D01*
X69834Y434832D01*
X69869Y434809D01*
X69888Y434792D01*
X69908Y434777D01*
X69938Y434748D01*
X69969Y434721D01*
X69985Y434702D01*
X70004Y434685D01*
X70030Y434652D01*
X70057Y434621D01*
X70071Y434600D01*
X70086Y434580D01*
X70108Y434544D01*
X70131Y434510D01*
X70142Y434488D01*
X70155Y434466D01*
X70171Y434428D01*
X70190Y434390D01*
X70198Y434367D01*
X70208Y434344D01*
X70219Y434304D01*
X70233Y434264D01*
X70238Y434240D01*
X70244Y434216D01*
X70251Y434175D01*
X70259Y434134D01*
X70260Y434109D01*
X70264Y434084D01*
X70265Y434043D01*
X70267Y434001D01*
X70268Y415000D01*
Y415000D01*
Y415000D01*
X70259Y414867D01*
X70233Y414737D01*
X70205Y414651D01*
X70191Y414610D01*
X70132Y414491D01*
X70058Y414380D01*
X69970Y414280D01*
X69970D01*
Y414280D01*
X69870Y414192D01*
X69759Y414118D01*
X69640Y414059D01*
X69599Y414046D01*
X69514Y414016D01*
X69383Y413991D01*
X69250Y413982D01*
X69250D01*
X69250D01*
X58380D01*
X58380Y413982D01*
X58335Y413985D01*
X58291Y413986D01*
X58269Y413989D01*
X58247Y413991D01*
X58204Y413999D01*
X58160Y414006D01*
X58138Y414012D01*
X58116Y414016D01*
X58074Y414031D01*
X58032Y414043D01*
X58012Y414052D01*
X57990Y414059D01*
X57950Y414079D01*
X57910Y414097D01*
X56134Y415021D01*
X56124Y415027D01*
X56114Y415032D01*
X56068Y415061D01*
X56020Y415090D01*
X56011Y415098D01*
X56002Y415103D01*
X52772Y417472D01*
X52764Y417479D01*
X52755Y417485D01*
X52713Y417521D01*
X52670Y417557D01*
X52663Y417565D01*
X52654Y417573D01*
X49823Y420404D01*
X49815Y420413D01*
X49807Y420420D01*
X49771Y420463D01*
X49735Y420504D01*
X49729Y420514D01*
X49721Y420522D01*
X47353Y423752D01*
X47347Y423761D01*
X47340Y423770D01*
X47312Y423818D01*
X47282Y423864D01*
X47277Y423874D01*
X47271Y423884D01*
X46347Y425660D01*
X46329Y425701D01*
X46309Y425740D01*
X46302Y425761D01*
X46293Y425782D01*
X46281Y425824D01*
X46266Y425867D01*
X46262Y425888D01*
X46256Y425910D01*
X46249Y425954D01*
X46241Y425997D01*
X46239Y426019D01*
X46236Y426041D01*
X46235Y426086D01*
X46232Y426130D01*
X46232Y437001D01*
X46241Y437134D01*
X46266Y437264D01*
X46309Y437391D01*
X46368Y437510D01*
X46442Y437621D01*
X46530Y437721D01*
X46630Y437809D01*
X46741Y437883D01*
X46860Y437942D01*
X46986Y437984D01*
X47117Y438010D01*
X47250Y438019D01*
X66249D01*
X66291Y438016D01*
D02*
G37*
G36*
X110165Y490015D02*
X110209Y490014D01*
X110231Y490011D01*
X110253Y490009D01*
X110296Y490001D01*
X110340Y489994D01*
X110362Y489988D01*
X110384Y489983D01*
X110426Y489969D01*
X110468Y489957D01*
X110489Y489948D01*
X110510Y489941D01*
X110550Y489921D01*
X110590Y489903D01*
X112366Y488979D01*
X112376Y488973D01*
X112386Y488968D01*
X112432Y488939D01*
X112480Y488909D01*
X112489Y488903D01*
X112498Y488896D01*
X115728Y486529D01*
X115736Y486521D01*
X115745Y486515D01*
X115787Y486479D01*
X115830Y486443D01*
X115837Y486435D01*
X115846Y486427D01*
X118677Y483596D01*
X118685Y483587D01*
X118693Y483580D01*
X118729Y483537D01*
X118765Y483495D01*
X118771Y483486D01*
X118778Y483478D01*
X121146Y480248D01*
X121152Y480239D01*
X121159Y480230D01*
X121188Y480182D01*
X121218Y480136D01*
X121223Y480126D01*
X121229Y480116D01*
X122153Y478340D01*
X122171Y478299D01*
X122191Y478260D01*
X122198Y478238D01*
X122207Y478218D01*
X122219Y478176D01*
X122233Y478134D01*
X122238Y478112D01*
X122244Y478090D01*
X122251Y478046D01*
X122260Y478003D01*
X122261Y477981D01*
X122264Y477959D01*
X122265Y477914D01*
X122268Y477870D01*
Y466999D01*
X122260Y466866D01*
X122233Y466736D01*
X122191Y466610D01*
X122132Y466490D01*
X122058Y466379D01*
X121970Y466279D01*
X121870Y466191D01*
X121759Y466117D01*
X121640Y466059D01*
X121514Y466016D01*
X121383Y465990D01*
X121250Y465981D01*
X102251D01*
X102251Y465981D01*
X102209Y465984D01*
X102168Y465984D01*
X102143Y465988D01*
X102118Y465990D01*
X102077Y465998D01*
X102036Y466004D01*
X102012Y466011D01*
X101987Y466016D01*
X101947Y466029D01*
X101908Y466040D01*
X101885Y466050D01*
X101861Y466059D01*
X101823Y466077D01*
X101786Y466093D01*
X101764Y466106D01*
X101742Y466117D01*
X101707Y466141D01*
X101671Y466162D01*
X101652Y466177D01*
X101631Y466191D01*
X101600Y466219D01*
X101567Y466245D01*
X101550Y466263D01*
X101531Y466279D01*
X101503Y466311D01*
X101474Y466340D01*
X101460Y466361D01*
X101443Y466379D01*
X101420Y466414D01*
X101395Y466447D01*
X101383Y466469D01*
X101369Y466490D01*
X101350Y466527D01*
X101330Y466564D01*
X101130Y466988D01*
X100624Y467745D01*
X99997Y468372D01*
X99239Y468878D01*
X98815Y469079D01*
X98779Y469099D01*
X98742Y469117D01*
X98721Y469131D01*
X98699Y469143D01*
X98666Y469168D01*
X98631Y469191D01*
X98612Y469208D01*
X98592Y469223D01*
X98562Y469252D01*
X98531Y469279D01*
X98514Y469298D01*
X98496Y469315D01*
X98470Y469348D01*
X98443Y469379D01*
X98429Y469400D01*
X98414Y469420D01*
X98392Y469456D01*
X98369Y469490D01*
X98358Y469512D01*
X98345Y469534D01*
X98329Y469572D01*
X98310Y469609D01*
X98302Y469633D01*
X98292Y469656D01*
X98281Y469696D01*
X98267Y469736D01*
X98262Y469760D01*
X98256Y469784D01*
X98250Y469825D01*
X98241Y469866D01*
X98240Y469892D01*
X98236Y469916D01*
X98235Y469957D01*
X98233Y469999D01*
X98232Y489000D01*
Y489000D01*
Y489000D01*
X98240Y489133D01*
X98266Y489263D01*
X98295Y489349D01*
X98309Y489390D01*
X98368Y489509D01*
X98442Y489620D01*
X98530Y489720D01*
X98530D01*
Y489720D01*
X98630Y489808D01*
X98741Y489882D01*
X98860Y489941D01*
X98901Y489954D01*
X98986Y489983D01*
X99117Y490009D01*
X99250Y490018D01*
X99250D01*
X99250D01*
X110120D01*
X110165Y490015D01*
D02*
G37*
G36*
X69384Y490009D02*
X69514Y489983D01*
X69640Y489941D01*
X69760Y489882D01*
X69871Y489808D01*
X69971Y489720D01*
X70059Y489620D01*
X70133Y489509D01*
X70191Y489390D01*
X70234Y489263D01*
X70260Y489133D01*
X70269Y489000D01*
Y470001D01*
Y470001D01*
X70266Y469959D01*
X70266Y469918D01*
X70262Y469893D01*
X70260Y469868D01*
X70252Y469827D01*
X70246Y469786D01*
X70239Y469762D01*
X70234Y469737D01*
X70221Y469698D01*
X70209Y469658D01*
X70200Y469635D01*
X70191Y469611D01*
X70173Y469574D01*
X70156Y469536D01*
X70144Y469514D01*
X70133Y469492D01*
X70109Y469457D01*
X70088Y469421D01*
X70072Y469402D01*
X70059Y469381D01*
X70031Y469350D01*
X70005Y469317D01*
X69987Y469300D01*
X69971Y469281D01*
X69939Y469253D01*
X69910Y469224D01*
X69889Y469210D01*
X69871Y469193D01*
X69836Y469170D01*
X69803Y469145D01*
X69781Y469133D01*
X69760Y469119D01*
X69722Y469101D01*
X69686Y469080D01*
X69262Y468880D01*
X68505Y468374D01*
X67878Y467747D01*
X67372Y466989D01*
X67171Y466566D01*
X67151Y466529D01*
X67133Y466492D01*
X67119Y466471D01*
X67106Y466449D01*
X67082Y466416D01*
X67059Y466381D01*
X67042Y466362D01*
X67027Y466342D01*
X66998Y466312D01*
X66971Y466281D01*
X66952Y466264D01*
X66935Y466246D01*
X66902Y466220D01*
X66871Y466193D01*
X66850Y466179D01*
X66830Y466164D01*
X66794Y466142D01*
X66760Y466119D01*
X66738Y466108D01*
X66716Y466095D01*
X66678Y466078D01*
X66641Y466060D01*
X66617Y466052D01*
X66594Y466042D01*
X66554Y466031D01*
X66514Y466017D01*
X66490Y466012D01*
X66466Y466006D01*
X66425Y465999D01*
X66384Y465991D01*
X66358Y465990D01*
X66334Y465986D01*
X66293Y465985D01*
X66251Y465983D01*
X47250Y465982D01*
X47250D01*
X47250D01*
X47117Y465990D01*
X46986Y466017D01*
X46901Y466045D01*
X46860Y466059D01*
X46741Y466118D01*
X46630Y466192D01*
X46530Y466280D01*
Y466280D01*
X46530D01*
X46442Y466380D01*
X46368Y466491D01*
X46309Y466610D01*
X46296Y466651D01*
X46266Y466736D01*
X46241Y466867D01*
X46232Y467000D01*
Y467000D01*
Y467000D01*
Y477870D01*
X46232Y477870D01*
X46235Y477915D01*
X46236Y477959D01*
X46239Y477981D01*
X46241Y478003D01*
X46249Y478046D01*
X46256Y478090D01*
X46262Y478112D01*
X46266Y478134D01*
X46281Y478176D01*
X46293Y478218D01*
X46302Y478238D01*
X46309Y478260D01*
X46329Y478300D01*
X46347Y478340D01*
X47271Y480116D01*
X47277Y480126D01*
X47282Y480136D01*
X47311Y480182D01*
X47340Y480230D01*
X47347Y480239D01*
X47353Y480248D01*
X49721Y483478D01*
X49729Y483486D01*
X49735Y483495D01*
X49771Y483537D01*
X49807Y483580D01*
X49815Y483587D01*
X49823Y483596D01*
X52654Y486427D01*
X52663Y486435D01*
X52670Y486443D01*
X52713Y486479D01*
X52755Y486515D01*
X52764Y486521D01*
X52772Y486529D01*
X56002Y488896D01*
X56011Y488903D01*
X56020Y488909D01*
X56068Y488938D01*
X56114Y488968D01*
X56124Y488973D01*
X56134Y488979D01*
X57910Y489903D01*
X57951Y489921D01*
X57990Y489941D01*
X58011Y489948D01*
X58032Y489957D01*
X58074Y489969D01*
X58116Y489983D01*
X58138Y489988D01*
X58160Y489994D01*
X58204Y490001D01*
X58247Y490009D01*
X58269Y490011D01*
X58291Y490014D01*
X58336Y490015D01*
X58380Y490018D01*
X69251D01*
X69384Y490009D01*
D02*
G37*
D41*
X259750Y343250D02*
D03*
Y360250D02*
D03*
X287500Y253500D02*
D03*
Y236500D02*
D03*
X254750Y217750D02*
D03*
Y234750D02*
D03*
X73660Y141360D02*
D03*
Y158360D02*
D03*
X125730Y140090D02*
D03*
Y157090D02*
D03*
Y233290D02*
D03*
Y216290D02*
D03*
X174640Y159630D02*
D03*
Y142630D02*
D03*
X184150Y212970D02*
D03*
Y195970D02*
D03*
X253500Y140250D02*
D03*
Y157250D02*
D03*
X341630Y242960D02*
D03*
Y259960D02*
D03*
X290000Y124500D02*
D03*
Y141500D02*
D03*
X436000Y306500D02*
D03*
Y323500D02*
D03*
X366000Y259750D02*
D03*
Y242750D02*
D03*
X309000Y343250D02*
D03*
Y360250D02*
D03*
D42*
X291000Y343500D02*
D03*
X279000D02*
D03*
D43*
X326390Y193040D02*
D03*
D44*
X316390Y218040D02*
D03*
X321390D02*
D03*
X326390D02*
D03*
X331390D02*
D03*
X336390D02*
D03*
Y168040D02*
D03*
X331390D02*
D03*
X326390D02*
D03*
X321390D02*
D03*
X316390D02*
D03*
D45*
X351390Y203040D02*
D03*
Y198040D02*
D03*
Y193040D02*
D03*
Y188040D02*
D03*
Y183040D02*
D03*
X301390D02*
D03*
Y188040D02*
D03*
Y193040D02*
D03*
Y198040D02*
D03*
Y203040D02*
D03*
D46*
X270510Y197470D02*
D03*
Y211470D02*
D03*
X191770Y147940D02*
D03*
Y161940D02*
D03*
X125730Y179690D02*
D03*
Y193690D02*
D03*
X270510Y165720D02*
D03*
Y179720D02*
D03*
D47*
X463250Y415250D02*
D03*
Y351250D02*
D03*
D48*
X394250Y415250D02*
D03*
D49*
X417250Y357250D02*
D03*
X394250D02*
D03*
X371250D02*
D03*
D50*
X25500Y179000D02*
D03*
D51*
Y136500D02*
D03*
Y221500D02*
D03*
D52*
X319750Y141000D02*
D03*
X333750D02*
D03*
X154250Y195000D02*
D03*
X168250D02*
D03*
X203820Y196850D02*
D03*
X217820D02*
D03*
X203850Y180340D02*
D03*
X217850D02*
D03*
X90750Y179000D02*
D03*
X104750D02*
D03*
D53*
X235990Y180340D02*
D03*
X252990D02*
D03*
X237880Y196850D02*
D03*
X254880D02*
D03*
X154710Y180340D02*
D03*
X171710D02*
D03*
X321700Y121920D02*
D03*
X338700D02*
D03*
X212000Y305500D02*
D03*
X195000D02*
D03*
D54*
X249750Y459750D02*
D03*
X313750D02*
D03*
D55*
X84250Y452000D02*
D03*
X59250Y477000D02*
D03*
Y427000D02*
D03*
X109250D02*
D03*
Y477000D02*
D03*
D56*
X287500Y38500D02*
D03*
X344750Y95500D02*
D03*
X463250Y237250D02*
D03*
Y186450D02*
D03*
Y161050D02*
D03*
Y135650D02*
D03*
Y110250D02*
D03*
Y84850D02*
D03*
Y59450D02*
D03*
Y34050D02*
D03*
Y211850D02*
D03*
X367500Y38500D02*
D03*
X173500Y395900D02*
D03*
Y421300D02*
D03*
Y446700D02*
D03*
D57*
X287500Y63900D02*
D03*
X463250Y262650D02*
D03*
X367500Y63900D02*
D03*
X173500Y370500D02*
D03*
D58*
X319350Y95500D02*
D03*
D59*
X308900Y305750D02*
D03*
D60*
X260100D02*
D03*
D61*
X331890Y187540D02*
D03*
X320890D02*
D03*
X331890Y198540D02*
D03*
X320890D02*
D03*
D62*
X91250Y141000D02*
D03*
X109500Y140500D02*
D03*
X57000Y452250D02*
D03*
X112000Y453000D02*
D03*
X10500Y116500D02*
D03*
X27250Y116250D02*
D03*
X63500Y216500D02*
D03*
X108500Y233750D02*
D03*
X143500D02*
D03*
X157000Y143000D02*
D03*
X174250Y123250D02*
D03*
X191500Y130250D02*
D03*
X269250Y254250D02*
D03*
X279250Y270500D02*
D03*
X236500Y244750D02*
D03*
X200750Y218250D02*
D03*
X154500Y216750D02*
D03*
X237250Y135250D02*
D03*
X270250Y139750D02*
D03*
X282000Y106750D02*
D03*
X366750Y279000D02*
D03*
X352250Y342000D02*
D03*
X350000Y367000D02*
D03*
X371500Y332000D02*
D03*
X489250Y415250D02*
D03*
X440500Y415500D02*
D03*
X488750Y436500D02*
D03*
X486250Y211750D02*
D03*
X485750Y237250D02*
D03*
X350750Y277250D02*
D03*
X364250Y221250D02*
D03*
X301250Y160250D02*
D03*
X360000Y166000D02*
D03*
X90500Y162500D02*
D03*
X57500Y163000D02*
D03*
X57000Y195000D02*
D03*
X262250Y283250D02*
D03*
X243000Y292750D02*
D03*
X212250Y288000D02*
D03*
X189000Y287750D02*
D03*
X164000Y288250D02*
D03*
X145750Y297750D02*
D03*
X132750Y310250D02*
D03*
X120500Y323250D02*
D03*
X108250Y335000D02*
D03*
X95500Y347000D02*
D03*
X66750Y405750D02*
D03*
X84000Y359000D02*
D03*
X73250Y371750D02*
D03*
X67250Y388750D02*
D03*
X101750Y404250D02*
D03*
X155750Y333250D02*
D03*
X187250Y321250D02*
D03*
X205750Y378500D02*
D03*
X294750Y379000D02*
D03*
X320250Y394750D02*
D03*
X336500Y382500D02*
D03*
X224250Y459750D02*
D03*
X224000Y440500D02*
D03*
X224250Y477250D02*
D03*
X150000Y406750D02*
D03*
X259500Y378000D02*
D03*
X284000Y413000D02*
D03*
X101750Y389250D02*
D03*
X112000Y377250D02*
D03*
X122000Y365750D02*
D03*
X132500Y355500D02*
D03*
X144500Y344500D02*
D03*
X168750Y322000D02*
D03*
X212000Y321750D02*
D03*
X235250Y321000D02*
D03*
X285000Y305000D02*
D03*
X12000Y242250D02*
D03*
X29250Y241750D02*
D03*
X47500D02*
D03*
X43500Y116750D02*
D03*
X63750Y234750D02*
D03*
X62000Y125000D02*
D03*
D63*
X326250Y192750D02*
D03*
M02*
