G04 Layer_Color=32768*
%FSLAX44Y44*%
%MOMM*%
G71*
G01*
G75*
%ADD47C,0.1000*%
%ADD76C,0.0500*%
D47*
X99750Y106750D02*
X109750D01*
X104750Y101750D02*
Y111750D01*
X436000Y75500D02*
X446000D01*
X441000Y70500D02*
Y80500D01*
X405500Y156750D02*
X415500D01*
X410500Y151750D02*
Y161750D01*
X470500Y174000D02*
Y184000D01*
X465500Y179000D02*
X475500D01*
X315500Y67500D02*
X325000D01*
X320250Y62750D02*
Y72250D01*
X325750Y55500D02*
Y79500D01*
X314750Y55500D02*
Y79500D01*
X325750D01*
X314750Y55500D02*
X325750D01*
X393750Y105000D02*
X403750D01*
X398750Y100000D02*
Y110000D01*
X367250Y84750D02*
Y94250D01*
X362500Y89500D02*
X372000D01*
X355250Y84000D02*
X379250D01*
X355250Y95000D02*
X379250D01*
Y84000D02*
Y95000D01*
X355250Y84000D02*
Y95000D01*
X266250Y55750D02*
Y65250D01*
X261500Y60500D02*
X271000D01*
X254250Y55000D02*
X278250D01*
X254250Y66000D02*
X278250D01*
Y55000D02*
Y66000D01*
X254250Y55000D02*
Y66000D01*
X308000Y124750D02*
X318000D01*
X313000Y119750D02*
Y129750D01*
X352250Y124750D02*
X362250D01*
X357250Y119750D02*
Y129750D01*
X316000Y262250D02*
X326000D01*
X321000Y257250D02*
Y267250D01*
X148750Y266500D02*
Y277500D01*
X172750Y266500D02*
Y277500D01*
X148750D02*
X172750D01*
X148750Y266500D02*
X172750D01*
X156000Y272000D02*
X165500D01*
X160750Y267250D02*
Y276750D01*
X239500Y267750D02*
X250500D01*
X239500Y291750D02*
X250500D01*
X239500Y267750D02*
Y291750D01*
X250500Y267750D02*
Y291750D01*
X245000Y275000D02*
Y284500D01*
X240250Y279750D02*
X249750D01*
X76750Y194250D02*
Y205250D01*
X100750Y194250D02*
Y205250D01*
X76750D02*
X100750D01*
X76750Y194250D02*
X100750D01*
X84000Y199750D02*
X93500D01*
X88750Y195000D02*
Y204500D01*
X330000Y211500D02*
Y222500D01*
X306000Y211500D02*
Y222500D01*
Y211500D02*
X330000Y211500D01*
X306000Y222500D02*
X330000D01*
X313250Y217000D02*
X322750D01*
X318000Y212250D02*
Y221750D01*
X190000Y220500D02*
X201000D01*
X190000Y244500D02*
X201000D01*
X190000Y220500D02*
Y244500D01*
X201000Y220500D02*
Y244500D01*
X195500Y227750D02*
Y237250D01*
X190750Y232500D02*
X200250D01*
X128750Y223250D02*
X139750D01*
X128750Y247250D02*
X139750D01*
X128750Y223250D02*
Y247250D01*
X139750Y223250D02*
Y247250D01*
X134250Y230500D02*
Y240000D01*
X129500Y235250D02*
X139000D01*
X1000Y194750D02*
Y204750D01*
X-4000Y199750D02*
X6000D01*
X205750Y187250D02*
X216750D01*
X205750Y211250D02*
X216750D01*
X205750Y187250D02*
Y211250D01*
X216750Y187250D02*
Y211250D01*
X211250Y194500D02*
Y204000D01*
X206500Y199250D02*
X216000D01*
X129250Y253750D02*
X140250D01*
X129250Y277750D02*
X140250D01*
X129250Y253750D02*
Y277750D01*
X140250Y253750D02*
Y277750D01*
X134750Y261000D02*
Y270500D01*
X130000Y265750D02*
X139500D01*
X239500Y237000D02*
X250500D01*
X239500Y261000D02*
X250500D01*
X239500Y237000D02*
Y261000D01*
X250500Y237000D02*
Y261000D01*
X245000Y244250D02*
Y253750D01*
X240250Y249000D02*
X249750D01*
D76*
X89250Y91150D02*
Y122350D01*
X120250Y91150D02*
Y122350D01*
X89250D02*
X120250D01*
X89250Y91150D02*
X120250D01*
X450000Y54300D02*
Y96700D01*
X432000Y54300D02*
X450000D01*
X432000Y96700D02*
X450000D01*
X432000Y54300D02*
Y96700D01*
X394000Y139750D02*
Y173750D01*
X427000Y139750D02*
Y173750D01*
X394000Y139750D02*
X427000D01*
X394000Y173750D02*
X427000D01*
X454900Y194500D02*
X486100D01*
X454900Y163500D02*
X486100D01*
Y194500D01*
X454900Y163500D02*
Y194500D01*
X391500Y126000D02*
X406000D01*
X391500Y84000D02*
Y126000D01*
Y84000D02*
X406000D01*
Y126000D01*
X297500Y109150D02*
Y140350D01*
X328500Y109150D02*
Y140350D01*
X297500D02*
X328500D01*
X297500Y109150D02*
X328500D01*
X341750Y109150D02*
Y140350D01*
X372750Y109150D02*
Y140350D01*
X341750D02*
X372750D01*
X341750Y109150D02*
X372750D01*
X286750Y228000D02*
Y296500D01*
X355250Y228000D02*
Y296500D01*
X286750D02*
X355250D01*
X286750Y228000D02*
X355250D01*
X-95000Y149250D02*
Y250250D01*
Y149250D02*
X52000D01*
X-95000Y250250D02*
X52000D01*
Y149250D02*
Y250250D01*
M02*
