G04 Layer_Physical_Order=1*
G04 Layer_Color=255*
%FSLAX44Y44*%
%MOMM*%
G71*
G01*
G75*
%ADD10R,1.0000X1.1000*%
%ADD11R,0.6000X0.9000*%
%ADD12R,2.8000X2.8000*%
%ADD13O,0.3000X0.9000*%
%ADD14O,0.9000X0.3000*%
%ADD15R,0.9000X0.8000*%
%ADD16R,2.4000X2.6000*%
%ADD17R,3.3000X2.4000*%
%ADD18R,1.0000X2.4000*%
%ADD19R,5.0000X1.0000*%
%ADD20R,5.0000X1.4000*%
%ADD21R,0.8000X0.9000*%
%ADD22R,1.1000X1.0000*%
%ADD23R,2.6000X2.4000*%
%ADD24C,1.8000*%
%ADD25C,0.2000*%
%ADD26C,0.2540*%
%ADD27C,0.3000*%
%ADD28C,0.6000*%
%ADD29C,1.0000*%
%ADD30C,0.8000*%
%ADD31R,1.1250X1.0250*%
%ADD32C,1.5000*%
%ADD33R,1.5000X1.5000*%
%ADD34R,1.5000X1.5000*%
%ADD35C,1.4000*%
%ADD36P,1.5154X8X22.5*%
%ADD37C,0.5000*%
%ADD38C,1.2700*%
%ADD39C,0.6000*%
G36*
X490114Y498622D02*
X492426Y497665D01*
X494506Y496275D01*
X496275Y494506D01*
X497665Y492426D01*
X498622Y490114D01*
X499110Y487661D01*
Y486410D01*
Y12700D01*
Y11449D01*
X498622Y8996D01*
X497665Y6684D01*
X496275Y4604D01*
X494506Y2835D01*
X492426Y1445D01*
X490114Y488D01*
X487661Y0D01*
X11449D01*
X8996Y488D01*
X6684Y1445D01*
X4604Y2835D01*
X2835Y4604D01*
X1445Y6684D01*
X488Y8996D01*
X0Y11449D01*
Y12700D01*
Y126500D01*
X500Y126910D01*
X24230D01*
Y136500D01*
Y146090D01*
X500D01*
X0Y146500D01*
Y171551D01*
X500Y171961D01*
X25339D01*
X25500Y171940D01*
X66600D01*
Y158360D01*
X66621Y158199D01*
Y152860D01*
X66776Y152080D01*
X67218Y151418D01*
X67880Y150976D01*
X68660Y150821D01*
X78660D01*
X79440Y150976D01*
X80102Y151418D01*
X80544Y152080D01*
X80699Y152860D01*
Y158199D01*
X80720Y158360D01*
Y171940D01*
X89450D01*
X91277Y172180D01*
X91955Y172461D01*
X94750D01*
X95530Y172616D01*
X96192Y173058D01*
X96634Y173720D01*
X96789Y174500D01*
Y183500D01*
X96634Y184280D01*
X96192Y184942D01*
X95530Y185384D01*
X94750Y185539D01*
X92194D01*
X91347Y185890D01*
X89520Y186130D01*
X88988Y186060D01*
X25500D01*
X25339Y186039D01*
X500D01*
X0Y186450D01*
Y211500D01*
X500Y211910D01*
X24230D01*
Y221500D01*
Y231090D01*
X500D01*
X0Y231500D01*
Y486410D01*
Y487661D01*
X488Y490114D01*
X1445Y492426D01*
X2835Y494506D01*
X4604Y496275D01*
X6684Y497665D01*
X8996Y498622D01*
X11449Y499110D01*
X487661D01*
X490114Y498622D01*
D02*
G37*
%LPC*%
G36*
X241490Y187379D02*
X230490D01*
X229710Y187224D01*
X229048Y186782D01*
X228606Y186120D01*
X228470Y185438D01*
X223770D01*
X223734Y185620D01*
X223292Y186282D01*
X222630Y186724D01*
X221850Y186879D01*
X213850D01*
X213070Y186724D01*
X212408Y186282D01*
X211966Y185620D01*
X211811Y184840D01*
Y175840D01*
X211966Y175060D01*
X212408Y174398D01*
X213070Y173956D01*
X213850Y173801D01*
X221850D01*
X222630Y173956D01*
X223292Y174398D01*
X223734Y175060D01*
X223770Y175242D01*
X228470D01*
X228606Y174560D01*
X229048Y173898D01*
X229710Y173456D01*
X230490Y173301D01*
X241490D01*
X242270Y173456D01*
X242932Y173898D01*
X243374Y174560D01*
X243529Y175340D01*
Y185340D01*
X243374Y186120D01*
X242932Y186782D01*
X242270Y187224D01*
X241490Y187379D01*
D02*
G37*
G36*
X259750Y225289D02*
X249750D01*
X248970Y225134D01*
X248308Y224692D01*
X247866Y224030D01*
X247711Y223250D01*
Y212250D01*
X247866Y211470D01*
X248308Y210808D01*
X248970Y210366D01*
X249652Y210230D01*
Y203889D01*
X249380D01*
X248600Y203734D01*
X247938Y203292D01*
X247496Y202630D01*
X247341Y201850D01*
Y191850D01*
X247496Y191070D01*
X247938Y190408D01*
X248600Y189966D01*
X249380Y189811D01*
X260380D01*
X261160Y189966D01*
X261822Y190408D01*
X262264Y191070D01*
X262400Y191752D01*
X264981D01*
X265230Y191586D01*
X266010Y191431D01*
X275010D01*
X275790Y191586D01*
X276452Y192028D01*
X276894Y192690D01*
X277049Y193470D01*
Y194136D01*
X282479D01*
X285933Y190683D01*
X287014Y189960D01*
X287360Y189891D01*
X287778Y188513D01*
X282319Y183054D01*
X277049D01*
Y183720D01*
X276894Y184500D01*
X276452Y185162D01*
X275790Y185604D01*
X275010Y185759D01*
X266010D01*
X265230Y185604D01*
X264568Y185162D01*
X264338Y184818D01*
X260529D01*
Y185340D01*
X260374Y186120D01*
X259932Y186782D01*
X259270Y187224D01*
X258490Y187379D01*
X247490D01*
X246710Y187224D01*
X246048Y186782D01*
X245606Y186120D01*
X245451Y185340D01*
Y175340D01*
X245606Y174560D01*
X246048Y173898D01*
X246710Y173456D01*
X247490Y173301D01*
X248402D01*
Y164770D01*
X247720Y164634D01*
X247058Y164192D01*
X246616Y163530D01*
X246461Y162750D01*
Y151750D01*
X246616Y150970D01*
X247058Y150308D01*
X247720Y149866D01*
X248500Y149711D01*
X258500D01*
X259280Y149866D01*
X259942Y150308D01*
X260384Y150970D01*
X260539Y151750D01*
Y162750D01*
X260384Y163530D01*
X259942Y164192D01*
X259280Y164634D01*
X258598Y164770D01*
Y173322D01*
X259270Y173456D01*
X259932Y173898D01*
X260374Y174560D01*
X260386Y174622D01*
X264338D01*
X264568Y174278D01*
X265230Y173836D01*
X266010Y173681D01*
X275010D01*
X275790Y173836D01*
X276452Y174278D01*
X276894Y174940D01*
X277049Y175720D01*
Y176386D01*
X283700D01*
X284976Y176640D01*
X285161Y176764D01*
X286431Y176085D01*
Y149039D01*
X285000D01*
X284220Y148884D01*
X283558Y148442D01*
X283116Y147780D01*
X282961Y147000D01*
Y136000D01*
X283116Y135220D01*
X283558Y134558D01*
X284220Y134116D01*
X285000Y133961D01*
X295000D01*
X295780Y134116D01*
X296442Y134558D01*
X296884Y135220D01*
X297039Y136000D01*
Y147000D01*
X296884Y147780D01*
X296442Y148442D01*
X295780Y148884D01*
X295000Y149039D01*
X293569D01*
Y177522D01*
X296028Y179981D01*
X296668D01*
X297024Y179743D01*
X298390Y179471D01*
X304390D01*
X305756Y179743D01*
X306913Y180517D01*
X307687Y181674D01*
X307959Y183040D01*
X307687Y184406D01*
X306929Y185540D01*
X307687Y186674D01*
X307959Y188040D01*
X307687Y189406D01*
X306929Y190540D01*
X307687Y191674D01*
X307959Y193040D01*
X307687Y194406D01*
X307235Y195082D01*
X307303Y195127D01*
X308196Y196464D01*
X308256Y196770D01*
X301390D01*
X293632D01*
X293307Y196374D01*
X289671D01*
X286217Y199827D01*
X285136Y200550D01*
X283860Y200804D01*
X277049D01*
Y201470D01*
X276894Y202250D01*
X276452Y202912D01*
X275790Y203354D01*
X275010Y203509D01*
X266010D01*
X265230Y203354D01*
X264568Y202912D01*
X264126Y202250D01*
X264066Y201948D01*
X262400D01*
X262264Y202630D01*
X261822Y203292D01*
X261160Y203734D01*
X260380Y203889D01*
X259848D01*
Y210230D01*
X260530Y210366D01*
X261192Y210808D01*
X261634Y211470D01*
X261789Y212250D01*
Y223250D01*
X261634Y224030D01*
X261192Y224692D01*
X260530Y225134D01*
X259750Y225289D01*
D02*
G37*
G36*
X342980Y191770D02*
X327660D01*
Y176450D01*
X340390D01*
X341381Y176647D01*
X342221Y177209D01*
X342783Y178049D01*
X342980Y179040D01*
Y191770D01*
D02*
G37*
G36*
X189150Y203509D02*
X179150D01*
X178370Y203354D01*
X177708Y202912D01*
X177266Y202250D01*
X177156Y201698D01*
X168290D01*
X167494Y201539D01*
X164250D01*
X163470Y201384D01*
X162808Y200942D01*
X162366Y200280D01*
X162211Y199500D01*
Y195773D01*
X162173Y195580D01*
X162211Y195387D01*
Y190500D01*
X162366Y189720D01*
X162808Y189058D01*
X163470Y188616D01*
X164250Y188461D01*
X165086D01*
X165399Y187286D01*
X165380Y187191D01*
X164768Y186782D01*
X164326Y186120D01*
X164171Y185340D01*
Y175340D01*
X164326Y174560D01*
X164768Y173898D01*
X165430Y173456D01*
X166210Y173301D01*
X169542D01*
Y167150D01*
X168860Y167014D01*
X168198Y166572D01*
X167756Y165910D01*
X167601Y165130D01*
Y154130D01*
X167756Y153350D01*
X168198Y152688D01*
X168860Y152246D01*
X169640Y152091D01*
X179640D01*
X180420Y152246D01*
X181082Y152688D01*
X181524Y153350D01*
X181679Y154130D01*
Y165130D01*
X181524Y165910D01*
X181082Y166572D01*
X180420Y167014D01*
X179738Y167150D01*
Y175242D01*
X186672D01*
Y167860D01*
X186490Y167824D01*
X185828Y167382D01*
X185386Y166720D01*
X185231Y165940D01*
Y157940D01*
X185386Y157160D01*
X185828Y156498D01*
X186490Y156056D01*
X187270Y155901D01*
X196270D01*
X197050Y156056D01*
X197712Y156498D01*
X198154Y157160D01*
X198309Y157940D01*
Y165940D01*
X198154Y166720D01*
X197712Y167382D01*
X197050Y167824D01*
X196868Y167860D01*
Y174566D01*
X198138Y174802D01*
X198408Y174398D01*
X199070Y173956D01*
X199850Y173801D01*
X207850D01*
X208630Y173956D01*
X209292Y174398D01*
X209734Y175060D01*
X209889Y175840D01*
Y184840D01*
X209734Y185620D01*
X209292Y186282D01*
X208630Y186724D01*
X207850Y186879D01*
X199850D01*
X199070Y186724D01*
X198408Y186282D01*
X197966Y185620D01*
X197930Y185438D01*
X179230D01*
X179094Y186120D01*
X178652Y186782D01*
X177990Y187224D01*
X177210Y187379D01*
X173374D01*
X173061Y188554D01*
X173080Y188649D01*
X173692Y189058D01*
X173962Y189463D01*
X177418D01*
X177708Y189028D01*
X178370Y188586D01*
X179150Y188431D01*
X189150D01*
X189930Y188586D01*
X190592Y189028D01*
X191034Y189690D01*
X191189Y190470D01*
Y190872D01*
X198432D01*
X199040Y190466D01*
X199820Y190311D01*
X207820D01*
X208600Y190466D01*
X209262Y190908D01*
X209704Y191570D01*
X209859Y192350D01*
Y201350D01*
X209704Y202130D01*
X209262Y202792D01*
X208600Y203234D01*
X207820Y203389D01*
X199820D01*
X199040Y203234D01*
X198378Y202792D01*
X197936Y202130D01*
X197781Y201350D01*
Y201068D01*
X191189D01*
Y201470D01*
X191034Y202250D01*
X190592Y202912D01*
X189930Y203354D01*
X189150Y203509D01*
D02*
G37*
G36*
X292500Y244039D02*
X282500D01*
X281720Y243884D01*
X281058Y243442D01*
X280616Y242780D01*
X280461Y242000D01*
Y231000D01*
X280616Y230220D01*
X281058Y229558D01*
X281720Y229116D01*
X282500Y228961D01*
X283931D01*
Y206500D01*
X284203Y205134D01*
X284977Y203977D01*
X288437Y200517D01*
X289594Y199743D01*
X290960Y199471D01*
X292139Y199706D01*
X293307D01*
X293632Y199310D01*
X301390D01*
X308256D01*
X308196Y199616D01*
X307303Y200953D01*
X307235Y200998D01*
X307687Y201674D01*
X307959Y203040D01*
X307687Y204406D01*
X306913Y205563D01*
X305756Y206337D01*
X304390Y206609D01*
X298390D01*
X297211Y206374D01*
X292673D01*
X291069Y207978D01*
Y228961D01*
X292500D01*
X293280Y229116D01*
X293942Y229558D01*
X294384Y230220D01*
X294539Y231000D01*
Y242000D01*
X294384Y242780D01*
X293942Y243442D01*
X293280Y243884D01*
X292500Y244039D01*
D02*
G37*
G36*
X340390Y209630D02*
X327660D01*
Y194310D01*
X342980D01*
Y207040D01*
X342783Y208031D01*
X342221Y208871D01*
X341381Y209433D01*
X340390Y209630D01*
D02*
G37*
G36*
X325120D02*
X312390D01*
X311399Y209433D01*
X310559Y208871D01*
X309997Y208031D01*
X309800Y207040D01*
Y194310D01*
X325120D01*
Y209630D01*
D02*
G37*
G36*
Y191770D02*
X309800D01*
Y179040D01*
X309997Y178049D01*
X310559Y177209D01*
X311399Y176647D01*
X312390Y176450D01*
X325120D01*
Y191770D01*
D02*
G37*
G36*
X269240Y164450D02*
X263420D01*
Y161720D01*
X263617Y160729D01*
X264179Y159889D01*
X265019Y159327D01*
X266010Y159130D01*
X269240D01*
Y164450D01*
D02*
G37*
G36*
X354390Y206609D02*
X348390D01*
X347024Y206337D01*
X345867Y205563D01*
X345093Y204406D01*
X344821Y203040D01*
X345093Y201674D01*
X345851Y200540D01*
X345093Y199406D01*
X344821Y198040D01*
X345093Y196674D01*
X345851Y195540D01*
X345093Y194406D01*
X344821Y193040D01*
X345093Y191674D01*
X345851Y190540D01*
X345093Y189406D01*
X344821Y188040D01*
X345093Y186674D01*
X345851Y185540D01*
X345093Y184406D01*
X344821Y183040D01*
X345093Y181674D01*
X345867Y180517D01*
X347024Y179743D01*
X348390Y179471D01*
X354390D01*
X355569Y179706D01*
X361079D01*
X382778Y158007D01*
X382291Y156834D01*
X342881D01*
X339724Y159991D01*
Y163861D01*
X339959Y165040D01*
Y171040D01*
X339687Y172406D01*
X338913Y173563D01*
X337756Y174337D01*
X336390Y174609D01*
X335024Y174337D01*
X333890Y173579D01*
X332756Y174337D01*
X331390Y174609D01*
X330024Y174337D01*
X328890Y173579D01*
X327756Y174337D01*
X326390Y174609D01*
X325024Y174337D01*
X323890Y173579D01*
X322756Y174337D01*
X321390Y174609D01*
X320024Y174337D01*
X318890Y173579D01*
X317756Y174337D01*
X316390Y174609D01*
X315024Y174337D01*
X313867Y173563D01*
X313093Y172406D01*
X312821Y171040D01*
Y165040D01*
X313093Y163674D01*
X313331Y163318D01*
Y159907D01*
X300837Y147413D01*
X300174Y146420D01*
X299941Y145250D01*
X299941Y145250D01*
Y106767D01*
X286587Y93413D01*
X285924Y92421D01*
X285691Y91250D01*
X285691Y91250D01*
Y73439D01*
X280000D01*
X279220Y73284D01*
X278558Y72842D01*
X278116Y72180D01*
X277961Y71400D01*
Y56400D01*
X278116Y55620D01*
X278558Y54958D01*
X279220Y54516D01*
X280000Y54361D01*
X295000D01*
X295780Y54516D01*
X296442Y54958D01*
X296884Y55620D01*
X297039Y56400D01*
Y71400D01*
X296884Y72180D01*
X296442Y72842D01*
X295780Y73284D01*
X295000Y73439D01*
X291809D01*
Y89983D01*
X305163Y103337D01*
X305163Y103337D01*
X305826Y104330D01*
X306059Y105500D01*
X306059Y105500D01*
Y143983D01*
X317158Y155082D01*
X318331Y154596D01*
Y147539D01*
X315750D01*
X314970Y147384D01*
X314308Y146942D01*
X313866Y146280D01*
X313711Y145500D01*
Y136500D01*
X313866Y135720D01*
X314308Y135058D01*
X314970Y134616D01*
X315750Y134461D01*
X318871D01*
Y128959D01*
X316200D01*
X315420Y128804D01*
X314758Y128362D01*
X314316Y127700D01*
X314161Y126920D01*
Y116920D01*
X314316Y116140D01*
X314758Y115478D01*
X315420Y115036D01*
X316200Y114881D01*
X318641D01*
Y106667D01*
X317837Y105863D01*
X317287Y105039D01*
X311850D01*
X311070Y104884D01*
X310408Y104442D01*
X309966Y103780D01*
X309811Y103000D01*
Y88000D01*
X309966Y87220D01*
X310408Y86558D01*
X311070Y86116D01*
X311850Y85961D01*
X326850D01*
X327630Y86116D01*
X328292Y86558D01*
X328734Y87220D01*
X328889Y88000D01*
Y103000D01*
X328734Y103780D01*
X328292Y104442D01*
X327630Y104884D01*
X326850Y105039D01*
X325055D01*
X324759Y105400D01*
Y114881D01*
X327200D01*
X327980Y115036D01*
X328642Y115478D01*
X329084Y116140D01*
X329239Y116920D01*
Y126920D01*
X329084Y127700D01*
X328642Y128362D01*
X327980Y128804D01*
X327200Y128959D01*
X324989D01*
Y134922D01*
X325192Y135058D01*
X325634Y135720D01*
X325789Y136500D01*
Y145500D01*
X325634Y146280D01*
X325192Y146942D01*
X324530Y147384D01*
X324449Y147400D01*
Y150816D01*
X325622Y151302D01*
X328448Y148476D01*
X328308Y146942D01*
X327866Y146280D01*
X327711Y145500D01*
Y136500D01*
X327866Y135720D01*
X328308Y135058D01*
X328970Y134616D01*
X329750Y134461D01*
X331113D01*
X335345Y130229D01*
X334926Y128959D01*
X333200D01*
X332420Y128804D01*
X331758Y128362D01*
X331316Y127700D01*
X331161Y126920D01*
Y116920D01*
X331316Y116140D01*
X331758Y115478D01*
X332420Y115036D01*
X333200Y114881D01*
X335641D01*
Y109050D01*
X335641Y109050D01*
X335874Y107879D01*
X336537Y106887D01*
X339090Y104335D01*
X339007Y103067D01*
X337975Y102275D01*
X336452Y100291D01*
X335495Y97980D01*
X335168Y95500D01*
X335495Y93020D01*
X336452Y90709D01*
X337975Y88725D01*
X339959Y87202D01*
X342270Y86245D01*
X344750Y85918D01*
X347230Y86245D01*
X349541Y87202D01*
X351525Y88725D01*
X353048Y90709D01*
X354006Y93020D01*
X354332Y95500D01*
X354006Y97980D01*
X353048Y100291D01*
X351525Y102275D01*
X349541Y103798D01*
X347283Y104734D01*
X347163Y104913D01*
X347163Y104913D01*
X341759Y110317D01*
Y114881D01*
X344200D01*
X344980Y115036D01*
X345642Y115478D01*
X346084Y116140D01*
X346239Y116920D01*
Y126920D01*
X346084Y127700D01*
X345642Y128362D01*
X344980Y128804D01*
X344200Y128959D01*
X341759D01*
Y131200D01*
X341526Y132371D01*
X340863Y133363D01*
X340863Y133363D01*
X339190Y135036D01*
X339192Y135058D01*
X339634Y135720D01*
X339789Y136500D01*
Y144434D01*
X340711Y145191D01*
X340712Y145191D01*
X351483D01*
X364691Y131983D01*
Y73439D01*
X360000D01*
X359220Y73284D01*
X358558Y72842D01*
X358116Y72180D01*
X357961Y71400D01*
Y56400D01*
X358116Y55620D01*
X358558Y54958D01*
X359220Y54516D01*
X360000Y54361D01*
X375000D01*
X375780Y54516D01*
X376442Y54958D01*
X376884Y55620D01*
X377039Y56400D01*
Y71400D01*
X376884Y72180D01*
X376442Y72842D01*
X375780Y73284D01*
X375000Y73439D01*
X370809D01*
Y133250D01*
X370576Y134420D01*
X369913Y135413D01*
X369913Y135413D01*
X356333Y148993D01*
X356819Y150166D01*
X382869D01*
X412166Y120869D01*
Y58500D01*
X412420Y57224D01*
X413143Y56143D01*
X437593Y31693D01*
X438674Y30970D01*
X439950Y30716D01*
X454348D01*
X454952Y29259D01*
X456475Y27274D01*
X458459Y25752D01*
X460770Y24794D01*
X463250Y24468D01*
X465730Y24794D01*
X468041Y25752D01*
X470025Y27274D01*
X471548Y29259D01*
X472505Y31570D01*
X472832Y34050D01*
X472505Y36530D01*
X471548Y38841D01*
X470025Y40825D01*
X468041Y42348D01*
X465730Y43306D01*
X463250Y43632D01*
X460770Y43306D01*
X458459Y42348D01*
X456475Y40825D01*
X454952Y38841D01*
X454348Y37384D01*
X441331D01*
X418834Y59881D01*
Y66491D01*
X420007Y66978D01*
X429893Y57092D01*
X430974Y56370D01*
X432250Y56116D01*
X454348D01*
X454952Y54659D01*
X456475Y52674D01*
X458459Y51152D01*
X460770Y50195D01*
X463250Y49868D01*
X465730Y50195D01*
X468041Y51152D01*
X470025Y52674D01*
X471548Y54659D01*
X472505Y56970D01*
X472832Y59450D01*
X472505Y61930D01*
X471548Y64241D01*
X470025Y66225D01*
X468041Y67748D01*
X465730Y68706D01*
X463250Y69032D01*
X460770Y68706D01*
X458459Y67748D01*
X456475Y66225D01*
X454952Y64241D01*
X454348Y62784D01*
X433631D01*
X424334Y72081D01*
Y121844D01*
X425604Y122465D01*
X426166Y122027D01*
Y90000D01*
X426420Y88724D01*
X427142Y87642D01*
X432293Y82493D01*
X433374Y81770D01*
X434650Y81516D01*
X454348D01*
X454952Y80059D01*
X456475Y78074D01*
X458459Y76552D01*
X460770Y75595D01*
X463250Y75268D01*
X465730Y75595D01*
X468041Y76552D01*
X470025Y78074D01*
X471548Y80059D01*
X472505Y82370D01*
X472832Y84850D01*
X472505Y87330D01*
X471548Y89641D01*
X470025Y91625D01*
X468041Y93148D01*
X465730Y94106D01*
X463250Y94432D01*
X460770Y94106D01*
X458459Y93148D01*
X456475Y91625D01*
X454952Y89641D01*
X454348Y88184D01*
X436031D01*
X432834Y91381D01*
Y120792D01*
X434007Y121278D01*
X447393Y107893D01*
X448474Y107170D01*
X449750Y106916D01*
X454348D01*
X454952Y105459D01*
X456475Y103475D01*
X458459Y101952D01*
X460770Y100995D01*
X463250Y100668D01*
X465730Y100995D01*
X468041Y101952D01*
X470025Y103475D01*
X471548Y105459D01*
X472505Y107770D01*
X472832Y110250D01*
X472505Y112730D01*
X471548Y115041D01*
X470025Y117025D01*
X468041Y118548D01*
X465730Y119506D01*
X463250Y119832D01*
X460770Y119506D01*
X458459Y118548D01*
X456475Y117025D01*
X454952Y115041D01*
X454348Y113584D01*
X451131D01*
X372114Y192601D01*
X372532Y193979D01*
X372761Y194024D01*
X433493Y133293D01*
X434574Y132570D01*
X435850Y132316D01*
X454348D01*
X454952Y130859D01*
X456475Y128875D01*
X458459Y127352D01*
X460770Y126395D01*
X463250Y126068D01*
X465730Y126395D01*
X468041Y127352D01*
X470025Y128875D01*
X471548Y130859D01*
X472505Y133170D01*
X472832Y135650D01*
X472505Y138130D01*
X471548Y140441D01*
X470025Y142425D01*
X468041Y143948D01*
X465730Y144906D01*
X463250Y145232D01*
X460770Y144906D01*
X458459Y143948D01*
X456475Y142425D01*
X454952Y140441D01*
X454348Y138984D01*
X437231D01*
X419769Y156446D01*
X420295Y157716D01*
X454348D01*
X454952Y156259D01*
X456475Y154275D01*
X458459Y152752D01*
X460770Y151795D01*
X463250Y151468D01*
X465730Y151795D01*
X468041Y152752D01*
X470025Y154275D01*
X471548Y156259D01*
X472505Y158570D01*
X472832Y161050D01*
X472505Y163530D01*
X471548Y165841D01*
X470025Y167825D01*
X468041Y169348D01*
X465730Y170306D01*
X463250Y170632D01*
X460770Y170306D01*
X458459Y169348D01*
X456475Y167825D01*
X454952Y165841D01*
X454348Y164384D01*
X421081D01*
X380067Y205397D01*
X378986Y206120D01*
X377710Y206374D01*
X355569D01*
X354390Y206609D01*
D02*
G37*
G36*
X196270Y154530D02*
X193040D01*
Y149210D01*
X198860D01*
Y151940D01*
X198663Y152931D01*
X198101Y153771D01*
X197261Y154333D01*
X196270Y154530D01*
D02*
G37*
G36*
X277600Y164450D02*
X271780D01*
Y159130D01*
X275010D01*
X276001Y159327D01*
X276841Y159889D01*
X277403Y160729D01*
X277600Y161720D01*
Y164450D01*
D02*
G37*
G36*
X130730Y223829D02*
X120730D01*
X119950Y223674D01*
X119288Y223232D01*
X118846Y222570D01*
X118691Y221790D01*
Y216451D01*
X118670Y216290D01*
Y193690D01*
X118910Y191863D01*
X119191Y191185D01*
Y189690D01*
X119346Y188910D01*
X119788Y188248D01*
X120450Y187806D01*
X121230Y187651D01*
X122102D01*
X122200Y187575D01*
X123591Y186999D01*
X123339Y185729D01*
X121230D01*
X120450Y185574D01*
X119788Y185132D01*
X119346Y184470D01*
X119191Y183690D01*
Y182404D01*
X110789D01*
Y183500D01*
X110634Y184280D01*
X110192Y184942D01*
X109530Y185384D01*
X108750Y185539D01*
X100750D01*
X99970Y185384D01*
X99308Y184942D01*
X98866Y184280D01*
X98711Y183500D01*
Y174500D01*
X98866Y173720D01*
X99308Y173058D01*
X99970Y172616D01*
X100750Y172461D01*
X108750D01*
X109530Y172616D01*
X110192Y173058D01*
X110634Y173720D01*
X110789Y174500D01*
Y175736D01*
X118670D01*
Y157090D01*
X118691Y156929D01*
Y151590D01*
X118846Y150810D01*
X119288Y150148D01*
X119950Y149706D01*
X120730Y149551D01*
X130730D01*
X131510Y149706D01*
X132172Y150148D01*
X132614Y150810D01*
X132769Y151590D01*
Y156929D01*
X132790Y157090D01*
Y177165D01*
X132550Y178992D01*
X132269Y179670D01*
Y183690D01*
X132114Y184470D01*
X131672Y185132D01*
X131010Y185574D01*
X130230Y185729D01*
X129395D01*
X128865Y186999D01*
X129113Y187250D01*
X143510D01*
X145337Y187490D01*
X145765Y187668D01*
X147050Y187008D01*
X147326Y186120D01*
X147171Y185340D01*
Y175340D01*
X147326Y174560D01*
X147768Y173898D01*
X148430Y173456D01*
X149210Y173301D01*
X160210D01*
X160990Y173456D01*
X161652Y173898D01*
X162094Y174560D01*
X162249Y175340D01*
Y185340D01*
X162094Y186120D01*
X161652Y186782D01*
X160990Y187224D01*
X160210Y187379D01*
X159757D01*
Y189156D01*
X160134Y189720D01*
X160289Y190500D01*
Y199500D01*
X160134Y200280D01*
X159692Y200942D01*
X159030Y201384D01*
X158250Y201539D01*
X150250D01*
X149470Y201384D01*
X148808Y200942D01*
X148464Y200427D01*
X147033D01*
X145337Y201130D01*
X143510Y201370D01*
X132790D01*
Y216290D01*
X132769Y216451D01*
Y221790D01*
X132614Y222570D01*
X132172Y223232D01*
X131510Y223674D01*
X130730Y223829D01*
D02*
G37*
G36*
X275010Y172310D02*
X271780D01*
Y166990D01*
X277600D01*
Y169720D01*
X277403Y170711D01*
X276841Y171551D01*
X276001Y172113D01*
X275010Y172310D01*
D02*
G37*
G36*
X269240D02*
X266010D01*
X265019Y172113D01*
X264179Y171551D01*
X263617Y170711D01*
X263420Y169720D01*
Y166990D01*
X269240D01*
Y172310D01*
D02*
G37*
G36*
X461980Y221809D02*
X460629Y221632D01*
X458187Y220620D01*
X456089Y219011D01*
X454480Y216913D01*
X453468Y214471D01*
X453291Y213120D01*
X461980D01*
Y221809D01*
D02*
G37*
G36*
X464520Y221809D02*
Y213120D01*
X473209D01*
X473032Y214471D01*
X472020Y216913D01*
X470411Y219011D01*
X468313Y220620D01*
X465871Y221632D01*
X464520Y221809D01*
D02*
G37*
G36*
X269240Y218060D02*
X266010D01*
X265019Y217863D01*
X264179Y217301D01*
X263617Y216461D01*
X263420Y215470D01*
Y212740D01*
X269240D01*
Y218060D01*
D02*
G37*
G36*
X275010D02*
X271780D01*
Y212740D01*
X277600D01*
Y215470D01*
X277403Y216461D01*
X276841Y217301D01*
X276001Y217863D01*
X275010Y218060D01*
D02*
G37*
G36*
X50500Y231090D02*
X26770D01*
Y222770D01*
X53090D01*
Y228500D01*
X52893Y229491D01*
X52331Y230331D01*
X51491Y230893D01*
X50500Y231090D01*
D02*
G37*
G36*
X124460Y232020D02*
X118140D01*
Y227790D01*
X118337Y226799D01*
X118899Y225959D01*
X119739Y225397D01*
X120730Y225200D01*
X124460D01*
Y232020D01*
D02*
G37*
G36*
X182880Y221060D02*
X179150D01*
X178159Y220863D01*
X177319Y220301D01*
X176757Y219461D01*
X176560Y218470D01*
Y214240D01*
X182880D01*
Y221060D01*
D02*
G37*
G36*
X189150D02*
X185420D01*
Y214240D01*
X191740D01*
Y218470D01*
X191543Y219461D01*
X190981Y220301D01*
X190141Y220863D01*
X189150Y221060D01*
D02*
G37*
G36*
X243380Y203889D02*
X232380D01*
X231600Y203734D01*
X230938Y203292D01*
X230496Y202630D01*
X230360Y201948D01*
X223740D01*
X223704Y202130D01*
X223262Y202792D01*
X222600Y203234D01*
X221820Y203389D01*
X213820D01*
X213040Y203234D01*
X212378Y202792D01*
X211936Y202130D01*
X211781Y201350D01*
Y192350D01*
X211936Y191570D01*
X212378Y190908D01*
X213040Y190466D01*
X213820Y190311D01*
X221820D01*
X222600Y190466D01*
X223262Y190908D01*
X223704Y191570D01*
X223740Y191752D01*
X230360D01*
X230496Y191070D01*
X230938Y190408D01*
X231600Y189966D01*
X232380Y189811D01*
X243380D01*
X244160Y189966D01*
X244822Y190408D01*
X245264Y191070D01*
X245419Y191850D01*
Y201850D01*
X245264Y202630D01*
X244822Y203292D01*
X244160Y203734D01*
X243380Y203889D01*
D02*
G37*
G36*
X182880Y211700D02*
X176560D01*
Y207470D01*
X176757Y206479D01*
X177319Y205639D01*
X178159Y205077D01*
X179150Y204880D01*
X182880D01*
Y211700D01*
D02*
G37*
G36*
X473209Y210580D02*
X464520D01*
Y201891D01*
X465871Y202068D01*
X468313Y203080D01*
X470411Y204689D01*
X472020Y206787D01*
X473032Y209229D01*
X473209Y210580D01*
D02*
G37*
G36*
X461980D02*
X453291D01*
X453468Y209229D01*
X454480Y206787D01*
X456089Y204689D01*
X458187Y203080D01*
X460629Y202068D01*
X461980Y201891D01*
Y210580D01*
D02*
G37*
G36*
X277600Y210200D02*
X271780D01*
Y204880D01*
X275010D01*
X276001Y205077D01*
X276841Y205639D01*
X277403Y206479D01*
X277600Y207470D01*
Y210200D01*
D02*
G37*
G36*
X53090Y220230D02*
X26770D01*
Y211910D01*
X50500D01*
X51491Y212107D01*
X52331Y212669D01*
X52893Y213509D01*
X53090Y214500D01*
Y220230D01*
D02*
G37*
G36*
X191740Y211700D02*
X185420D01*
Y204880D01*
X189150D01*
X190141Y205077D01*
X190981Y205639D01*
X191543Y206479D01*
X191740Y207470D01*
Y211700D01*
D02*
G37*
G36*
X269240Y210200D02*
X263420D01*
Y207470D01*
X263617Y206479D01*
X264179Y205639D01*
X265019Y205077D01*
X266010Y204880D01*
X269240D01*
Y210200D01*
D02*
G37*
G36*
X190500Y154530D02*
X187270D01*
X186279Y154333D01*
X185439Y153771D01*
X184877Y152931D01*
X184680Y151940D01*
Y149210D01*
X190500D01*
Y154530D01*
D02*
G37*
G36*
X288730Y132590D02*
X285000D01*
X284009Y132393D01*
X283169Y131831D01*
X282607Y130991D01*
X282410Y130000D01*
Y125770D01*
X288730D01*
Y132590D01*
D02*
G37*
G36*
X295000D02*
X291270D01*
Y125770D01*
X297590D01*
Y130000D01*
X297393Y130991D01*
X296831Y131831D01*
X295991Y132393D01*
X295000Y132590D01*
D02*
G37*
G36*
X288730Y123230D02*
X282410D01*
Y119000D01*
X282607Y118009D01*
X283169Y117169D01*
X284009Y116607D01*
X285000Y116410D01*
X288730D01*
Y123230D01*
D02*
G37*
G36*
X297590D02*
X291270D01*
Y116410D01*
X295000D01*
X295991Y116607D01*
X296831Y117169D01*
X297393Y118009D01*
X297590Y119000D01*
Y123230D01*
D02*
G37*
G36*
X133320Y138820D02*
X127000D01*
Y132000D01*
X130730D01*
X131721Y132197D01*
X132561Y132759D01*
X133123Y133599D01*
X133320Y134590D01*
Y138820D01*
D02*
G37*
G36*
X252230Y138980D02*
X245910D01*
Y134750D01*
X246107Y133759D01*
X246669Y132919D01*
X247509Y132357D01*
X248500Y132160D01*
X252230D01*
Y138980D01*
D02*
G37*
G36*
X53090Y135230D02*
X26770D01*
Y126910D01*
X50500D01*
X51491Y127107D01*
X52331Y127669D01*
X52893Y128509D01*
X53090Y129500D01*
Y135230D01*
D02*
G37*
G36*
X124460Y138820D02*
X118140D01*
Y134590D01*
X118337Y133599D01*
X118899Y132759D01*
X119739Y132197D01*
X120730Y132000D01*
X124460D01*
Y138820D01*
D02*
G37*
G36*
X297459Y37230D02*
X288770D01*
Y28541D01*
X290121Y28718D01*
X292563Y29730D01*
X294661Y31339D01*
X296270Y33437D01*
X297282Y35879D01*
X297459Y37230D01*
D02*
G37*
G36*
X377459D02*
X368770D01*
Y28541D01*
X370121Y28718D01*
X372563Y29730D01*
X374661Y31339D01*
X376270Y33437D01*
X377282Y35879D01*
X377459Y37230D01*
D02*
G37*
G36*
X286230D02*
X277541D01*
X277718Y35879D01*
X278730Y33437D01*
X280339Y31339D01*
X282437Y29730D01*
X284879Y28718D01*
X286230Y28541D01*
Y37230D01*
D02*
G37*
G36*
X366230D02*
X357541D01*
X357718Y35879D01*
X358730Y33437D01*
X360339Y31339D01*
X362437Y29730D01*
X364879Y28718D01*
X366230Y28541D01*
Y37230D01*
D02*
G37*
G36*
X288770Y48459D02*
Y39770D01*
X297459D01*
X297282Y41121D01*
X296270Y43563D01*
X294661Y45661D01*
X292563Y47270D01*
X290121Y48282D01*
X288770Y48459D01*
D02*
G37*
G36*
X368770D02*
Y39770D01*
X377459D01*
X377282Y41121D01*
X376270Y43563D01*
X374661Y45661D01*
X372563Y47270D01*
X370121Y48282D01*
X368770Y48459D01*
D02*
G37*
G36*
X286230D02*
X284879Y48282D01*
X282437Y47270D01*
X280339Y45661D01*
X278730Y43563D01*
X277718Y41121D01*
X277541Y39770D01*
X286230D01*
Y48459D01*
D02*
G37*
G36*
X366230D02*
X364879Y48282D01*
X362437Y47270D01*
X360339Y45661D01*
X358730Y43563D01*
X357718Y41121D01*
X357541Y39770D01*
X366230D01*
Y48459D01*
D02*
G37*
G36*
X252230Y148340D02*
X248500D01*
X247509Y148143D01*
X246669Y147581D01*
X246107Y146741D01*
X245910Y145750D01*
Y141520D01*
X252230D01*
Y148340D01*
D02*
G37*
G36*
X258500D02*
X254770D01*
Y141520D01*
X261090D01*
Y145750D01*
X260893Y146741D01*
X260331Y147581D01*
X259491Y148143D01*
X258500Y148340D01*
D02*
G37*
G36*
X124460Y148180D02*
X120730D01*
X119739Y147983D01*
X118899Y147421D01*
X118337Y146581D01*
X118140Y145590D01*
Y141360D01*
X124460D01*
Y148180D01*
D02*
G37*
G36*
X130730D02*
X127000D01*
Y141360D01*
X133320D01*
Y145590D01*
X133123Y146581D01*
X132561Y147421D01*
X131721Y147983D01*
X130730Y148180D01*
D02*
G37*
G36*
X173370Y150720D02*
X169640D01*
X168649Y150523D01*
X167809Y149961D01*
X167247Y149121D01*
X167050Y148130D01*
Y143900D01*
X173370D01*
Y150720D01*
D02*
G37*
G36*
X179640D02*
X175910D01*
Y143900D01*
X182230D01*
Y148130D01*
X182033Y149121D01*
X181471Y149961D01*
X180631Y150523D01*
X179640Y150720D01*
D02*
G37*
G36*
X72390Y149450D02*
X68660D01*
X67669Y149253D01*
X66829Y148691D01*
X66267Y147851D01*
X66070Y146860D01*
Y142630D01*
X72390D01*
Y149450D01*
D02*
G37*
G36*
X78660D02*
X74930D01*
Y142630D01*
X81250D01*
Y146860D01*
X81053Y147851D01*
X80491Y148691D01*
X79651Y149253D01*
X78660Y149450D01*
D02*
G37*
G36*
X81250Y140090D02*
X74930D01*
Y133270D01*
X78660D01*
X79651Y133467D01*
X80491Y134029D01*
X81053Y134869D01*
X81250Y135860D01*
Y140090D01*
D02*
G37*
G36*
X173370Y141360D02*
X167050D01*
Y137130D01*
X167247Y136139D01*
X167809Y135299D01*
X168649Y134737D01*
X169640Y134540D01*
X173370D01*
Y141360D01*
D02*
G37*
G36*
X261090Y138980D02*
X254770D01*
Y132160D01*
X258500D01*
X259491Y132357D01*
X260331Y132919D01*
X260893Y133759D01*
X261090Y134750D01*
Y138980D01*
D02*
G37*
G36*
X72390Y140090D02*
X66070D01*
Y135860D01*
X66267Y134869D01*
X66829Y134029D01*
X67669Y133467D01*
X68660Y133270D01*
X72390D01*
Y140090D01*
D02*
G37*
G36*
X190500Y146670D02*
X184680D01*
Y143940D01*
X184877Y142949D01*
X185439Y142109D01*
X186279Y141547D01*
X187270Y141350D01*
X190500D01*
Y146670D01*
D02*
G37*
G36*
X198860D02*
X193040D01*
Y141350D01*
X196270D01*
X197261Y141547D01*
X198101Y142109D01*
X198663Y142949D01*
X198860Y143940D01*
Y146670D01*
D02*
G37*
G36*
X182230Y141360D02*
X175910D01*
Y134540D01*
X179640D01*
X180631Y134737D01*
X181471Y135299D01*
X182033Y136139D01*
X182230Y137130D01*
Y141360D01*
D02*
G37*
G36*
X50500Y146090D02*
X26770D01*
Y137770D01*
X53090D01*
Y143500D01*
X52893Y144491D01*
X52331Y145331D01*
X51491Y145893D01*
X50500Y146090D01*
D02*
G37*
G36*
X314000Y368340D02*
X310270D01*
Y361520D01*
X316590D01*
Y365750D01*
X316393Y366741D01*
X315831Y367581D01*
X314991Y368143D01*
X314000Y368340D01*
D02*
G37*
G36*
X258480D02*
X254750D01*
X253759Y368143D01*
X252919Y367581D01*
X252357Y366741D01*
X252160Y365750D01*
Y361520D01*
X258480D01*
Y368340D01*
D02*
G37*
G36*
X307730D02*
X304000D01*
X303009Y368143D01*
X302169Y367581D01*
X301607Y366741D01*
X301410Y365750D01*
Y361520D01*
X307730D01*
Y368340D01*
D02*
G37*
G36*
X264750D02*
X261020D01*
Y361520D01*
X267340D01*
Y365750D01*
X267143Y366741D01*
X266581Y367581D01*
X265741Y368143D01*
X264750Y368340D01*
D02*
G37*
G36*
X461980Y413980D02*
X448660D01*
Y402250D01*
X448857Y401259D01*
X449419Y400419D01*
X450259Y399857D01*
X451250Y399660D01*
X461980D01*
Y413980D01*
D02*
G37*
G36*
X181000Y380590D02*
X174770D01*
Y371770D01*
X183590D01*
Y378000D01*
X183393Y378991D01*
X182831Y379831D01*
X181991Y380393D01*
X181000Y380590D01*
D02*
G37*
G36*
X172230D02*
X166000D01*
X165009Y380393D01*
X164169Y379831D01*
X163607Y378991D01*
X163410Y378000D01*
Y371770D01*
X172230D01*
Y380590D01*
D02*
G37*
G36*
X183590Y369230D02*
X174770D01*
Y360410D01*
X181000D01*
X181991Y360607D01*
X182831Y361169D01*
X183393Y362009D01*
X183590Y363000D01*
Y369230D01*
D02*
G37*
G36*
X307730Y358980D02*
X301410D01*
Y354750D01*
X301607Y353759D01*
X302169Y352919D01*
X303009Y352357D01*
X304000Y352160D01*
X307730D01*
Y358980D01*
D02*
G37*
G36*
X267340D02*
X261020D01*
Y352160D01*
X264750D01*
X265741Y352357D01*
X266581Y352919D01*
X267143Y353759D01*
X267340Y354750D01*
Y358980D01*
D02*
G37*
G36*
X258480D02*
X252160D01*
Y354750D01*
X252357Y353759D01*
X252919Y352919D01*
X253759Y352357D01*
X254750Y352160D01*
X258480D01*
Y358980D01*
D02*
G37*
G36*
X316590D02*
X310270D01*
Y352160D01*
X314000D01*
X314991Y352357D01*
X315831Y352919D01*
X316393Y353759D01*
X316590Y354750D01*
Y358980D01*
D02*
G37*
G36*
X172230Y369230D02*
X163410D01*
Y363000D01*
X163607Y362009D01*
X164169Y361169D01*
X165009Y360607D01*
X166000Y360410D01*
X172230D01*
Y369230D01*
D02*
G37*
G36*
X376250Y371840D02*
X372520D01*
Y358520D01*
X378840D01*
Y369250D01*
X378643Y370241D01*
X378081Y371081D01*
X377241Y371643D01*
X376250Y371840D01*
D02*
G37*
G36*
X369980D02*
X366250D01*
X365259Y371643D01*
X364419Y371081D01*
X363857Y370241D01*
X363660Y369250D01*
Y358520D01*
X369980D01*
Y371840D01*
D02*
G37*
G36*
X174770Y456659D02*
Y447970D01*
X183459D01*
X183282Y449321D01*
X182270Y451763D01*
X180661Y453861D01*
X178563Y455470D01*
X176121Y456482D01*
X174770Y456659D01*
D02*
G37*
G36*
X172230D02*
X170879Y456482D01*
X168437Y455470D01*
X166339Y453861D01*
X164730Y451763D01*
X163718Y449321D01*
X163541Y447970D01*
X172230D01*
Y456659D01*
D02*
G37*
G36*
X265340Y458480D02*
X251020D01*
Y445160D01*
X262750D01*
X263741Y445357D01*
X264581Y445919D01*
X265143Y446759D01*
X265340Y447750D01*
Y458480D01*
D02*
G37*
G36*
X248480Y474340D02*
X236750D01*
X235759Y474143D01*
X234919Y473581D01*
X234357Y472741D01*
X234160Y471750D01*
Y461020D01*
X248480D01*
Y474340D01*
D02*
G37*
G36*
X69251Y491039D02*
X58380D01*
X58292Y491022D01*
X58202Y491031D01*
X57904Y490945D01*
X57600Y490884D01*
X57525Y490834D01*
X57438Y490809D01*
X55662Y489884D01*
X55540Y489786D01*
X55398Y489720D01*
X52168Y487352D01*
X52063Y487236D01*
X51932Y487149D01*
X49101Y484318D01*
X49014Y484187D01*
X48898Y484081D01*
X46530Y480852D01*
X46464Y480710D01*
X46366Y480588D01*
X45441Y478812D01*
X45416Y478725D01*
X45366Y478650D01*
X45305Y478346D01*
X45219Y478048D01*
X45228Y477958D01*
X45211Y477870D01*
X45211Y477870D01*
Y467000D01*
X45366Y466220D01*
X45808Y465558D01*
X45808Y465558D01*
X46470Y465116D01*
X47250Y464961D01*
X66251Y464962D01*
X66593Y465030D01*
X66938Y465081D01*
X66981Y465107D01*
X67031Y465117D01*
X67322Y465311D01*
X67620Y465490D01*
X67650Y465531D01*
X67693Y465559D01*
X67887Y465849D01*
X68094Y466129D01*
X68263Y466485D01*
X68671Y467096D01*
X69156Y467581D01*
X69767Y467989D01*
X70123Y468157D01*
X70403Y468365D01*
X70693Y468559D01*
X70721Y468601D01*
X70762Y468631D01*
X70941Y468931D01*
X71135Y469220D01*
X71145Y469270D01*
X71171Y469314D01*
X71222Y469659D01*
X71290Y470001D01*
Y489000D01*
X71135Y489780D01*
X70693Y490442D01*
X70031Y490884D01*
X69251Y491039D01*
D02*
G37*
G36*
X110120D02*
X99250D01*
X98470Y490884D01*
X97808Y490442D01*
X97808Y490442D01*
X97366Y489780D01*
X97211Y489000D01*
X97212Y469999D01*
X97280Y469657D01*
X97331Y469312D01*
X97357Y469269D01*
X97367Y469219D01*
X97561Y468928D01*
X97740Y468630D01*
X97781Y468600D01*
X97809Y468557D01*
X98099Y468363D01*
X98379Y468156D01*
X98735Y467988D01*
X99346Y467579D01*
X99831Y467094D01*
X100239Y466483D01*
X100407Y466127D01*
X100615Y465847D01*
X100809Y465557D01*
X100851Y465529D01*
X100881Y465488D01*
X101181Y465309D01*
X101470Y465115D01*
X101520Y465105D01*
X101564Y465079D01*
X101909Y465028D01*
X102251Y464960D01*
X102251Y464960D01*
X121250D01*
X122030Y465115D01*
X122692Y465557D01*
X123134Y466219D01*
X123289Y466999D01*
Y477870D01*
X123272Y477958D01*
X123281Y478048D01*
X123195Y478346D01*
X123134Y478650D01*
X123084Y478725D01*
X123059Y478812D01*
X122134Y480588D01*
X122036Y480710D01*
X121970Y480852D01*
X119602Y484081D01*
X119486Y484187D01*
X119399Y484318D01*
X116568Y487149D01*
X116437Y487236D01*
X116331Y487352D01*
X113102Y489720D01*
X112960Y489786D01*
X112838Y489884D01*
X111062Y490809D01*
X110975Y490834D01*
X110900Y490884D01*
X110596Y490945D01*
X110298Y491031D01*
X110208Y491022D01*
X110120Y491039D01*
D02*
G37*
G36*
X262750Y474340D02*
X251020D01*
Y461020D01*
X265340D01*
Y471750D01*
X265143Y472741D01*
X264581Y473581D01*
X263741Y474143D01*
X262750Y474340D01*
D02*
G37*
G36*
X248480Y458480D02*
X234160D01*
Y447750D01*
X234357Y446759D01*
X234919Y445919D01*
X235759Y445357D01*
X236750Y445160D01*
X248480D01*
Y458480D01*
D02*
G37*
G36*
X121250Y439039D02*
X102249Y439038D01*
X101907Y438970D01*
X101562Y438919D01*
X101519Y438893D01*
X101469Y438883D01*
X101179Y438689D01*
X100880Y438510D01*
X100850Y438469D01*
X100807Y438441D01*
X100613Y438151D01*
X100406Y437871D01*
X100237Y437515D01*
X99829Y436904D01*
X99345Y436419D01*
X98733Y436011D01*
X98377Y435843D01*
X98097Y435635D01*
X97807Y435441D01*
X97779Y435399D01*
X97738Y435369D01*
X97559Y435070D01*
X97365Y434780D01*
X97355Y434730D01*
X97329Y434686D01*
X97278Y434341D01*
X97210Y433999D01*
X97210Y433999D01*
Y415000D01*
X97365Y414220D01*
X97807Y413558D01*
X98469Y413116D01*
X99249Y412961D01*
X110120Y412961D01*
X110208Y412978D01*
X110298Y412969D01*
X110596Y413055D01*
X110900Y413116D01*
X110975Y413166D01*
X111062Y413191D01*
X112838Y414116D01*
X112960Y414214D01*
X113102Y414280D01*
X116331Y416648D01*
X116437Y416764D01*
X116568Y416851D01*
X119399Y419682D01*
X119486Y419813D01*
X119602Y419919D01*
X121970Y423148D01*
X122036Y423290D01*
X122134Y423412D01*
X123059Y425188D01*
X123084Y425275D01*
X123134Y425350D01*
X123195Y425654D01*
X123281Y425952D01*
X123272Y426042D01*
X123289Y426130D01*
Y437000D01*
X123134Y437780D01*
X122692Y438442D01*
X122692Y438442D01*
X122030Y438884D01*
X121716Y438947D01*
X121250Y439039D01*
D02*
G37*
G36*
X66249Y439040D02*
X47250D01*
X46470Y438885D01*
X45808Y438443D01*
X45366Y437781D01*
X45211Y437001D01*
X45211Y426130D01*
X45228Y426042D01*
X45219Y425952D01*
X45305Y425654D01*
X45366Y425350D01*
X45416Y425275D01*
X45441Y425188D01*
X46366Y423412D01*
X46464Y423290D01*
X46530Y423148D01*
X48898Y419919D01*
X49014Y419813D01*
X49101Y419682D01*
X51932Y416851D01*
X52063Y416764D01*
X52168Y416648D01*
X55398Y414280D01*
X55540Y414214D01*
X55662Y414116D01*
X57438Y413191D01*
X57525Y413166D01*
X57600Y413116D01*
X57904Y413055D01*
X58202Y412968D01*
X58292Y412978D01*
X58380Y412961D01*
X58380Y412961D01*
X69250D01*
X70030Y413116D01*
X70692Y413558D01*
X70692Y413558D01*
X71134Y414220D01*
X71289Y415000D01*
X71288Y434001D01*
X71220Y434343D01*
X71169Y434688D01*
X71143Y434731D01*
X71133Y434781D01*
X70939Y435071D01*
X70760Y435370D01*
X70719Y435401D01*
X70691Y435443D01*
X70401Y435637D01*
X70121Y435844D01*
X69765Y436012D01*
X69154Y436421D01*
X68669Y436906D01*
X68261Y437517D01*
X68093Y437873D01*
X67885Y438153D01*
X67691Y438443D01*
X67649Y438471D01*
X67619Y438512D01*
X67319Y438691D01*
X67030Y438885D01*
X66980Y438895D01*
X66936Y438921D01*
X66591Y438972D01*
X66249Y439040D01*
D02*
G37*
G36*
X477840Y413980D02*
X464520D01*
Y399660D01*
X475250D01*
X476241Y399857D01*
X477081Y400419D01*
X477643Y401259D01*
X477840Y402250D01*
Y413980D01*
D02*
G37*
G36*
X461980Y430840D02*
X451250D01*
X450259Y430643D01*
X449419Y430081D01*
X448857Y429241D01*
X448660Y428250D01*
Y416520D01*
X461980D01*
Y430840D01*
D02*
G37*
G36*
X172230Y445430D02*
X163541D01*
X163718Y444079D01*
X164730Y441637D01*
X166339Y439539D01*
X168437Y437930D01*
X170879Y436918D01*
X172230Y436741D01*
Y445430D01*
D02*
G37*
G36*
X183459D02*
X174770D01*
Y436741D01*
X176121Y436918D01*
X178563Y437930D01*
X180661Y439539D01*
X182270Y441637D01*
X183282Y444079D01*
X183459Y445430D01*
D02*
G37*
G36*
X475250Y430840D02*
X464520D01*
Y416520D01*
X477840D01*
Y428250D01*
X477643Y429241D01*
X477081Y430081D01*
X476241Y430643D01*
X475250Y430840D01*
D02*
G37*
G36*
X378840Y355980D02*
X372520D01*
Y342660D01*
X376250D01*
X377241Y342857D01*
X378081Y343419D01*
X378643Y344259D01*
X378840Y345250D01*
Y355980D01*
D02*
G37*
G36*
X464520Y247209D02*
Y238520D01*
X473209D01*
X473032Y239871D01*
X472020Y242313D01*
X470411Y244411D01*
X468313Y246020D01*
X465871Y247032D01*
X464520Y247209D01*
D02*
G37*
G36*
X461980Y247209D02*
X460629Y247032D01*
X458187Y246020D01*
X456089Y244411D01*
X454480Y242313D01*
X453468Y239871D01*
X453291Y238520D01*
X461980D01*
Y247209D01*
D02*
G37*
G36*
X259750Y242840D02*
X256020D01*
Y236020D01*
X262340D01*
Y240250D01*
X262143Y241241D01*
X261581Y242081D01*
X260741Y242643D01*
X259750Y242840D01*
D02*
G37*
G36*
X286230Y252230D02*
X279910D01*
Y248000D01*
X280107Y247009D01*
X280669Y246169D01*
X281509Y245607D01*
X282500Y245410D01*
X286230D01*
Y252230D01*
D02*
G37*
G36*
X373590Y258480D02*
X367270D01*
Y251660D01*
X371000D01*
X371991Y251857D01*
X372831Y252419D01*
X373393Y253259D01*
X373590Y254250D01*
Y258480D01*
D02*
G37*
G36*
X364730D02*
X358410D01*
Y254250D01*
X358607Y253259D01*
X359169Y252419D01*
X360009Y251857D01*
X361000Y251660D01*
X364730D01*
Y258480D01*
D02*
G37*
G36*
X295090Y252230D02*
X288770D01*
Y245410D01*
X292500D01*
X293491Y245607D01*
X294331Y246169D01*
X294893Y247009D01*
X295090Y248000D01*
Y252230D01*
D02*
G37*
G36*
X253480Y242840D02*
X249750D01*
X248759Y242643D01*
X247919Y242081D01*
X247357Y241241D01*
X247160Y240250D01*
Y236020D01*
X253480D01*
Y242840D01*
D02*
G37*
G36*
X262340Y233480D02*
X256020D01*
Y226660D01*
X259750D01*
X260741Y226857D01*
X261581Y227419D01*
X262143Y228259D01*
X262340Y229250D01*
Y233480D01*
D02*
G37*
G36*
X253480D02*
X247160D01*
Y229250D01*
X247357Y228259D01*
X247919Y227419D01*
X248759Y226857D01*
X249750Y226660D01*
X253480D01*
Y233480D01*
D02*
G37*
G36*
X133320Y232020D02*
X127000D01*
Y225200D01*
X130730D01*
X131721Y225397D01*
X132561Y225959D01*
X133123Y226799D01*
X133320Y227790D01*
Y232020D01*
D02*
G37*
G36*
X473209Y235980D02*
X464520D01*
Y227291D01*
X465871Y227468D01*
X468313Y228480D01*
X470411Y230089D01*
X472020Y232187D01*
X473032Y234629D01*
X473209Y235980D01*
D02*
G37*
G36*
X130730Y241380D02*
X127000D01*
Y234560D01*
X133320D01*
Y238790D01*
X133123Y239781D01*
X132561Y240621D01*
X131721Y241183D01*
X130730Y241380D01*
D02*
G37*
G36*
X124460D02*
X120730D01*
X119739Y241183D01*
X118899Y240621D01*
X118337Y239781D01*
X118140Y238790D01*
Y234560D01*
X124460D01*
Y241380D01*
D02*
G37*
G36*
X461980Y235980D02*
X453291D01*
X453468Y234629D01*
X454480Y232187D01*
X456089Y230089D01*
X458187Y228480D01*
X460629Y227468D01*
X461980Y227291D01*
Y235980D01*
D02*
G37*
G36*
X84250Y463095D02*
X81378Y462717D01*
X78703Y461609D01*
X76405Y459845D01*
X74641Y457547D01*
X73533Y454872D01*
X73155Y452000D01*
X73533Y449128D01*
X74641Y446453D01*
X76405Y444155D01*
X77190Y443553D01*
Y382750D01*
X77430Y380923D01*
X78135Y379220D01*
X79258Y377758D01*
X156757Y300258D01*
X158220Y299135D01*
X159923Y298430D01*
X161750Y298190D01*
X193000D01*
X194827Y298430D01*
X194901Y298461D01*
X200500D01*
X201280Y298616D01*
X201942Y299058D01*
X202384Y299720D01*
X202539Y300500D01*
Y310500D01*
X202384Y311280D01*
X201942Y311942D01*
X201280Y312384D01*
X200500Y312539D01*
X189500D01*
X188720Y312384D01*
X188610Y312310D01*
X164674D01*
X91310Y385675D01*
Y443553D01*
X92095Y444155D01*
X93858Y446453D01*
X94967Y449128D01*
X95345Y452000D01*
X94967Y454872D01*
X93858Y457547D01*
X92095Y459845D01*
X89797Y461609D01*
X87122Y462717D01*
X84250Y463095D01*
D02*
G37*
G36*
X434730Y305230D02*
X428410D01*
Y301000D01*
X428607Y300009D01*
X429169Y299169D01*
X430009Y298607D01*
X431000Y298410D01*
X434730D01*
Y305230D01*
D02*
G37*
G36*
X371000Y267840D02*
X367270D01*
Y261020D01*
X373590D01*
Y265250D01*
X373393Y266241D01*
X372831Y267081D01*
X371991Y267643D01*
X371000Y267840D01*
D02*
G37*
G36*
X346630Y268050D02*
X342900D01*
Y261230D01*
X349220D01*
Y265460D01*
X349023Y266451D01*
X348461Y267291D01*
X347621Y267853D01*
X346630Y268050D01*
D02*
G37*
G36*
X441000Y314590D02*
X437270D01*
Y307770D01*
X443590D01*
Y312000D01*
X443393Y312991D01*
X442831Y313831D01*
X441991Y314393D01*
X441000Y314590D01*
D02*
G37*
G36*
X369980Y355980D02*
X363660D01*
Y345250D01*
X363857Y344259D01*
X364419Y343419D01*
X365259Y342857D01*
X366250Y342660D01*
X369980D01*
Y355980D01*
D02*
G37*
G36*
X443590Y305230D02*
X437270D01*
Y298410D01*
X441000D01*
X441991Y298607D01*
X442831Y299169D01*
X443393Y300009D01*
X443590Y301000D01*
Y305230D01*
D02*
G37*
G36*
X434730Y314590D02*
X431000D01*
X430009Y314393D01*
X429169Y313831D01*
X428607Y312991D01*
X428410Y312000D01*
Y307770D01*
X434730D01*
Y314590D01*
D02*
G37*
G36*
X364730Y267840D02*
X361000D01*
X360009Y267643D01*
X359169Y267081D01*
X358607Y266241D01*
X358410Y265250D01*
Y261020D01*
X364730D01*
Y267840D01*
D02*
G37*
G36*
X349220Y258690D02*
X342900D01*
Y251870D01*
X346630D01*
X347621Y252067D01*
X348461Y252629D01*
X349023Y253469D01*
X349220Y254460D01*
Y258690D01*
D02*
G37*
G36*
X422250Y371289D02*
X412250D01*
X411470Y371134D01*
X410808Y370692D01*
X410366Y370030D01*
X410211Y369250D01*
Y357411D01*
X410190Y357250D01*
Y335500D01*
X410430Y333673D01*
X411136Y331970D01*
X412258Y330508D01*
X422008Y320758D01*
X423470Y319636D01*
X425173Y318930D01*
X427000Y318690D01*
X428961D01*
Y318000D01*
X429116Y317220D01*
X429558Y316558D01*
X430220Y316116D01*
X431000Y315961D01*
X441000D01*
X441780Y316116D01*
X442442Y316558D01*
X442884Y317220D01*
X443039Y318000D01*
Y318690D01*
X456190D01*
Y272189D01*
X455750D01*
X454970Y272034D01*
X454308Y271592D01*
X453866Y270930D01*
X453711Y270150D01*
Y255150D01*
X453866Y254370D01*
X454308Y253708D01*
X454970Y253266D01*
X455750Y253111D01*
X470750D01*
X471530Y253266D01*
X472192Y253708D01*
X472634Y254370D01*
X472789Y255150D01*
Y270150D01*
X472634Y270930D01*
X472192Y271592D01*
X471530Y272034D01*
X470750Y272189D01*
X470310D01*
Y325750D01*
Y336211D01*
X475250D01*
X476030Y336366D01*
X476692Y336808D01*
X477134Y337470D01*
X477289Y338250D01*
Y364250D01*
X477134Y365030D01*
X476692Y365692D01*
X476030Y366134D01*
X475250Y366289D01*
X451250D01*
X450470Y366134D01*
X449808Y365692D01*
X449366Y365030D01*
X449211Y364250D01*
Y338250D01*
X449366Y337470D01*
X449808Y336808D01*
X450470Y336366D01*
X451250Y336211D01*
X456190D01*
Y332810D01*
X429925D01*
X424310Y338424D01*
Y357250D01*
X424289Y357411D01*
Y369250D01*
X424134Y370030D01*
X423692Y370692D01*
X423030Y371134D01*
X422250Y371289D01*
D02*
G37*
G36*
X417250Y485039D02*
X286750D01*
X285970Y484884D01*
X285308Y484442D01*
X284866Y483780D01*
X284711Y483000D01*
Y423250D01*
X284711Y423250D01*
X284866Y422470D01*
X285308Y421808D01*
X304808Y402308D01*
X305470Y401866D01*
X306250Y401711D01*
X375211D01*
Y379250D01*
X375211Y379250D01*
X375366Y378470D01*
X375808Y377808D01*
X375808Y377808D01*
X387211Y366405D01*
Y357411D01*
X387190Y357250D01*
Y256924D01*
X378125Y247860D01*
X378032Y247952D01*
X376570Y249074D01*
X374867Y249780D01*
X373040Y250020D01*
X371950D01*
X371780Y250134D01*
X371000Y250289D01*
X361000D01*
X360220Y250134D01*
X360050Y250020D01*
X355700D01*
X355530Y250134D01*
X354750Y250289D01*
X347492D01*
X347410Y250344D01*
X346630Y250499D01*
X336630D01*
X335850Y250344D01*
X335329Y249996D01*
X334705Y250157D01*
X334142Y250454D01*
X334144Y251668D01*
X335329Y252275D01*
X335639Y252067D01*
X336630Y251870D01*
X340360D01*
Y259960D01*
Y268050D01*
X336630D01*
X336370Y267998D01*
X335039Y268760D01*
X334940Y268910D01*
X334879Y269303D01*
X339913Y274337D01*
X339913Y274337D01*
X340576Y275329D01*
X340809Y276500D01*
Y361750D01*
X340809Y361750D01*
X340576Y362920D01*
X339913Y363913D01*
X300413Y403413D01*
X299421Y404076D01*
X298250Y404309D01*
X298250Y404309D01*
X201267D01*
X182901Y422675D01*
X182756Y423780D01*
X181798Y426091D01*
X180275Y428075D01*
X178291Y429598D01*
X175980Y430555D01*
X173500Y430882D01*
X171020Y430555D01*
X168709Y429598D01*
X166725Y428075D01*
X165202Y426091D01*
X164245Y423780D01*
X163918Y421300D01*
X164245Y418820D01*
X165202Y416509D01*
X166725Y414524D01*
X168709Y413002D01*
X171020Y412044D01*
X173500Y411718D01*
X175980Y412044D01*
X178291Y413002D01*
X180275Y414524D01*
X180611Y414962D01*
X181879Y415046D01*
X196695Y400229D01*
X196169Y398959D01*
X182516D01*
X181798Y400691D01*
X180275Y402675D01*
X178291Y404198D01*
X175980Y405155D01*
X173500Y405482D01*
X171020Y405155D01*
X168709Y404198D01*
X166725Y402675D01*
X165202Y400691D01*
X164245Y398380D01*
X163918Y395900D01*
X164245Y393420D01*
X165202Y391109D01*
X166725Y389124D01*
X168709Y387602D01*
X171020Y386645D01*
X173500Y386318D01*
X175980Y386645D01*
X178291Y387602D01*
X180275Y389124D01*
X181798Y391109D01*
X182516Y392841D01*
X296083D01*
X327441Y361483D01*
Y278517D01*
X324227Y275303D01*
X323564Y274310D01*
X323331Y273140D01*
X323331Y273140D01*
Y272625D01*
X322158Y272139D01*
X312469Y281828D01*
Y297487D01*
X313439Y297889D01*
X315319Y299331D01*
X316761Y301211D01*
X317668Y303400D01*
X317978Y305750D01*
X317668Y308099D01*
X316761Y310289D01*
X315319Y312169D01*
X313439Y313612D01*
X312469Y314013D01*
Y335711D01*
X314000D01*
X314780Y335866D01*
X315442Y336308D01*
X315884Y336970D01*
X316039Y337750D01*
Y348750D01*
X315884Y349530D01*
X315442Y350192D01*
X314780Y350634D01*
X314000Y350789D01*
X304000D01*
X303220Y350634D01*
X302558Y350192D01*
X302116Y349530D01*
X301961Y348750D01*
Y346584D01*
X296039D01*
Y348000D01*
X295884Y348780D01*
X295442Y349442D01*
X294780Y349884D01*
X294000Y350039D01*
X288000D01*
X287220Y349884D01*
X286558Y349442D01*
X286116Y348780D01*
X285961Y348000D01*
Y339000D01*
X286116Y338220D01*
X286558Y337558D01*
X287220Y337116D01*
X288000Y336961D01*
X294000D01*
X294780Y337116D01*
X295442Y337558D01*
X295884Y338220D01*
X296039Y339000D01*
Y339916D01*
X301961D01*
Y337750D01*
X302116Y336970D01*
X302558Y336308D01*
X303220Y335866D01*
X304000Y335711D01*
X305331D01*
Y314013D01*
X304361Y313612D01*
X302481Y312169D01*
X301038Y310289D01*
X300132Y308099D01*
X299822Y305750D01*
X300132Y303400D01*
X301038Y301211D01*
X302481Y299331D01*
X304361Y297889D01*
X305331Y297487D01*
Y280350D01*
X305603Y278984D01*
X306377Y277827D01*
X318056Y266147D01*
Y237818D01*
X316883Y237332D01*
X313334Y240881D01*
Y256821D01*
X313569Y258000D01*
X313297Y259366D01*
X312523Y260523D01*
X269139Y303908D01*
Y309250D01*
X268984Y310030D01*
X268542Y310692D01*
X265042Y314192D01*
X265042Y314192D01*
X264380Y314634D01*
X263669Y314776D01*
Y335711D01*
X264750D01*
X265530Y335866D01*
X266192Y336308D01*
X266634Y336970D01*
X266789Y337750D01*
Y339916D01*
X273961D01*
Y339000D01*
X274116Y338220D01*
X274558Y337558D01*
X275220Y337116D01*
X276000Y336961D01*
X282000D01*
X282780Y337116D01*
X283442Y337558D01*
X283884Y338220D01*
X284039Y339000D01*
Y348000D01*
X283884Y348780D01*
X283442Y349442D01*
X282780Y349884D01*
X282000Y350039D01*
X276000D01*
X275220Y349884D01*
X274558Y349442D01*
X274116Y348780D01*
X273961Y348000D01*
Y346584D01*
X266789D01*
Y348750D01*
X266634Y349530D01*
X266192Y350192D01*
X265530Y350634D01*
X264750Y350789D01*
X254750D01*
X253970Y350634D01*
X253308Y350192D01*
X252866Y349530D01*
X252711Y348750D01*
Y337750D01*
X252866Y336970D01*
X253308Y336308D01*
X253970Y335866D01*
X254750Y335711D01*
X256531D01*
Y314776D01*
X255820Y314634D01*
X255158Y314192D01*
X251658Y310692D01*
X251658Y310692D01*
X251216Y310030D01*
X251074Y309319D01*
X219539D01*
Y310500D01*
X219384Y311280D01*
X218942Y311942D01*
X218280Y312384D01*
X217500Y312539D01*
X206500D01*
X205720Y312384D01*
X205058Y311942D01*
X204616Y311280D01*
X204461Y310500D01*
Y300500D01*
X204616Y299720D01*
X205058Y299058D01*
X205720Y298616D01*
X206500Y298461D01*
X217500D01*
X218280Y298616D01*
X218942Y299058D01*
X219384Y299720D01*
X219539Y300500D01*
Y302181D01*
X251075D01*
X251216Y301470D01*
X251658Y300808D01*
X255158Y297308D01*
X255158Y297308D01*
X255820Y296866D01*
X256600Y296711D01*
X256600Y296711D01*
X263600D01*
X264380Y296866D01*
X265042Y297308D01*
X265343Y297610D01*
X306666Y256287D01*
Y239500D01*
X306920Y238224D01*
X307642Y237143D01*
X313056Y231729D01*
Y222219D01*
X312821Y221040D01*
Y215040D01*
X313093Y213674D01*
X313867Y212517D01*
X315024Y211743D01*
X316390Y211471D01*
X317756Y211743D01*
X318890Y212501D01*
X320024Y211743D01*
X321390Y211471D01*
X322756Y211743D01*
X323890Y212501D01*
X325024Y211743D01*
X326390Y211471D01*
X327756Y211743D01*
X328890Y212501D01*
X330024Y211743D01*
X331390Y211471D01*
X332756Y211743D01*
X333890Y212501D01*
X335024Y211743D01*
X336390Y211471D01*
X337756Y211743D01*
X338913Y212517D01*
X339687Y213674D01*
X339959Y215040D01*
Y221040D01*
X340189Y221321D01*
X341860D01*
X342640Y221476D01*
X343302Y221918D01*
X343302Y221918D01*
X345059Y223675D01*
X345956Y224274D01*
X347282Y226259D01*
X347747Y228600D01*
Y235801D01*
X347986Y235961D01*
X351035D01*
X351500Y235900D01*
X359497D01*
X359558Y235808D01*
X360220Y235366D01*
X361000Y235211D01*
X370804D01*
X373133Y232883D01*
X424558Y181458D01*
X426020Y180336D01*
X427723Y179630D01*
X429550Y179390D01*
X456846D01*
X458459Y178152D01*
X460770Y177194D01*
X463250Y176868D01*
X465730Y177194D01*
X468041Y178152D01*
X470025Y179674D01*
X471548Y181659D01*
X472505Y183970D01*
X472832Y186450D01*
X472505Y188930D01*
X471548Y191241D01*
X470025Y193225D01*
X468041Y194748D01*
X465730Y195706D01*
X463250Y196032D01*
X460770Y195706D01*
X458459Y194748D01*
X456846Y193510D01*
X432475D01*
X388110Y237875D01*
X399243Y249008D01*
X400364Y250470D01*
X401070Y252173D01*
X401310Y254000D01*
Y357250D01*
X401289Y357411D01*
Y367078D01*
X401384Y367220D01*
X401539Y368000D01*
Y375155D01*
X432192Y405808D01*
X432634Y406470D01*
X432789Y407250D01*
Y469500D01*
X432634Y470280D01*
X432192Y470942D01*
X432192Y470942D01*
X418692Y484442D01*
X418030Y484884D01*
X417250Y485039D01*
D02*
G37*
G36*
X292500Y261590D02*
X288770D01*
Y254770D01*
X295090D01*
Y259000D01*
X294893Y259991D01*
X294331Y260831D01*
X293491Y261393D01*
X292500Y261590D01*
D02*
G37*
G36*
X286230D02*
X282500D01*
X281509Y261393D01*
X280669Y260831D01*
X280107Y259991D01*
X279910Y259000D01*
Y254770D01*
X286230D01*
Y261590D01*
D02*
G37*
%LPD*%
G36*
X69251Y470001D02*
Y470001D01*
X68759Y469768D01*
X67856Y469165D01*
X67087Y468396D01*
X66483Y467493D01*
X66251Y467001D01*
X47250Y467000D01*
Y477870D01*
X47250D01*
X48175Y479646D01*
X50543Y482876D01*
X53374Y485707D01*
X56604Y488075D01*
X58380Y489000D01*
X69251D01*
Y470001D01*
D02*
G37*
G36*
X111896Y488075D02*
X115126Y485707D01*
X117957Y482876D01*
X120325Y479646D01*
X121250Y477870D01*
Y466999D01*
X102251D01*
X102251Y466999D01*
X102018Y467491D01*
X101414Y468395D01*
X100646Y469163D01*
X99742Y469767D01*
X99251Y469999D01*
X99250Y489000D01*
X110120D01*
X111896Y488075D01*
D02*
G37*
G36*
X121250Y426130D02*
Y426130D01*
X120325Y424354D01*
X117957Y421124D01*
X115126Y418293D01*
X111896Y415925D01*
X110120Y415000D01*
X99249Y415000D01*
Y433999D01*
X99249D01*
X99741Y434232D01*
X100645Y434836D01*
X101413Y435604D01*
X102017Y436507D01*
X102249Y436999D01*
X121250Y437000D01*
Y426130D01*
D02*
G37*
G36*
X66482Y436509D02*
X67085Y435606D01*
X67854Y434837D01*
X68757Y434233D01*
X69249Y434001D01*
X69250Y415000D01*
X58380D01*
X58380Y415000D01*
X56604Y415925D01*
X53374Y418293D01*
X50543Y421124D01*
X48175Y424354D01*
X47250Y426130D01*
X47250Y437001D01*
X66249D01*
X66482Y436509D01*
D02*
G37*
G36*
X344000Y225500D02*
X341860Y223360D01*
X336390D01*
X336445Y224555D01*
X336500Y225750D01*
Y227375D01*
X337750Y228625D01*
Y230250D01*
X339250D01*
X344000Y225500D01*
D02*
G37*
G36*
X430750Y469500D02*
Y407250D01*
X399500Y376000D01*
Y368000D01*
X389500D01*
X389000Y367500D01*
X377250Y379250D01*
Y403750D01*
X306250D01*
X286750Y423250D01*
Y483000D01*
X417250D01*
X430750Y469500D01*
D02*
G37*
D10*
X259750Y343250D02*
D03*
Y360250D02*
D03*
X287500Y253500D02*
D03*
Y236500D02*
D03*
X254750Y217750D02*
D03*
Y234750D02*
D03*
X73660Y141360D02*
D03*
Y158360D02*
D03*
X125730Y140090D02*
D03*
Y157090D02*
D03*
Y233290D02*
D03*
Y216290D02*
D03*
X174640Y159630D02*
D03*
Y142630D02*
D03*
X184150Y212970D02*
D03*
Y195970D02*
D03*
X253500Y140250D02*
D03*
Y157250D02*
D03*
X341630Y242960D02*
D03*
Y259960D02*
D03*
X290000Y124500D02*
D03*
Y141500D02*
D03*
X436000Y306500D02*
D03*
Y323500D02*
D03*
X366000Y259750D02*
D03*
Y242750D02*
D03*
X309000Y343250D02*
D03*
Y360250D02*
D03*
D11*
X291000Y343500D02*
D03*
X279000D02*
D03*
D12*
X326390Y193040D02*
D03*
D13*
X316390Y218040D02*
D03*
X321390D02*
D03*
X326390D02*
D03*
X331390D02*
D03*
X336390D02*
D03*
Y168040D02*
D03*
X331390D02*
D03*
X326390D02*
D03*
X321390D02*
D03*
X316390D02*
D03*
D14*
X351390Y203040D02*
D03*
Y198040D02*
D03*
Y193040D02*
D03*
Y188040D02*
D03*
Y183040D02*
D03*
X301390D02*
D03*
Y188040D02*
D03*
Y193040D02*
D03*
Y198040D02*
D03*
Y203040D02*
D03*
D15*
X270510Y197470D02*
D03*
Y211470D02*
D03*
X191770Y147940D02*
D03*
Y161940D02*
D03*
X125730Y179690D02*
D03*
Y193690D02*
D03*
X270510Y165720D02*
D03*
Y179720D02*
D03*
D16*
X463250Y415250D02*
D03*
Y351250D02*
D03*
D17*
X394250Y415250D02*
D03*
D18*
X417250Y357250D02*
D03*
X394250D02*
D03*
X371250D02*
D03*
D19*
X25500Y179000D02*
D03*
D20*
Y136500D02*
D03*
Y221500D02*
D03*
D21*
X319750Y141000D02*
D03*
X333750D02*
D03*
X154250Y195000D02*
D03*
X168250D02*
D03*
X203820Y196850D02*
D03*
X217820D02*
D03*
X203850Y180340D02*
D03*
X217850D02*
D03*
X90750Y179000D02*
D03*
X104750D02*
D03*
D22*
X235990Y180340D02*
D03*
X252990D02*
D03*
X237880Y196850D02*
D03*
X254880D02*
D03*
X154710Y180340D02*
D03*
X171710D02*
D03*
X321700Y121920D02*
D03*
X338700D02*
D03*
X212000Y305500D02*
D03*
X195000D02*
D03*
D23*
X249750Y459750D02*
D03*
X313750D02*
D03*
D24*
X84250Y452000D02*
D03*
X59250Y477000D02*
D03*
Y427000D02*
D03*
X109250D02*
D03*
Y477000D02*
D03*
D25*
X316390Y158640D02*
Y168040D01*
X294040Y183040D02*
X301390D01*
X321390Y141510D02*
X321930Y140970D01*
X321390Y141510D02*
Y168040D01*
X338700Y121920D02*
Y131200D01*
X321700Y121920D02*
X321930Y122150D01*
X336390Y218040D02*
Y223360D01*
X341630Y242960D02*
X351500D01*
X326390Y218040D02*
Y273140D01*
X330500Y277250D01*
X331000Y269750D02*
X337750Y276500D01*
X331000Y218430D02*
Y269750D01*
Y218430D02*
X331390Y218040D01*
X303000Y145250D02*
X316390Y158640D01*
X336390Y223360D02*
X341630Y228600D01*
X321930Y122150D02*
Y140970D01*
X321700Y105400D02*
Y121920D01*
X338700Y109050D02*
Y121920D01*
X332750Y137150D02*
X338700Y131200D01*
X326390Y154860D02*
Y168040D01*
Y154860D02*
X332750Y148500D01*
X331390Y158610D02*
Y168040D01*
Y158610D02*
X331390Y158610D01*
X332120D01*
Y156841D02*
Y158610D01*
Y156841D02*
X340711Y148250D01*
X352750D01*
X338700Y109050D02*
X345000Y102750D01*
X320000Y103700D02*
X321700Y105400D01*
X320000Y98000D02*
Y103700D01*
X320750Y94000D02*
X324000D01*
X320000Y98000D02*
X324000Y94000D01*
X332750Y137150D02*
Y148500D01*
X345000Y93250D02*
Y102750D01*
X288750Y91250D02*
X303000Y105500D01*
Y145250D01*
X288750Y70400D02*
Y91250D01*
X330500Y277250D02*
Y362750D01*
X337750Y276500D02*
Y361750D01*
X173500Y395900D02*
X297350D01*
X330500Y362750D01*
X173500Y421300D02*
X174450Y422250D01*
X298250Y401250D02*
X337750Y361750D01*
X200000Y401250D02*
X298250D01*
X179000Y422250D02*
X200000Y401250D01*
X174450Y422250D02*
X179000D01*
X367750Y68650D02*
Y133250D01*
X352750Y148250D02*
X367750Y133250D01*
D26*
X316390Y218040D02*
Y233110D01*
X310000Y239500D02*
X316390Y233110D01*
X290960Y203040D02*
X301390D01*
X254750Y196980D02*
X254880Y196850D01*
X253500Y179830D02*
X253610Y179720D01*
X252990Y180340D02*
X253500Y179830D01*
X73660Y179070D02*
X89520D01*
X125730Y193690D02*
X126350Y194310D01*
X125730Y216290D02*
X125730Y216290D01*
X237880Y196850D02*
X237880Y196850D01*
X203850Y180340D02*
X203850Y180340D01*
X171710D02*
X174640Y177410D01*
X143510Y194310D02*
X143510Y194310D01*
X153640Y181410D02*
X154710Y180340D01*
X191770Y161940D02*
X191770Y161940D01*
X202940Y195970D02*
X203820Y196850D01*
X272430Y196850D02*
X273050Y197470D01*
X288290Y193040D02*
X301390D01*
X273050Y197470D02*
X283860D01*
X288290Y193040D01*
X283700Y179720D02*
X292020Y188040D01*
X270510Y179720D02*
X283700D01*
X321390Y218040D02*
Y267860D01*
X310000Y239500D02*
Y258000D01*
X260100Y305750D02*
X262250D01*
X308900Y343150D02*
X309000Y343250D01*
X259750D02*
X260100Y342900D01*
X291250Y343250D02*
X309000D01*
X291000Y343500D02*
X291250Y343250D01*
X259750D02*
X278750D01*
X279000Y343500D01*
X439950Y34050D02*
X463250D01*
X351390Y183040D02*
X362040D01*
X362250Y183250D01*
X432250Y59450D02*
X463250D01*
X421000Y70700D02*
X432250Y59450D01*
X351390Y188040D02*
X365210D01*
X429500Y90000D02*
X434650Y84850D01*
X463250D01*
X351390Y193040D02*
X366960D01*
X351390Y198040D02*
X373460D01*
X435850Y135650D01*
X463250D01*
X366960Y193040D02*
X449750Y110250D01*
X463250D01*
X351390Y203040D02*
X377710D01*
X419700Y161050D01*
X463250D01*
X365210Y188040D02*
X429500Y123750D01*
Y90000D02*
Y123750D01*
X362250Y183250D02*
X421000Y124500D01*
Y70700D02*
Y124500D01*
X415500Y58500D02*
X439950Y34050D01*
X384250Y153500D02*
X415500Y122250D01*
Y58500D02*
Y122250D01*
X336390Y158610D02*
Y168040D01*
Y158610D02*
X341500Y153500D01*
X384250D01*
X25000Y177800D02*
X26200Y179000D01*
X103520Y179070D02*
X123825D01*
X125730Y177165D01*
X183760Y195580D02*
X184150Y195970D01*
X292020Y188040D02*
X301390D01*
X193000Y305250D02*
X195500Y307750D01*
X212500D02*
X214500Y305750D01*
D27*
X287500Y206500D02*
X290960Y203040D01*
X308900Y280350D02*
X321390Y267860D01*
X262250Y305750D02*
X310000Y258000D01*
X214500Y305750D02*
X260100D01*
X287500Y206500D02*
Y236500D01*
X260100Y305750D02*
Y342900D01*
X308900Y305750D02*
Y343150D01*
Y280350D02*
Y305750D01*
X290000Y179000D02*
X294040Y183040D01*
X290000Y141500D02*
Y179000D01*
D28*
X217820Y196850D02*
X237880D01*
X217850Y180340D02*
X235990D01*
X191770Y161940D02*
Y180340D01*
X171710D02*
X191770D01*
X203850D01*
X184150Y195970D02*
X202940D01*
X253610Y179720D02*
X270510D01*
X253500Y157250D02*
Y179830D01*
X254750Y196980D02*
Y217750D01*
X174640Y159630D02*
Y177410D01*
X254880Y196850D02*
X272430D01*
D29*
X126350Y194310D02*
X143510D01*
X84250Y382750D02*
X161750Y305250D01*
X193000D01*
X429550Y186450D02*
X463250D01*
X125730Y193690D02*
Y216290D01*
X84250Y382750D02*
Y452000D01*
X125730Y157090D02*
Y177165D01*
X417250Y335500D02*
Y357250D01*
Y335500D02*
X427000Y325750D01*
X463250Y262650D02*
Y325750D01*
Y351250D01*
X427000Y325750D02*
X463250D01*
X394250Y254000D02*
Y357250D01*
X378125Y237875D02*
X394250Y254000D01*
X373040Y242960D02*
X378125Y237875D01*
X429550Y186450D01*
X89450Y179000D02*
X89520Y179070D01*
X25500Y179000D02*
X26200D01*
X73660D01*
X89450D01*
X73660Y158360D02*
Y179000D01*
X351500Y242960D02*
X373040D01*
D30*
X143510Y194310D02*
X153640D01*
X341630Y228600D02*
Y236610D01*
X153640Y181410D02*
Y194310D01*
X168290Y195580D02*
X183760D01*
D31*
X349125Y243125D02*
D03*
D32*
X287500Y38500D02*
D03*
X344750Y95500D02*
D03*
X463250Y237250D02*
D03*
Y186450D02*
D03*
Y161050D02*
D03*
Y135650D02*
D03*
Y110250D02*
D03*
Y84850D02*
D03*
Y59450D02*
D03*
Y34050D02*
D03*
Y211850D02*
D03*
X367500Y38500D02*
D03*
X173500Y395900D02*
D03*
Y421300D02*
D03*
Y446700D02*
D03*
D33*
X287500Y63900D02*
D03*
X463250Y262650D02*
D03*
X367500Y63900D02*
D03*
X173500Y370500D02*
D03*
D34*
X319350Y95500D02*
D03*
D35*
X308900Y305750D02*
D03*
D36*
X260100D02*
D03*
D37*
X331890Y187540D02*
D03*
X320890D02*
D03*
X331890Y198540D02*
D03*
X320890D02*
D03*
D38*
X91250Y141000D02*
D03*
X109500Y140500D02*
D03*
X57000Y452250D02*
D03*
X112000Y453000D02*
D03*
X10500Y116500D02*
D03*
X27250Y116250D02*
D03*
X63500Y216500D02*
D03*
X108500Y233750D02*
D03*
X143500D02*
D03*
X157000Y143000D02*
D03*
X174250Y123250D02*
D03*
X191500Y130250D02*
D03*
X269250Y254250D02*
D03*
X279250Y270500D02*
D03*
X236500Y244750D02*
D03*
X200750Y218250D02*
D03*
X154500Y216750D02*
D03*
X237250Y135250D02*
D03*
X270250Y139750D02*
D03*
X282000Y106750D02*
D03*
X366750Y279000D02*
D03*
X352250Y342000D02*
D03*
X350000Y367000D02*
D03*
X371500Y332000D02*
D03*
X489250Y415250D02*
D03*
X440500Y415500D02*
D03*
X488750Y436500D02*
D03*
X486250Y211750D02*
D03*
X485750Y237250D02*
D03*
X350750Y277250D02*
D03*
X364250Y221250D02*
D03*
X301250Y160250D02*
D03*
X360000Y166000D02*
D03*
X90500Y162500D02*
D03*
X57500Y163000D02*
D03*
X57000Y195000D02*
D03*
X262250Y283250D02*
D03*
X243000Y292750D02*
D03*
X212250Y288000D02*
D03*
X189000Y287750D02*
D03*
X164000Y288250D02*
D03*
X145750Y297750D02*
D03*
X132750Y310250D02*
D03*
X120500Y323250D02*
D03*
X108250Y335000D02*
D03*
X95500Y347000D02*
D03*
X66750Y405750D02*
D03*
X84000Y359000D02*
D03*
X73250Y371750D02*
D03*
X67250Y388750D02*
D03*
X101750Y404250D02*
D03*
X155750Y333250D02*
D03*
X187250Y321250D02*
D03*
X205750Y378500D02*
D03*
X294750Y379000D02*
D03*
X320250Y394750D02*
D03*
X336500Y382500D02*
D03*
X224250Y459750D02*
D03*
X224000Y440500D02*
D03*
X224250Y477250D02*
D03*
X150000Y406750D02*
D03*
X259500Y378000D02*
D03*
X284000Y413000D02*
D03*
X101750Y389250D02*
D03*
X112000Y377250D02*
D03*
X122000Y365750D02*
D03*
X132500Y355500D02*
D03*
X144500Y344500D02*
D03*
X168750Y322000D02*
D03*
X212000Y321750D02*
D03*
X235250Y321000D02*
D03*
X285000Y305000D02*
D03*
X12000Y242250D02*
D03*
X29250Y241750D02*
D03*
X47500D02*
D03*
X43500Y116750D02*
D03*
X63750Y234750D02*
D03*
X62000Y125000D02*
D03*
D39*
X326250Y192750D02*
D03*
M02*
