G04 Layer_Color=32768*
%FSLAX44Y44*%
%MOMM*%
G71*
G01*
G75*
%ADD65C,0.0500*%
%ADD66C,0.1000*%
D65*
X291890Y158540D02*
X360890D01*
X291890Y227540D02*
X360890D01*
Y158540D02*
Y227540D01*
X291890Y158540D02*
Y227540D01*
X430250Y342750D02*
Y429750D01*
X358250Y342750D02*
Y429750D01*
X430250D01*
X358250Y342750D02*
X430250D01*
X-95500Y128500D02*
Y229500D01*
Y128500D02*
X51500D01*
X-95500Y229500D02*
X51500D01*
Y128500D02*
Y229500D01*
X46250Y414000D02*
X122250D01*
Y490000D01*
X46250D02*
X122250D01*
X46250Y414000D02*
Y490000D01*
D66*
X326390Y188040D02*
Y198040D01*
X321390Y193040D02*
X331390D01*
X265010Y192470D02*
X276010D01*
X265010Y216470D02*
X276010D01*
X265010Y192470D02*
Y216470D01*
X276010Y192470D02*
Y216470D01*
X270510Y199720D02*
Y209220D01*
X265760Y204470D02*
X275260D01*
X389250Y386250D02*
X399250D01*
X394250Y381250D02*
Y391250D01*
X500Y174000D02*
Y184000D01*
X-4500Y179000D02*
X5500D01*
X314750Y135500D02*
Y146500D01*
X338750Y135500D02*
Y146500D01*
X314750D02*
X338750D01*
X314750Y135500D02*
X338750D01*
X322000Y141000D02*
X331500D01*
X326750Y136250D02*
Y145750D01*
X186270Y142940D02*
X197270D01*
X186270Y166940D02*
X197270D01*
X186270Y142940D02*
Y166940D01*
X197270Y142940D02*
Y166940D01*
X191770Y150190D02*
Y159690D01*
X187020Y154940D02*
X196520D01*
X149250Y189500D02*
Y200500D01*
X173250Y189500D02*
Y200500D01*
X149250D02*
X173250D01*
X149250Y189500D02*
X173250D01*
X156500Y195000D02*
X166000D01*
X161250Y190250D02*
Y199750D01*
X120230Y174690D02*
X131230D01*
X120230Y198690D02*
X131230D01*
X120230Y174690D02*
Y198690D01*
X131230Y174690D02*
Y198690D01*
X125730Y181940D02*
Y191440D01*
X120980Y186690D02*
X130480D01*
X198820Y191350D02*
Y202350D01*
X222820Y191350D02*
Y202350D01*
X198820D02*
X222820D01*
X198820Y191350D02*
X222820D01*
X206070Y196850D02*
X215570D01*
X210820Y192100D02*
Y201600D01*
X198850Y174840D02*
Y185840D01*
X222850Y174840D02*
Y185840D01*
X198850D02*
X222850D01*
X198850Y174840D02*
X222850D01*
X206100Y180340D02*
X215600D01*
X210850Y175590D02*
Y185090D01*
X85750Y173500D02*
Y184500D01*
X109750Y173500D02*
Y184500D01*
X85750D02*
X109750D01*
X85750Y173500D02*
X109750D01*
X93000Y179000D02*
X102500D01*
X97750Y174250D02*
Y183750D01*
X265010Y160720D02*
X276010D01*
X265010Y184720D02*
X276010D01*
X265010Y160720D02*
Y184720D01*
X276010Y160720D02*
Y184720D01*
X270510Y167970D02*
Y177470D01*
X265760Y172720D02*
X275260D01*
X84250Y447000D02*
Y457000D01*
X79250Y452000D02*
X89250D01*
M02*
