G04 Layer_Color=8421504*
%FSLAX44Y44*%
%MOMM*%
G71*
G01*
G75*
%ADD10R,1.1000X1.0000*%
%ADD11R,1.1000X0.2500*%
%ADD12R,0.2500X1.1000*%
%ADD13R,3.2500X3.2500*%
%ADD14R,5.0000X1.4000*%
%ADD15R,5.0000X1.0000*%
%ADD16R,1.0000X1.1000*%
%ADD17R,0.6000X0.9000*%
%ADD18R,0.9000X0.8000*%
%ADD19R,2.4000X2.6000*%
%ADD20R,3.3000X2.4000*%
%ADD21R,1.0000X2.4000*%
%ADD22R,0.8000X0.9000*%
%ADD23R,2.6000X2.4000*%
%ADD24C,1.8000*%
G36*
X144250Y426880D02*
Y426880D01*
X143325Y425104D01*
X140957Y421874D01*
X138126Y419043D01*
X134896Y416675D01*
X133120Y415750D01*
X122249Y415750D01*
Y434749D01*
X122249D01*
X122741Y434982D01*
X123645Y435586D01*
X124413Y436354D01*
X125017Y437257D01*
X125249Y437749D01*
X144250Y437750D01*
Y426880D01*
D02*
G37*
G36*
X89482Y437259D02*
X90085Y436356D01*
X90854Y435587D01*
X91757Y434983D01*
X92249Y434751D01*
X92250Y415750D01*
X81380D01*
X81380Y415750D01*
X79604Y416675D01*
X76374Y419043D01*
X73543Y421874D01*
X71175Y425104D01*
X70250Y426880D01*
X70250Y437751D01*
X89249D01*
X89482Y437259D01*
D02*
G37*
G36*
X92251Y470751D02*
Y470751D01*
X91759Y470518D01*
X90856Y469915D01*
X90087Y469146D01*
X89483Y468242D01*
X89251Y467751D01*
X70250Y467750D01*
Y478620D01*
X70250D01*
X71175Y480396D01*
X73543Y483626D01*
X76374Y486457D01*
X79604Y488825D01*
X81380Y489750D01*
X92251D01*
Y470751D01*
D02*
G37*
G36*
X134896Y488825D02*
X138126Y486457D01*
X140957Y483626D01*
X143325Y480396D01*
X144250Y478620D01*
Y467749D01*
X125251D01*
X125251Y467749D01*
X125018Y468241D01*
X124415Y469145D01*
X123646Y469913D01*
X122743Y470517D01*
X122251Y470749D01*
X122250Y489750D01*
X133120D01*
X134896Y488825D01*
D02*
G37*
D10*
X73750Y89250D02*
D03*
X90750D02*
D03*
X234990Y216340D02*
D03*
X251990D02*
D03*
X236880Y232850D02*
D03*
X253880D02*
D03*
X153710Y216340D02*
D03*
X170710D02*
D03*
X333250Y137750D02*
D03*
X316250D02*
D03*
X212000Y305500D02*
D03*
X195000D02*
D03*
D11*
X302890Y207790D02*
D03*
Y202790D02*
D03*
Y197790D02*
D03*
Y192790D02*
D03*
Y187790D02*
D03*
Y182790D02*
D03*
Y177790D02*
D03*
X350390D02*
D03*
Y182790D02*
D03*
Y187790D02*
D03*
Y192790D02*
D03*
Y197790D02*
D03*
Y202790D02*
D03*
Y207790D02*
D03*
D12*
X311640Y169040D02*
D03*
X316640D02*
D03*
X321640D02*
D03*
X326640D02*
D03*
X331640D02*
D03*
X336640D02*
D03*
X341640D02*
D03*
Y216540D02*
D03*
X336640D02*
D03*
X331640D02*
D03*
X326640D02*
D03*
X321640D02*
D03*
X316640D02*
D03*
X311640D02*
D03*
D13*
X326640Y192790D02*
D03*
D14*
X27000Y132500D02*
D03*
Y47500D02*
D03*
X24500Y172500D02*
D03*
Y257500D02*
D03*
D15*
X27000Y90000D02*
D03*
X24500Y215000D02*
D03*
D16*
X259750Y343250D02*
D03*
Y360250D02*
D03*
X291000Y253750D02*
D03*
Y236750D02*
D03*
X253750Y253750D02*
D03*
Y270750D02*
D03*
X72660Y177360D02*
D03*
Y194360D02*
D03*
X124730Y176090D02*
D03*
Y193090D02*
D03*
Y269290D02*
D03*
Y252290D02*
D03*
X173640Y195630D02*
D03*
Y178630D02*
D03*
X183150Y248970D02*
D03*
Y231970D02*
D03*
X252500Y176250D02*
D03*
Y193250D02*
D03*
X341630Y242960D02*
D03*
Y259960D02*
D03*
X284750Y149250D02*
D03*
Y166250D02*
D03*
X436000Y306500D02*
D03*
Y323500D02*
D03*
X366000Y259750D02*
D03*
Y242750D02*
D03*
X309000Y343250D02*
D03*
Y360250D02*
D03*
D17*
X291000Y343500D02*
D03*
X279000D02*
D03*
D18*
X269510Y233470D02*
D03*
Y247470D02*
D03*
X190770Y183940D02*
D03*
Y197940D02*
D03*
X124730Y215690D02*
D03*
Y229690D02*
D03*
X269510Y201720D02*
D03*
Y215720D02*
D03*
D19*
X463250Y415250D02*
D03*
Y351250D02*
D03*
D20*
X394250Y415250D02*
D03*
D21*
X417250Y357250D02*
D03*
X394250D02*
D03*
X371250D02*
D03*
D22*
X153250Y231000D02*
D03*
X167250D02*
D03*
X202820Y232850D02*
D03*
X216820D02*
D03*
X202850Y216340D02*
D03*
X216850D02*
D03*
X89750Y215000D02*
D03*
X103750D02*
D03*
D23*
X249750Y459750D02*
D03*
X313750D02*
D03*
D24*
X107250Y452750D02*
D03*
X82250Y477750D02*
D03*
Y427750D02*
D03*
X132250D02*
D03*
Y477750D02*
D03*
M02*
