G04 Layer_Color=16711935*
%FSLAX44Y44*%
%MOMM*%
G71*
G01*
G75*
%ADD66R,5.2032X1.6032*%
%ADD68R,1.7032X1.7032*%
%ADD69C,1.7032*%
%ADD70R,1.7032X1.7032*%
%ADD71C,1.6032*%
%ADD72P,1.7353X8X22.5*%
%ADD73C,5.2032*%
%ADD74C,0.8032*%
%ADD75C,0.7032*%
D66*
X26000Y157250D02*
D03*
Y242250D02*
D03*
D68*
X461550Y350550D02*
D03*
X213600Y147000D02*
D03*
X546000Y64750D02*
D03*
D69*
X461200Y324900D02*
D03*
X436000Y350500D02*
D03*
Y325100D02*
D03*
X410600Y350500D02*
D03*
Y325100D02*
D03*
X385200Y350500D02*
D03*
Y325100D02*
D03*
X359800Y350500D02*
D03*
Y325100D02*
D03*
X334400Y350500D02*
D03*
Y325100D02*
D03*
X191250Y337500D02*
D03*
X239000Y147000D02*
D03*
X571400Y64750D02*
D03*
D70*
X191250Y362900D02*
D03*
D71*
X293300Y351000D02*
D03*
D72*
X244500D02*
D03*
D73*
X50000Y125000D02*
D03*
Y275000D02*
D03*
X485000D02*
D03*
Y125000D02*
D03*
D74*
X265750Y242250D02*
D03*
X265500Y302000D02*
D03*
X410600Y309250D02*
D03*
X515775Y325266D02*
D03*
X451750Y308500D02*
D03*
X351250Y301750D02*
D03*
X536250Y365250D02*
D03*
Y285250D02*
D03*
X556250Y245250D02*
D03*
X536250Y205250D02*
D03*
X556250Y165250D02*
D03*
X536250Y125250D02*
D03*
X556250Y85250D02*
D03*
X536250Y45250D02*
D03*
X496250Y365250D02*
D03*
X516250Y245250D02*
D03*
X496250Y205250D02*
D03*
X516250Y165250D02*
D03*
Y85250D02*
D03*
X496250Y45250D02*
D03*
X476250Y325250D02*
D03*
Y85250D02*
D03*
X416250Y365250D02*
D03*
X436250Y245250D02*
D03*
X416250Y205250D02*
D03*
Y125250D02*
D03*
Y45250D02*
D03*
X376250Y205250D02*
D03*
Y45250D02*
D03*
X356250Y165250D02*
D03*
X336250Y45250D02*
D03*
X316250Y325250D02*
D03*
X296250Y205250D02*
D03*
X316250Y165250D02*
D03*
X256250Y365250D02*
D03*
Y285250D02*
D03*
Y125250D02*
D03*
X276250Y85250D02*
D03*
X216250Y365250D02*
D03*
X236250Y165250D02*
D03*
X216250Y125250D02*
D03*
X236250Y85250D02*
D03*
X196250Y325250D02*
D03*
X176250Y285250D02*
D03*
Y205250D02*
D03*
X196250Y165250D02*
D03*
X176250Y125250D02*
D03*
X196250Y85250D02*
D03*
X176250Y45250D02*
D03*
X136250Y365250D02*
D03*
X156250Y325250D02*
D03*
Y165250D02*
D03*
X136250Y45250D02*
D03*
X96250Y365250D02*
D03*
X116250Y325250D02*
D03*
X96250Y285250D02*
D03*
X116250Y245250D02*
D03*
Y165250D02*
D03*
X56250Y365250D02*
D03*
X76250Y325250D02*
D03*
Y245250D02*
D03*
Y165250D02*
D03*
Y85250D02*
D03*
X56250Y45250D02*
D03*
X16250Y365250D02*
D03*
X36250Y325250D02*
D03*
X16250Y285250D02*
D03*
Y125250D02*
D03*
X36250Y85250D02*
D03*
X16250Y45250D02*
D03*
X509200Y335800D02*
D03*
X368750Y146750D02*
D03*
X290750Y124750D02*
D03*
X448750Y188750D02*
D03*
X461250Y199750D02*
D03*
X378750Y114750D02*
D03*
Y135250D02*
D03*
Y125000D02*
D03*
X334500Y124750D02*
D03*
D75*
X310000Y273250D02*
D03*
X321000D02*
D03*
X332000D02*
D03*
X310000Y262250D02*
D03*
X321000D02*
D03*
X332000D02*
D03*
X310000Y251250D02*
D03*
X321000D02*
D03*
X332000D02*
D03*
M02*
