G04 Layer_Color=16711935*
%FSLAX44Y44*%
%MOMM*%
G71*
G01*
G75*
%ADD47C,0.1000*%
D47*
X310000Y278250D02*
G03*
X310000Y278250I-5000J0D01*
G01*
X98250Y92150D02*
Y121350D01*
X111250Y92150D02*
Y121350D01*
X98250D02*
X111250D01*
X98250Y92150D02*
X111250D01*
X433000Y62000D02*
X449000D01*
X433000Y89000D02*
X449000D01*
Y62000D02*
Y89000D01*
X433000Y62000D02*
Y89000D01*
X395000Y147750D02*
Y165750D01*
X426000Y147750D02*
Y165750D01*
X395000Y147750D02*
X426000D01*
X395000Y165750D02*
X426000D01*
X455900Y185500D02*
X485100D01*
X455900Y172500D02*
X485100D01*
Y185500D01*
X455900Y172500D02*
Y185500D01*
X325000Y58750D02*
Y76250D01*
X315500Y58750D02*
Y76250D01*
X325000D01*
X315500Y58750D02*
X325000D01*
X392500Y95000D02*
X405000D01*
X392500D02*
Y115000D01*
X405000D01*
Y95000D02*
Y115000D01*
X358500Y84750D02*
X376000D01*
X358500Y94250D02*
X376000D01*
Y84750D02*
Y94250D01*
X358500Y84750D02*
Y94250D01*
X257500Y55750D02*
X275000D01*
X257500Y65250D02*
X275000D01*
Y55750D02*
Y65250D01*
X257500Y55750D02*
Y65250D01*
X306500Y110150D02*
Y139350D01*
X319500Y110150D02*
Y139350D01*
X306500D02*
X319500D01*
X306500Y110150D02*
X319500D01*
X350750Y110150D02*
Y139350D01*
X363750Y110150D02*
Y139350D01*
X350750D02*
X363750D01*
X350750Y110150D02*
X363750D01*
X296000Y237250D02*
Y287250D01*
X346000Y237250D02*
Y287250D01*
X296000D02*
X346000D01*
X296000Y237250D02*
X346000D01*
X152000Y267250D02*
Y276750D01*
X169500Y267250D02*
Y276750D01*
X152000D02*
X169500D01*
X152000Y267250D02*
X169500D01*
X240250Y271000D02*
X249750D01*
X240250Y288500D02*
X249750D01*
X240250Y271000D02*
Y288500D01*
X249750Y271000D02*
Y288500D01*
X80000Y195000D02*
Y204500D01*
X97500Y195000D02*
Y204500D01*
X80000D02*
X97500D01*
X80000Y195000D02*
X97500D01*
X326750Y212250D02*
Y221750D01*
X309250Y212250D02*
Y221750D01*
Y212250D02*
X326750D01*
X309250Y221750D02*
X326750Y221750D01*
X190750Y223750D02*
X200250D01*
X190750Y241250D02*
X200250D01*
X190750Y223750D02*
Y241250D01*
X200250Y223750D02*
Y241250D01*
X129500Y226500D02*
X139000D01*
X129500Y244000D02*
X139000D01*
X129500Y226500D02*
Y244000D01*
X139000Y226500D02*
Y244000D01*
X48500Y237250D02*
Y247250D01*
Y152250D02*
Y162250D01*
X-85997Y173249D02*
Y226251D01*
X-93998Y173748D02*
Y225751D01*
X-93497Y226251D02*
X-85997D01*
X-93998Y225751D02*
X-93497Y226251D01*
X-85997D02*
X-80747Y231501D01*
X-85997Y173249D02*
X-80747Y167999D01*
X-93998Y173748D02*
X-93497Y173249D01*
X-85997D01*
X-80747Y167999D02*
Y231501D01*
X-53247Y167999D02*
Y231501D01*
X-47997Y226251D01*
X-53247Y167999D02*
X-47997Y173249D01*
X-80747Y231501D02*
X-53247D01*
X-80747Y167999D02*
X-53247D01*
X-47997Y173249D02*
Y226251D01*
X-15997D01*
X-47997Y173249D02*
X-15997D01*
Y247248D02*
X1000Y247250D01*
X-15997Y152248D02*
Y247248D01*
Y152248D02*
X1002D01*
X1000Y237250D02*
X48500D01*
X1000Y162250D02*
X48500D01*
X1000Y204350D02*
X48500D01*
X1000Y195150D02*
X48500D01*
X1000Y247250D02*
X48500Y247250D01*
X1000Y152250D02*
X48500Y152250D01*
X1000Y152250D02*
Y247250D01*
X48500Y195150D02*
Y204350D01*
X206500Y190500D02*
X216000D01*
X206500Y208000D02*
X216000D01*
X206500Y190500D02*
Y208000D01*
X216000Y190500D02*
Y208000D01*
X130000Y257000D02*
X139500D01*
X130000Y274500D02*
X139500D01*
X130000Y257000D02*
Y274500D01*
X139500Y257000D02*
Y274500D01*
X240250Y240250D02*
X249750D01*
X240250Y257750D02*
X249750D01*
X240250Y240250D02*
Y257750D01*
X249750Y240250D02*
Y257750D01*
M02*
