G04 Layer_Physical_Order=1*
G04 Layer_Color=255*
%FSLAX44Y44*%
%MOMM*%
G71*
G01*
G75*
%ADD10R,0.6000X0.9000*%
%ADD11R,0.9000X0.8000*%
%ADD12R,1.0000X0.8000*%
%ADD13R,0.8000X0.8000*%
%ADD14R,1.0000X1.1000*%
%ADD15R,0.8000X0.9000*%
%ADD16R,2.6000X2.4000*%
%ADD17R,0.9000X0.8000*%
%ADD18R,1.0000X1.4000*%
%ADD19R,0.8000X0.9000*%
%ADD20R,1.1000X1.0000*%
%ADD21R,0.7000X0.4000*%
%ADD22R,1.1000X0.2500*%
%ADD23R,0.2500X1.1000*%
%ADD24R,3.2500X3.2500*%
%ADD25R,5.0000X1.0000*%
%ADD26R,5.0000X1.4000*%
%ADD27R,2.4000X2.6000*%
%ADD28C,0.6000*%
%ADD29C,0.2500*%
%ADD30C,1.0000*%
%ADD31C,0.3000*%
%ADD32C,0.2000*%
%ADD33C,0.5000*%
%ADD34C,0.2540*%
%ADD35C,0.4000*%
%ADD36C,0.7000*%
%ADD37C,0.5500*%
%ADD38C,0.8000*%
%ADD39R,1.5000X1.5000*%
%ADD40C,1.5000*%
%ADD41R,1.5000X1.5000*%
%ADD42C,1.4000*%
%ADD43P,1.5154X8X22.5*%
%ADD44C,5.0000*%
%ADD45C,0.6000*%
%ADD46C,0.5000*%
G36*
X114064Y198217D02*
X114053Y198223D01*
X114021Y198229D01*
X113968Y198234D01*
X113681Y198245D01*
X113000Y198250D01*
Y200250D01*
X114064Y200283D01*
Y198217D01*
D02*
G37*
G36*
X600285Y400427D02*
X600427Y400285D01*
X600504Y400100D01*
Y-100D01*
X600427Y-285D01*
X600285Y-427D01*
X600100Y-504D01*
X-100D01*
X-285Y-427D01*
X-427Y-285D01*
X-504Y-100D01*
Y146789D01*
X766Y147707D01*
X1000Y147660D01*
X24730D01*
Y157250D01*
Y166840D01*
X1000D01*
X766Y166793D01*
X-504Y167711D01*
Y191822D01*
X-358Y192032D01*
X766Y192757D01*
X1000Y192711D01*
X25839D01*
X26000Y192690D01*
X81750D01*
X83577Y192930D01*
X84255Y193211D01*
X85750D01*
X86530Y193366D01*
X87192Y193808D01*
X87634Y194470D01*
X87789Y195250D01*
Y196122D01*
X87865Y196220D01*
X88363Y197422D01*
X89633Y197169D01*
Y181966D01*
X89220Y181884D01*
X88558Y181442D01*
X88116Y180780D01*
X87961Y180000D01*
Y170000D01*
X88116Y169220D01*
X88558Y168558D01*
X89220Y168116D01*
X90000Y167961D01*
X101000D01*
X101780Y168116D01*
X102442Y168558D01*
X102884Y169220D01*
X103039Y170000D01*
Y180000D01*
X102884Y180780D01*
X102442Y181442D01*
X101868Y181826D01*
Y195672D01*
X104220D01*
X104615Y195534D01*
X105431Y194562D01*
Y137000D01*
X105703Y135634D01*
X106477Y134477D01*
X112172Y128782D01*
Y112789D01*
X110250D01*
X109470Y112634D01*
X108808Y112192D01*
X108366Y111530D01*
X108211Y110750D01*
Y102750D01*
X108366Y101970D01*
X108808Y101308D01*
X109470Y100866D01*
X110250Y100711D01*
X112172D01*
Y77174D01*
X111970Y77134D01*
X111308Y76692D01*
X110866Y76030D01*
X110711Y75250D01*
Y66250D01*
X110866Y65470D01*
X111308Y64808D01*
X111970Y64366D01*
X112750Y64211D01*
X114347D01*
X114689Y63982D01*
X116250Y63672D01*
X117811Y63982D01*
X118153Y64211D01*
X118750D01*
X119530Y64366D01*
X120192Y64808D01*
X120634Y65470D01*
X120789Y66250D01*
Y75250D01*
X120634Y76030D01*
X120328Y76488D01*
Y101065D01*
X120692Y101308D01*
X121134Y101970D01*
X121289Y102750D01*
Y110750D01*
X121134Y111530D01*
X120692Y112192D01*
X120328Y112435D01*
Y129750D01*
X120018Y131311D01*
X119134Y132634D01*
X117811Y133518D01*
X117459Y133588D01*
X112569Y138478D01*
Y159700D01*
X113689Y160299D01*
X114088Y160032D01*
X114980Y159854D01*
Y165250D01*
Y170646D01*
X114088Y170469D01*
X113689Y170201D01*
X112569Y170800D01*
Y194459D01*
X113399Y195323D01*
X113405Y195329D01*
X114000Y195211D01*
X121000D01*
X121780Y195366D01*
X122442Y195808D01*
X122884Y196470D01*
X123039Y197250D01*
Y201250D01*
X122884Y202030D01*
X122570Y202500D01*
X122884Y202970D01*
X123039Y203750D01*
Y207750D01*
X122884Y208530D01*
X122570Y209000D01*
X122884Y209470D01*
X123039Y210250D01*
Y214250D01*
X122884Y215030D01*
X122442Y215692D01*
X121780Y216134D01*
X121000Y216289D01*
X114000D01*
X113220Y216134D01*
X112558Y215692D01*
X112116Y215030D01*
X111961Y214250D01*
Y210250D01*
X111615Y209828D01*
X110500D01*
X110500Y209828D01*
X108939Y209518D01*
X107616Y208634D01*
X103059Y204077D01*
X102267Y204185D01*
X101765Y204370D01*
X101634Y205030D01*
X101192Y205692D01*
X100530Y206134D01*
X99750Y206289D01*
X91750D01*
X90970Y206134D01*
X90308Y205692D01*
X89866Y205030D01*
X89830Y204851D01*
X88560Y204976D01*
Y223485D01*
X88884Y223970D01*
X89039Y224750D01*
Y234750D01*
X88884Y235530D01*
X88442Y236192D01*
X87780Y236634D01*
X87000Y236789D01*
X81661D01*
X81500Y236810D01*
X81339Y236789D01*
X76000D01*
X75220Y236634D01*
X74558Y236192D01*
X74116Y235530D01*
X73961Y234750D01*
Y224750D01*
X74116Y223970D01*
X74440Y223485D01*
Y206810D01*
X26000D01*
X25839Y206789D01*
X1000D01*
X766Y206743D01*
X-358Y207468D01*
X-504Y207678D01*
Y231789D01*
X766Y232707D01*
X1000Y232660D01*
X24730D01*
Y242250D01*
Y251840D01*
X1000D01*
X766Y251793D01*
X-504Y252711D01*
Y400100D01*
X-427Y400285D01*
X-285Y400427D01*
X-100Y400504D01*
X600100D01*
X600285Y400427D01*
D02*
G37*
G36*
X112619Y197455D02*
X110500Y195249D01*
X108999Y196750D01*
X109037Y196771D01*
X109115Y196835D01*
X109394Y197089D01*
X111205Y198869D01*
X112619Y197455D01*
D02*
G37*
%LPC*%
G36*
X367480Y152146D02*
X366588Y151969D01*
X364756Y150744D01*
X363531Y148912D01*
X363354Y148020D01*
X367480D01*
Y152146D01*
D02*
G37*
G36*
X374146Y145480D02*
X370020D01*
Y141354D01*
X370912Y141531D01*
X372744Y142756D01*
X373969Y144588D01*
X374146Y145480D01*
D02*
G37*
G36*
X237730Y156959D02*
X236379Y156782D01*
X233937Y155770D01*
X231839Y154161D01*
X230230Y152063D01*
X229218Y149621D01*
X229041Y148270D01*
X237730D01*
Y156959D01*
D02*
G37*
G36*
X370020Y152146D02*
Y148020D01*
X374146D01*
X373969Y148912D01*
X372744Y150744D01*
X370912Y151969D01*
X370020Y152146D01*
D02*
G37*
G36*
X380020Y140646D02*
Y136520D01*
X384146D01*
X383969Y137412D01*
X382744Y139244D01*
X380912Y140469D01*
X380020Y140646D01*
D02*
G37*
G36*
X377480D02*
X376588Y140469D01*
X374756Y139244D01*
X373531Y137412D01*
X373354Y136520D01*
X377480D01*
Y140646D01*
D02*
G37*
G36*
X384146Y133980D02*
X373354D01*
X373531Y133088D01*
X374756Y131256D01*
X374793Y130476D01*
X373581Y130581D01*
X372741Y131143D01*
X371750Y131340D01*
X368520D01*
Y124750D01*
Y118160D01*
X371750D01*
X372741Y118357D01*
X373155Y118634D01*
X374070Y117718D01*
X373531Y116912D01*
X373354Y116020D01*
X384146D01*
X383969Y116912D01*
X382744Y118744D01*
X382002Y119240D01*
Y120510D01*
X382744Y121006D01*
X383969Y122838D01*
X384146Y123730D01*
X378750D01*
Y126270D01*
X384146D01*
X383969Y127162D01*
X382744Y128994D01*
X382002Y129490D01*
Y130760D01*
X382744Y131256D01*
X383969Y133088D01*
X384146Y133980D01*
D02*
G37*
G36*
X237730Y145730D02*
X229041D01*
X229218Y144379D01*
X230230Y141937D01*
X231839Y139839D01*
X233937Y138230D01*
X236379Y137218D01*
X237730Y137041D01*
Y145730D01*
D02*
G37*
G36*
X367480Y145480D02*
X363354D01*
X363531Y144588D01*
X364756Y142756D01*
X366588Y141531D01*
X367480Y141354D01*
Y145480D01*
D02*
G37*
G36*
X221100Y156539D02*
X206100D01*
X205320Y156384D01*
X204658Y155942D01*
X204216Y155280D01*
X204061Y154500D01*
Y139500D01*
X204216Y138720D01*
X204658Y138058D01*
X205320Y137616D01*
X206100Y137461D01*
X221100D01*
X221880Y137616D01*
X222542Y138058D01*
X222984Y138720D01*
X223139Y139500D01*
Y154500D01*
X222984Y155280D01*
X222542Y155942D01*
X221880Y156384D01*
X221100Y156539D01*
D02*
G37*
G36*
X248959Y145730D02*
X240270D01*
Y137041D01*
X241621Y137218D01*
X244063Y138230D01*
X246161Y139839D01*
X247770Y141937D01*
X248782Y144379D01*
X248959Y145730D01*
D02*
G37*
G36*
X201646Y163980D02*
X197520D01*
Y159854D01*
X198412Y160032D01*
X200244Y161256D01*
X201469Y163088D01*
X201646Y163980D01*
D02*
G37*
G36*
X194980D02*
X190854D01*
X191031Y163088D01*
X192256Y161256D01*
X194088Y160032D01*
X194980Y159854D01*
Y163980D01*
D02*
G37*
G36*
X161646D02*
X157520D01*
Y159854D01*
X158412Y160032D01*
X160244Y161256D01*
X161469Y163088D01*
X161646Y163980D01*
D02*
G37*
G36*
X314980D02*
X310854D01*
X311031Y163088D01*
X312256Y161256D01*
X314088Y160032D01*
X314980Y159854D01*
Y163980D01*
D02*
G37*
G36*
X241646D02*
X237520D01*
Y159854D01*
X238412Y160032D01*
X240244Y161256D01*
X241469Y163088D01*
X241646Y163980D01*
D02*
G37*
G36*
X234980D02*
X230854D01*
X231031Y163088D01*
X232256Y161256D01*
X234088Y160032D01*
X234980Y159854D01*
Y163980D01*
D02*
G37*
G36*
X74980D02*
X70854D01*
X71031Y163088D01*
X72256Y161256D01*
X74088Y160032D01*
X74980Y159854D01*
Y163980D01*
D02*
G37*
G36*
X51000Y166840D02*
X27270D01*
Y158520D01*
X53590D01*
Y164250D01*
X53393Y165241D01*
X52831Y166081D01*
X51991Y166643D01*
X51000Y166840D01*
D02*
G37*
G36*
X240270Y156959D02*
Y148270D01*
X248959D01*
X248782Y149621D01*
X247770Y152063D01*
X246161Y154161D01*
X244063Y155770D01*
X241621Y156782D01*
X240270Y156959D01*
D02*
G37*
G36*
X140090Y204480D02*
X134000D01*
X127910D01*
Y203750D01*
X128107Y202759D01*
X128611Y202005D01*
X128461Y201250D01*
Y197250D01*
X128616Y196470D01*
X129058Y195808D01*
X129720Y195366D01*
X130500Y195211D01*
X137500D01*
X137877Y195286D01*
X137879D01*
X137880Y195286D01*
X137916Y195294D01*
X138922Y194713D01*
X139186Y194444D01*
Y170789D01*
X137500D01*
X136720Y170634D01*
X136058Y170192D01*
X135616Y169530D01*
X135461Y168750D01*
Y157750D01*
X135616Y156970D01*
X136058Y156308D01*
X136720Y155866D01*
X137500Y155711D01*
X147500D01*
X148280Y155866D01*
X148942Y156308D01*
X149384Y156970D01*
X149539Y157750D01*
Y164081D01*
X150809Y164206D01*
X151031Y163088D01*
X152256Y161256D01*
X154088Y160032D01*
X154980Y159854D01*
Y165250D01*
Y170646D01*
X154088Y170469D01*
X152256Y169244D01*
X151031Y167412D01*
X150809Y166294D01*
X149539Y166419D01*
Y168750D01*
X149384Y169530D01*
X148942Y170192D01*
X148280Y170634D01*
X147500Y170789D01*
X145814D01*
Y197148D01*
X145834Y197250D01*
X145580Y198526D01*
X144858Y199608D01*
X142858Y201607D01*
X141776Y202330D01*
X141033Y202478D01*
X140490Y202612D01*
X140090Y203750D01*
Y204480D01*
D02*
G37*
G36*
X121646Y163980D02*
X117520D01*
Y159854D01*
X118412Y160032D01*
X120244Y161256D01*
X121469Y163088D01*
X121646Y163980D01*
D02*
G37*
G36*
X81646D02*
X77520D01*
Y159854D01*
X78412Y160032D01*
X80244Y161256D01*
X81469Y163088D01*
X81646Y163980D01*
D02*
G37*
G36*
X534980Y123980D02*
X530854D01*
X531031Y123088D01*
X532256Y121256D01*
X534088Y120031D01*
X534980Y119854D01*
Y123980D01*
D02*
G37*
G36*
X421646D02*
X417520D01*
Y119854D01*
X418412Y120031D01*
X420244Y121256D01*
X421469Y123088D01*
X421646Y123980D01*
D02*
G37*
G36*
X541646D02*
X537520D01*
Y119854D01*
X538412Y120031D01*
X540244Y121256D01*
X541469Y123088D01*
X541646Y123980D01*
D02*
G37*
G36*
X53590Y155980D02*
X27270D01*
Y147660D01*
X33003D01*
X33471Y146390D01*
X30849Y144151D01*
X28089Y140919D01*
X25868Y137296D01*
X24242Y133369D01*
X23250Y129237D01*
X23009Y126177D01*
X21729Y126101D01*
X21469Y127412D01*
X20244Y129244D01*
X18412Y130469D01*
X17520Y130646D01*
Y125250D01*
Y119854D01*
X18412Y120031D01*
X20244Y121256D01*
X21469Y123088D01*
X21701Y124257D01*
X22981Y124182D01*
X23250Y120763D01*
X24242Y116631D01*
X25868Y112704D01*
X28089Y109081D01*
X30849Y105849D01*
X34081Y103089D01*
X37704Y100868D01*
X41631Y99242D01*
X45763Y98250D01*
X50000Y97916D01*
X54237Y98250D01*
X58369Y99242D01*
X62296Y100868D01*
X65919Y103089D01*
X69151Y105849D01*
X71911Y109081D01*
X74132Y112704D01*
X75758Y116631D01*
X76750Y120763D01*
X77084Y125000D01*
X76750Y129237D01*
X75758Y133369D01*
X74132Y137296D01*
X71911Y140919D01*
X69151Y144151D01*
X65919Y146911D01*
X62296Y149132D01*
X58369Y150758D01*
X54237Y151750D01*
X53590Y151801D01*
Y155980D01*
D02*
G37*
G36*
X365980Y131340D02*
X362750D01*
X361759Y131143D01*
X360919Y130581D01*
X360357Y129741D01*
X360160Y128750D01*
Y126020D01*
X365980D01*
Y131340D01*
D02*
G37*
G36*
X414980Y123980D02*
X410854D01*
X411031Y123088D01*
X412256Y121256D01*
X414088Y120031D01*
X414980Y119854D01*
Y123980D01*
D02*
G37*
G36*
X214980D02*
X210854D01*
X211031Y123088D01*
X212256Y121256D01*
X214088Y120031D01*
X214980Y119854D01*
Y123980D01*
D02*
G37*
G36*
X181646D02*
X177520D01*
Y119854D01*
X178412Y120031D01*
X180244Y121256D01*
X181469Y123088D01*
X181646Y123980D01*
D02*
G37*
G36*
X221646D02*
X217520D01*
Y119854D01*
X218412Y120031D01*
X220244Y121256D01*
X221469Y123088D01*
X221646Y123980D01*
D02*
G37*
G36*
X261646D02*
X257520D01*
Y119854D01*
X258412Y120031D01*
X260244Y121256D01*
X261469Y123088D01*
X261646Y123980D01*
D02*
G37*
G36*
X254980D02*
X250854D01*
X251031Y123088D01*
X252256Y121256D01*
X254088Y120031D01*
X254980Y119854D01*
Y123980D01*
D02*
G37*
G36*
X14980Y130646D02*
X14088Y130469D01*
X12256Y129244D01*
X11032Y127412D01*
X10854Y126520D01*
X14980D01*
Y130646D01*
D02*
G37*
G36*
X417520D02*
Y126520D01*
X421646D01*
X421469Y127412D01*
X420244Y129244D01*
X418412Y130469D01*
X417520Y130646D01*
D02*
G37*
G36*
X414980D02*
X414088Y130469D01*
X412256Y129244D01*
X411031Y127412D01*
X410854Y126520D01*
X414980D01*
Y130646D01*
D02*
G37*
G36*
X534980D02*
X534088Y130469D01*
X532256Y129244D01*
X531031Y127412D01*
X530854Y126520D01*
X534980D01*
Y130646D01*
D02*
G37*
G36*
X286750Y160289D02*
X275750D01*
X274970Y160134D01*
X274308Y159692D01*
X273866Y159030D01*
X273711Y158250D01*
Y148250D01*
X273866Y147470D01*
X274308Y146808D01*
X274970Y146366D01*
X275750Y146211D01*
X276662D01*
Y139750D01*
X277011Y137994D01*
X278006Y136506D01*
X283506Y131006D01*
X284994Y130011D01*
X286051Y129801D01*
X286262Y129485D01*
X286542Y128424D01*
X285531Y126912D01*
X285354Y126020D01*
X290750D01*
Y123480D01*
X285354D01*
X285531Y122588D01*
X286052Y121809D01*
X285373Y120539D01*
X271000D01*
X270220Y120384D01*
X269558Y119942D01*
X267808Y118192D01*
X267366Y117530D01*
X267211Y116750D01*
Y102500D01*
X267211Y102500D01*
X267366Y101720D01*
X267808Y101058D01*
X267808Y101058D01*
X276848Y92018D01*
X276486Y91340D01*
X276185Y90885D01*
X274088Y90469D01*
X272256Y89244D01*
X271031Y87412D01*
X270854Y86520D01*
X276250D01*
Y85250D01*
X277520D01*
Y79854D01*
X278412Y80031D01*
X280244Y81256D01*
X281469Y83088D01*
X281886Y85185D01*
X282340Y85486D01*
X283018Y85848D01*
X284461Y84405D01*
Y71750D01*
X284616Y70970D01*
X285058Y70308D01*
X285720Y69866D01*
X286500Y69711D01*
X313872D01*
X314308Y69058D01*
X314970Y68616D01*
X315750Y68461D01*
X324750D01*
X325530Y68616D01*
X326192Y69058D01*
X326461Y69461D01*
X331768D01*
X331866Y68970D01*
X332308Y68308D01*
X332970Y67866D01*
X333750Y67711D01*
X343750D01*
X344530Y67866D01*
X345192Y68308D01*
X345634Y68970D01*
X345732Y69461D01*
X360000D01*
X360780Y69616D01*
X361442Y70058D01*
X361442Y70058D01*
X365692Y74308D01*
X366134Y74970D01*
X366289Y75750D01*
Y104500D01*
X366134Y105280D01*
X365692Y105942D01*
X365692Y105942D01*
X353789Y117845D01*
Y119250D01*
X353634Y120030D01*
X353192Y120692D01*
X352530Y121134D01*
X351750Y121289D01*
X342750D01*
X341970Y121134D01*
X341308Y120692D01*
X341206Y120539D01*
X339877D01*
X339198Y121809D01*
X339719Y122588D01*
X339896Y123480D01*
X334500D01*
Y126020D01*
X339896D01*
X339719Y126912D01*
X338730Y128392D01*
X339233Y129662D01*
X340828D01*
X340866Y129470D01*
X341308Y128808D01*
X341970Y128366D01*
X342750Y128211D01*
X351750D01*
X352530Y128366D01*
X353192Y128808D01*
X353634Y129470D01*
X353789Y130250D01*
Y138250D01*
X353634Y139030D01*
X353192Y139692D01*
X352530Y140134D01*
X351750Y140289D01*
X342750D01*
X341970Y140134D01*
X341308Y139692D01*
X340866Y139030D01*
X340828Y138838D01*
X309422D01*
X309384Y139030D01*
X308942Y139692D01*
X308280Y140134D01*
X307500Y140289D01*
X298500D01*
X297720Y140134D01*
X297058Y139692D01*
X296616Y139030D01*
X296578Y138838D01*
X288650D01*
X285838Y141650D01*
Y146211D01*
X286750D01*
X287530Y146366D01*
X288192Y146808D01*
X288634Y147470D01*
X288789Y148250D01*
Y158250D01*
X288634Y159030D01*
X288192Y159692D01*
X287530Y160134D01*
X286750Y160289D01*
D02*
G37*
G36*
X537520Y130646D02*
Y126520D01*
X541646D01*
X541469Y127412D01*
X540244Y129244D01*
X538412Y130469D01*
X537520Y130646D01*
D02*
G37*
G36*
X257520D02*
Y126520D01*
X261646D01*
X261469Y127412D01*
X260244Y129244D01*
X258412Y130469D01*
X257520Y130646D01*
D02*
G37*
G36*
X177520D02*
Y126520D01*
X181646D01*
X181469Y127412D01*
X180244Y129244D01*
X178412Y130469D01*
X177520Y130646D01*
D02*
G37*
G36*
X174980D02*
X174088Y130469D01*
X172256Y129244D01*
X171031Y127412D01*
X170854Y126520D01*
X174980D01*
Y130646D01*
D02*
G37*
G36*
X214980D02*
X214088Y130469D01*
X212256Y129244D01*
X211031Y127412D01*
X210854Y126520D01*
X214980D01*
Y130646D01*
D02*
G37*
G36*
X254980D02*
X254088Y130469D01*
X252256Y129244D01*
X251031Y127412D01*
X250854Y126520D01*
X254980D01*
Y130646D01*
D02*
G37*
G36*
X217520D02*
Y126520D01*
X221646D01*
X221469Y127412D01*
X220244Y129244D01*
X218412Y130469D01*
X217520Y130646D01*
D02*
G37*
G36*
X321646Y163980D02*
X317520D01*
Y159854D01*
X318412Y160032D01*
X320244Y161256D01*
X321469Y163088D01*
X321646Y163980D01*
D02*
G37*
G36*
X447480Y194146D02*
X446588Y193969D01*
X444756Y192744D01*
X443531Y190912D01*
X443354Y190020D01*
X447480D01*
Y194146D01*
D02*
G37*
G36*
X218340Y190980D02*
X212520D01*
Y185660D01*
X215750D01*
X216741Y185857D01*
X217581Y186419D01*
X218143Y187259D01*
X218340Y188250D01*
Y190980D01*
D02*
G37*
G36*
X194230Y197090D02*
X190500D01*
X189509Y196893D01*
X188669Y196331D01*
X188107Y195491D01*
X187910Y194500D01*
Y190270D01*
X194230D01*
Y197090D01*
D02*
G37*
G36*
X215750Y198840D02*
X212520D01*
Y193520D01*
X218340D01*
Y196250D01*
X218143Y197241D01*
X217581Y198081D01*
X216741Y198643D01*
X215750Y198840D01*
D02*
G37*
G36*
X466646Y198480D02*
X455854D01*
X456031Y197588D01*
X456265Y197239D01*
X456009Y195893D01*
X455169Y195331D01*
X454607Y194491D01*
X454410Y193500D01*
Y192537D01*
X453140Y192151D01*
X452744Y192744D01*
X450912Y193969D01*
X450020Y194146D01*
Y188750D01*
Y183354D01*
X450912Y183531D01*
X452744Y184756D01*
X453140Y185349D01*
X454410Y184963D01*
Y184500D01*
X454607Y183509D01*
X455169Y182669D01*
X456009Y182107D01*
X457000Y181910D01*
X459730D01*
Y189000D01*
X461000D01*
Y190270D01*
X467590D01*
Y193500D01*
X467393Y194491D01*
X466831Y195331D01*
X465991Y195893D01*
X465740Y196498D01*
X466469Y197588D01*
X466646Y198480D01*
D02*
G37*
G36*
X574090Y198480D02*
X560770D01*
Y184160D01*
X571500D01*
X572491Y184357D01*
X573331Y184919D01*
X573893Y185759D01*
X574090Y186750D01*
Y198480D01*
D02*
G37*
G36*
X194230Y187730D02*
X187910D01*
Y183500D01*
X188107Y182509D01*
X188669Y181669D01*
X189509Y181107D01*
X190500Y180910D01*
X194230D01*
Y187730D01*
D02*
G37*
G36*
X84000Y182590D02*
X79770D01*
Y176270D01*
X86590D01*
Y180000D01*
X86393Y180991D01*
X85831Y181831D01*
X84991Y182393D01*
X84000Y182590D01*
D02*
G37*
G36*
X467590Y187730D02*
X462270D01*
Y181910D01*
X465000D01*
X465991Y182107D01*
X466831Y182669D01*
X467393Y183509D01*
X467590Y184500D01*
Y187730D01*
D02*
G37*
G36*
X558230Y198480D02*
X544910D01*
Y186750D01*
X545107Y185759D01*
X545669Y184919D01*
X546509Y184357D01*
X547500Y184160D01*
X558230D01*
Y198480D01*
D02*
G37*
G36*
X447480Y187480D02*
X443354D01*
X443531Y186588D01*
X444756Y184756D01*
X446588Y183531D01*
X447480Y183354D01*
Y187480D01*
D02*
G37*
G36*
X209980Y198840D02*
X206750D01*
X205759Y198643D01*
X204919Y198081D01*
X204357Y197241D01*
X204160Y196250D01*
Y195628D01*
X202893Y195491D01*
X202331Y196331D01*
X201491Y196893D01*
X200500Y197090D01*
X196770D01*
Y189000D01*
Y180910D01*
X200500D01*
X201491Y181107D01*
X202331Y181669D01*
X202893Y182509D01*
X203090Y183500D01*
Y187122D01*
X204357Y187259D01*
X204919Y186419D01*
X205759Y185857D01*
X206750Y185660D01*
X209980D01*
Y192250D01*
Y198840D01*
D02*
G37*
G36*
X421646Y203980D02*
X417520D01*
Y199854D01*
X418412Y200032D01*
X420244Y201256D01*
X421469Y203088D01*
X421646Y203980D01*
D02*
G37*
G36*
X414980D02*
X410854D01*
X411031Y203088D01*
X412256Y201256D01*
X414088Y200032D01*
X414980Y199854D01*
Y203980D01*
D02*
G37*
G36*
X494980D02*
X490854D01*
X491031Y203088D01*
X492256Y201256D01*
X494088Y200032D01*
X494980Y199854D01*
Y203980D01*
D02*
G37*
G36*
X178750Y232789D02*
X168750D01*
X167970Y232634D01*
X167308Y232192D01*
X166866Y231530D01*
X166711Y230750D01*
Y219750D01*
X166866Y218970D01*
X167308Y218308D01*
X167970Y217866D01*
X168750Y217711D01*
X178750D01*
X179530Y217866D01*
X180192Y218308D01*
X180634Y218970D01*
X180789Y219750D01*
Y220912D01*
X189078D01*
X189116Y220720D01*
X189558Y220058D01*
X190220Y219616D01*
X190912Y219478D01*
Y213539D01*
X190500D01*
X189720Y213384D01*
X189058Y212942D01*
X188616Y212280D01*
X188461Y211500D01*
Y200500D01*
X188616Y199720D01*
X189058Y199058D01*
X189720Y198616D01*
X190500Y198461D01*
X200500D01*
X201280Y198616D01*
X201942Y199058D01*
X202384Y199720D01*
X202539Y200500D01*
Y201662D01*
X204828D01*
X204866Y201470D01*
X205308Y200808D01*
X205970Y200366D01*
X206750Y200211D01*
X215750D01*
X216530Y200366D01*
X217192Y200808D01*
X217634Y201470D01*
X217789Y202250D01*
Y210250D01*
X217634Y211030D01*
X217192Y211692D01*
X216530Y212134D01*
X215750Y212289D01*
X206750D01*
X205970Y212134D01*
X205308Y211692D01*
X204866Y211030D01*
X204828Y210838D01*
X202539D01*
Y211500D01*
X202384Y212280D01*
X201942Y212942D01*
X201280Y213384D01*
X200500Y213539D01*
X200088D01*
Y219478D01*
X200780Y219616D01*
X201442Y220058D01*
X201884Y220720D01*
X202039Y221500D01*
Y229500D01*
X201884Y230280D01*
X201442Y230942D01*
X200780Y231384D01*
X200000Y231539D01*
X191000D01*
X190220Y231384D01*
X189558Y230942D01*
X189116Y230280D01*
X189078Y230088D01*
X180789D01*
Y230750D01*
X180634Y231530D01*
X180192Y232192D01*
X179530Y232634D01*
X178750Y232789D01*
D02*
G37*
G36*
X541646Y203980D02*
X537520D01*
Y199854D01*
X538412Y200032D01*
X540244Y201256D01*
X541469Y203088D01*
X541646Y203980D01*
D02*
G37*
G36*
X381646D02*
X377520D01*
Y199854D01*
X378412Y200032D01*
X380244Y201256D01*
X381469Y203088D01*
X381646Y203980D01*
D02*
G37*
G36*
X181646D02*
X177520D01*
Y199854D01*
X178412Y200032D01*
X180244Y201256D01*
X181469Y203088D01*
X181646Y203980D01*
D02*
G37*
G36*
X174980D02*
X170854D01*
X171031Y203088D01*
X172256Y201256D01*
X174088Y200032D01*
X174980Y199854D01*
Y203980D01*
D02*
G37*
G36*
X294980D02*
X290854D01*
X291031Y203088D01*
X292256Y201256D01*
X294088Y200032D01*
X294980Y199854D01*
Y203980D01*
D02*
G37*
G36*
X374980D02*
X370854D01*
X371031Y203088D01*
X372256Y201256D01*
X374088Y200032D01*
X374980Y199854D01*
Y203980D01*
D02*
G37*
G36*
X301646D02*
X297520D01*
Y199854D01*
X298412Y200032D01*
X300244Y201256D01*
X301469Y203088D01*
X301646Y203980D01*
D02*
G37*
G36*
X86590Y173730D02*
X78500D01*
X70410D01*
Y170000D01*
X70607Y169009D01*
X71169Y168169D01*
X71424Y167999D01*
X71031Y167412D01*
X70854Y166520D01*
X81739D01*
X82470Y167410D01*
X84000D01*
X84991Y167607D01*
X85831Y168169D01*
X86393Y169009D01*
X86590Y170000D01*
Y173730D01*
D02*
G37*
G36*
X423250Y191539D02*
X417250D01*
X416470Y191384D01*
X415808Y190942D01*
X415366Y190280D01*
X415211Y189500D01*
Y185296D01*
X415152Y185000D01*
Y174589D01*
X414558Y174192D01*
X414116Y173530D01*
X413961Y172750D01*
Y164750D01*
X414116Y163970D01*
X414558Y163308D01*
X415220Y162866D01*
X416000Y162711D01*
X424000D01*
X424780Y162866D01*
X425442Y163308D01*
X425672Y163652D01*
X464661D01*
X465058Y163058D01*
X465720Y162616D01*
X466500Y162461D01*
X474500D01*
X475280Y162616D01*
X475942Y163058D01*
X476384Y163720D01*
X476539Y164500D01*
Y173500D01*
X476384Y174280D01*
X475942Y174942D01*
X475280Y175384D01*
X474500Y175539D01*
X466500D01*
X465720Y175384D01*
X465058Y174942D01*
X464616Y174280D01*
X464530Y173848D01*
X425672D01*
X425442Y174192D01*
X425348Y174255D01*
Y185000D01*
X425289Y185296D01*
Y189500D01*
X425134Y190280D01*
X424692Y190942D01*
X424030Y191384D01*
X423250Y191539D01*
D02*
G37*
G36*
X117520Y170646D02*
Y166520D01*
X121646D01*
X121469Y167412D01*
X120244Y169244D01*
X118412Y170469D01*
X117520Y170646D01*
D02*
G37*
G36*
X194980D02*
X194088Y170469D01*
X192256Y169244D01*
X191031Y167412D01*
X190854Y166520D01*
X194980D01*
Y170646D01*
D02*
G37*
G36*
X157520D02*
Y166520D01*
X161646D01*
X161469Y167412D01*
X160244Y169244D01*
X158412Y170469D01*
X157520Y170646D01*
D02*
G37*
G36*
X561646Y163980D02*
X557520D01*
Y159854D01*
X558412Y160032D01*
X560244Y161256D01*
X561469Y163088D01*
X561646Y163980D01*
D02*
G37*
G36*
X361646D02*
X357520D01*
Y159854D01*
X358412Y160032D01*
X360244Y161256D01*
X361469Y163088D01*
X361646Y163980D01*
D02*
G37*
G36*
X354980D02*
X350854D01*
X351031Y163088D01*
X352256Y161256D01*
X354088Y160032D01*
X354980Y159854D01*
Y163980D01*
D02*
G37*
G36*
X514980D02*
X510854D01*
X511031Y163088D01*
X512256Y161256D01*
X514088Y160032D01*
X514980Y159854D01*
Y163980D01*
D02*
G37*
G36*
X554980D02*
X550854D01*
X551031Y163088D01*
X552256Y161256D01*
X554088Y160032D01*
X554980Y159854D01*
Y163980D01*
D02*
G37*
G36*
X521646D02*
X517520D01*
Y159854D01*
X518412Y160032D01*
X520244Y161256D01*
X521469Y163088D01*
X521646Y163980D01*
D02*
G37*
G36*
X197520Y170646D02*
Y166520D01*
X201646D01*
X201469Y167412D01*
X200244Y169244D01*
X198412Y170469D01*
X197520Y170646D01*
D02*
G37*
G36*
X517520D02*
Y166520D01*
X521646D01*
X521469Y167412D01*
X520244Y169244D01*
X518412Y170469D01*
X517520Y170646D01*
D02*
G37*
G36*
X514980D02*
X514088Y170469D01*
X512256Y169244D01*
X511031Y167412D01*
X510854Y166520D01*
X514980D01*
Y170646D01*
D02*
G37*
G36*
X554980D02*
X554088Y170469D01*
X552256Y169244D01*
X551031Y167412D01*
X550854Y166520D01*
X554980D01*
Y170646D01*
D02*
G37*
G36*
X77230Y182590D02*
X73000D01*
X72009Y182393D01*
X71169Y181831D01*
X70607Y180991D01*
X70410Y180000D01*
Y176270D01*
X77230D01*
Y182590D01*
D02*
G37*
G36*
X557520Y170646D02*
Y166520D01*
X561646D01*
X561469Y167412D01*
X560244Y169244D01*
X558412Y170469D01*
X557520Y170646D01*
D02*
G37*
G36*
X357520D02*
Y166520D01*
X361646D01*
X361469Y167412D01*
X360244Y169244D01*
X358412Y170469D01*
X357520Y170646D01*
D02*
G37*
G36*
X237520D02*
Y166520D01*
X241646D01*
X241469Y167412D01*
X240244Y169244D01*
X238412Y170469D01*
X237520Y170646D01*
D02*
G37*
G36*
X234980D02*
X234088Y170469D01*
X232256Y169244D01*
X231031Y167412D01*
X230854Y166520D01*
X234980D01*
Y170646D01*
D02*
G37*
G36*
X314980D02*
X314088Y170469D01*
X312256Y169244D01*
X311031Y167412D01*
X310854Y166520D01*
X314980D01*
Y170646D01*
D02*
G37*
G36*
X354980D02*
X354088Y170469D01*
X352256Y169244D01*
X351031Y167412D01*
X350854Y166520D01*
X354980D01*
Y170646D01*
D02*
G37*
G36*
X317520D02*
Y166520D01*
X321646D01*
X321469Y167412D01*
X320244Y169244D01*
X318412Y170469D01*
X317520Y170646D01*
D02*
G37*
G36*
X174980Y123980D02*
X170854D01*
X171031Y123088D01*
X172256Y121256D01*
X174088Y120031D01*
X174980Y119854D01*
Y123980D01*
D02*
G37*
G36*
X57520Y50646D02*
Y46520D01*
X61646D01*
X61469Y47412D01*
X60244Y49244D01*
X58412Y50469D01*
X57520Y50646D01*
D02*
G37*
G36*
X54980D02*
X54088Y50469D01*
X52256Y49244D01*
X51031Y47412D01*
X50854Y46520D01*
X54980D01*
Y50646D01*
D02*
G37*
G36*
X17520D02*
Y46520D01*
X21646D01*
X21469Y47412D01*
X20244Y49244D01*
X18412Y50469D01*
X17520Y50646D01*
D02*
G37*
G36*
X174980D02*
X174088Y50469D01*
X172256Y49244D01*
X171031Y47412D01*
X170854Y46520D01*
X174980D01*
Y50646D01*
D02*
G37*
G36*
X137520D02*
Y46520D01*
X141646D01*
X141469Y47412D01*
X140244Y49244D01*
X138412Y50469D01*
X137520Y50646D01*
D02*
G37*
G36*
X134980D02*
X134088Y50469D01*
X132256Y49244D01*
X131032Y47412D01*
X130854Y46520D01*
X134980D01*
Y50646D01*
D02*
G37*
G36*
X94090Y49480D02*
X87270D01*
Y43160D01*
X91500D01*
X92491Y43357D01*
X93331Y43919D01*
X93893Y44759D01*
X94090Y45750D01*
Y49480D01*
D02*
G37*
G36*
X84730D02*
X77910D01*
Y45750D01*
X78107Y44759D01*
X78669Y43919D01*
X79509Y43357D01*
X80500Y43160D01*
X84730D01*
Y49480D01*
D02*
G37*
G36*
X317500Y48340D02*
X313270D01*
Y42020D01*
X320090D01*
Y45750D01*
X319893Y46741D01*
X319331Y47581D01*
X318491Y48143D01*
X317500Y48340D01*
D02*
G37*
G36*
X14980Y50646D02*
X14088Y50469D01*
X12256Y49244D01*
X11032Y47412D01*
X10854Y46520D01*
X14980D01*
Y50646D01*
D02*
G37*
G36*
X233000Y51340D02*
X229270D01*
Y44520D01*
X235590D01*
Y48750D01*
X235393Y49741D01*
X234831Y50581D01*
X233991Y51143D01*
X233000Y51340D01*
D02*
G37*
G36*
X226730D02*
X223000D01*
X222009Y51143D01*
X221169Y50581D01*
X220607Y49741D01*
X220410Y48750D01*
Y44520D01*
X226730D01*
Y51340D01*
D02*
G37*
G36*
X534980Y50646D02*
X534088Y50469D01*
X532256Y49244D01*
X531031Y47412D01*
X530854Y46520D01*
X534980D01*
Y50646D01*
D02*
G37*
G36*
X497520D02*
Y46520D01*
X501646D01*
X501469Y47412D01*
X500244Y49244D01*
X498412Y50469D01*
X497520Y50646D01*
D02*
G37*
G36*
X494980D02*
X494088Y50469D01*
X492256Y49244D01*
X491031Y47412D01*
X490854Y46520D01*
X494980D01*
Y50646D01*
D02*
G37*
G36*
X91500Y58340D02*
X87270D01*
Y52020D01*
X94090D01*
Y55750D01*
X93893Y56741D01*
X93331Y57581D01*
X92491Y58143D01*
X91500Y58340D01*
D02*
G37*
G36*
X84730D02*
X80500D01*
X79509Y58143D01*
X78669Y57581D01*
X78107Y56741D01*
X77910Y55750D01*
Y52020D01*
X84730D01*
Y58340D01*
D02*
G37*
G36*
X537520Y50646D02*
Y46520D01*
X541646D01*
X541469Y47412D01*
X540244Y49244D01*
X538412Y50469D01*
X537520Y50646D01*
D02*
G37*
G36*
X374980D02*
X374088Y50469D01*
X372256Y49244D01*
X371031Y47412D01*
X370854Y46520D01*
X374980D01*
Y50646D01*
D02*
G37*
G36*
X277250Y67039D02*
X269250D01*
X268470Y66884D01*
X267808Y66442D01*
X267366Y65780D01*
X267211Y65000D01*
Y56000D01*
X267366Y55220D01*
X267808Y54558D01*
X268152Y54328D01*
Y43500D01*
X268461Y41948D01*
Y35750D01*
X268616Y34970D01*
X269058Y34308D01*
X269720Y33866D01*
X270500Y33711D01*
X281500D01*
X282280Y33866D01*
X282942Y34308D01*
X283384Y34970D01*
X283520Y35652D01*
X287480D01*
X287616Y34970D01*
X288058Y34308D01*
X288720Y33866D01*
X289500Y33711D01*
X300500D01*
X301280Y33866D01*
X301942Y34308D01*
X302384Y34970D01*
X302539Y35750D01*
Y45750D01*
X302384Y46530D01*
X301942Y47192D01*
X301280Y47634D01*
X300500Y47789D01*
X289500D01*
X288720Y47634D01*
X288058Y47192D01*
X287616Y46530D01*
X287480Y45848D01*
X283520D01*
X283384Y46530D01*
X282942Y47192D01*
X282280Y47634D01*
X281500Y47789D01*
X278348D01*
Y54328D01*
X278692Y54558D01*
X279134Y55220D01*
X279170Y55402D01*
X314078D01*
X314308Y55058D01*
X314970Y54616D01*
X315750Y54461D01*
X324750D01*
X325530Y54616D01*
X326192Y55058D01*
X326422Y55402D01*
X331711D01*
Y52750D01*
X331866Y51970D01*
X332308Y51308D01*
X332683Y51057D01*
X332854Y50023D01*
X332797Y49605D01*
X332256Y49244D01*
X331031Y47412D01*
X330854Y46520D01*
X341646D01*
X341469Y47412D01*
X340244Y49244D01*
X339950Y49441D01*
X340335Y50711D01*
X343750D01*
X344530Y50866D01*
X345192Y51308D01*
X345634Y51970D01*
X345789Y52750D01*
Y63750D01*
X345634Y64530D01*
X345192Y65192D01*
X344530Y65634D01*
X343750Y65789D01*
X333750D01*
X332970Y65634D01*
X332916Y65598D01*
X326422D01*
X326192Y65942D01*
X325530Y66384D01*
X324750Y66539D01*
X315750D01*
X314970Y66384D01*
X314308Y65942D01*
X314078Y65598D01*
X279170D01*
X279134Y65780D01*
X278692Y66442D01*
X278030Y66884D01*
X277250Y67039D01*
D02*
G37*
G36*
X177520Y50646D02*
Y46520D01*
X181646D01*
X181469Y47412D01*
X180244Y49244D01*
X178412Y50469D01*
X177520Y50646D01*
D02*
G37*
G36*
X417520D02*
Y46520D01*
X421646D01*
X421469Y47412D01*
X420244Y49244D01*
X418412Y50469D01*
X417520Y50646D01*
D02*
G37*
G36*
X414980D02*
X414088Y50469D01*
X412256Y49244D01*
X411031Y47412D01*
X410854Y46520D01*
X414980D01*
Y50646D01*
D02*
G37*
G36*
X377520D02*
Y46520D01*
X381646D01*
X381469Y47412D01*
X380244Y49244D01*
X378412Y50469D01*
X377520Y50646D01*
D02*
G37*
G36*
X61646Y43980D02*
X57520D01*
Y39854D01*
X58412Y40031D01*
X60244Y41256D01*
X61469Y43088D01*
X61646Y43980D01*
D02*
G37*
G36*
X54980D02*
X50854D01*
X51031Y43088D01*
X52256Y41256D01*
X54088Y40031D01*
X54980Y39854D01*
Y43980D01*
D02*
G37*
G36*
X21646D02*
X17520D01*
Y39854D01*
X18412Y40031D01*
X20244Y41256D01*
X21469Y43088D01*
X21646Y43980D01*
D02*
G37*
G36*
X174980D02*
X170854D01*
X171031Y43088D01*
X172256Y41256D01*
X174088Y40031D01*
X174980Y39854D01*
Y43980D01*
D02*
G37*
G36*
X141646D02*
X137520D01*
Y39854D01*
X138412Y40031D01*
X140244Y41256D01*
X141469Y43088D01*
X141646Y43980D01*
D02*
G37*
G36*
X134980D02*
X130854D01*
X131032Y43088D01*
X132256Y41256D01*
X134088Y40031D01*
X134980Y39854D01*
Y43980D01*
D02*
G37*
G36*
X147500Y153789D02*
X137500D01*
X136720Y153634D01*
X136058Y153192D01*
X135616Y152530D01*
X135461Y151750D01*
Y140750D01*
X135616Y139970D01*
X136058Y139308D01*
X136720Y138866D01*
X137402Y138730D01*
Y103250D01*
X137790Y101299D01*
X138895Y99645D01*
X181895Y56645D01*
X183549Y55540D01*
X185500Y55152D01*
X220961D01*
Y54750D01*
X221116Y53970D01*
X221558Y53308D01*
X222220Y52866D01*
X223000Y52711D01*
X233000D01*
X233780Y52866D01*
X234442Y53308D01*
X234884Y53970D01*
X235039Y54750D01*
Y55402D01*
X253330D01*
X253366Y55220D01*
X253808Y54558D01*
X253902Y54495D01*
Y47789D01*
X253500D01*
X252720Y47634D01*
X252058Y47192D01*
X251616Y46530D01*
X251461Y45750D01*
Y35750D01*
X251616Y34970D01*
X252058Y34308D01*
X252720Y33866D01*
X253500Y33711D01*
X264500D01*
X265280Y33866D01*
X265942Y34308D01*
X266384Y34970D01*
X266539Y35750D01*
Y45750D01*
X266384Y46530D01*
X265942Y47192D01*
X265280Y47634D01*
X264500Y47789D01*
X264098D01*
Y54161D01*
X264692Y54558D01*
X265134Y55220D01*
X265289Y56000D01*
Y65000D01*
X265134Y65780D01*
X264692Y66442D01*
X264030Y66884D01*
X263250Y67039D01*
X255250D01*
X254470Y66884D01*
X253808Y66442D01*
X253366Y65780D01*
X253330Y65598D01*
X235039D01*
Y65750D01*
X234884Y66530D01*
X234442Y67192D01*
X233780Y67634D01*
X233000Y67789D01*
X223000D01*
X222220Y67634D01*
X221558Y67192D01*
X221116Y66530D01*
X220961Y65750D01*
Y65348D01*
X187612D01*
X147598Y105362D01*
Y138730D01*
X148280Y138866D01*
X148942Y139308D01*
X149384Y139970D01*
X149539Y140750D01*
Y151750D01*
X149384Y152530D01*
X148942Y153192D01*
X148280Y153634D01*
X147500Y153789D01*
D02*
G37*
G36*
X320090Y39480D02*
X313270D01*
Y33160D01*
X317500D01*
X318491Y33357D01*
X319331Y33919D01*
X319893Y34759D01*
X320090Y35750D01*
Y39480D01*
D02*
G37*
G36*
X310730D02*
X303910D01*
Y35750D01*
X304107Y34759D01*
X304669Y33919D01*
X305509Y33357D01*
X306500Y33160D01*
X310730D01*
Y39480D01*
D02*
G37*
G36*
X14980Y43980D02*
X10854D01*
X11032Y43088D01*
X12256Y41256D01*
X14088Y40031D01*
X14980Y39854D01*
Y43980D01*
D02*
G37*
G36*
X235590Y41980D02*
X229270D01*
Y35160D01*
X233000D01*
X233991Y35357D01*
X234831Y35919D01*
X235393Y36759D01*
X235590Y37750D01*
Y41980D01*
D02*
G37*
G36*
X226730D02*
X220410D01*
Y37750D01*
X220607Y36759D01*
X221169Y35919D01*
X222009Y35357D01*
X223000Y35160D01*
X226730D01*
Y41980D01*
D02*
G37*
G36*
X501646Y43980D02*
X497520D01*
Y39854D01*
X498412Y40031D01*
X500244Y41256D01*
X501469Y43088D01*
X501646Y43980D01*
D02*
G37*
G36*
X494980D02*
X490854D01*
X491031Y43088D01*
X492256Y41256D01*
X494088Y40031D01*
X494980Y39854D01*
Y43980D01*
D02*
G37*
G36*
X421646D02*
X417520D01*
Y39854D01*
X418412Y40031D01*
X420244Y41256D01*
X421469Y43088D01*
X421646Y43980D01*
D02*
G37*
G36*
X310730Y48340D02*
X306500D01*
X305509Y48143D01*
X304669Y47581D01*
X304107Y46741D01*
X303910Y45750D01*
Y42020D01*
X310730D01*
Y48340D01*
D02*
G37*
G36*
X541646Y43980D02*
X537520D01*
Y39854D01*
X538412Y40031D01*
X540244Y41256D01*
X541469Y43088D01*
X541646Y43980D01*
D02*
G37*
G36*
X534980D02*
X530854D01*
X531031Y43088D01*
X532256Y41256D01*
X534088Y40031D01*
X534980Y39854D01*
Y43980D01*
D02*
G37*
G36*
X341646D02*
X337520D01*
Y39854D01*
X338412Y40031D01*
X340244Y41256D01*
X341469Y43088D01*
X341646Y43980D01*
D02*
G37*
G36*
X334980D02*
X330854D01*
X331031Y43088D01*
X332256Y41256D01*
X334088Y40031D01*
X334980Y39854D01*
Y43980D01*
D02*
G37*
G36*
X181646D02*
X177520D01*
Y39854D01*
X178412Y40031D01*
X180244Y41256D01*
X181469Y43088D01*
X181646Y43980D01*
D02*
G37*
G36*
X414980D02*
X410854D01*
X411031Y43088D01*
X412256Y41256D01*
X414088Y40031D01*
X414980Y39854D01*
Y43980D01*
D02*
G37*
G36*
X381646D02*
X377520D01*
Y39854D01*
X378412Y40031D01*
X380244Y41256D01*
X381469Y43088D01*
X381646Y43980D01*
D02*
G37*
G36*
X374980D02*
X370854D01*
X371031Y43088D01*
X372256Y41256D01*
X374088Y40031D01*
X374980Y39854D01*
Y43980D01*
D02*
G37*
G36*
X474980Y90646D02*
X474088Y90469D01*
X472256Y89244D01*
X471031Y87412D01*
X470854Y86520D01*
X474980D01*
Y90646D01*
D02*
G37*
G36*
X237520D02*
Y86520D01*
X241646D01*
X241469Y87412D01*
X240244Y89244D01*
X238412Y90469D01*
X237520Y90646D01*
D02*
G37*
G36*
X234980D02*
X234088Y90469D01*
X232256Y89244D01*
X231031Y87412D01*
X230854Y86520D01*
X234980D01*
Y90646D01*
D02*
G37*
G36*
X557520D02*
Y86520D01*
X561646D01*
X561469Y87412D01*
X560244Y89244D01*
X558412Y90469D01*
X557520Y90646D01*
D02*
G37*
G36*
X514980D02*
X514088Y90469D01*
X512256Y89244D01*
X511031Y87412D01*
X510854Y86520D01*
X514980D01*
Y90646D01*
D02*
G37*
G36*
X477520D02*
Y86520D01*
X481646D01*
X481469Y87412D01*
X480244Y89244D01*
X478412Y90469D01*
X477520Y90646D01*
D02*
G37*
G36*
X74980D02*
X74088Y90469D01*
X72256Y89244D01*
X71031Y87412D01*
X70854Y86520D01*
X74980D01*
Y90646D01*
D02*
G37*
G36*
X37520D02*
Y86520D01*
X41646D01*
X41469Y87412D01*
X40244Y89244D01*
X38412Y90469D01*
X37520Y90646D01*
D02*
G37*
G36*
X34980D02*
X34088Y90469D01*
X32256Y89244D01*
X31031Y87412D01*
X30854Y86520D01*
X34980D01*
Y90646D01*
D02*
G37*
G36*
X197520D02*
Y86520D01*
X201646D01*
X201469Y87412D01*
X200244Y89244D01*
X198412Y90469D01*
X197520Y90646D01*
D02*
G37*
G36*
X194980D02*
X194088Y90469D01*
X192256Y89244D01*
X191031Y87412D01*
X190854Y86520D01*
X194980D01*
Y90646D01*
D02*
G37*
G36*
X77520D02*
Y86520D01*
X81646D01*
X81469Y87412D01*
X80244Y89244D01*
X78412Y90469D01*
X77520Y90646D01*
D02*
G37*
G36*
X384146Y113480D02*
X380020D01*
Y109354D01*
X380912Y109531D01*
X382744Y110756D01*
X383969Y112588D01*
X384146Y113480D01*
D02*
G37*
G36*
X377480D02*
X373354D01*
X373531Y112588D01*
X374756Y110756D01*
X376588Y109531D01*
X377480Y109354D01*
Y113480D01*
D02*
G37*
G36*
X414500Y150789D02*
X406500D01*
X405720Y150634D01*
X405058Y150192D01*
X404616Y149530D01*
X404461Y148750D01*
Y140750D01*
X404479Y140659D01*
X394785Y130965D01*
X393569Y129146D01*
X393142Y127000D01*
Y126918D01*
X392970Y126884D01*
X392308Y126442D01*
X391866Y125780D01*
X391711Y125000D01*
Y111000D01*
X391866Y110220D01*
X392308Y109558D01*
X392970Y109116D01*
X393750Y108961D01*
X403750D01*
X404530Y109116D01*
X405192Y109558D01*
X405634Y110220D01*
X405789Y111000D01*
Y125000D01*
X405634Y125780D01*
X405565Y125884D01*
X414465Y134785D01*
X415681Y136604D01*
X416108Y138750D01*
Y139556D01*
X416384Y139970D01*
X416539Y140750D01*
Y148750D01*
X416384Y149530D01*
X415942Y150192D01*
X415280Y150634D01*
X414500Y150789D01*
D02*
G37*
G36*
X14980Y123980D02*
X10854D01*
X11032Y123088D01*
X12256Y121256D01*
X14088Y120031D01*
X14980Y119854D01*
Y123980D01*
D02*
G37*
G36*
X365980Y123480D02*
X360160D01*
Y120750D01*
X360357Y119759D01*
X360919Y118919D01*
X361759Y118357D01*
X362750Y118160D01*
X365980D01*
Y123480D01*
D02*
G37*
G36*
X99250Y122289D02*
X90250D01*
X89470Y122134D01*
X88808Y121692D01*
X88366Y121030D01*
X88211Y120250D01*
Y112250D01*
X88366Y111470D01*
X88808Y110808D01*
X89470Y110366D01*
X90250Y110211D01*
X99250D01*
X100030Y110366D01*
X100692Y110808D01*
X101134Y111470D01*
X101289Y112250D01*
Y120250D01*
X101134Y121030D01*
X100692Y121692D01*
X100030Y122134D01*
X99250Y122289D01*
D02*
G37*
G36*
X403750Y101039D02*
X393750D01*
X392970Y100884D01*
X392308Y100442D01*
X391866Y99780D01*
X391711Y99000D01*
Y94598D01*
X380170D01*
X380134Y94780D01*
X379692Y95442D01*
X379030Y95884D01*
X378250Y96039D01*
X370250D01*
X369470Y95884D01*
X368808Y95442D01*
X368366Y94780D01*
X368211Y94000D01*
Y85000D01*
X368366Y84220D01*
X368808Y83558D01*
X369470Y83116D01*
X370250Y82961D01*
X378250D01*
X379030Y83116D01*
X379692Y83558D01*
X380134Y84220D01*
X380170Y84402D01*
X391830D01*
X391866Y84220D01*
X392308Y83558D01*
X392970Y83116D01*
X393750Y82961D01*
X403750D01*
X404530Y83116D01*
X405192Y83558D01*
X405634Y84220D01*
X405789Y85000D01*
Y86402D01*
X412961D01*
Y86000D01*
X413116Y85220D01*
X413558Y84558D01*
X414220Y84116D01*
X415000Y83961D01*
X425000D01*
X425780Y84116D01*
X426442Y84558D01*
X426884Y85220D01*
X427039Y86000D01*
Y86402D01*
X434462D01*
X434558Y86258D01*
X435220Y85816D01*
X436000Y85661D01*
X446000D01*
X446780Y85816D01*
X447442Y86258D01*
X447884Y86920D01*
X448039Y87700D01*
Y95700D01*
X447884Y96480D01*
X447442Y97142D01*
X446780Y97584D01*
X446000Y97739D01*
X436000D01*
X435220Y97584D01*
X434558Y97142D01*
X434195Y96598D01*
X427039D01*
Y97000D01*
X426884Y97780D01*
X426442Y98442D01*
X425780Y98884D01*
X425000Y99039D01*
X415000D01*
X414220Y98884D01*
X413558Y98442D01*
X413116Y97780D01*
X412961Y97000D01*
Y96598D01*
X405789D01*
Y99000D01*
X405634Y99780D01*
X405192Y100442D01*
X404530Y100884D01*
X403750Y101039D01*
D02*
G37*
G36*
X101840Y95980D02*
X96020D01*
Y90660D01*
X99250D01*
X100241Y90857D01*
X101081Y91419D01*
X101643Y92259D01*
X101840Y93250D01*
Y95980D01*
D02*
G37*
G36*
X93480D02*
X87660D01*
Y93250D01*
X87857Y92259D01*
X88419Y91419D01*
X89259Y90857D01*
X90250Y90660D01*
X93480D01*
Y95980D01*
D02*
G37*
G36*
X99250Y103840D02*
X96020D01*
Y98520D01*
X101840D01*
Y101250D01*
X101643Y102241D01*
X101081Y103081D01*
X100241Y103643D01*
X99250Y103840D01*
D02*
G37*
G36*
X93480D02*
X90250D01*
X89259Y103643D01*
X88419Y103081D01*
X87857Y102241D01*
X87660Y101250D01*
Y98520D01*
X93480D01*
Y103840D01*
D02*
G37*
G36*
X485000Y152084D02*
X480763Y151750D01*
X476631Y150758D01*
X472704Y149132D01*
X469081Y146911D01*
X465849Y144151D01*
X463089Y140919D01*
X460868Y137296D01*
X459242Y133369D01*
X458250Y129237D01*
X457916Y125000D01*
X458250Y120763D01*
X459242Y116631D01*
X460868Y112704D01*
X463089Y109081D01*
X465849Y105849D01*
X469081Y103089D01*
X472704Y100868D01*
X476631Y99242D01*
X480763Y98250D01*
X485000Y97916D01*
X489237Y98250D01*
X493369Y99242D01*
X497296Y100868D01*
X500919Y103089D01*
X504151Y105849D01*
X506911Y109081D01*
X509132Y112704D01*
X510758Y116631D01*
X511750Y120763D01*
X512084Y125000D01*
X511750Y129237D01*
X510758Y133369D01*
X509132Y137296D01*
X506911Y140919D01*
X504151Y144151D01*
X500919Y146911D01*
X497296Y149132D01*
X493369Y150758D01*
X489237Y151750D01*
X485000Y152084D01*
D02*
G37*
G36*
X418730Y82590D02*
X415000D01*
X414009Y82393D01*
X413169Y81831D01*
X412607Y80991D01*
X412410Y80000D01*
Y75770D01*
X418730D01*
Y82590D01*
D02*
G37*
G36*
X470090Y74980D02*
X463770D01*
Y68160D01*
X467500D01*
X468491Y68357D01*
X469331Y68919D01*
X469893Y69759D01*
X470090Y70750D01*
Y74980D01*
D02*
G37*
G36*
X461230D02*
X454910D01*
Y70750D01*
X455107Y69759D01*
X455669Y68919D01*
X456509Y68357D01*
X457500Y68160D01*
X461230D01*
Y74980D01*
D02*
G37*
G36*
X34980Y83980D02*
X30854D01*
X31031Y83088D01*
X32256Y81256D01*
X34088Y80031D01*
X34980Y79854D01*
Y83980D01*
D02*
G37*
G36*
X461230Y84340D02*
X457500D01*
X456509Y84143D01*
X455669Y83581D01*
X455107Y82741D01*
X454910Y81750D01*
Y77520D01*
X461230D01*
Y84340D01*
D02*
G37*
G36*
X425000Y82590D02*
X421270D01*
Y75770D01*
X427590D01*
Y80000D01*
X427393Y80991D01*
X426831Y81831D01*
X425991Y82393D01*
X425000Y82590D01*
D02*
G37*
G36*
X570130Y74709D02*
X568779Y74532D01*
X566337Y73520D01*
X564239Y71911D01*
X562630Y69813D01*
X561618Y67371D01*
X561441Y66020D01*
X570130D01*
Y74709D01*
D02*
G37*
G36*
X581359Y63480D02*
X572670D01*
Y54791D01*
X574021Y54968D01*
X576463Y55980D01*
X578561Y57589D01*
X580170Y59687D01*
X581182Y62129D01*
X581359Y63480D01*
D02*
G37*
G36*
X570130D02*
X561441D01*
X561618Y62129D01*
X562630Y59687D01*
X564239Y57589D01*
X566337Y55980D01*
X568779Y54968D01*
X570130Y54791D01*
Y63480D01*
D02*
G37*
G36*
X427590Y73230D02*
X421270D01*
Y66410D01*
X425000D01*
X425991Y66607D01*
X426831Y67169D01*
X427393Y68009D01*
X427590Y69000D01*
Y73230D01*
D02*
G37*
G36*
X418730D02*
X412410D01*
Y69000D01*
X412607Y68009D01*
X413169Y67169D01*
X414009Y66607D01*
X415000Y66410D01*
X418730D01*
Y73230D01*
D02*
G37*
G36*
X572670Y74709D02*
Y66020D01*
X581359D01*
X581182Y67371D01*
X580170Y69813D01*
X578561Y71911D01*
X576463Y73520D01*
X574021Y74532D01*
X572670Y74709D01*
D02*
G37*
G36*
X467500Y84340D02*
X463770D01*
Y77520D01*
X470090D01*
Y81563D01*
X470090Y81750D01*
X470098Y81790D01*
X470098Y81790D01*
X470166Y82098D01*
X471521Y82355D01*
X472256Y81256D01*
X474088Y80031D01*
X474980Y79854D01*
Y83980D01*
X470854D01*
X470861Y83947D01*
X469720Y83277D01*
X469381Y83539D01*
X469331Y83581D01*
X469243Y83640D01*
X468491Y84143D01*
X467500Y84340D01*
D02*
G37*
G36*
X274980Y83980D02*
X270854D01*
X271031Y83088D01*
X272256Y81256D01*
X274088Y80031D01*
X274980Y79854D01*
Y83980D01*
D02*
G37*
G36*
X241646D02*
X237520D01*
Y79854D01*
X238412Y80031D01*
X240244Y81256D01*
X241469Y83088D01*
X241646Y83980D01*
D02*
G37*
G36*
X470098Y81790D02*
X470090Y81750D01*
X470090Y81683D01*
X470098Y81790D01*
D02*
G37*
G36*
X561646Y83980D02*
X557520D01*
Y79854D01*
X558412Y80031D01*
X560244Y81256D01*
X561469Y83088D01*
X561646Y83980D01*
D02*
G37*
G36*
X481646D02*
X477520D01*
Y79854D01*
X478412Y80031D01*
X480244Y81256D01*
X481469Y83088D01*
X481646Y83980D01*
D02*
G37*
G36*
X81646D02*
X77520D01*
Y79854D01*
X78412Y80031D01*
X80244Y81256D01*
X81469Y83088D01*
X81646Y83980D01*
D02*
G37*
G36*
X74980D02*
X70854D01*
X71031Y83088D01*
X72256Y81256D01*
X74088Y80031D01*
X74980Y79854D01*
Y83980D01*
D02*
G37*
G36*
X41646D02*
X37520D01*
Y79854D01*
X38412Y80031D01*
X40244Y81256D01*
X41469Y83088D01*
X41646Y83980D01*
D02*
G37*
G36*
X234980D02*
X230854D01*
X231031Y83088D01*
X232256Y81256D01*
X234088Y80031D01*
X234980Y79854D01*
Y83980D01*
D02*
G37*
G36*
X201646D02*
X197520D01*
Y79854D01*
X198412Y80031D01*
X200244Y81256D01*
X201469Y83088D01*
X201646Y83980D01*
D02*
G37*
G36*
X194980D02*
X190854D01*
X191031Y83088D01*
X192256Y81256D01*
X194088Y80031D01*
X194980Y79854D01*
Y83980D01*
D02*
G37*
G36*
X114980Y323980D02*
X110854D01*
X111032Y323088D01*
X112256Y321256D01*
X114088Y320031D01*
X114980Y319854D01*
Y323980D01*
D02*
G37*
G36*
X81646D02*
X77520D01*
Y319854D01*
X78412Y320031D01*
X80244Y321256D01*
X81469Y323088D01*
X81646Y323980D01*
D02*
G37*
G36*
X121646D02*
X117520D01*
Y319854D01*
X118412Y320031D01*
X120244Y321256D01*
X121469Y323088D01*
X121646Y323980D01*
D02*
G37*
G36*
X161646D02*
X157520D01*
Y319854D01*
X158412Y320031D01*
X160244Y321256D01*
X161469Y323088D01*
X161646Y323980D01*
D02*
G37*
G36*
X154980D02*
X150854D01*
X151031Y323088D01*
X152256Y321256D01*
X154088Y320031D01*
X154980Y319854D01*
Y323980D01*
D02*
G37*
G36*
X227500Y323840D02*
X223270D01*
Y317520D01*
X230090D01*
Y321250D01*
X229893Y322241D01*
X229331Y323081D01*
X228491Y323643D01*
X227500Y323840D01*
D02*
G37*
G36*
X220730D02*
X216500D01*
X215509Y323643D01*
X214669Y323081D01*
X214107Y322241D01*
X213910Y321250D01*
Y317520D01*
X220730D01*
Y323840D01*
D02*
G37*
G36*
X34980Y323980D02*
X30854D01*
X31031Y323088D01*
X32256Y321256D01*
X34088Y320031D01*
X34980Y319854D01*
Y323980D01*
D02*
G37*
G36*
X74980D02*
X70854D01*
X71031Y323088D01*
X72256Y321256D01*
X74088Y320031D01*
X74980Y319854D01*
Y323980D01*
D02*
G37*
G36*
X41646D02*
X37520D01*
Y319854D01*
X38412Y320031D01*
X40244Y321256D01*
X41469Y323088D01*
X41646Y323980D01*
D02*
G37*
G36*
X194980D02*
X190854D01*
X191031Y323088D01*
X192256Y321256D01*
X194088Y320031D01*
X194980Y319854D01*
Y323980D01*
D02*
G37*
G36*
X459930Y334859D02*
X458579Y334682D01*
X456137Y333670D01*
X454039Y332061D01*
X452430Y329963D01*
X451418Y327521D01*
X451241Y326170D01*
X459930D01*
Y334859D01*
D02*
G37*
G36*
X521171Y323996D02*
X517045D01*
Y319870D01*
X517937Y320047D01*
X519769Y321272D01*
X520994Y323104D01*
X521171Y323996D01*
D02*
G37*
G36*
X333130Y335060D02*
X331779Y334882D01*
X329337Y333870D01*
X327239Y332261D01*
X325630Y330163D01*
X324618Y327721D01*
X324441Y326370D01*
X333130D01*
Y335060D01*
D02*
G37*
G36*
X34980Y330646D02*
X34088Y330469D01*
X32256Y329244D01*
X31031Y327412D01*
X30854Y326520D01*
X34980D01*
Y330646D01*
D02*
G37*
G36*
X335670Y335059D02*
Y326370D01*
X344359D01*
X344182Y327721D01*
X343170Y330163D01*
X341561Y332261D01*
X339463Y333870D01*
X337021Y334882D01*
X335670Y335059D01*
D02*
G37*
G36*
X321646Y323980D02*
X317520D01*
Y319854D01*
X318412Y320031D01*
X320244Y321256D01*
X321469Y323088D01*
X321646Y323980D01*
D02*
G37*
G36*
X201646D02*
X197520D01*
Y319854D01*
X198412Y320031D01*
X200244Y321256D01*
X201469Y323088D01*
X201646Y323980D01*
D02*
G37*
G36*
X496250Y393069D02*
X391000D01*
X389634Y392797D01*
X388477Y392023D01*
X387703Y390866D01*
X387431Y389500D01*
X387703Y388134D01*
X388477Y386977D01*
X389634Y386203D01*
X391000Y385931D01*
X494772D01*
X525681Y355022D01*
Y297033D01*
X524411Y296648D01*
X523605Y297855D01*
X509355Y312105D01*
X507701Y313210D01*
X505750Y313598D01*
X462001D01*
X461918Y314868D01*
X463821Y315118D01*
X466263Y316130D01*
X468361Y317739D01*
X469970Y319837D01*
X470623Y321414D01*
X472056Y321555D01*
X472256Y321256D01*
X474088Y320031D01*
X474980Y319854D01*
Y325250D01*
Y330646D01*
X474088Y330469D01*
X472256Y329244D01*
X471877Y328677D01*
X470444Y328819D01*
X469970Y329963D01*
X468361Y332061D01*
X466263Y333670D01*
X463821Y334682D01*
X462470Y334859D01*
Y324900D01*
X461200D01*
Y323630D01*
X451241D01*
X451418Y322279D01*
X452430Y319837D01*
X454039Y317739D01*
X456137Y316130D01*
X458579Y315118D01*
X460482Y314868D01*
X460398Y313598D01*
X451750D01*
X449799Y313210D01*
X448145Y312105D01*
X447040Y310451D01*
X446652Y308500D01*
X447040Y306549D01*
X448145Y304895D01*
X449799Y303790D01*
X451750Y303402D01*
X503638D01*
X514902Y292138D01*
Y263362D01*
X500645Y249105D01*
X499540Y247451D01*
X499152Y245500D01*
Y211385D01*
X497882Y210574D01*
X497520Y210646D01*
Y205250D01*
Y199854D01*
X497632Y199876D01*
X498902Y198948D01*
Y160250D01*
X499290Y158299D01*
X500395Y156645D01*
X519152Y137888D01*
Y91385D01*
X517882Y90574D01*
X517520Y90646D01*
Y85250D01*
X516250D01*
Y83980D01*
X510854D01*
X511031Y83088D01*
X512256Y81256D01*
X514088Y80031D01*
X515704Y79710D01*
X516182Y78392D01*
X502138Y64348D01*
X469539D01*
Y64750D01*
X469384Y65530D01*
X468942Y66192D01*
X468280Y66634D01*
X467500Y66789D01*
X457500D01*
X456720Y66634D01*
X456058Y66192D01*
X455616Y65530D01*
X455461Y64750D01*
Y64398D01*
X447672D01*
X447442Y64742D01*
X446780Y65184D01*
X446000Y65339D01*
X436000D01*
X435220Y65184D01*
X434558Y64742D01*
X434116Y64080D01*
X433961Y63300D01*
Y55300D01*
X434116Y54520D01*
X434558Y53858D01*
X435220Y53416D01*
X436000Y53261D01*
X446000D01*
X446780Y53416D01*
X447442Y53858D01*
X447672Y54202D01*
X455461D01*
Y53750D01*
X455616Y52970D01*
X456058Y52308D01*
X456720Y51866D01*
X457500Y51711D01*
X458672D01*
Y37439D01*
X440561Y19328D01*
X132189D01*
X109002Y42516D01*
X109260Y43767D01*
X109381Y43933D01*
X109942Y44308D01*
X110384Y44970D01*
X110539Y45750D01*
Y55750D01*
X110384Y56530D01*
X109942Y57192D01*
X109280Y57634D01*
X108500Y57789D01*
X107828D01*
Y64565D01*
X108192Y64808D01*
X108634Y65470D01*
X108789Y66250D01*
Y75250D01*
X108634Y76030D01*
X108192Y76692D01*
X107530Y77134D01*
X106750Y77289D01*
X100750D01*
X99970Y77134D01*
X99308Y76692D01*
X98866Y76030D01*
X98711Y75250D01*
Y66250D01*
X98866Y65470D01*
X99308Y64808D01*
X99672Y64565D01*
Y57789D01*
X97500D01*
X96720Y57634D01*
X96058Y57192D01*
X95616Y56530D01*
X95461Y55750D01*
Y45750D01*
X95616Y44970D01*
X96058Y44308D01*
X96720Y43866D01*
X97500Y43711D01*
X98152D01*
X98922Y42750D01*
X99232Y41189D01*
X100116Y39866D01*
X127616Y12366D01*
X127616Y12366D01*
X128939Y11482D01*
X130500Y11172D01*
X442250D01*
X442250Y11172D01*
X443811Y11482D01*
X445134Y12366D01*
X465634Y32866D01*
X466518Y34189D01*
X466828Y35750D01*
X466828Y35750D01*
Y51711D01*
X467500D01*
X468280Y51866D01*
X468942Y52308D01*
X469384Y52970D01*
X469539Y53750D01*
Y54152D01*
X504250D01*
X506201Y54540D01*
X507855Y55645D01*
X527855Y75645D01*
X528960Y77299D01*
X529348Y79250D01*
Y140000D01*
X528960Y141951D01*
X527855Y143605D01*
X509098Y162362D01*
Y200680D01*
X509348Y201936D01*
Y242602D01*
X509768Y242931D01*
X509996Y242960D01*
X511362Y242594D01*
X512256Y241256D01*
X514088Y240031D01*
X514980Y239854D01*
Y245250D01*
X516250D01*
Y246520D01*
X521646D01*
X521469Y247412D01*
X520244Y249244D01*
X518412Y250469D01*
X518078Y250535D01*
X517710Y251750D01*
X523605Y257645D01*
X524411Y258852D01*
X525681Y258467D01*
Y162250D01*
X525953Y160884D01*
X526727Y159727D01*
X548681Y137772D01*
Y120728D01*
X543477Y115523D01*
X542703Y114366D01*
X542431Y113000D01*
Y74289D01*
X538500D01*
X537720Y74134D01*
X537058Y73692D01*
X536616Y73030D01*
X536461Y72250D01*
Y57250D01*
X536616Y56470D01*
X537058Y55808D01*
X537720Y55366D01*
X538500Y55211D01*
X553500D01*
X554280Y55366D01*
X554942Y55808D01*
X555384Y56470D01*
X555539Y57250D01*
Y72250D01*
X555384Y73030D01*
X554942Y73692D01*
X554280Y74134D01*
X553500Y74289D01*
X549569D01*
Y83933D01*
X550839Y84058D01*
X551031Y83088D01*
X552256Y81256D01*
X554088Y80031D01*
X554980Y79854D01*
Y85250D01*
Y90646D01*
X554088Y90469D01*
X552256Y89244D01*
X551031Y87412D01*
X550839Y86442D01*
X549569Y86567D01*
Y111522D01*
X554773Y116727D01*
X555547Y117884D01*
X555819Y119250D01*
Y139250D01*
X555547Y140616D01*
X554773Y141773D01*
X532819Y163728D01*
Y199533D01*
X533939Y200131D01*
X534088Y200032D01*
X534980Y199854D01*
Y205250D01*
Y210646D01*
X534088Y210469D01*
X533939Y210368D01*
X532819Y210967D01*
Y279533D01*
X533939Y280131D01*
X534088Y280031D01*
X534980Y279854D01*
Y285250D01*
Y290646D01*
X534088Y290469D01*
X533939Y290368D01*
X532819Y290967D01*
Y356500D01*
X532547Y357866D01*
X531773Y359023D01*
X498773Y392023D01*
X497616Y392797D01*
X496250Y393069D01*
D02*
G37*
G36*
X514505Y323996D02*
X510379D01*
X510557Y323104D01*
X511781Y321272D01*
X513614Y320047D01*
X514505Y319870D01*
Y323996D01*
D02*
G37*
G36*
X481646Y323980D02*
X477520D01*
Y319854D01*
X478412Y320031D01*
X480244Y321256D01*
X481469Y323088D01*
X481646Y323980D01*
D02*
G37*
G36*
X94980Y370646D02*
X94088Y370469D01*
X92256Y369244D01*
X91032Y367412D01*
X90854Y366520D01*
X94980D01*
Y370646D01*
D02*
G37*
G36*
X281500Y306340D02*
X277770D01*
Y299520D01*
X284090D01*
Y303750D01*
X283893Y304741D01*
X283331Y305581D01*
X282491Y306143D01*
X281500Y306340D01*
D02*
G37*
G36*
X142590Y304730D02*
X136270D01*
Y297910D01*
X140000D01*
X140991Y298107D01*
X141831Y298669D01*
X142393Y299509D01*
X142590Y300500D01*
Y304730D01*
D02*
G37*
G36*
X293250Y393060D02*
X293089Y393039D01*
X287750D01*
X286970Y392884D01*
X286308Y392442D01*
X285866Y391780D01*
X285711Y391000D01*
Y381000D01*
X285866Y380220D01*
X286190Y379735D01*
Y356518D01*
X285438Y355539D01*
X284532Y353349D01*
X284222Y351000D01*
X284532Y348651D01*
X285438Y346461D01*
X286881Y344581D01*
X288761Y343139D01*
X289222Y342948D01*
Y336950D01*
X289222Y336950D01*
X289532Y335389D01*
X290416Y334066D01*
X301422Y323061D01*
Y314685D01*
X301058Y314442D01*
X300616Y313780D01*
X300461Y313000D01*
Y304000D01*
X300616Y303220D01*
X301058Y302558D01*
X301720Y302116D01*
X302337Y301993D01*
X302439Y301482D01*
X302875Y300829D01*
X302367Y299677D01*
X302238Y299559D01*
X297059D01*
Y302072D01*
X297280Y302116D01*
X297942Y302558D01*
X298384Y303220D01*
X298539Y304000D01*
Y313000D01*
X298384Y313780D01*
X297942Y314442D01*
X297479Y314751D01*
X297578Y315250D01*
X297268Y316811D01*
X296384Y318134D01*
X293384Y321134D01*
X292061Y322018D01*
X290500Y322328D01*
X290500Y322328D01*
X246185D01*
X246088Y322473D01*
Y341961D01*
X248000D01*
X248780Y342116D01*
X249442Y342558D01*
X252942Y346058D01*
X252942Y346058D01*
X253384Y346720D01*
X253539Y347500D01*
X253539Y347500D01*
Y354500D01*
X253384Y355280D01*
X252942Y355942D01*
X249442Y359442D01*
X249442Y359442D01*
X248780Y359884D01*
X248103Y360019D01*
X248085Y360131D01*
X248069Y360316D01*
Y378676D01*
X248084Y378856D01*
X248102Y378961D01*
X250000D01*
X250780Y379116D01*
X251442Y379558D01*
X251884Y380220D01*
X252039Y381000D01*
Y391000D01*
X251884Y391780D01*
X251442Y392442D01*
X250780Y392884D01*
X250000Y393039D01*
X239000D01*
X238220Y392884D01*
X237558Y392442D01*
X237116Y391780D01*
X236961Y391000D01*
Y381000D01*
X237116Y380220D01*
X237558Y379558D01*
X238220Y379116D01*
X239000Y378961D01*
X240898D01*
X240916Y378856D01*
X240931Y378676D01*
Y360316D01*
X240915Y360131D01*
X240897Y360019D01*
X240220Y359884D01*
X239558Y359442D01*
X236058Y355942D01*
X236058Y355942D01*
X235616Y355280D01*
X235461Y354500D01*
X235461Y354500D01*
Y347500D01*
X235616Y346720D01*
X236058Y346058D01*
X236912Y345204D01*
Y323289D01*
X233500D01*
X232720Y323134D01*
X232058Y322692D01*
X231616Y322030D01*
X231461Y321250D01*
Y311250D01*
X231616Y310470D01*
X232058Y309808D01*
X232720Y309366D01*
X233500Y309211D01*
X244500D01*
X245280Y309366D01*
X245942Y309808D01*
X246384Y310470D01*
X246539Y311250D01*
Y314172D01*
X287466D01*
X288461Y313000D01*
Y304000D01*
X288616Y303220D01*
X289058Y302558D01*
X289720Y302116D01*
X290500Y301961D01*
X290941D01*
Y298250D01*
X290941Y298250D01*
X291174Y297080D01*
X291837Y296087D01*
X293587Y294337D01*
X293587Y294337D01*
X294579Y293674D01*
X295750Y293441D01*
X302091D01*
X302727Y292636D01*
X302836Y292358D01*
X302854Y292222D01*
X302711Y291500D01*
Y280539D01*
X297373D01*
X297250Y280564D01*
X283539D01*
Y286750D01*
X283384Y287530D01*
X282942Y288192D01*
X282280Y288634D01*
X281500Y288789D01*
X272710D01*
X272143Y289721D01*
X272397Y290160D01*
X275230D01*
Y298250D01*
Y306340D01*
X271500D01*
X270509Y306143D01*
X269669Y305581D01*
X268450Y306043D01*
X267451Y306710D01*
X265500Y307098D01*
X263549Y306710D01*
X261895Y305605D01*
X260790Y303951D01*
X260402Y302000D01*
Y290666D01*
X259132Y289987D01*
X258412Y290469D01*
X257520Y290646D01*
Y285250D01*
Y279854D01*
X258412Y280031D01*
X260244Y281256D01*
X261043Y282451D01*
X262563Y282698D01*
X262608Y282682D01*
X267645Y277645D01*
X269299Y276540D01*
X269461Y276508D01*
Y275750D01*
X269616Y274970D01*
X270058Y274308D01*
X270720Y273866D01*
X271500Y273711D01*
X281500D01*
X282280Y273866D01*
X282386Y273936D01*
X288802D01*
X289144Y273520D01*
X297250D01*
Y270980D01*
X289144D01*
X288802Y270564D01*
X260123D01*
X255593Y275093D01*
X254518Y275811D01*
X253250Y276064D01*
X251963D01*
X251539Y276082D01*
Y276750D01*
X251384Y277530D01*
X250942Y278192D01*
X250280Y278634D01*
X249500Y278789D01*
X240500D01*
X239720Y278634D01*
X239058Y278192D01*
X238828Y277848D01*
X236039D01*
Y279250D01*
X235884Y280030D01*
X235442Y280692D01*
X234780Y281134D01*
X234000Y281289D01*
X224000D01*
X223220Y281134D01*
X222558Y280692D01*
X222116Y280030D01*
X221961Y279250D01*
Y278848D01*
X218708D01*
X218280Y279134D01*
X217500Y279289D01*
X206500D01*
X205720Y279134D01*
X205058Y278692D01*
X204616Y278030D01*
X204461Y277250D01*
Y267250D01*
X204616Y266470D01*
X205058Y265808D01*
X205720Y265366D01*
X206500Y265211D01*
X217500D01*
X218280Y265366D01*
X218942Y265808D01*
X219384Y266470D01*
X219539Y267250D01*
Y268652D01*
X221961D01*
Y268250D01*
X222116Y267470D01*
X222558Y266808D01*
X223220Y266366D01*
X224000Y266211D01*
X234000D01*
X234780Y266366D01*
X235442Y266808D01*
X235884Y267470D01*
X235920Y267652D01*
X238828D01*
X239058Y267308D01*
X239720Y266866D01*
X240500Y266711D01*
X249500D01*
X250280Y266866D01*
X250942Y267308D01*
X251384Y267970D01*
X251411Y268107D01*
X252778Y268536D01*
X255687Y265627D01*
X256298Y264750D01*
X255687Y263873D01*
X252665Y260851D01*
X252330Y260833D01*
X251149Y261132D01*
X250942Y261442D01*
X250280Y261884D01*
X249500Y262039D01*
X240500D01*
X239720Y261884D01*
X239058Y261442D01*
X238616Y260780D01*
X238461Y260000D01*
Y259338D01*
X236289D01*
Y260250D01*
X236134Y261030D01*
X235692Y261692D01*
X235030Y262134D01*
X234250Y262289D01*
X224250D01*
X223470Y262134D01*
X222808Y261692D01*
X222366Y261030D01*
X222211Y260250D01*
Y259838D01*
X219539D01*
Y260250D01*
X219384Y261030D01*
X218942Y261692D01*
X218280Y262134D01*
X217500Y262289D01*
X206500D01*
X205720Y262134D01*
X205058Y261692D01*
X204616Y261030D01*
X204461Y260250D01*
Y250250D01*
X204616Y249470D01*
X205058Y248808D01*
X205720Y248366D01*
X206500Y248211D01*
X217500D01*
X218280Y248366D01*
X218942Y248808D01*
X219384Y249470D01*
X219539Y250250D01*
Y250662D01*
X222211D01*
Y249250D01*
X222366Y248470D01*
X222808Y247808D01*
X223470Y247366D01*
X224250Y247211D01*
X234250D01*
X235030Y247366D01*
X235692Y247808D01*
X236134Y248470D01*
X236289Y249250D01*
Y250162D01*
X239651D01*
X239720Y250116D01*
X240500Y249961D01*
X249500D01*
X250280Y250116D01*
X250942Y250558D01*
X251384Y251220D01*
X251539Y252000D01*
Y252686D01*
X252500D01*
X253768Y252939D01*
X254843Y253657D01*
X260123Y258936D01*
X262841D01*
X263327Y257763D01*
X256157Y250593D01*
X255439Y249518D01*
X255186Y248250D01*
Y159000D01*
X255439Y157732D01*
X256157Y156657D01*
X256711Y156103D01*
Y148250D01*
X256866Y147470D01*
X257308Y146808D01*
X257970Y146366D01*
X258750Y146211D01*
X269750D01*
X270530Y146366D01*
X271192Y146808D01*
X271634Y147470D01*
X271789Y148250D01*
Y158250D01*
X271634Y159030D01*
X271192Y159692D01*
X270530Y160134D01*
X269750Y160289D01*
X261897D01*
X261814Y160373D01*
Y237339D01*
X263084Y238018D01*
X263799Y237540D01*
X265750Y237152D01*
X269461D01*
Y236750D01*
X269616Y235970D01*
X270058Y235308D01*
X270720Y234866D01*
X271500Y234711D01*
X281500D01*
X282280Y234866D01*
X282942Y235308D01*
X283384Y235970D01*
X283539Y236750D01*
Y243936D01*
X297250D01*
X297373Y243961D01*
X302711D01*
Y233000D01*
X302866Y232220D01*
X303308Y231558D01*
X303970Y231116D01*
X304750Y230961D01*
X307250D01*
X307941Y230394D01*
Y223539D01*
X307000D01*
X306220Y223384D01*
X305558Y222942D01*
X305116Y222280D01*
X304961Y221500D01*
Y212500D01*
X305116Y211720D01*
X305558Y211058D01*
X306220Y210616D01*
X306412Y210578D01*
Y208289D01*
X305500D01*
X304720Y208134D01*
X304058Y207692D01*
X303616Y207030D01*
X303461Y206250D01*
Y196250D01*
X303616Y195470D01*
X304058Y194808D01*
X304720Y194366D01*
X305500Y194211D01*
X316500D01*
X317280Y194366D01*
X317942Y194808D01*
X318384Y195470D01*
X318539Y196250D01*
Y206250D01*
X318384Y207030D01*
X317942Y207692D01*
X317280Y208134D01*
X316500Y208289D01*
X315588D01*
Y210578D01*
X315780Y210616D01*
X316442Y211058D01*
X316884Y211720D01*
X317039Y212500D01*
Y221500D01*
X316884Y222280D01*
X316442Y222942D01*
X315780Y223384D01*
X315000Y223539D01*
X314059D01*
Y225706D01*
X315232Y226192D01*
X319127Y222297D01*
X319116Y222280D01*
X318961Y221500D01*
Y212500D01*
X319116Y211720D01*
X319558Y211058D01*
X320220Y210616D01*
X320448Y210571D01*
X320761Y208994D01*
X321190Y208353D01*
X321058Y207692D01*
X320616Y207030D01*
X320461Y206250D01*
Y196250D01*
X320616Y195470D01*
X321058Y194808D01*
X321720Y194366D01*
X322500Y194211D01*
X333500D01*
X334280Y194366D01*
X334942Y194808D01*
X335384Y195470D01*
X335539Y196250D01*
Y206250D01*
X335384Y207030D01*
X334942Y207692D01*
X334280Y208134D01*
X333500Y208289D01*
X332481D01*
X332239Y209506D01*
X331244Y210994D01*
X330738Y211501D01*
X330884Y211720D01*
X331039Y212500D01*
Y221500D01*
X330884Y222280D01*
X330442Y222942D01*
X329780Y223384D01*
X329000Y223539D01*
X326537D01*
X320385Y229691D01*
X320911Y230961D01*
X322250D01*
X323030Y231116D01*
X323500Y231430D01*
X323970Y231116D01*
X324750Y230961D01*
X327250D01*
X328030Y231116D01*
X328500Y231430D01*
X328970Y231116D01*
X329750Y230961D01*
X331838D01*
X332941Y230500D01*
X333174Y229329D01*
X333837Y228337D01*
X341087Y221087D01*
X341087Y221087D01*
X342080Y220424D01*
X343250Y220191D01*
X365500D01*
X365500Y220191D01*
X366670Y220424D01*
X367663Y221087D01*
X384733Y238157D01*
X384887Y238138D01*
X385961Y237589D01*
Y214000D01*
X386116Y213220D01*
X386558Y212558D01*
X387220Y212116D01*
X388000Y211961D01*
X393940D01*
Y168750D01*
X394180Y166923D01*
X394885Y165220D01*
X394961Y165122D01*
Y164750D01*
X395116Y163970D01*
X395558Y163308D01*
X396220Y162866D01*
X397000Y162711D01*
X397372D01*
X397470Y162636D01*
X399173Y161930D01*
X401000Y161690D01*
X402827Y161930D01*
X404530Y162636D01*
X404628Y162711D01*
X405000D01*
X405780Y162866D01*
X406442Y163308D01*
X406884Y163970D01*
X407039Y164750D01*
Y165122D01*
X407114Y165220D01*
X407820Y166923D01*
X408060Y168750D01*
X408060Y168750D01*
Y178461D01*
X411250D01*
X412030Y178616D01*
X412692Y179058D01*
X413134Y179720D01*
X413289Y180500D01*
Y189500D01*
X413134Y190280D01*
X412692Y190942D01*
X412030Y191384D01*
X411250Y191539D01*
X408060D01*
Y211961D01*
X414000D01*
X414780Y212116D01*
X415442Y212558D01*
X415884Y213220D01*
X416039Y214000D01*
Y238000D01*
X415884Y238780D01*
X415442Y239442D01*
X414780Y239884D01*
X414000Y240039D01*
X409070D01*
X408544Y241309D01*
X440992Y273757D01*
X442114Y275220D01*
X442820Y276923D01*
X443060Y278750D01*
Y318696D01*
X444298Y320309D01*
X445255Y322620D01*
X445582Y325100D01*
X445255Y327580D01*
X444298Y329891D01*
X443060Y331504D01*
Y344096D01*
X444298Y345709D01*
X445255Y348020D01*
X445582Y350500D01*
X445255Y352980D01*
X444298Y355291D01*
X442775Y357276D01*
X440791Y358798D01*
X438480Y359756D01*
X436000Y360082D01*
X433520Y359756D01*
X431209Y358798D01*
X429225Y357276D01*
X429106Y357122D01*
X427904Y357530D01*
Y362867D01*
X427904Y362867D01*
X427671Y364038D01*
X427559Y364206D01*
Y366500D01*
X427559Y366500D01*
X427326Y367671D01*
X426663Y368663D01*
X426663Y368663D01*
X420663Y374663D01*
X419670Y375326D01*
X418500Y375559D01*
X418500Y375559D01*
X381800D01*
X380629Y375326D01*
X379637Y374663D01*
X379637Y374663D01*
X364012Y359038D01*
X362280Y359756D01*
X359800Y360082D01*
X357320Y359756D01*
X355009Y358798D01*
X353024Y357276D01*
X351502Y355291D01*
X350545Y352980D01*
X350218Y350500D01*
X350545Y348020D01*
X351502Y345709D01*
X353024Y343725D01*
X354192Y342829D01*
X353761Y341559D01*
X353750D01*
X352579Y341326D01*
X351587Y340663D01*
X351587Y340663D01*
X346837Y335913D01*
X346174Y334921D01*
X345941Y333750D01*
X345941Y333750D01*
Y316303D01*
X345560Y315918D01*
X344810Y315428D01*
X344250Y315539D01*
X340519D01*
X340088Y316809D01*
X341561Y317939D01*
X343170Y320037D01*
X344182Y322479D01*
X344359Y323830D01*
X334400D01*
X324441D01*
X324618Y322479D01*
X325630Y320037D01*
X327239Y317939D01*
X328212Y317193D01*
X327673Y316005D01*
X327250Y316090D01*
X323020D01*
Y309770D01*
X329840D01*
Y313500D01*
X329732Y314042D01*
X330474Y315003D01*
X330608Y315086D01*
X331296Y313926D01*
X331211Y313500D01*
Y303500D01*
X331366Y302720D01*
X331808Y302058D01*
X331819Y302051D01*
X332064Y300500D01*
X328657Y297093D01*
X327939Y296018D01*
X327686Y294750D01*
Y293897D01*
X327250Y293539D01*
X324750D01*
X323970Y293384D01*
X323500Y293070D01*
X323030Y293384D01*
X322250Y293539D01*
X319750D01*
X318970Y293384D01*
X318500Y293070D01*
X318030Y293384D01*
X317250Y293539D01*
X314750D01*
X314314Y293897D01*
Y297250D01*
X314061Y298518D01*
X313343Y299593D01*
X310117Y302819D01*
X310384Y303220D01*
X310539Y304000D01*
Y313000D01*
X310384Y313780D01*
X309942Y314442D01*
X309578Y314685D01*
Y323884D01*
X310848Y324009D01*
X311031Y323088D01*
X312256Y321256D01*
X314088Y320031D01*
X314980Y319854D01*
Y325250D01*
Y330646D01*
X314088Y330469D01*
X312256Y329244D01*
X311031Y327412D01*
X310688Y325683D01*
X309393D01*
X309268Y326311D01*
X308384Y327634D01*
X308384Y327634D01*
X297378Y338639D01*
Y342948D01*
X297839Y343139D01*
X299719Y344581D01*
X301161Y346461D01*
X302068Y348651D01*
X302378Y351000D01*
X302068Y353349D01*
X301161Y355539D01*
X300310Y356648D01*
Y379735D01*
X300634Y380220D01*
X300789Y381000D01*
Y391000D01*
X300634Y391780D01*
X300192Y392442D01*
X299530Y392884D01*
X298750Y393039D01*
X293411D01*
X293250Y393060D01*
D02*
G37*
G36*
X329840Y307230D02*
X323020D01*
Y300910D01*
X327250D01*
X328241Y301107D01*
X329081Y301669D01*
X329643Y302509D01*
X329840Y303500D01*
Y307230D01*
D02*
G37*
G36*
X320480D02*
X313660D01*
Y303500D01*
X313857Y302509D01*
X314419Y301669D01*
X315259Y301107D01*
X316250Y300910D01*
X320480D01*
Y307230D01*
D02*
G37*
G36*
X227730Y298840D02*
X224000D01*
X223009Y298643D01*
X222169Y298081D01*
X221607Y297241D01*
X221410Y296250D01*
Y292020D01*
X227730D01*
Y298840D01*
D02*
G37*
G36*
X257520Y370646D02*
Y366520D01*
X261646D01*
X261469Y367412D01*
X260244Y369244D01*
X258412Y370469D01*
X257520Y370646D01*
D02*
G37*
G36*
X234000Y298840D02*
X230270D01*
Y292020D01*
X236590D01*
Y296250D01*
X236393Y297241D01*
X235831Y298081D01*
X234991Y298643D01*
X234000Y298840D01*
D02*
G37*
G36*
X133730Y304730D02*
X127410D01*
Y300500D01*
X127607Y299509D01*
X128169Y298669D01*
X129009Y298107D01*
X130000Y297910D01*
X133730D01*
Y304730D01*
D02*
G37*
G36*
X254980Y370646D02*
X254088Y370469D01*
X252256Y369244D01*
X251031Y367412D01*
X250854Y366520D01*
X254980D01*
Y370646D01*
D02*
G37*
G36*
X217520D02*
Y366520D01*
X221646D01*
X221469Y367412D01*
X220244Y369244D01*
X218412Y370469D01*
X217520Y370646D01*
D02*
G37*
G36*
X230090Y314980D02*
X223270D01*
Y308660D01*
X227500D01*
X228491Y308857D01*
X229331Y309419D01*
X229893Y310259D01*
X230090Y311250D01*
Y314980D01*
D02*
G37*
G36*
X220730D02*
X213910D01*
Y311250D01*
X214107Y310259D01*
X214669Y309419D01*
X215509Y308857D01*
X216500Y308660D01*
X220730D01*
Y314980D01*
D02*
G37*
G36*
X134980Y370646D02*
X134088Y370469D01*
X132256Y369244D01*
X131032Y367412D01*
X130854Y366520D01*
X134980D01*
Y370646D01*
D02*
G37*
G36*
X97520D02*
Y366520D01*
X101646D01*
X101469Y367412D01*
X100244Y369244D01*
X98412Y370469D01*
X97520Y370646D01*
D02*
G37*
G36*
X320480Y316090D02*
X316250D01*
X315259Y315893D01*
X314419Y315331D01*
X313857Y314491D01*
X313660Y313500D01*
Y309770D01*
X320480D01*
Y316090D01*
D02*
G37*
G36*
X315750Y393590D02*
X311520D01*
Y387270D01*
X318340D01*
Y391000D01*
X318143Y391991D01*
X317581Y392831D01*
X316741Y393393D01*
X315750Y393590D01*
D02*
G37*
G36*
X214980Y370646D02*
X214088Y370469D01*
X212256Y369244D01*
X211031Y367412D01*
X210854Y366520D01*
X214980D01*
Y370646D01*
D02*
G37*
G36*
X137520D02*
Y366520D01*
X141646D01*
X141469Y367412D01*
X140244Y369244D01*
X138412Y370469D01*
X137520Y370646D01*
D02*
G37*
G36*
X140000Y314090D02*
X136270D01*
Y307270D01*
X142590D01*
Y311500D01*
X142393Y312491D01*
X141831Y313331D01*
X140991Y313893D01*
X140000Y314090D01*
D02*
G37*
G36*
X133730D02*
X130000D01*
X129009Y313893D01*
X128169Y313331D01*
X127607Y312491D01*
X127410Y311500D01*
Y307270D01*
X133730D01*
Y314090D01*
D02*
G37*
G36*
X54980Y363980D02*
X50854D01*
X51031Y363088D01*
X52256Y361256D01*
X54088Y360031D01*
X54980Y359854D01*
Y363980D01*
D02*
G37*
G36*
X21646D02*
X17520D01*
Y359854D01*
X18412Y360031D01*
X20244Y361256D01*
X21469Y363088D01*
X21646Y363980D01*
D02*
G37*
G36*
X61646D02*
X57520D01*
Y359854D01*
X58412Y360031D01*
X60244Y361256D01*
X61469Y363088D01*
X61646Y363980D01*
D02*
G37*
G36*
X101646D02*
X97520D01*
Y359854D01*
X98412Y360031D01*
X100244Y361256D01*
X101469Y363088D01*
X101646Y363980D01*
D02*
G37*
G36*
X94980D02*
X90854D01*
X91032Y363088D01*
X92256Y361256D01*
X94088Y360031D01*
X94980Y359854D01*
Y363980D01*
D02*
G37*
G36*
X17520Y370646D02*
Y366520D01*
X21646D01*
X21469Y367412D01*
X20244Y369244D01*
X18412Y370469D01*
X17520Y370646D01*
D02*
G37*
G36*
X54980D02*
X54088Y370469D01*
X52256Y369244D01*
X51031Y367412D01*
X50854Y366520D01*
X54980D01*
Y370646D01*
D02*
G37*
G36*
X460280Y360640D02*
X454050D01*
X453059Y360443D01*
X452219Y359881D01*
X451657Y359041D01*
X451460Y358050D01*
Y351820D01*
X460280D01*
Y360640D01*
D02*
G37*
G36*
X14980Y363980D02*
X10854D01*
X11032Y363088D01*
X12256Y361256D01*
X14088Y360031D01*
X14980Y359854D01*
Y363980D01*
D02*
G37*
G36*
X469050Y360640D02*
X462820D01*
Y351820D01*
X471640D01*
Y358050D01*
X471443Y359041D01*
X470881Y359881D01*
X470041Y360443D01*
X469050Y360640D01*
D02*
G37*
G36*
X134980Y363980D02*
X130854D01*
X131032Y363088D01*
X132256Y361256D01*
X134088Y360031D01*
X134980Y359854D01*
Y363980D01*
D02*
G37*
G36*
X501646D02*
X497520D01*
Y359854D01*
X498412Y360031D01*
X500244Y361256D01*
X501469Y363088D01*
X501646Y363980D01*
D02*
G37*
G36*
X494980D02*
X490854D01*
X491031Y363088D01*
X492256Y361256D01*
X494088Y360031D01*
X494980Y359854D01*
Y363980D01*
D02*
G37*
G36*
X534980D02*
X530854D01*
X531031Y363088D01*
X532256Y361256D01*
X534088Y360031D01*
X534980Y359854D01*
Y363980D01*
D02*
G37*
G36*
X541646D02*
X537520D01*
Y359854D01*
X538412Y360031D01*
X540244Y361256D01*
X541469Y363088D01*
X541646Y363980D01*
D02*
G37*
G36*
X14980Y370646D02*
X14088Y370469D01*
X12256Y369244D01*
X11032Y367412D01*
X10854Y366520D01*
X14980D01*
Y370646D01*
D02*
G37*
G36*
X214980Y363980D02*
X210854D01*
X211031Y363088D01*
X212256Y361256D01*
X214088Y360031D01*
X214980Y359854D01*
Y363980D01*
D02*
G37*
G36*
X141646D02*
X137520D01*
Y359854D01*
X138412Y360031D01*
X140244Y361256D01*
X141469Y363088D01*
X141646Y363980D01*
D02*
G37*
G36*
X221646D02*
X217520D01*
Y359854D01*
X218412Y360031D01*
X220244Y361256D01*
X221469Y363088D01*
X221646Y363980D01*
D02*
G37*
G36*
X261646D02*
X257520D01*
Y359854D01*
X258412Y360031D01*
X260244Y361256D01*
X261469Y363088D01*
X261646Y363980D01*
D02*
G37*
G36*
X254980D02*
X250854D01*
X251031Y363088D01*
X252256Y361256D01*
X254088Y360031D01*
X254980Y359854D01*
Y363980D01*
D02*
G37*
G36*
X334400Y360082D02*
X331920Y359756D01*
X329609Y358798D01*
X327625Y357276D01*
X326102Y355291D01*
X325145Y352980D01*
X324818Y350500D01*
X325145Y348020D01*
X326102Y345709D01*
X327625Y343725D01*
X329609Y342202D01*
X331920Y341245D01*
X334400Y340918D01*
X336880Y341245D01*
X339191Y342202D01*
X341175Y343725D01*
X342698Y345709D01*
X343655Y348020D01*
X343982Y350500D01*
X343655Y352980D01*
X342698Y355291D01*
X341175Y357276D01*
X339191Y358798D01*
X336880Y359756D01*
X334400Y360082D01*
D02*
G37*
G36*
X157520Y330646D02*
Y326520D01*
X161646D01*
X161469Y327412D01*
X160244Y329244D01*
X158412Y330469D01*
X157520Y330646D01*
D02*
G37*
G36*
X154980D02*
X154088Y330469D01*
X152256Y329244D01*
X151031Y327412D01*
X150854Y326520D01*
X154980D01*
Y330646D01*
D02*
G37*
G36*
X201209Y336230D02*
X191250D01*
X181291D01*
X181468Y334879D01*
X182480Y332437D01*
X184089Y330339D01*
X186187Y328730D01*
X188629Y327718D01*
X190109Y327524D01*
X190828Y326520D01*
X201646D01*
X201469Y327412D01*
X200244Y329244D01*
X199249Y329909D01*
X199042Y331162D01*
X200020Y332437D01*
X201032Y334879D01*
X201209Y336230D01*
D02*
G37*
G36*
X477520Y330646D02*
Y326520D01*
X481646D01*
X481469Y327412D01*
X480244Y329244D01*
X478412Y330469D01*
X477520Y330646D01*
D02*
G37*
G36*
X317520D02*
Y326520D01*
X321646D01*
X321469Y327412D01*
X320244Y329244D01*
X318412Y330469D01*
X317520Y330646D01*
D02*
G37*
G36*
X74980D02*
X74088Y330469D01*
X72256Y329244D01*
X71031Y327412D01*
X70854Y326520D01*
X74980D01*
Y330646D01*
D02*
G37*
G36*
X37520D02*
Y326520D01*
X41646D01*
X41469Y327412D01*
X40244Y329244D01*
X38412Y330469D01*
X37520Y330646D01*
D02*
G37*
G36*
X77520D02*
Y326520D01*
X81646D01*
X81469Y327412D01*
X80244Y329244D01*
X78412Y330469D01*
X77520Y330646D01*
D02*
G37*
G36*
X117520D02*
Y326520D01*
X121646D01*
X121469Y327412D01*
X120244Y329244D01*
X118412Y330469D01*
X117520Y330646D01*
D02*
G37*
G36*
X114980D02*
X114088Y330469D01*
X112256Y329244D01*
X111032Y327412D01*
X110854Y326520D01*
X114980D01*
Y330646D01*
D02*
G37*
G36*
X57520Y370646D02*
Y366520D01*
X61646D01*
X61469Y367412D01*
X60244Y369244D01*
X58412Y370469D01*
X57520Y370646D01*
D02*
G37*
G36*
X189980Y347459D02*
X188629Y347282D01*
X186187Y346270D01*
X184089Y344661D01*
X182480Y342563D01*
X181468Y340121D01*
X181291Y338770D01*
X189980D01*
Y347459D01*
D02*
G37*
G36*
X510470Y341196D02*
Y337070D01*
X514596D01*
X514419Y337962D01*
X513194Y339794D01*
X511362Y341018D01*
X510470Y341196D01*
D02*
G37*
G36*
X192520Y347459D02*
Y338770D01*
X201209D01*
X201032Y340121D01*
X200020Y342563D01*
X198411Y344661D01*
X196313Y346270D01*
X193871Y347282D01*
X192520Y347459D01*
D02*
G37*
G36*
X471640Y349280D02*
X462820D01*
Y340460D01*
X469050D01*
X470041Y340657D01*
X470881Y341219D01*
X471443Y342059D01*
X471640Y343050D01*
Y349280D01*
D02*
G37*
G36*
X460280D02*
X451460D01*
Y343050D01*
X451657Y342059D01*
X452219Y341219D01*
X453059Y340657D01*
X454050Y340460D01*
X460280D01*
Y349280D01*
D02*
G37*
G36*
X517045Y330662D02*
Y326536D01*
X521171D01*
X520994Y327427D01*
X519769Y329260D01*
X517937Y330484D01*
X517045Y330662D01*
D02*
G37*
G36*
X514505D02*
X513614Y330484D01*
X511781Y329260D01*
X510557Y327427D01*
X510379Y326536D01*
X514505D01*
Y330662D01*
D02*
G37*
G36*
X507930Y334530D02*
X503804D01*
X503981Y333638D01*
X505206Y331806D01*
X507038Y330581D01*
X507930Y330404D01*
Y334530D01*
D02*
G37*
G36*
Y341196D02*
X507038Y341018D01*
X505206Y339794D01*
X503981Y337962D01*
X503804Y337070D01*
X507930D01*
Y341196D01*
D02*
G37*
G36*
X514596Y334530D02*
X510470D01*
Y330404D01*
X511362Y330581D01*
X513194Y331806D01*
X514419Y333638D01*
X514596Y334530D01*
D02*
G37*
G36*
X284090Y296980D02*
X277770D01*
Y290160D01*
X281500D01*
X282491Y290357D01*
X283331Y290919D01*
X283893Y291759D01*
X284090Y292750D01*
Y296980D01*
D02*
G37*
G36*
X281500Y233340D02*
X277770D01*
Y226520D01*
X284090D01*
Y230750D01*
X283893Y231741D01*
X283331Y232581D01*
X282491Y233143D01*
X281500Y233340D01*
D02*
G37*
G36*
X158000D02*
X154270D01*
Y226520D01*
X160590D01*
Y230750D01*
X160393Y231741D01*
X159831Y232581D01*
X158991Y233143D01*
X158000Y233340D01*
D02*
G37*
G36*
X463730Y240590D02*
X452000D01*
X451009Y240393D01*
X450169Y239831D01*
X449607Y238991D01*
X449410Y238000D01*
Y227270D01*
X463730D01*
Y240590D01*
D02*
G37*
G36*
X227980Y236480D02*
X221660D01*
Y232250D01*
X221857Y231259D01*
X222419Y230419D01*
X223259Y229857D01*
X224250Y229660D01*
X227980D01*
Y236480D01*
D02*
G37*
G36*
X478000Y240590D02*
X466270D01*
Y227270D01*
X480590D01*
Y238000D01*
X480393Y238991D01*
X479831Y239831D01*
X478991Y240393D01*
X478000Y240590D01*
D02*
G37*
G36*
X97230Y228480D02*
X90410D01*
Y224750D01*
X90607Y223759D01*
X91169Y222919D01*
X92009Y222357D01*
X93000Y222160D01*
X97230D01*
Y228480D01*
D02*
G37*
G36*
X284090Y223980D02*
X277770D01*
Y217160D01*
X281500D01*
X282491Y217357D01*
X283331Y217919D01*
X283893Y218759D01*
X284090Y219750D01*
Y223980D01*
D02*
G37*
G36*
X106590Y228480D02*
X99770D01*
Y222160D01*
X104000D01*
X104991Y222357D01*
X105831Y222919D01*
X106393Y223759D01*
X106590Y224750D01*
Y228480D01*
D02*
G37*
G36*
X151730Y233340D02*
X148000D01*
X147009Y233143D01*
X146169Y232581D01*
X145607Y231741D01*
X145410Y230750D01*
Y226520D01*
X151730D01*
Y233340D01*
D02*
G37*
G36*
X275230D02*
X271500D01*
X270509Y233143D01*
X269669Y232581D01*
X269107Y231741D01*
X268910Y230750D01*
Y226520D01*
X275230D01*
Y233340D01*
D02*
G37*
G36*
X139250Y264789D02*
X130250D01*
X129470Y264634D01*
X128808Y264192D01*
X128366Y263530D01*
X128211Y262750D01*
Y254750D01*
X128366Y253970D01*
X128808Y253308D01*
X129470Y252866D01*
X130162Y252728D01*
Y248289D01*
X129750D01*
X128970Y248134D01*
X128308Y247692D01*
X127866Y247030D01*
X127711Y246250D01*
Y238250D01*
X127866Y237470D01*
X128308Y236808D01*
X128970Y236366D01*
X129750Y236211D01*
X138750D01*
X139530Y236366D01*
X140192Y236808D01*
X140634Y237470D01*
X140672Y237662D01*
X145961D01*
Y236750D01*
X146116Y235970D01*
X146558Y235308D01*
X147220Y234866D01*
X148000Y234711D01*
X158000D01*
X158780Y234866D01*
X159442Y235308D01*
X159884Y235970D01*
X160039Y236750D01*
Y237912D01*
X166711D01*
Y236750D01*
X166866Y235970D01*
X167308Y235308D01*
X167970Y234866D01*
X168750Y234711D01*
X178750D01*
X179530Y234866D01*
X180192Y235308D01*
X180634Y235970D01*
X180789Y236750D01*
Y247750D01*
X180634Y248530D01*
X180192Y249192D01*
X179530Y249634D01*
X178750Y249789D01*
X168750D01*
X167970Y249634D01*
X167308Y249192D01*
X166866Y248530D01*
X166711Y247750D01*
Y247088D01*
X160039D01*
Y247750D01*
X159884Y248530D01*
X159442Y249192D01*
X158780Y249634D01*
X158000Y249789D01*
X148000D01*
X147220Y249634D01*
X146558Y249192D01*
X146116Y248530D01*
X145961Y247750D01*
Y246838D01*
X140672D01*
X140634Y247030D01*
X140192Y247692D01*
X139530Y248134D01*
X139338Y248172D01*
Y252728D01*
X140030Y252866D01*
X140692Y253308D01*
X141134Y253970D01*
X141289Y254750D01*
Y262750D01*
X141134Y263530D01*
X140692Y264192D01*
X140030Y264634D01*
X139250Y264789D01*
D02*
G37*
G36*
X200500Y262289D02*
X189500D01*
X188720Y262134D01*
X188058Y261692D01*
X187616Y261030D01*
X187461Y260250D01*
Y250250D01*
X187616Y249470D01*
X188058Y248808D01*
X188720Y248366D01*
X189500Y248211D01*
X190662D01*
Y245472D01*
X190220Y245384D01*
X189558Y244942D01*
X189116Y244280D01*
X188961Y243500D01*
Y235500D01*
X189116Y234720D01*
X189558Y234058D01*
X190220Y233616D01*
X191000Y233461D01*
X200000D01*
X200780Y233616D01*
X201442Y234058D01*
X201884Y234720D01*
X202039Y235500D01*
Y243500D01*
X201884Y244280D01*
X201442Y244942D01*
X200780Y245384D01*
X200000Y245539D01*
X199838D01*
Y248211D01*
X200500D01*
X201280Y248366D01*
X201942Y248808D01*
X202384Y249470D01*
X202539Y250250D01*
Y260250D01*
X202384Y261030D01*
X201942Y261692D01*
X201280Y262134D01*
X200500Y262289D01*
D02*
G37*
G36*
X252090Y240730D02*
X246270D01*
Y235410D01*
X249500D01*
X250491Y235607D01*
X251331Y236169D01*
X251893Y237009D01*
X252090Y238000D01*
Y240730D01*
D02*
G37*
G36*
X74980Y243980D02*
X70854D01*
X71031Y243088D01*
X72256Y241256D01*
X74088Y240031D01*
X74980Y239854D01*
Y243980D01*
D02*
G37*
G36*
X227980Y245840D02*
X224250D01*
X223259Y245643D01*
X222419Y245081D01*
X221857Y244241D01*
X221660Y243250D01*
Y239020D01*
X227980D01*
Y245840D01*
D02*
G37*
G36*
X104000Y237340D02*
X99770D01*
Y231020D01*
X106590D01*
Y234750D01*
X106393Y235741D01*
X105831Y236581D01*
X104991Y237143D01*
X104000Y237340D01*
D02*
G37*
G36*
X97230D02*
X93000D01*
X92009Y237143D01*
X91169Y236581D01*
X90607Y235741D01*
X90410Y234750D01*
Y231020D01*
X97230D01*
Y237340D01*
D02*
G37*
G36*
X537520Y370646D02*
Y366520D01*
X541646D01*
X541469Y367412D01*
X540244Y369244D01*
X538412Y370469D01*
X537520Y370646D01*
D02*
G37*
G36*
X53590Y240980D02*
X27270D01*
Y232660D01*
X51000D01*
X51991Y232857D01*
X52831Y233419D01*
X53393Y234259D01*
X53590Y235250D01*
Y240980D01*
D02*
G37*
G36*
X534980Y370646D02*
X534088Y370469D01*
X532256Y369244D01*
X531031Y367412D01*
X530854Y366520D01*
X534980D01*
Y370646D01*
D02*
G37*
G36*
X275230Y223980D02*
X268910D01*
Y219750D01*
X269107Y218759D01*
X269669Y217919D01*
X270509Y217357D01*
X271500Y217160D01*
X275230D01*
Y223980D01*
D02*
G37*
G36*
X297520Y210646D02*
Y206520D01*
X301646D01*
X301469Y207412D01*
X300244Y209244D01*
X298412Y210469D01*
X297520Y210646D01*
D02*
G37*
G36*
X294980D02*
X294088Y210469D01*
X292256Y209244D01*
X291031Y207412D01*
X290854Y206520D01*
X294980D01*
Y210646D01*
D02*
G37*
G36*
X374980D02*
X374088Y210469D01*
X372256Y209244D01*
X371031Y207412D01*
X370854Y206520D01*
X374980D01*
Y210646D01*
D02*
G37*
G36*
X414980D02*
X414088Y210469D01*
X412256Y209244D01*
X411031Y207412D01*
X410854Y206520D01*
X414980D01*
Y210646D01*
D02*
G37*
G36*
X377520D02*
Y206520D01*
X381646D01*
X381469Y207412D01*
X380244Y209244D01*
X378412Y210469D01*
X377520Y210646D01*
D02*
G37*
G36*
X571500Y215340D02*
X560770D01*
Y201020D01*
X574090D01*
Y212750D01*
X573893Y213741D01*
X573331Y214581D01*
X572491Y215143D01*
X571500Y215340D01*
D02*
G37*
G36*
X558230D02*
X547500D01*
X546509Y215143D01*
X545669Y214581D01*
X545107Y213741D01*
X544910Y212750D01*
Y201020D01*
X558230D01*
Y215340D01*
D02*
G37*
G36*
X308980Y393590D02*
X304750D01*
X303759Y393393D01*
X302919Y392831D01*
X302357Y391991D01*
X302160Y391000D01*
Y387270D01*
X308980D01*
Y393590D01*
D02*
G37*
G36*
X177520Y210646D02*
Y206520D01*
X181646D01*
X181469Y207412D01*
X180244Y209244D01*
X178412Y210469D01*
X177520Y210646D01*
D02*
G37*
G36*
X174980D02*
X174088Y210469D01*
X172256Y209244D01*
X171031Y207412D01*
X170854Y206520D01*
X174980D01*
Y210646D01*
D02*
G37*
G36*
X318340Y384730D02*
X311520D01*
Y378410D01*
X315750D01*
X316741Y378607D01*
X317581Y379169D01*
X318143Y380009D01*
X318340Y381000D01*
Y384730D01*
D02*
G37*
G36*
X480590Y224730D02*
X449410D01*
Y214000D01*
X449607Y213009D01*
X450169Y212169D01*
X451009Y211607D01*
X451153Y211579D01*
X451028Y210309D01*
X439017D01*
X434413Y214913D01*
X433420Y215576D01*
X432250Y215809D01*
X431079Y215576D01*
X430087Y214913D01*
X429424Y213920D01*
X429191Y212750D01*
X429424Y211579D01*
X430087Y210587D01*
X435587Y205087D01*
X435587Y205087D01*
X436580Y204424D01*
X437750Y204191D01*
X437750Y204191D01*
X456027D01*
X456706Y202921D01*
X456031Y201912D01*
X455854Y201020D01*
X466646D01*
X466469Y201912D01*
X465794Y202921D01*
X466473Y204191D01*
X471983D01*
X476941Y199233D01*
Y195539D01*
X476000D01*
X475220Y195384D01*
X474558Y194942D01*
X474116Y194280D01*
X473961Y193500D01*
Y184500D01*
X474116Y183720D01*
X474558Y183058D01*
X475220Y182616D01*
X476000Y182461D01*
X484000D01*
X484780Y182616D01*
X485442Y183058D01*
X485884Y183720D01*
X486039Y184500D01*
Y193500D01*
X485884Y194280D01*
X485442Y194942D01*
X484780Y195384D01*
X484000Y195539D01*
X483059D01*
Y200500D01*
X482826Y201671D01*
X482163Y202663D01*
X482163Y202663D01*
X475413Y209413D01*
X474421Y210076D01*
X474097Y210140D01*
X474222Y211410D01*
X478000D01*
X478991Y211607D01*
X479831Y212169D01*
X480393Y213009D01*
X480590Y214000D01*
Y224730D01*
D02*
G37*
G36*
X308980Y384730D02*
X302160D01*
Y381000D01*
X302357Y380009D01*
X302919Y379169D01*
X303759Y378607D01*
X304750Y378410D01*
X308980D01*
Y384730D01*
D02*
G37*
G36*
X160590Y223980D02*
X154270D01*
Y217160D01*
X158000D01*
X158991Y217357D01*
X159831Y217919D01*
X160393Y218759D01*
X160590Y219750D01*
Y223980D01*
D02*
G37*
G36*
X151730D02*
X145410D01*
Y219750D01*
X145607Y218759D01*
X146169Y217919D01*
X147009Y217357D01*
X148000Y217160D01*
X151730D01*
Y223980D01*
D02*
G37*
G36*
X233000Y393039D02*
X222000D01*
X221220Y392884D01*
X220558Y392442D01*
X220116Y391780D01*
X219961Y391000D01*
Y389334D01*
X203000D01*
X201724Y389080D01*
X200642Y388358D01*
X188892Y376608D01*
X188170Y375526D01*
X187916Y374250D01*
Y372439D01*
X183750D01*
X182970Y372284D01*
X182308Y371842D01*
X181866Y371180D01*
X181711Y370400D01*
Y355400D01*
X181866Y354620D01*
X182308Y353958D01*
X182970Y353516D01*
X183750Y353361D01*
X198750D01*
X199530Y353516D01*
X200192Y353958D01*
X200634Y354620D01*
X200789Y355400D01*
Y370400D01*
X200634Y371180D01*
X200192Y371842D01*
X199530Y372284D01*
X198750Y372439D01*
X195950D01*
X195424Y373709D01*
X204381Y382666D01*
X219961D01*
Y381000D01*
X220116Y380220D01*
X220558Y379558D01*
X221220Y379116D01*
X222000Y378961D01*
X233000D01*
X233780Y379116D01*
X234442Y379558D01*
X234884Y380220D01*
X235039Y381000D01*
Y391000D01*
X234884Y391780D01*
X234442Y392442D01*
X233780Y392884D01*
X233000Y393039D01*
D02*
G37*
G36*
X417520Y210646D02*
Y206520D01*
X421646D01*
X421469Y207412D01*
X420244Y209244D01*
X418412Y210469D01*
X417520Y210646D01*
D02*
G37*
G36*
X494980D02*
X494088Y210469D01*
X492256Y209244D01*
X491031Y207412D01*
X490854Y206520D01*
X494980D01*
Y210646D01*
D02*
G37*
G36*
X138750Y234289D02*
X129750D01*
X128970Y234134D01*
X128308Y233692D01*
X127866Y233030D01*
X127711Y232250D01*
Y224250D01*
X127866Y223470D01*
X128308Y222808D01*
X128970Y222366D01*
X129750Y222211D01*
X132431D01*
Y216289D01*
X130500D01*
X129720Y216134D01*
X129058Y215692D01*
X128616Y215030D01*
X128461Y214250D01*
Y210250D01*
X128611Y209495D01*
X128107Y208741D01*
X127910Y207750D01*
Y207020D01*
X134000D01*
X140090D01*
Y207750D01*
X139893Y208741D01*
X139389Y209495D01*
X139539Y210250D01*
Y214102D01*
X139569Y214250D01*
Y222392D01*
X140192Y222808D01*
X140634Y223470D01*
X140789Y224250D01*
Y232250D01*
X140634Y233030D01*
X140192Y233692D01*
X139530Y234134D01*
X138750Y234289D01*
D02*
G37*
G36*
X537520Y210646D02*
Y206520D01*
X541646D01*
X541469Y207412D01*
X540244Y209244D01*
X538412Y210469D01*
X537520Y210646D01*
D02*
G37*
G36*
X81646Y243980D02*
X77520D01*
Y239854D01*
X78412Y240031D01*
X80244Y241256D01*
X81469Y243088D01*
X81646Y243980D01*
D02*
G37*
G36*
X174980Y283980D02*
X170854D01*
X171031Y283088D01*
X172256Y281256D01*
X174088Y280031D01*
X174980Y279854D01*
Y283980D01*
D02*
G37*
G36*
X101646D02*
X97520D01*
Y279854D01*
X98412Y280031D01*
X100244Y281256D01*
X101469Y283088D01*
X101646Y283980D01*
D02*
G37*
G36*
X181646D02*
X177520D01*
Y279854D01*
X178412Y280031D01*
X180244Y281256D01*
X181469Y283088D01*
X181646Y283980D01*
D02*
G37*
G36*
X541646D02*
X537520D01*
Y279854D01*
X538412Y280031D01*
X540244Y281256D01*
X541469Y283088D01*
X541646Y283980D01*
D02*
G37*
G36*
X249500Y293340D02*
X246270D01*
Y286750D01*
Y280160D01*
X249500D01*
X250491Y280357D01*
X251070Y280744D01*
X252256Y281256D01*
X252748Y280927D01*
X254088Y280031D01*
X254980Y279854D01*
Y285250D01*
Y290646D01*
X254088Y290469D01*
X253360Y289982D01*
X252090Y290660D01*
Y290750D01*
X251893Y291741D01*
X251331Y292581D01*
X250491Y293143D01*
X249500Y293340D01*
D02*
G37*
G36*
X200500Y279289D02*
X189500D01*
X188720Y279134D01*
X188058Y278692D01*
X187616Y278030D01*
X187461Y277250D01*
Y276838D01*
X173722D01*
X173634Y277280D01*
X173192Y277942D01*
X172530Y278384D01*
X171750Y278539D01*
X163750D01*
X162970Y278384D01*
X162308Y277942D01*
X161866Y277280D01*
X161711Y276500D01*
Y267500D01*
X161866Y266720D01*
X162308Y266058D01*
X162970Y265616D01*
X163750Y265461D01*
X171750D01*
X172530Y265616D01*
X173192Y266058D01*
X173634Y266720D01*
X173789Y267500D01*
Y267662D01*
X187461D01*
Y267250D01*
X187616Y266470D01*
X188058Y265808D01*
X188720Y265366D01*
X189500Y265211D01*
X200500D01*
X201280Y265366D01*
X201942Y265808D01*
X202384Y266470D01*
X202539Y267250D01*
Y277250D01*
X202384Y278030D01*
X201942Y278692D01*
X201280Y279134D01*
X200500Y279289D01*
D02*
G37*
G36*
X494980Y370646D02*
X494088Y370469D01*
X492256Y369244D01*
X491031Y367412D01*
X490854Y366520D01*
X494980D01*
Y370646D01*
D02*
G37*
G36*
X14980Y283980D02*
X10854D01*
X11032Y283088D01*
X12256Y281256D01*
X14088Y280031D01*
X14980Y279854D01*
Y283980D01*
D02*
G37*
G36*
X94980D02*
X90854D01*
X91032Y283088D01*
X92256Y281256D01*
X94088Y280031D01*
X94980Y279854D01*
Y283980D01*
D02*
G37*
G36*
X21646D02*
X17520D01*
Y279854D01*
X18412Y280031D01*
X20244Y281256D01*
X21469Y283088D01*
X21646Y283980D01*
D02*
G37*
G36*
X243730Y285480D02*
X237910D01*
Y282750D01*
X238107Y281759D01*
X238669Y280919D01*
X239509Y280357D01*
X240500Y280160D01*
X243730D01*
Y285480D01*
D02*
G37*
G36*
X174980Y290646D02*
X174088Y290469D01*
X172256Y289244D01*
X171031Y287412D01*
X170854Y286520D01*
X174980D01*
Y290646D01*
D02*
G37*
G36*
X97520D02*
Y286520D01*
X101646D01*
X101469Y287412D01*
X100244Y289244D01*
X98412Y290469D01*
X97520Y290646D01*
D02*
G37*
G36*
X177520D02*
Y286520D01*
X181646D01*
X181469Y287412D01*
X180244Y289244D01*
X178412Y290469D01*
X177520Y290646D01*
D02*
G37*
G36*
X243730Y293340D02*
X240500D01*
X239509Y293143D01*
X238669Y292581D01*
X238107Y291741D01*
X237910Y290750D01*
Y288020D01*
X243730D01*
Y293340D01*
D02*
G37*
G36*
X537520Y290646D02*
Y286520D01*
X541646D01*
X541469Y287412D01*
X540244Y289244D01*
X538412Y290469D01*
X537520Y290646D01*
D02*
G37*
G36*
X236590Y289480D02*
X230270D01*
Y282660D01*
X234000D01*
X234991Y282857D01*
X235831Y283419D01*
X236393Y284259D01*
X236590Y285250D01*
Y289480D01*
D02*
G37*
G36*
X227730D02*
X221410D01*
Y285250D01*
X221607Y284259D01*
X222169Y283419D01*
X223009Y282857D01*
X224000Y282660D01*
X227730D01*
Y289480D01*
D02*
G37*
G36*
X14980Y290646D02*
X14088Y290469D01*
X12256Y289244D01*
X11032Y287412D01*
X10854Y286520D01*
X14980D01*
Y290646D01*
D02*
G37*
G36*
X94980D02*
X94088Y290469D01*
X92256Y289244D01*
X91032Y287412D01*
X90854Y286520D01*
X94980D01*
Y290646D01*
D02*
G37*
G36*
X17520D02*
Y286520D01*
X21646D01*
X21469Y287412D01*
X20244Y289244D01*
X18412Y290469D01*
X17520Y290646D01*
D02*
G37*
G36*
X140000Y296539D02*
X130000D01*
X129220Y296384D01*
X128558Y295942D01*
X128116Y295280D01*
X127961Y294500D01*
Y283500D01*
X128116Y282720D01*
X128558Y282058D01*
X129220Y281616D01*
X130000Y281461D01*
X130412D01*
Y278789D01*
X130250D01*
X129470Y278634D01*
X128808Y278192D01*
X128366Y277530D01*
X128211Y276750D01*
Y268750D01*
X128366Y267970D01*
X128808Y267308D01*
X129470Y266866D01*
X130250Y266711D01*
X139250D01*
X140030Y266866D01*
X140692Y267308D01*
X140761Y267412D01*
X147728D01*
X147866Y266720D01*
X148308Y266058D01*
X148970Y265616D01*
X149750Y265461D01*
X157750D01*
X158530Y265616D01*
X159192Y266058D01*
X159634Y266720D01*
X159789Y267500D01*
Y276500D01*
X159634Y277280D01*
X159192Y277942D01*
X158530Y278384D01*
X157750Y278539D01*
X149750D01*
X148970Y278384D01*
X148308Y277942D01*
X147866Y277280D01*
X147728Y276588D01*
X141289D01*
Y276750D01*
X141134Y277530D01*
X140692Y278192D01*
X140030Y278634D01*
X139588Y278722D01*
Y281461D01*
X140000D01*
X140780Y281616D01*
X141442Y282058D01*
X141884Y282720D01*
X142039Y283500D01*
Y294500D01*
X141884Y295280D01*
X141442Y295942D01*
X140780Y296384D01*
X140000Y296539D01*
D02*
G37*
G36*
X249500Y248590D02*
X246270D01*
Y243270D01*
X252090D01*
Y246000D01*
X251893Y246991D01*
X251331Y247831D01*
X250491Y248393D01*
X249500Y248590D01*
D02*
G37*
G36*
X561646Y243980D02*
X557520D01*
Y239854D01*
X558412Y240031D01*
X560244Y241256D01*
X561469Y243088D01*
X561646Y243980D01*
D02*
G37*
G36*
X50000Y302083D02*
X45763Y301750D01*
X41631Y300758D01*
X37704Y299132D01*
X34081Y296911D01*
X30849Y294151D01*
X28089Y290919D01*
X25868Y287296D01*
X24242Y283369D01*
X23250Y279237D01*
X22917Y275000D01*
X23250Y270763D01*
X24242Y266631D01*
X25868Y262704D01*
X28089Y259081D01*
X30849Y255849D01*
X34056Y253110D01*
X34063Y252992D01*
X33458Y251840D01*
X27270D01*
Y243520D01*
X53590D01*
Y248199D01*
X54237Y248250D01*
X58369Y249242D01*
X62296Y250868D01*
X65919Y253089D01*
X69151Y255849D01*
X71911Y259081D01*
X74132Y262704D01*
X75758Y266631D01*
X76750Y270763D01*
X77084Y275000D01*
X76750Y279237D01*
X75758Y283369D01*
X74132Y287296D01*
X71911Y290919D01*
X69151Y294151D01*
X65919Y296911D01*
X62296Y299132D01*
X58369Y300758D01*
X54237Y301750D01*
X50000Y302083D01*
D02*
G37*
G36*
X74980Y250646D02*
X74088Y250469D01*
X72256Y249244D01*
X71031Y247412D01*
X70854Y246520D01*
X74980D01*
Y250646D01*
D02*
G37*
G36*
X243730Y248590D02*
X240500D01*
X239509Y248393D01*
X238669Y247831D01*
X238107Y246991D01*
X237910Y246000D01*
Y244378D01*
X236643Y244241D01*
X236081Y245081D01*
X235241Y245643D01*
X234250Y245840D01*
X230520D01*
Y237750D01*
Y229660D01*
X234250D01*
X235241Y229857D01*
X236081Y230419D01*
X236643Y231259D01*
X236840Y232250D01*
Y236872D01*
X238107Y237009D01*
X238669Y236169D01*
X239509Y235607D01*
X240500Y235410D01*
X243730D01*
Y242000D01*
Y248590D01*
D02*
G37*
G36*
X554980Y243980D02*
X550854D01*
X551031Y243088D01*
X552256Y241256D01*
X554088Y240031D01*
X554980Y239854D01*
Y243980D01*
D02*
G37*
G36*
X121646D02*
X117520D01*
Y239854D01*
X118412Y240031D01*
X120244Y241256D01*
X121469Y243088D01*
X121646Y243980D01*
D02*
G37*
G36*
X114980D02*
X110854D01*
X111032Y243088D01*
X112256Y241256D01*
X114088Y240031D01*
X114980Y239854D01*
Y243980D01*
D02*
G37*
G36*
X434980D02*
X430854D01*
X431031Y243088D01*
X432256Y241256D01*
X434088Y240031D01*
X434980Y239854D01*
Y243980D01*
D02*
G37*
G36*
X521646D02*
X517520D01*
Y239854D01*
X518412Y240031D01*
X520244Y241256D01*
X521469Y243088D01*
X521646Y243980D01*
D02*
G37*
G36*
X441646D02*
X437520D01*
Y239854D01*
X438412Y240031D01*
X440244Y241256D01*
X441469Y243088D01*
X441646Y243980D01*
D02*
G37*
G36*
X437520Y250646D02*
Y246520D01*
X441646D01*
X441469Y247412D01*
X440244Y249244D01*
X438412Y250469D01*
X437520Y250646D01*
D02*
G37*
G36*
X497520Y370646D02*
Y366520D01*
X501646D01*
X501469Y367412D01*
X500244Y369244D01*
X498412Y370469D01*
X497520Y370646D01*
D02*
G37*
G36*
X485000Y302083D02*
X480763Y301750D01*
X476631Y300758D01*
X472704Y299132D01*
X469081Y296911D01*
X465849Y294151D01*
X463089Y290919D01*
X460868Y287296D01*
X459242Y283369D01*
X458250Y279237D01*
X457916Y275000D01*
X458250Y270763D01*
X459242Y266631D01*
X460868Y262704D01*
X463089Y259081D01*
X465849Y255849D01*
X469081Y253089D01*
X472704Y250868D01*
X476631Y249242D01*
X480763Y248250D01*
X485000Y247917D01*
X489237Y248250D01*
X493369Y249242D01*
X497296Y250868D01*
X500919Y253089D01*
X504151Y255849D01*
X506911Y259081D01*
X509132Y262704D01*
X510758Y266631D01*
X511750Y270763D01*
X512084Y275000D01*
X511750Y279237D01*
X510758Y283369D01*
X509132Y287296D01*
X506911Y290919D01*
X504151Y294151D01*
X500919Y296911D01*
X497296Y299132D01*
X493369Y300758D01*
X489237Y301750D01*
X485000Y302083D01*
D02*
G37*
G36*
X571500Y278789D02*
X547500D01*
X546720Y278634D01*
X546058Y278192D01*
X545616Y277530D01*
X545461Y276750D01*
Y250750D01*
X545616Y249970D01*
X546058Y249308D01*
X546720Y248866D01*
X547500Y248711D01*
X550552D01*
X551151Y247591D01*
X551031Y247412D01*
X550854Y246520D01*
X561646D01*
X561469Y247412D01*
X561349Y247591D01*
X561948Y248711D01*
X571500D01*
X572280Y248866D01*
X572942Y249308D01*
X573384Y249970D01*
X573539Y250750D01*
Y276750D01*
X573384Y277530D01*
X572942Y278192D01*
X572280Y278634D01*
X571500Y278789D01*
D02*
G37*
G36*
X434980Y250646D02*
X434088Y250469D01*
X432256Y249244D01*
X431031Y247412D01*
X430854Y246520D01*
X434980D01*
Y250646D01*
D02*
G37*
G36*
X114980D02*
X114088Y250469D01*
X112256Y249244D01*
X111032Y247412D01*
X110854Y246520D01*
X114980D01*
Y250646D01*
D02*
G37*
G36*
X77520D02*
Y246520D01*
X81646D01*
X81469Y247412D01*
X80244Y249244D01*
X78412Y250469D01*
X77520Y250646D01*
D02*
G37*
G36*
X117520D02*
Y246520D01*
X121646D01*
X121469Y247412D01*
X120244Y249244D01*
X118412Y250469D01*
X117520Y250646D01*
D02*
G37*
%LPD*%
G36*
X143763Y170736D02*
X143800Y170306D01*
X143862Y169926D01*
X143950Y169597D01*
X144062Y169319D01*
X144200Y169091D01*
X144362Y168914D01*
X144550Y168788D01*
X144762Y168712D01*
X145000Y168687D01*
X140000D01*
X140238Y168712D01*
X140450Y168788D01*
X140638Y168914D01*
X140800Y169091D01*
X140938Y169319D01*
X141050Y169597D01*
X141138Y169926D01*
X141200Y170306D01*
X141237Y170736D01*
X141250Y171217D01*
X143750D01*
X143763Y170736D01*
D02*
G37*
G36*
X137492Y201085D02*
X137569Y200966D01*
X137696Y200861D01*
X137873Y200771D01*
X138102Y200694D01*
X138381Y200632D01*
X138712Y200583D01*
X139093Y200548D01*
X140007Y200520D01*
Y197980D01*
X139524Y197973D01*
X138712Y197917D01*
X138381Y197868D01*
X138102Y197806D01*
X137873Y197729D01*
X137696Y197638D01*
X137569Y197534D01*
X137492Y197415D01*
X137467Y197283D01*
Y201217D01*
X137492Y201085D01*
D02*
G37*
G36*
X364250Y104500D02*
Y75750D01*
X360000Y71500D01*
X317000D01*
X316750Y71750D01*
X286500D01*
Y85250D01*
X269250Y102500D01*
Y116750D01*
X271000Y118500D01*
X350250D01*
X364250Y104500D01*
D02*
G37*
G36*
X274236Y44297D02*
X274365Y44215D01*
X274520Y44138D01*
X274702Y44066D01*
X274911Y43998D01*
X275408Y43876D01*
X275696Y43823D01*
X276136Y43760D01*
X276229Y43853D01*
X276243Y43745D01*
X276353Y43729D01*
X276258Y43634D01*
X276273Y43511D01*
X276435Y42646D01*
X276498Y42411D01*
X276638Y42020D01*
X276715Y41865D01*
X276797Y41736D01*
X276884Y41634D01*
X275116Y39866D01*
X275014Y39953D01*
X274885Y40035D01*
X274730Y40112D01*
X274548Y40184D01*
X274339Y40252D01*
X273842Y40374D01*
X273554Y40427D01*
X273114Y40490D01*
X273021Y40397D01*
X273007Y40505D01*
X272897Y40521D01*
X272992Y40616D01*
X272976Y40739D01*
X272815Y41604D01*
X272752Y41839D01*
X272612Y42230D01*
X272535Y42385D01*
X272453Y42514D01*
X272366Y42616D01*
X274134Y44384D01*
X274236Y44297D01*
D02*
G37*
G36*
X105837Y45753D02*
X105661Y45662D01*
X105506Y45510D01*
X105372Y45298D01*
X105258Y45025D01*
X105165Y44691D01*
X105093Y44297D01*
X105041Y43842D01*
X105010Y43326D01*
X105000Y42750D01*
X101000D01*
X100990Y43326D01*
X100907Y44297D01*
X100835Y44691D01*
X100742Y45025D01*
X100628Y45298D01*
X100494Y45510D01*
X100339Y45662D01*
X100163Y45753D01*
X99967Y45783D01*
X106033D01*
X105837Y45753D01*
D02*
G37*
G36*
X247215Y381003D02*
X246960Y380913D01*
X246735Y380763D01*
X246540Y380553D01*
X246375Y380283D01*
X246240Y379953D01*
X246135Y379563D01*
X246060Y379113D01*
X246015Y378603D01*
X246000Y378033D01*
X243000D01*
X242985Y378603D01*
X242940Y379113D01*
X242865Y379563D01*
X242760Y379953D01*
X242625Y380283D01*
X242460Y380553D01*
X242265Y380763D01*
X242040Y380913D01*
X241785Y381003D01*
X241500Y381033D01*
X247500D01*
X247215Y381003D01*
D02*
G37*
G36*
X317176Y233013D02*
X317139Y232953D01*
X317106Y232853D01*
X317078Y232713D01*
X317054Y232533D01*
X317020Y232053D01*
X317000Y231033D01*
X315000D01*
X314998Y231413D01*
X314922Y232713D01*
X314894Y232853D01*
X314861Y232953D01*
X314824Y233013D01*
X314783Y233033D01*
X317217D01*
X317176Y233013D01*
D02*
G37*
G36*
X312176D02*
X312139Y232953D01*
X312106Y232853D01*
X312078Y232713D01*
X312054Y232533D01*
X312020Y232053D01*
X312000Y231033D01*
X310000D01*
X309998Y231413D01*
X309922Y232713D01*
X309894Y232853D01*
X309861Y232953D01*
X309824Y233013D01*
X309783Y233033D01*
X312217D01*
X312176Y233013D01*
D02*
G37*
G36*
X307002Y293087D02*
X307078Y291787D01*
X307106Y291647D01*
X307139Y291547D01*
X307176Y291487D01*
X307217Y291467D01*
X304783D01*
X304824Y291487D01*
X304861Y291547D01*
X304894Y291647D01*
X304922Y291787D01*
X304946Y291967D01*
X304981Y292447D01*
X305000Y293467D01*
X307000D01*
X307002Y293087D01*
D02*
G37*
G36*
X249462Y275012D02*
X249538Y274800D01*
X249664Y274613D01*
X249841Y274450D01*
X250069Y274312D01*
X250347Y274200D01*
X250676Y274112D01*
X250953Y274067D01*
X252256Y274010D01*
X253250Y274000D01*
Y271500D01*
X252256Y271490D01*
X250612Y271370D01*
X250347Y271300D01*
X250069Y271187D01*
X249841Y271050D01*
X249664Y270888D01*
X249538Y270700D01*
X249462Y270487D01*
X249436Y270250D01*
Y271285D01*
X249107Y271260D01*
X248526Y271155D01*
X248028Y271030D01*
X247613Y270887D01*
X247280Y270724D01*
X247030Y270542D01*
Y274958D01*
X247280Y274776D01*
X247613Y274613D01*
X248028Y274470D01*
X248526Y274345D01*
X249107Y274240D01*
X249436Y274204D01*
Y275250D01*
X249462Y275012D01*
D02*
G37*
G36*
Y258263D02*
X249538Y258050D01*
X249664Y257862D01*
X249841Y257700D01*
X250069Y257563D01*
X250347Y257450D01*
X250676Y257362D01*
X251056Y257300D01*
X251486Y257262D01*
X251967Y257250D01*
Y254750D01*
X251486Y254737D01*
X251056Y254700D01*
X250676Y254638D01*
X250347Y254550D01*
X250069Y254438D01*
X249841Y254300D01*
X249664Y254137D01*
X249538Y253950D01*
X249462Y253738D01*
X249436Y253500D01*
Y258500D01*
X249462Y258263D01*
D02*
G37*
G36*
X329005Y207453D02*
X329048Y206953D01*
X329085Y206749D01*
X329133Y206577D01*
X329192Y206437D01*
X329261Y206327D01*
X329341Y206249D01*
X329432Y206202D01*
X329533Y206187D01*
X326467D01*
X326568Y206202D01*
X326659Y206249D01*
X326739Y206327D01*
X326808Y206437D01*
X326867Y206577D01*
X326915Y206749D01*
X326952Y206953D01*
X326979Y207187D01*
X326995Y207453D01*
X327000Y207750D01*
X329000D01*
X329005Y207453D01*
D02*
G37*
G36*
X329711Y205871D02*
X329562Y205586D01*
X329430Y205244D01*
X329316Y204844D01*
X329219Y204388D01*
X329140Y203874D01*
X329035Y202676D01*
X329000Y201250D01*
X327000D01*
X326991Y201992D01*
X326860Y203874D01*
X326781Y204388D01*
X326684Y204844D01*
X326570Y205244D01*
X326438Y205586D01*
X326289Y205871D01*
X326123Y206099D01*
X329878D01*
X329711Y205871D01*
D02*
G37*
G36*
X312008Y223380D02*
X312056Y222641D01*
X312090Y222431D01*
X312160Y222167D01*
X312250Y221944D01*
X312360Y221761D01*
X312490Y221619D01*
X312640Y221518D01*
X312810Y221457D01*
X313000Y221437D01*
X312134D01*
X312192Y220533D01*
X312277Y220020D01*
X312377Y219587D01*
X312492Y219234D01*
X312623Y218960D01*
X312769Y218767D01*
X309231D01*
X309377Y218960D01*
X309508Y219234D01*
X309623Y219587D01*
X309723Y220020D01*
X309808Y220533D01*
X309896Y221437D01*
X309000D01*
X309190Y221457D01*
X309360Y221518D01*
X309510Y221619D01*
X309640Y221761D01*
X309750Y221944D01*
X309840Y222167D01*
X309910Y222431D01*
X309960Y222736D01*
X309973Y222888D01*
X309992Y223380D01*
X310000Y224291D01*
X312000D01*
X312008Y223380D01*
D02*
G37*
G36*
X326256Y216258D02*
X326413Y213911D01*
X326484Y213480D01*
X326568Y213110D01*
X326666Y212803D01*
X326776Y212558D01*
X326900Y212375D01*
X326513D01*
X326511Y212372D01*
X326442Y212248D01*
X326383Y212087D01*
X326335Y211891D01*
X326298Y211659D01*
X326271Y211392D01*
X326250Y210750D01*
X323750D01*
X323745Y211089D01*
X323702Y211659D01*
X323665Y211891D01*
X323617Y212087D01*
X323558Y212248D01*
X323489Y212372D01*
X323487Y212375D01*
X323100D01*
X323224Y212558D01*
X323334Y212803D01*
X323432Y213110D01*
X323516Y213480D01*
X323587Y213911D01*
X323691Y214960D01*
X323744Y216258D01*
X323750Y217000D01*
X326250D01*
X326256Y216258D01*
D02*
G37*
G36*
X402062Y354712D02*
X401344Y352980D01*
X401018Y350500D01*
X401344Y348020D01*
X402302Y345709D01*
X403825Y343725D01*
X405809Y342202D01*
X408120Y341245D01*
X410600Y340918D01*
X413080Y341245D01*
X415391Y342202D01*
X417375Y343725D01*
X418898Y345709D01*
X419855Y348020D01*
X420182Y350500D01*
X419855Y352980D01*
X418898Y355291D01*
X417375Y357276D01*
X415955Y358365D01*
X416149Y359178D01*
X416393Y359630D01*
X418412Y360031D01*
X420244Y361256D01*
X420516Y361663D01*
X421786Y361278D01*
Y283862D01*
X364233Y226309D01*
X344517D01*
X339059Y231767D01*
Y232107D01*
X339134Y232220D01*
X339289Y233000D01*
Y243961D01*
X350250D01*
X351030Y244116D01*
X351692Y244558D01*
X351948Y244941D01*
X374000D01*
X374000Y244941D01*
X375171Y245174D01*
X376163Y245837D01*
X396163Y265837D01*
X396163Y265837D01*
X396826Y266829D01*
X397059Y268000D01*
X397059Y268000D01*
Y316300D01*
X396826Y317470D01*
X396163Y318463D01*
X396163Y318463D01*
X393738Y320888D01*
X394455Y322620D01*
X394782Y325100D01*
X394455Y327580D01*
X393498Y329891D01*
X391975Y331875D01*
X389991Y333398D01*
X387680Y334356D01*
X385200Y334682D01*
X382720Y334356D01*
X380409Y333398D01*
X378424Y331875D01*
X376902Y329891D01*
X376829Y329715D01*
X375559Y329967D01*
Y336533D01*
X380988Y341962D01*
X382720Y341245D01*
X385200Y340918D01*
X387680Y341245D01*
X389991Y342202D01*
X391975Y343725D01*
X393498Y345709D01*
X394455Y348020D01*
X394782Y350500D01*
X394455Y352980D01*
X393498Y355291D01*
X391975Y357276D01*
X389991Y358798D01*
X387680Y359756D01*
X385200Y360082D01*
X382720Y359756D01*
X381281Y359160D01*
X380562Y360236D01*
X382517Y362191D01*
X394583D01*
X402062Y354712D01*
D02*
G37*
G36*
X241263Y316267D02*
X241075Y316237D01*
X240894Y316198D01*
X240720Y316149D01*
X240554Y316091D01*
X240395Y316023D01*
X240243Y315946D01*
X240098Y315859D01*
X239960Y315763D01*
X239830Y315658D01*
X239707Y315543D01*
X238293Y316957D01*
X238408Y317080D01*
X238513Y317211D01*
X238609Y317348D01*
X238696Y317493D01*
X238773Y317645D01*
X238841Y317804D01*
X238899Y317970D01*
X238948Y318144D01*
X238987Y318325D01*
X239017Y318513D01*
X241263Y316267D01*
D02*
G37*
G36*
X246015Y360391D02*
X246060Y359876D01*
X246135Y359422D01*
X246240Y359027D01*
X246375Y358694D01*
X246540Y358421D01*
X246735Y358209D01*
X246960Y358058D01*
X247215Y357967D01*
X247500Y357937D01*
X241500D01*
X241785Y357967D01*
X242040Y358058D01*
X242265Y358209D01*
X242460Y358421D01*
X242625Y358694D01*
X242760Y359027D01*
X242865Y359422D01*
X242940Y359876D01*
X242985Y360391D01*
X243000Y360967D01*
X246000D01*
X246015Y360391D01*
D02*
G37*
G36*
X245207Y350293D02*
X245015Y350087D01*
X244839Y349868D01*
X244678Y349636D01*
X244531Y349391D01*
X244401Y349133D01*
X244285Y348862D01*
X244185Y348578D01*
X244100Y348280D01*
X244030Y347970D01*
X243975Y347647D01*
X243273Y348349D01*
X242295Y347381D01*
X240881Y348795D01*
X241825Y349797D01*
X241147Y350475D01*
X241470Y350530D01*
X241780Y350600D01*
X242078Y350685D01*
X242362Y350785D01*
X242633Y350901D01*
X242891Y351031D01*
X243136Y351178D01*
X243368Y351339D01*
X243587Y351515D01*
X243793Y351707D01*
X245207Y350293D01*
D02*
G37*
G36*
X295810Y304013D02*
X295640Y303953D01*
X295490Y303853D01*
X295360Y303713D01*
X295250Y303533D01*
X295160Y303313D01*
X295090Y303053D01*
X295040Y302753D01*
X295010Y302413D01*
X295000Y302033D01*
X293000D01*
X292990Y302413D01*
X292960Y302753D01*
X292910Y303053D01*
X292840Y303313D01*
X292750Y303533D01*
X292640Y303713D01*
X292510Y303853D01*
X292360Y303953D01*
X292190Y304013D01*
X292000Y304033D01*
X296000D01*
X295810Y304013D01*
D02*
G37*
G36*
X339263Y303508D02*
X339050Y303433D01*
X338862Y303308D01*
X338700Y303133D01*
X338563Y302908D01*
X338450Y302633D01*
X338363Y302308D01*
X338300Y301933D01*
X338262Y301508D01*
X338250Y301033D01*
X335750D01*
X335737Y301508D01*
X335700Y301933D01*
X335638Y302308D01*
X335550Y302633D01*
X335438Y302908D01*
X335300Y303133D01*
X335137Y303308D01*
X334950Y303433D01*
X334738Y303508D01*
X334500Y303533D01*
X339500D01*
X339263Y303508D01*
D02*
G37*
G36*
X377441Y283483D02*
Y267767D01*
X369983Y260309D01*
X352856D01*
X352289Y261000D01*
Y263500D01*
X352134Y264280D01*
X351820Y264750D01*
X352134Y265220D01*
X352289Y266000D01*
Y268500D01*
X352856Y269191D01*
X366000D01*
X367170Y269424D01*
X368163Y270087D01*
X368826Y271079D01*
X369059Y272250D01*
X368826Y273421D01*
X368163Y274413D01*
X367170Y275076D01*
X366000Y275309D01*
X352856D01*
X352289Y276000D01*
Y278500D01*
X352134Y279280D01*
X351692Y279942D01*
X351030Y280384D01*
X350250Y280539D01*
X339289D01*
Y291500D01*
X339134Y292280D01*
X338692Y292942D01*
X338030Y293384D01*
X337250Y293539D01*
X336271D01*
X335745Y294809D01*
X339343Y298407D01*
X340061Y299482D01*
X340314Y300750D01*
Y301461D01*
X344250D01*
X344984Y301607D01*
X345036Y301613D01*
X346312Y300945D01*
X346540Y299799D01*
X347645Y298145D01*
X349299Y297040D01*
X351250Y296652D01*
X353201Y297040D01*
X354855Y298145D01*
X355960Y299799D01*
X356348Y301750D01*
X356092Y303036D01*
X357263Y303662D01*
X377441Y283483D01*
D02*
G37*
G36*
X369441Y320233D02*
Y316000D01*
X369441Y316000D01*
X369674Y314830D01*
X370337Y313837D01*
X384941Y299233D01*
Y270346D01*
X384829Y270271D01*
X383559Y270950D01*
Y284750D01*
X383326Y285921D01*
X382663Y286913D01*
X382663Y286913D01*
X352832Y316744D01*
X352867Y316845D01*
X354366Y317295D01*
X355009Y316802D01*
X357320Y315845D01*
X359800Y315518D01*
X362280Y315845D01*
X364591Y316802D01*
X366575Y318325D01*
X368098Y320309D01*
X368171Y320485D01*
X369441Y320233D01*
D02*
G37*
G36*
X294510Y314581D02*
X294540Y314236D01*
X294590Y313932D01*
X294615Y313837D01*
X294915D01*
X294836Y313719D01*
X294766Y313531D01*
X294747Y313452D01*
X294750Y313444D01*
X294860Y313261D01*
X294990Y313119D01*
X295140Y313018D01*
X295310Y312957D01*
X295500Y312936D01*
X294648D01*
X294566Y312082D01*
X294504Y310264D01*
X294500Y309518D01*
X292500D01*
X292496Y310264D01*
X292319Y312936D01*
X291500D01*
X291690Y312957D01*
X291860Y313018D01*
X292010Y313119D01*
X292140Y313261D01*
X292250Y313444D01*
X292253Y313452D01*
X292234Y313531D01*
X292164Y313719D01*
X292085Y313837D01*
X292385D01*
X292410Y313932D01*
X292460Y314236D01*
X292490Y314581D01*
X292500Y314967D01*
X294500D01*
X294510Y314581D01*
D02*
G37*
G36*
X306908Y307039D02*
X306875Y306885D01*
X306845Y306656D01*
X306799Y305971D01*
X306768Y304033D01*
X306783D01*
X306777Y304020D01*
X306771Y303982D01*
X306766Y303918D01*
X306764Y303823D01*
X306751Y302981D01*
X306750Y302750D01*
X304250D01*
X304239Y303172D01*
X304055Y307117D01*
X306945D01*
X306908Y307039D01*
D02*
G37*
%LPC*%
G36*
X410600Y334682D02*
X408120Y334356D01*
X405809Y333398D01*
X403825Y331875D01*
X402302Y329891D01*
X401344Y327580D01*
X401018Y325100D01*
X401344Y322620D01*
X402302Y320309D01*
X403540Y318696D01*
Y309250D01*
X403780Y307423D01*
X404486Y305720D01*
X405607Y304258D01*
X407070Y303136D01*
X408773Y302430D01*
X410600Y302190D01*
X412427Y302430D01*
X414130Y303136D01*
X415592Y304258D01*
X416715Y305720D01*
X417420Y307423D01*
X417660Y309250D01*
Y318696D01*
X418898Y320309D01*
X419855Y322620D01*
X420182Y325100D01*
X419855Y327580D01*
X418898Y329891D01*
X417375Y331875D01*
X415391Y333398D01*
X413080Y334356D01*
X410600Y334682D01*
D02*
G37*
%LPD*%
G36*
X481010Y195081D02*
X481040Y194736D01*
X481090Y194431D01*
X481160Y194167D01*
X481250Y193944D01*
X481360Y193761D01*
X481490Y193619D01*
X481640Y193518D01*
X481810Y193457D01*
X482000Y193437D01*
X478000D01*
X478190Y193457D01*
X478360Y193518D01*
X478510Y193619D01*
X478640Y193761D01*
X478750Y193944D01*
X478840Y194167D01*
X478910Y194431D01*
X478960Y194736D01*
X478990Y195081D01*
X479000Y195467D01*
X481000D01*
X481010Y195081D01*
D02*
G37*
G36*
X192533Y372419D02*
X192571Y371982D01*
X192634Y371596D01*
X192723Y371262D01*
X192838Y370979D01*
X192977Y370748D01*
X193142Y370568D01*
X193333Y370439D01*
X193549Y370362D01*
X193790Y370336D01*
X188710D01*
X188951Y370362D01*
X189167Y370439D01*
X189358Y370568D01*
X189523Y370748D01*
X189662Y370979D01*
X189777Y371262D01*
X189866Y371596D01*
X189929Y371982D01*
X189967Y372419D01*
X189980Y372907D01*
X192520D01*
X192533Y372419D01*
D02*
G37*
G36*
X222064Y383460D02*
X222038Y383701D01*
X221961Y383917D01*
X221832Y384108D01*
X221652Y384273D01*
X221421Y384412D01*
X221138Y384527D01*
X220804Y384616D01*
X220418Y384679D01*
X219981Y384717D01*
X219493Y384730D01*
Y387270D01*
X219981Y387283D01*
X220418Y387321D01*
X220804Y387384D01*
X221138Y387473D01*
X221421Y387588D01*
X221652Y387727D01*
X221832Y387892D01*
X221961Y388083D01*
X222038Y388299D01*
X222064Y388540D01*
Y383460D01*
D02*
G37*
D10*
X115750Y70750D02*
D03*
X103750D02*
D03*
X420250Y185000D02*
D03*
X408250D02*
D03*
X305500Y308500D02*
D03*
X293500D02*
D03*
D11*
X94750Y116250D02*
D03*
Y97250D02*
D03*
X114750Y106750D02*
D03*
X303000Y134250D02*
D03*
Y115250D02*
D03*
X323000Y124750D02*
D03*
X347250Y134250D02*
D03*
Y115250D02*
D03*
X367250Y124750D02*
D03*
D12*
X441000Y91700D02*
D03*
Y59300D02*
D03*
D13*
X410500Y144750D02*
D03*
X401000Y168750D02*
D03*
X420000D02*
D03*
D14*
X462500Y76250D02*
D03*
Y59250D02*
D03*
X420000Y74500D02*
D03*
Y91500D02*
D03*
X228000Y60250D02*
D03*
Y43250D02*
D03*
X338750Y58250D02*
D03*
Y75250D02*
D03*
X142500Y146250D02*
D03*
Y163250D02*
D03*
X276500Y225250D02*
D03*
Y242250D02*
D03*
X195500Y206000D02*
D03*
Y189000D02*
D03*
X229000Y273750D02*
D03*
Y290750D02*
D03*
X135000Y306000D02*
D03*
Y289000D02*
D03*
X276500Y298250D02*
D03*
Y281250D02*
D03*
X173750Y242250D02*
D03*
Y225250D02*
D03*
X153000Y225250D02*
D03*
Y242250D02*
D03*
X229250Y237750D02*
D03*
Y254750D02*
D03*
D15*
X480000Y189000D02*
D03*
X461000D02*
D03*
X470500Y169000D02*
D03*
D16*
X401000Y226000D02*
D03*
X465000D02*
D03*
D17*
X320250Y74500D02*
D03*
Y60500D02*
D03*
X245000Y272750D02*
D03*
Y286750D02*
D03*
X195500Y225500D02*
D03*
Y239500D02*
D03*
X134250Y228250D02*
D03*
Y242250D02*
D03*
X211250Y192250D02*
D03*
Y206250D02*
D03*
X134750Y258750D02*
D03*
Y272750D02*
D03*
X245000Y242000D02*
D03*
Y256000D02*
D03*
D18*
X398750Y92000D02*
D03*
Y118000D02*
D03*
D19*
X374250Y89500D02*
D03*
X360250D02*
D03*
X273250Y60500D02*
D03*
X259250D02*
D03*
X153750Y272000D02*
D03*
X167750D02*
D03*
X81750Y199750D02*
D03*
X95750D02*
D03*
X325000Y217000D02*
D03*
X311000D02*
D03*
D20*
X295000Y40750D02*
D03*
X312000D02*
D03*
X259000D02*
D03*
X276000D02*
D03*
X338750Y308500D02*
D03*
X321750D02*
D03*
X244500Y386000D02*
D03*
X227500D02*
D03*
X328000Y201250D02*
D03*
X311000D02*
D03*
X78500Y175000D02*
D03*
X95500D02*
D03*
X195000Y255250D02*
D03*
X212000D02*
D03*
X293250Y386000D02*
D03*
X310250D02*
D03*
X98500Y229750D02*
D03*
X81500D02*
D03*
X195000Y272250D02*
D03*
X212000D02*
D03*
X239000Y316250D02*
D03*
X222000D02*
D03*
X86000Y50750D02*
D03*
X103000D02*
D03*
X281250Y153250D02*
D03*
X264250D02*
D03*
D21*
X117500Y212250D02*
D03*
Y205750D02*
D03*
Y199250D02*
D03*
X134000Y212250D02*
D03*
Y205750D02*
D03*
Y199250D02*
D03*
D22*
X297250Y277250D02*
D03*
Y272250D02*
D03*
Y267250D02*
D03*
Y262250D02*
D03*
Y257250D02*
D03*
Y252250D02*
D03*
Y247250D02*
D03*
X344750D02*
D03*
Y252250D02*
D03*
Y257250D02*
D03*
Y262250D02*
D03*
Y267250D02*
D03*
Y272250D02*
D03*
Y277250D02*
D03*
D23*
X306000Y238500D02*
D03*
X311000D02*
D03*
X316000D02*
D03*
X321000D02*
D03*
X326000D02*
D03*
X331000D02*
D03*
X336000D02*
D03*
Y286000D02*
D03*
X331000D02*
D03*
X326000D02*
D03*
X321000D02*
D03*
X316000D02*
D03*
X311000D02*
D03*
X306000D02*
D03*
D24*
X321000Y262250D02*
D03*
D25*
X26000Y199750D02*
D03*
D26*
Y157250D02*
D03*
Y242250D02*
D03*
D27*
X559500Y199750D02*
D03*
Y263750D02*
D03*
D28*
X265750Y242250D02*
X276500D01*
X265500Y287000D02*
Y302000D01*
Y287000D02*
X271250Y281250D01*
X276500D01*
X520000Y261250D02*
Y294250D01*
X505750Y308500D02*
X520000Y294250D01*
X451750Y308500D02*
X505750D01*
X504250Y245500D02*
X520000Y261250D01*
X504250Y201936D02*
Y245500D01*
X504000Y201686D02*
X504250Y201936D01*
X504000Y160250D02*
Y201686D01*
Y160250D02*
X524250Y140000D01*
Y79250D02*
Y140000D01*
X504250Y59250D02*
X524250Y79250D01*
X462500Y59250D02*
X504250D01*
X440300Y91500D02*
X440750Y91950D01*
X420000Y168750D02*
X470500D01*
X420000D02*
X420250Y169000D01*
Y185000D01*
X441000Y59300D02*
X462450D01*
X420000Y91500D02*
X440300D01*
X399250D02*
X420000D01*
X398750Y92000D02*
X399250Y91500D01*
X396250Y89500D02*
X398750Y92000D01*
X374250Y89500D02*
X396250D01*
X338750Y87750D02*
Y114750D01*
Y75250D02*
Y87750D01*
X340500Y89500D01*
X360000D01*
X338750Y114750D02*
X339250Y115250D01*
X320250Y74500D02*
X321000Y75250D01*
X338750D01*
X142500Y103250D02*
Y146250D01*
Y103250D02*
X185500Y60250D01*
X228000D01*
X228250Y60500D01*
X259250D01*
X336500Y60500D02*
X338750Y58250D01*
X320250Y60500D02*
X336500D01*
X273250Y43500D02*
Y60500D01*
X276000Y40750D02*
X295000D01*
X259000D02*
Y60250D01*
X273250Y60500D02*
X320250D01*
X212000Y272250D02*
X213500Y273750D01*
X229000D01*
X230000Y272750D01*
X245000D01*
D29*
X264250Y242250D02*
X265750D01*
X264000Y242500D02*
X264250Y242250D01*
X258500Y248250D02*
X267500Y257250D01*
X258500Y159000D02*
Y248250D01*
Y159000D02*
X264250Y153250D01*
X344500Y308500D02*
X351250Y301750D01*
X338750Y308500D02*
X344500D01*
X293250Y351050D02*
X293300Y351000D01*
X305500Y302750D02*
Y308500D01*
Y302750D02*
X311000Y297250D01*
Y286000D02*
Y297250D01*
X103000Y50750D02*
X103750Y51500D01*
X273250Y43500D02*
X276000Y40750D01*
X259000Y60250D02*
X259250Y60500D01*
X273250D02*
X273250Y60500D01*
X267500Y257250D02*
X297250D01*
X303000Y115250D02*
X303000Y115250D01*
X303000Y134250D02*
X303000Y134250D01*
X304250Y272250D02*
X304250Y272250D01*
X297250Y272250D02*
X304250D01*
X276500Y279000D02*
X278250Y277250D01*
X297250D01*
X276500Y242250D02*
X281500Y247250D01*
X297250D01*
X337000Y306750D02*
X338750Y308500D01*
X337000Y300750D02*
Y306750D01*
X331000Y294750D02*
X337000Y300750D01*
X331000Y286000D02*
Y294750D01*
X142500Y163250D02*
Y197250D01*
X325000Y210750D02*
Y217000D01*
X258750Y267250D02*
X297250D01*
X253250Y272750D02*
X258750Y267250D01*
X245000Y272750D02*
X253250D01*
X258750Y262250D02*
X297250D01*
X252500Y256000D02*
X258750Y262250D01*
X245000Y256000D02*
X252500D01*
X243750Y254750D02*
X245000Y256000D01*
X228750Y255250D02*
X229250Y254750D01*
D30*
X410600Y309250D02*
Y325100D01*
X401000Y168750D02*
Y226000D01*
X436000Y325100D02*
Y350500D01*
Y278750D02*
Y325100D01*
X401000Y243750D02*
X436000Y278750D01*
X401000Y226000D02*
Y243750D01*
X293250Y351050D02*
Y386000D01*
X401000Y168750D02*
X401000Y168750D01*
X81500Y200000D02*
X81750Y199750D01*
X81500Y200000D02*
Y229750D01*
X26000Y199750D02*
X81750D01*
D31*
X496250Y389500D02*
X529250Y356500D01*
Y162250D02*
Y356500D01*
Y162250D02*
X552250Y139250D01*
X391000Y389500D02*
X496250D01*
X552250Y119250D02*
Y139250D01*
X546000Y113000D02*
X552250Y119250D01*
X546000Y64750D02*
Y113000D01*
X244500Y351000D02*
Y386000D01*
X109000Y137000D02*
Y195250D01*
Y137000D02*
X116250Y129750D01*
X134250Y228250D02*
X136000Y226500D01*
Y214250D02*
Y226500D01*
X134000Y212250D02*
X136000Y214250D01*
X95500Y175000D02*
X95750Y175250D01*
D32*
X344750Y272250D02*
X366000D01*
X380500Y266500D02*
Y284750D01*
X371250Y257250D02*
X380500Y266500D01*
X344750Y257250D02*
X371250D01*
X349000Y316250D02*
X380500Y284750D01*
X424845Y282595D02*
Y362867D01*
X365500Y223250D02*
X424845Y282595D01*
X424500Y363212D02*
X424845Y362867D01*
X343250Y223250D02*
X365500D01*
X336000Y230500D02*
X343250Y223250D01*
X424500Y363212D02*
Y366500D01*
X418500Y372500D02*
X424500Y366500D01*
X381800Y372500D02*
X418500D01*
X359800Y350500D02*
X381800Y372500D01*
X336000Y230500D02*
Y238500D01*
X395850Y365250D02*
X410600Y350500D01*
X381250Y365250D02*
X395850D01*
X370300Y354300D02*
X381250Y365250D01*
X370300Y344050D02*
Y354300D01*
X364750Y338500D02*
X370300Y344050D01*
X353750Y338500D02*
X364750D01*
X349000Y333750D02*
X353750Y338500D01*
X349000Y316250D02*
Y333750D01*
X372500Y316000D02*
Y337800D01*
X388000Y268000D02*
Y300500D01*
X372250Y252250D02*
X388000Y268000D01*
X344750Y252250D02*
X372250D01*
X372500Y316000D02*
X388000Y300500D01*
X372500Y337800D02*
X385200Y350500D01*
X345500Y248000D02*
X374000D01*
X394000Y268000D01*
X385200Y325100D02*
X394000Y316300D01*
Y268000D02*
Y316300D01*
X344750Y247250D02*
X345500Y248000D01*
X306000Y286000D02*
Y294500D01*
X304000Y296500D02*
X306000Y294500D01*
X295750Y296500D02*
X304000D01*
X241000Y318250D02*
X241500Y318750D01*
X239000Y316250D02*
X241000Y318250D01*
X293500Y308500D02*
Y315250D01*
X241500Y348000D02*
X244500Y351000D01*
X293500Y308500D02*
X294000Y308000D01*
Y298250D02*
Y308000D01*
Y298250D02*
X295750Y296500D01*
X113000Y199250D02*
X117500D01*
X109000Y195250D02*
X113000Y199250D01*
X480000Y189000D02*
Y200500D01*
X473250Y207250D02*
X480000Y200500D01*
X437750Y207250D02*
X473250D01*
X432250Y212750D02*
X437750Y207250D01*
X328000Y201250D02*
Y207750D01*
X316000Y229750D02*
Y238500D01*
Y229750D02*
X325000Y220750D01*
Y217000D02*
Y220750D01*
X311000Y217000D02*
X311000Y217000D01*
Y238500D01*
D33*
X153250Y242500D02*
X173750D01*
X135000Y272500D02*
Y289000D01*
X134500Y272000D02*
X153750D01*
X195250Y239750D02*
Y255250D01*
X241500Y318750D02*
Y348000D01*
X281250Y139750D02*
Y153250D01*
Y139750D02*
X286750Y134250D01*
X303000D01*
X303000Y134250D02*
X347250D01*
X325000Y210750D02*
X328000Y207750D01*
X311000Y201250D02*
Y217000D01*
X195500Y225500D02*
X195500Y225500D01*
Y206000D02*
Y225500D01*
Y206000D02*
X195750Y206250D01*
X211250D01*
X229250Y254750D02*
X243750D01*
X212000Y255250D02*
X228750D01*
X173750Y225250D02*
X174000Y225500D01*
X195500D01*
X153000Y242250D02*
X153250Y242500D01*
X134250Y242250D02*
X153000D01*
X134250D02*
X134750Y242750D01*
Y258750D01*
X168000Y272250D02*
X195000D01*
D34*
X134500Y272000D02*
X135000Y272500D01*
X191250Y362900D02*
Y374250D01*
X203000Y386000D01*
X227500D01*
X140500Y199250D02*
X142500Y197250D01*
X134000Y199250D02*
X140500D01*
X195250Y239750D02*
X195500Y239500D01*
X167750Y272000D02*
X168000Y272250D01*
D35*
X116250Y67750D02*
Y129750D01*
X305500Y308500D02*
Y324750D01*
X293300Y336950D02*
X305500Y324750D01*
X293300Y336950D02*
Y351000D01*
X241000Y318250D02*
X290500D01*
X293500Y315250D01*
X462500Y59250D02*
X462750Y59000D01*
X462450Y59300D02*
X462500Y59250D01*
X462750Y35750D02*
Y59000D01*
X442250Y15250D02*
X462750Y35750D01*
X130500Y15250D02*
X442250D01*
X103000Y42750D02*
X130500Y15250D01*
X103000Y42750D02*
Y50750D01*
X103750Y51500D02*
Y70750D01*
X110500Y205750D02*
X117500D01*
X104500Y199750D02*
X110500Y205750D01*
X95750Y199750D02*
X104500D01*
D36*
X410500Y138750D02*
Y144750D01*
X398750Y127000D02*
X410500Y138750D01*
X398750Y118000D02*
Y127000D01*
D37*
X339250Y115250D02*
X347250D01*
X303000D02*
X339250D01*
D38*
X95750Y175250D02*
Y199750D01*
D39*
X461550Y350550D02*
D03*
X213600Y147000D02*
D03*
X546000Y64750D02*
D03*
D40*
X461200Y324900D02*
D03*
X436000Y350500D02*
D03*
Y325100D02*
D03*
X410600Y350500D02*
D03*
Y325100D02*
D03*
X385200Y350500D02*
D03*
Y325100D02*
D03*
X359800Y350500D02*
D03*
Y325100D02*
D03*
X334400Y350500D02*
D03*
Y325100D02*
D03*
X191250Y337500D02*
D03*
X239000Y147000D02*
D03*
X571400Y64750D02*
D03*
D41*
X191250Y362900D02*
D03*
D42*
X293300Y351000D02*
D03*
D43*
X244500D02*
D03*
D44*
X50000Y125000D02*
D03*
Y275000D02*
D03*
X485000D02*
D03*
Y125000D02*
D03*
D45*
X265750Y242250D02*
D03*
X265500Y302000D02*
D03*
X410600Y309250D02*
D03*
X515775Y325266D02*
D03*
X451750Y308500D02*
D03*
X351250Y301750D02*
D03*
X536250Y365250D02*
D03*
Y285250D02*
D03*
X556250Y245250D02*
D03*
X536250Y205250D02*
D03*
X556250Y165250D02*
D03*
X536250Y125250D02*
D03*
X556250Y85250D02*
D03*
X536250Y45250D02*
D03*
X496250Y365250D02*
D03*
X516250Y245250D02*
D03*
X496250Y205250D02*
D03*
X516250Y165250D02*
D03*
Y85250D02*
D03*
X496250Y45250D02*
D03*
X476250Y325250D02*
D03*
Y85250D02*
D03*
X416250Y365250D02*
D03*
X436250Y245250D02*
D03*
X416250Y205250D02*
D03*
Y125250D02*
D03*
Y45250D02*
D03*
X376250Y205250D02*
D03*
Y45250D02*
D03*
X356250Y165250D02*
D03*
X336250Y45250D02*
D03*
X316250Y325250D02*
D03*
X296250Y205250D02*
D03*
X316250Y165250D02*
D03*
X256250Y365250D02*
D03*
Y285250D02*
D03*
Y125250D02*
D03*
X276250Y85250D02*
D03*
X216250Y365250D02*
D03*
X236250Y165250D02*
D03*
X216250Y125250D02*
D03*
X236250Y85250D02*
D03*
X196250Y325250D02*
D03*
X176250Y285250D02*
D03*
Y205250D02*
D03*
X196250Y165250D02*
D03*
X176250Y125250D02*
D03*
X196250Y85250D02*
D03*
X176250Y45250D02*
D03*
X136250Y365250D02*
D03*
X156250Y325250D02*
D03*
Y165250D02*
D03*
X136250Y45250D02*
D03*
X96250Y365250D02*
D03*
X116250Y325250D02*
D03*
X96250Y285250D02*
D03*
X116250Y245250D02*
D03*
Y165250D02*
D03*
X56250Y365250D02*
D03*
X76250Y325250D02*
D03*
Y245250D02*
D03*
Y165250D02*
D03*
Y85250D02*
D03*
X56250Y45250D02*
D03*
X16250Y365250D02*
D03*
X36250Y325250D02*
D03*
X16250Y285250D02*
D03*
Y125250D02*
D03*
X36250Y85250D02*
D03*
X16250Y45250D02*
D03*
X509200Y335800D02*
D03*
X368750Y146750D02*
D03*
X290750Y124750D02*
D03*
X448750Y188750D02*
D03*
X461250Y199750D02*
D03*
X378750Y114750D02*
D03*
Y135250D02*
D03*
Y125000D02*
D03*
X334500Y124750D02*
D03*
D46*
X310000Y273250D02*
D03*
X321000D02*
D03*
X332000D02*
D03*
X310000Y262250D02*
D03*
X321000D02*
D03*
X332000D02*
D03*
X310000Y251250D02*
D03*
X321000D02*
D03*
X332000D02*
D03*
M02*
