G04 Layer_Physical_Order=1*
G04 Layer_Color=255*
%FSLAX44Y44*%
%MOMM*%
G71*
G01*
G75*
%ADD10R,1.1000X1.0000*%
%ADD11R,1.1000X0.2500*%
%ADD12R,0.2500X1.1000*%
%ADD13R,3.2500X3.2500*%
%ADD14R,5.0000X1.4000*%
%ADD15R,5.0000X1.0000*%
%ADD16R,1.0000X1.1000*%
%ADD17R,0.6000X0.9000*%
%ADD18R,0.9000X0.8000*%
%ADD19R,2.4000X2.6000*%
%ADD20R,3.3000X2.4000*%
%ADD21R,1.0000X2.4000*%
%ADD22R,0.8000X0.9000*%
%ADD23R,2.6000X2.4000*%
%ADD24C,1.8000*%
%ADD25C,0.2540*%
%ADD26C,1.0000*%
%ADD27C,0.2500*%
%ADD28C,0.6000*%
%ADD29C,0.2000*%
%ADD30C,0.2400*%
%ADD31C,0.3000*%
%ADD32C,0.8000*%
%ADD33R,1.1250X1.0250*%
%ADD34C,2.5000*%
%ADD35C,1.5000*%
%ADD36R,1.5000X1.5000*%
%ADD37R,1.5000X1.5000*%
%ADD38C,1.4000*%
%ADD39P,1.5154X8X22.5*%
%ADD40C,0.8000*%
%ADD41C,0.5000*%
%ADD42C,1.2700*%
%ADD43C,0.6000*%
G36*
X89482Y437259D02*
X90085Y436356D01*
X90854Y435587D01*
X91757Y434983D01*
X92249Y434751D01*
X92250Y415750D01*
X81380D01*
X81380Y415750D01*
X79604Y416675D01*
X76374Y419043D01*
X73543Y421874D01*
X71175Y425104D01*
X70250Y426880D01*
X70250Y437751D01*
X89249D01*
X89482Y437259D01*
D02*
G37*
G36*
X430750Y469500D02*
Y407250D01*
X399500Y376000D01*
Y368000D01*
X389500D01*
X389000Y367500D01*
X377250Y379250D01*
Y403750D01*
X306250D01*
X286750Y423250D01*
Y483000D01*
X417250D01*
X430750Y469500D01*
D02*
G37*
G36*
X144250Y426880D02*
Y426880D01*
X143325Y425104D01*
X140957Y421874D01*
X138126Y419043D01*
X134896Y416675D01*
X133120Y415750D01*
X122249Y415750D01*
Y434749D01*
X122249D01*
X122741Y434982D01*
X123645Y435586D01*
X124413Y436354D01*
X125017Y437257D01*
X125249Y437749D01*
X144250Y437750D01*
Y426880D01*
D02*
G37*
G36*
X92251Y470751D02*
Y470751D01*
X91759Y470518D01*
X90856Y469915D01*
X90087Y469146D01*
X89483Y468242D01*
X89251Y467751D01*
X70250Y467750D01*
Y478620D01*
X70250D01*
X71175Y480396D01*
X73543Y483626D01*
X76374Y486457D01*
X79604Y488825D01*
X81380Y489750D01*
X92251D01*
Y470751D01*
D02*
G37*
G36*
X134896Y488825D02*
X138126Y486457D01*
X140957Y483626D01*
X143325Y480396D01*
X144250Y478620D01*
Y467749D01*
X125251D01*
X125251Y467749D01*
X125018Y468241D01*
X124415Y469145D01*
X123646Y469913D01*
X122743Y470517D01*
X122251Y470749D01*
X122250Y489750D01*
X133120D01*
X134896Y488825D01*
D02*
G37*
D10*
X73750Y89250D02*
D03*
X90750D02*
D03*
X234990Y216340D02*
D03*
X251990D02*
D03*
X236880Y232850D02*
D03*
X253880D02*
D03*
X153710Y216340D02*
D03*
X170710D02*
D03*
X333250Y137750D02*
D03*
X316250D02*
D03*
X212000Y305500D02*
D03*
X195000D02*
D03*
D11*
X302890Y207790D02*
D03*
Y202790D02*
D03*
Y197790D02*
D03*
Y192790D02*
D03*
Y187790D02*
D03*
Y182790D02*
D03*
Y177790D02*
D03*
X350390D02*
D03*
Y182790D02*
D03*
Y187790D02*
D03*
Y192790D02*
D03*
Y197790D02*
D03*
Y202790D02*
D03*
Y207790D02*
D03*
D12*
X311640Y169040D02*
D03*
X316640D02*
D03*
X321640D02*
D03*
X326640D02*
D03*
X331640D02*
D03*
X336640D02*
D03*
X341640D02*
D03*
Y216540D02*
D03*
X336640D02*
D03*
X331640D02*
D03*
X326640D02*
D03*
X321640D02*
D03*
X316640D02*
D03*
X311640D02*
D03*
D13*
X326640Y192790D02*
D03*
D14*
X27000Y132500D02*
D03*
Y47500D02*
D03*
X24500Y172500D02*
D03*
Y257500D02*
D03*
D15*
X27000Y90000D02*
D03*
X24500Y215000D02*
D03*
D16*
X259750Y343250D02*
D03*
Y360250D02*
D03*
X291000Y253750D02*
D03*
Y236750D02*
D03*
X253750Y253750D02*
D03*
Y270750D02*
D03*
X72660Y177360D02*
D03*
Y194360D02*
D03*
X124730Y176090D02*
D03*
Y193090D02*
D03*
Y269290D02*
D03*
Y252290D02*
D03*
X173640Y195630D02*
D03*
Y178630D02*
D03*
X183150Y248970D02*
D03*
Y231970D02*
D03*
X252500Y176250D02*
D03*
Y193250D02*
D03*
X341630Y242960D02*
D03*
Y259960D02*
D03*
X284750Y149250D02*
D03*
Y166250D02*
D03*
X436000Y306500D02*
D03*
Y323500D02*
D03*
X366000Y259750D02*
D03*
Y242750D02*
D03*
X309000Y343250D02*
D03*
Y360250D02*
D03*
D17*
X291000Y343500D02*
D03*
X279000D02*
D03*
D18*
X269510Y233470D02*
D03*
Y247470D02*
D03*
X190770Y183940D02*
D03*
Y197940D02*
D03*
X124730Y215690D02*
D03*
Y229690D02*
D03*
X269510Y201720D02*
D03*
Y215720D02*
D03*
D19*
X463250Y415250D02*
D03*
Y351250D02*
D03*
D20*
X394250Y415250D02*
D03*
D21*
X417250Y357250D02*
D03*
X394250D02*
D03*
X371250D02*
D03*
D22*
X153250Y231000D02*
D03*
X167250D02*
D03*
X202820Y232850D02*
D03*
X216820D02*
D03*
X202850Y216340D02*
D03*
X216850D02*
D03*
X89750Y215000D02*
D03*
X103750D02*
D03*
D23*
X249750Y459750D02*
D03*
X313750D02*
D03*
D24*
X107250Y452750D02*
D03*
X82250Y477750D02*
D03*
Y427750D02*
D03*
X132250D02*
D03*
Y477750D02*
D03*
D25*
X193250Y305500D02*
X195500Y307750D01*
X106500Y358500D02*
Y452000D01*
Y358500D02*
X159500Y305500D01*
X193250D02*
X195000D01*
X159500D02*
X193250D01*
X269510Y215720D02*
X277280D01*
X122825Y215070D02*
X124730Y213165D01*
X102520Y215070D02*
X122825D01*
X24000Y213800D02*
X25200Y215000D01*
X212500Y307750D02*
X214500Y305750D01*
X253750Y232980D02*
X253880Y232850D01*
X252500Y215830D02*
X252610Y215720D01*
X251990Y216340D02*
X252500Y215830D01*
X72660Y215070D02*
X88520D01*
X124730Y229690D02*
X125350Y230310D01*
X124730Y252290D02*
X124730Y252290D01*
X236880Y232850D02*
X236880Y232850D01*
X202850Y216340D02*
X202850Y216340D01*
X170710D02*
X173640Y213410D01*
X142510Y230310D02*
X142510Y230310D01*
X152640Y217410D02*
X153710Y216340D01*
X190770Y197940D02*
X190770Y197940D01*
X201940Y231970D02*
X202820Y232850D01*
X308900Y343150D02*
X309000Y343250D01*
X259750D02*
X260100Y342900D01*
X291250Y343250D02*
X309000D01*
X291000Y343500D02*
X291250Y343250D01*
X259750D02*
X278750D01*
X279000Y343500D01*
X182760Y231580D02*
X183150Y231970D01*
D26*
X427000Y325750D02*
X463250D01*
X462500Y280150D02*
X463000Y280650D01*
Y302750D01*
X198500Y89250D02*
X261500Y152250D01*
X90750Y89250D02*
X198500D01*
X351500Y242960D02*
X373040D01*
X27250Y89250D02*
X73750D01*
X394000Y242750D02*
X410750D01*
X366000D02*
X394000D01*
X394250Y243000D01*
X461900Y228750D02*
X462500Y229350D01*
X424500Y228750D02*
X461900D01*
X424500D02*
Y229000D01*
X410750Y242750D02*
X424500Y229000D01*
X463000Y302750D02*
X463250Y325750D01*
X125350Y230310D02*
X142510D01*
X124730Y229690D02*
Y252290D01*
X124730Y193090D02*
Y213165D01*
X417250Y335500D02*
Y357250D01*
Y335500D02*
X427000Y325750D01*
X463250D02*
Y351250D01*
X394250Y243000D02*
Y357250D01*
X88450Y215000D02*
X88520Y215070D01*
X24500Y215000D02*
X25200D01*
X72660D01*
X88450D01*
X72660Y194360D02*
Y215000D01*
D27*
X284540Y187790D02*
X302890D01*
X268500Y171750D02*
X284540Y187790D01*
X261500Y152250D02*
X268500Y159250D01*
Y171750D01*
X291000Y209250D02*
Y236750D01*
Y209250D02*
X292460Y207790D01*
X302890D01*
X284750Y166250D02*
Y174000D01*
X288540Y177790D01*
X302890D01*
X287710Y192790D02*
X302890D01*
X277280Y215720D02*
X281250Y211750D01*
Y199250D02*
Y211750D01*
Y199250D02*
X287710Y192790D01*
D28*
X253880Y232850D02*
X275900D01*
X216820Y232850D02*
X236880D01*
X216850Y216340D02*
X234990D01*
X190770Y197940D02*
Y216340D01*
X170710D02*
X190770D01*
X202850D01*
X183150Y231970D02*
X201940D01*
X252610Y215720D02*
X269510D01*
X252500Y193250D02*
Y215830D01*
X253750Y232980D02*
Y253750D01*
X173640Y195630D02*
Y213410D01*
D29*
X275900Y232850D02*
X286000Y222750D01*
Y203500D02*
Y222750D01*
Y203500D02*
X291710Y197790D01*
X302890D01*
X331500Y293750D02*
Y360750D01*
X295500Y396750D02*
X331500Y360750D01*
X174350Y396750D02*
X295500D01*
X173500Y395900D02*
X174350Y396750D01*
X321640Y283890D02*
X331500Y293750D01*
X321640Y216540D02*
Y283890D01*
X311000Y217180D02*
X311640Y216540D01*
X311000Y217180D02*
Y228750D01*
X304750Y235000D02*
X311000Y228750D01*
X304750Y235000D02*
Y240000D01*
X308900Y292100D02*
Y305750D01*
Y292100D02*
X313000Y288000D01*
Y246250D02*
Y288000D01*
Y246250D02*
X316640Y242610D01*
Y216540D02*
Y242610D01*
X357750Y133250D02*
X367750D01*
X336640Y154360D02*
X357750Y133250D01*
X336640Y154360D02*
Y169040D01*
X316000Y137500D02*
X316250Y137750D01*
X316000Y119750D02*
Y137500D01*
Y119750D02*
X320850Y114900D01*
Y95000D02*
Y114900D01*
X346250Y95000D02*
Y107250D01*
X333250Y120250D02*
X346250Y107250D01*
X333250Y120250D02*
Y137750D01*
Y142750D01*
X321640Y154360D02*
X333250Y142750D01*
X321640Y154360D02*
Y169040D01*
X316250Y137750D02*
X316640Y138140D01*
Y169040D01*
X311640Y153890D02*
Y169040D01*
X303000Y145250D02*
X311640Y153890D01*
X371500Y141750D02*
X410900Y102350D01*
X357000Y141750D02*
X371500D01*
X341640Y157110D02*
X357000Y141750D01*
X410900Y102350D02*
X462500D01*
X341640Y157110D02*
Y169040D01*
X433500Y127750D02*
X462500D01*
X383460Y177790D02*
X433500Y127750D01*
X350390Y177790D02*
X383460D01*
X443850Y153150D02*
X462500D01*
X414210Y182790D02*
X443850Y153150D01*
X350390Y182790D02*
X414210D01*
X453260Y187790D02*
X462500Y178550D01*
X350390Y187790D02*
X453260D01*
X437950Y203950D02*
X462500D01*
X431790Y197790D02*
X437950Y203950D01*
X350390Y197790D02*
X431790D01*
X341630Y242960D02*
X351500D01*
X288750Y91250D02*
X303000Y105500D01*
Y145250D01*
X288750Y70400D02*
Y91250D01*
X367750Y68650D02*
Y133250D01*
D30*
X335750Y288250D02*
Y364300D01*
X298550Y401500D02*
X335750Y364300D01*
X207500Y401500D02*
X298550D01*
X173500Y421300D02*
X174550Y420250D01*
X188750D01*
X207500Y401500D01*
X331750Y284250D02*
X335750Y288250D01*
X331750Y262000D02*
Y284250D01*
X326500Y256750D02*
X331750Y262000D01*
X326500Y231750D02*
Y256750D01*
Y231750D02*
X326640Y231610D01*
Y216540D02*
Y231610D01*
D31*
X304750Y240000D02*
Y261100D01*
X260100Y305750D02*
X304750Y261100D01*
X214500Y305750D02*
X260100D01*
Y342900D01*
X308900Y305750D02*
Y343150D01*
D32*
X142510Y230310D02*
X152640D01*
Y217410D02*
Y230310D01*
X167290Y231580D02*
X182760D01*
D33*
X349125Y243125D02*
D03*
D34*
X470000Y25000D02*
D03*
X30000Y470000D02*
D03*
X470000D02*
D03*
X30000Y25000D02*
D03*
D35*
X287500Y38500D02*
D03*
X320850Y95000D02*
D03*
X462500Y254750D02*
D03*
Y203950D02*
D03*
Y178550D02*
D03*
Y153150D02*
D03*
Y127750D02*
D03*
Y102350D02*
D03*
Y76950D02*
D03*
Y51550D02*
D03*
Y229350D02*
D03*
X367500Y38500D02*
D03*
X173500Y395900D02*
D03*
Y421300D02*
D03*
Y446700D02*
D03*
D36*
X287500Y63900D02*
D03*
X462500Y280150D02*
D03*
X367500Y63900D02*
D03*
X173500Y370500D02*
D03*
D37*
X346250Y95000D02*
D03*
D38*
X308900Y305750D02*
D03*
D39*
X260100D02*
D03*
D40*
X323750Y394500D02*
D03*
X285000Y132750D02*
D03*
X310250Y113500D02*
D03*
X349250Y121500D02*
D03*
X236250Y171250D02*
D03*
X336500Y382500D02*
D03*
X284000Y413000D02*
D03*
D41*
X315640Y203790D02*
D03*
X326640D02*
D03*
X337640D02*
D03*
X315640Y192790D02*
D03*
X326640D02*
D03*
X337640D02*
D03*
X315640Y181790D02*
D03*
X326640D02*
D03*
X337640D02*
D03*
D42*
X90250Y177000D02*
D03*
X108500Y176500D02*
D03*
X9500Y152500D02*
D03*
X26250Y152250D02*
D03*
X62500Y252500D02*
D03*
X107500Y269750D02*
D03*
X142500D02*
D03*
X156000Y179000D02*
D03*
X173250Y159250D02*
D03*
X190500Y166250D02*
D03*
X278250Y306500D02*
D03*
X233250Y279250D02*
D03*
X199750Y254250D02*
D03*
X153500Y252750D02*
D03*
X366750Y279000D02*
D03*
X352250Y342000D02*
D03*
X350000Y367000D02*
D03*
X371500Y332000D02*
D03*
X489250Y415250D02*
D03*
X440500Y415500D02*
D03*
X488750Y436500D02*
D03*
X486250Y211750D02*
D03*
X485750Y237250D02*
D03*
X350750Y277250D02*
D03*
X371000Y220500D02*
D03*
X89500Y198500D02*
D03*
X56500Y199000D02*
D03*
X56000Y231000D02*
D03*
X262250Y283250D02*
D03*
X243000Y292750D02*
D03*
X205750Y378500D02*
D03*
X294750Y379000D02*
D03*
X224250Y459750D02*
D03*
X224000Y440500D02*
D03*
X224250Y477250D02*
D03*
X150000Y406750D02*
D03*
X259500Y378000D02*
D03*
X235250Y321000D02*
D03*
X285000Y305000D02*
D03*
X11000Y278250D02*
D03*
X28250Y277750D02*
D03*
X46500D02*
D03*
X42500Y152750D02*
D03*
X62750Y270750D02*
D03*
X61000Y161000D02*
D03*
D43*
X326250Y192750D02*
D03*
M02*
