G04 Layer_Color=8388736*
%FSLAX44Y44*%
%MOMM*%
G71*
G01*
G75*
%ADD44R,1.3032X1.2032*%
%ADD45R,1.3032X0.4532*%
%ADD46R,0.4532X1.3032*%
%ADD47R,3.4532X3.4532*%
%ADD48R,5.2032X1.6032*%
%ADD49R,5.2032X1.2032*%
%ADD50R,1.2032X1.3032*%
%ADD51R,0.8032X1.1032*%
%ADD52R,1.1032X1.0032*%
%ADD53R,2.6032X2.8032*%
%ADD54R,3.5032X2.6032*%
%ADD55R,1.2032X2.6032*%
%ADD56R,1.0032X1.1032*%
%ADD57R,2.8032X2.6032*%
%ADD58C,2.0032*%
%ADD59C,2.7032*%
%ADD60C,1.7032*%
%ADD61R,1.7032X1.7032*%
%ADD62R,1.7032X1.7032*%
%ADD63C,1.6032*%
%ADD64P,1.7353X8X22.5*%
%ADD65C,1.0032*%
%ADD66C,0.7032*%
%ADD67C,1.4732*%
%ADD68C,0.8032*%
G36*
X144383Y438759D02*
X144514Y438733D01*
X144599Y438704D01*
X144640Y438691D01*
X144759Y438632D01*
X144870Y438558D01*
X144970Y438470D01*
Y438470D01*
X144970D01*
X145058Y438370D01*
X145132Y438259D01*
X145191Y438140D01*
X145204Y438099D01*
X145233Y438014D01*
X145260Y437883D01*
X145268Y437750D01*
Y437750D01*
Y437750D01*
Y426880D01*
Y426880D01*
X145265Y426835D01*
X145264Y426791D01*
X145261Y426769D01*
X145260Y426747D01*
X145251Y426704D01*
X145244Y426660D01*
X145238Y426638D01*
X145233Y426616D01*
X145219Y426574D01*
X145207Y426532D01*
X145198Y426511D01*
X145191Y426490D01*
X145171Y426450D01*
X145153Y426410D01*
X144229Y424634D01*
X144223Y424624D01*
X144218Y424614D01*
X144189Y424568D01*
X144159Y424520D01*
X144152Y424511D01*
X144146Y424502D01*
X141778Y421272D01*
X141771Y421264D01*
X141765Y421255D01*
X141729Y421213D01*
X141693Y421170D01*
X141685Y421163D01*
X141677Y421154D01*
X138846Y418323D01*
X138837Y418315D01*
X138830Y418307D01*
X138787Y418271D01*
X138745Y418235D01*
X138736Y418229D01*
X138728Y418222D01*
X135498Y415853D01*
X135489Y415848D01*
X135480Y415840D01*
X135432Y415812D01*
X135386Y415782D01*
X135376Y415777D01*
X135366Y415771D01*
X133590Y414847D01*
X133549Y414829D01*
X133510Y414809D01*
X133489Y414802D01*
X133468Y414793D01*
X133426Y414781D01*
X133384Y414767D01*
X133362Y414762D01*
X133340Y414756D01*
X133296Y414749D01*
X133253Y414740D01*
X133231Y414739D01*
X133209Y414736D01*
X133164Y414735D01*
X133120Y414732D01*
X122249Y414732D01*
X122116Y414740D01*
X121986Y414767D01*
X121860Y414809D01*
X121740Y414868D01*
X121629Y414942D01*
X121529Y415030D01*
X121441Y415130D01*
X121367Y415241D01*
X121308Y415360D01*
X121266Y415486D01*
X121240Y415617D01*
X121231Y415750D01*
Y434749D01*
X121231Y434749D01*
X121234Y434791D01*
X121234Y434832D01*
X121238Y434857D01*
X121240Y434882D01*
X121248Y434923D01*
X121254Y434964D01*
X121261Y434988D01*
X121266Y435013D01*
X121279Y435052D01*
X121291Y435092D01*
X121300Y435115D01*
X121308Y435139D01*
X121327Y435176D01*
X121343Y435214D01*
X121356Y435236D01*
X121367Y435258D01*
X121390Y435293D01*
X121412Y435329D01*
X121427Y435348D01*
X121441Y435369D01*
X121469Y435400D01*
X121495Y435433D01*
X121513Y435450D01*
X121529Y435469D01*
X121560Y435497D01*
X121590Y435526D01*
X121610Y435541D01*
X121629Y435557D01*
X121664Y435580D01*
X121697Y435605D01*
X121719Y435617D01*
X121740Y435631D01*
X121777Y435649D01*
X121814Y435670D01*
X122238Y435870D01*
X122995Y436376D01*
X123622Y437003D01*
X124128Y437761D01*
X124329Y438185D01*
X124349Y438221D01*
X124367Y438258D01*
X124381Y438279D01*
X124393Y438301D01*
X124418Y438334D01*
X124441Y438369D01*
X124458Y438388D01*
X124473Y438408D01*
X124502Y438438D01*
X124529Y438469D01*
X124548Y438485D01*
X124565Y438504D01*
X124598Y438530D01*
X124629Y438557D01*
X124650Y438571D01*
X124670Y438586D01*
X124705Y438608D01*
X124740Y438631D01*
X124762Y438642D01*
X124784Y438655D01*
X124822Y438671D01*
X124860Y438690D01*
X124883Y438698D01*
X124906Y438708D01*
X124946Y438719D01*
X124986Y438733D01*
X125010Y438738D01*
X125034Y438744D01*
X125075Y438750D01*
X125116Y438759D01*
X125141Y438760D01*
X125166Y438764D01*
X125207Y438765D01*
X125249Y438767D01*
X144250Y438768D01*
X144250D01*
X144250D01*
X144383Y438759D01*
D02*
G37*
G36*
X89291Y438766D02*
X89332Y438766D01*
X89357Y438762D01*
X89382Y438760D01*
X89423Y438752D01*
X89464Y438746D01*
X89488Y438739D01*
X89513Y438734D01*
X89552Y438721D01*
X89592Y438709D01*
X89615Y438700D01*
X89639Y438691D01*
X89676Y438673D01*
X89714Y438657D01*
X89736Y438644D01*
X89758Y438633D01*
X89793Y438609D01*
X89829Y438588D01*
X89848Y438573D01*
X89869Y438559D01*
X89900Y438531D01*
X89933Y438505D01*
X89950Y438487D01*
X89969Y438471D01*
X89997Y438439D01*
X90026Y438410D01*
X90041Y438390D01*
X90057Y438371D01*
X90080Y438336D01*
X90105Y438303D01*
X90117Y438281D01*
X90131Y438260D01*
X90149Y438223D01*
X90170Y438186D01*
X90370Y437762D01*
X90876Y437005D01*
X91503Y436378D01*
X92261Y435872D01*
X92684Y435671D01*
X92721Y435651D01*
X92758Y435633D01*
X92779Y435619D01*
X92801Y435606D01*
X92834Y435582D01*
X92869Y435559D01*
X92888Y435542D01*
X92908Y435527D01*
X92938Y435498D01*
X92969Y435471D01*
X92985Y435452D01*
X93004Y435435D01*
X93030Y435402D01*
X93057Y435371D01*
X93071Y435350D01*
X93086Y435330D01*
X93108Y435294D01*
X93131Y435260D01*
X93142Y435238D01*
X93155Y435216D01*
X93172Y435178D01*
X93190Y435140D01*
X93198Y435117D01*
X93208Y435094D01*
X93219Y435054D01*
X93233Y435014D01*
X93238Y434990D01*
X93244Y434966D01*
X93251Y434925D01*
X93259Y434884D01*
X93260Y434859D01*
X93264Y434834D01*
X93265Y434793D01*
X93267Y434751D01*
X93268Y415750D01*
Y415750D01*
Y415750D01*
X93259Y415617D01*
X93233Y415486D01*
X93204Y415401D01*
X93191Y415360D01*
X93132Y415241D01*
X93058Y415130D01*
X92970Y415030D01*
X92970D01*
Y415030D01*
X92870Y414942D01*
X92759Y414868D01*
X92640Y414809D01*
X92599Y414796D01*
X92514Y414767D01*
X92383Y414740D01*
X92250Y414732D01*
X92250D01*
X92250D01*
X81380D01*
X81380Y414732D01*
X81335Y414735D01*
X81291Y414736D01*
X81269Y414739D01*
X81247Y414740D01*
X81204Y414749D01*
X81160Y414756D01*
X81138Y414762D01*
X81116Y414767D01*
X81074Y414781D01*
X81032Y414793D01*
X81012Y414802D01*
X80990Y414809D01*
X80950Y414829D01*
X80910Y414847D01*
X79134Y415771D01*
X79124Y415777D01*
X79114Y415782D01*
X79068Y415811D01*
X79020Y415840D01*
X79011Y415848D01*
X79002Y415853D01*
X75772Y418222D01*
X75764Y418229D01*
X75754Y418235D01*
X75713Y418271D01*
X75670Y418307D01*
X75663Y418315D01*
X75654Y418323D01*
X72823Y421154D01*
X72815Y421163D01*
X72807Y421170D01*
X72771Y421213D01*
X72735Y421255D01*
X72729Y421264D01*
X72722Y421272D01*
X70353Y424502D01*
X70347Y424511D01*
X70340Y424520D01*
X70311Y424568D01*
X70282Y424614D01*
X70277Y424624D01*
X70271Y424634D01*
X69347Y426410D01*
X69329Y426451D01*
X69309Y426490D01*
X69302Y426511D01*
X69293Y426532D01*
X69281Y426574D01*
X69267Y426616D01*
X69262Y426638D01*
X69256Y426660D01*
X69249Y426704D01*
X69240Y426747D01*
X69239Y426769D01*
X69236Y426791D01*
X69235Y426836D01*
X69232Y426880D01*
X69232Y437751D01*
X69240Y437884D01*
X69267Y438014D01*
X69309Y438140D01*
X69368Y438260D01*
X69442Y438371D01*
X69530Y438471D01*
X69630Y438559D01*
X69741Y438633D01*
X69860Y438691D01*
X69987Y438734D01*
X70117Y438760D01*
X70250Y438769D01*
X89249D01*
X89291Y438766D01*
D02*
G37*
G36*
X133165Y490765D02*
X133209Y490764D01*
X133231Y490761D01*
X133253Y490760D01*
X133296Y490751D01*
X133340Y490744D01*
X133362Y490738D01*
X133384Y490733D01*
X133426Y490719D01*
X133468Y490707D01*
X133489Y490698D01*
X133510Y490691D01*
X133550Y490671D01*
X133590Y490653D01*
X135366Y489729D01*
X135376Y489723D01*
X135386Y489718D01*
X135432Y489689D01*
X135480Y489660D01*
X135489Y489652D01*
X135498Y489646D01*
X138728Y487279D01*
X138736Y487271D01*
X138745Y487265D01*
X138787Y487229D01*
X138830Y487193D01*
X138837Y487185D01*
X138846Y487177D01*
X141677Y484346D01*
X141685Y484337D01*
X141693Y484330D01*
X141729Y484287D01*
X141765Y484245D01*
X141771Y484236D01*
X141778Y484228D01*
X144146Y480998D01*
X144152Y480989D01*
X144159Y480980D01*
X144188Y480932D01*
X144218Y480886D01*
X144223Y480876D01*
X144229Y480866D01*
X145153Y479090D01*
X145171Y479049D01*
X145191Y479010D01*
X145198Y478988D01*
X145207Y478968D01*
X145219Y478926D01*
X145233Y478884D01*
X145238Y478862D01*
X145244Y478840D01*
X145251Y478796D01*
X145260Y478753D01*
X145261Y478731D01*
X145264Y478709D01*
X145265Y478664D01*
X145268Y478620D01*
Y467749D01*
X145260Y467616D01*
X145233Y467486D01*
X145191Y467360D01*
X145132Y467240D01*
X145058Y467129D01*
X144970Y467029D01*
X144870Y466941D01*
X144759Y466867D01*
X144640Y466809D01*
X144514Y466766D01*
X144383Y466740D01*
X144250Y466731D01*
X125251D01*
X125251Y466731D01*
X125209Y466734D01*
X125168Y466734D01*
X125143Y466738D01*
X125118Y466740D01*
X125077Y466748D01*
X125036Y466754D01*
X125012Y466761D01*
X124987Y466766D01*
X124948Y466779D01*
X124908Y466791D01*
X124885Y466800D01*
X124861Y466809D01*
X124823Y466827D01*
X124786Y466843D01*
X124764Y466856D01*
X124742Y466867D01*
X124707Y466890D01*
X124671Y466912D01*
X124652Y466927D01*
X124631Y466941D01*
X124600Y466969D01*
X124567Y466995D01*
X124550Y467013D01*
X124531Y467029D01*
X124503Y467061D01*
X124474Y467090D01*
X124459Y467110D01*
X124443Y467129D01*
X124420Y467164D01*
X124395Y467197D01*
X124383Y467219D01*
X124369Y467240D01*
X124351Y467277D01*
X124330Y467314D01*
X124130Y467738D01*
X123624Y468495D01*
X122997Y469122D01*
X122239Y469628D01*
X121816Y469829D01*
X121779Y469849D01*
X121742Y469867D01*
X121721Y469881D01*
X121699Y469893D01*
X121666Y469918D01*
X121631Y469941D01*
X121612Y469958D01*
X121592Y469973D01*
X121562Y470002D01*
X121531Y470029D01*
X121515Y470048D01*
X121496Y470065D01*
X121470Y470098D01*
X121443Y470129D01*
X121429Y470150D01*
X121414Y470170D01*
X121392Y470205D01*
X121369Y470240D01*
X121358Y470262D01*
X121345Y470284D01*
X121328Y470322D01*
X121310Y470359D01*
X121302Y470383D01*
X121292Y470406D01*
X121281Y470446D01*
X121267Y470486D01*
X121262Y470510D01*
X121256Y470534D01*
X121250Y470575D01*
X121241Y470616D01*
X121240Y470642D01*
X121236Y470666D01*
X121235Y470707D01*
X121233Y470749D01*
X121232Y489750D01*
Y489750D01*
Y489750D01*
X121241Y489883D01*
X121266Y490014D01*
X121295Y490099D01*
X121309Y490140D01*
X121368Y490259D01*
X121442Y490370D01*
X121530Y490470D01*
X121530D01*
Y490470D01*
X121630Y490558D01*
X121741Y490632D01*
X121860Y490691D01*
X121901Y490704D01*
X121986Y490733D01*
X122117Y490760D01*
X122250Y490768D01*
X122250D01*
X122250D01*
X133120D01*
X133165Y490765D01*
D02*
G37*
G36*
X92384Y490760D02*
X92514Y490733D01*
X92640Y490691D01*
X92760Y490632D01*
X92871Y490558D01*
X92971Y490470D01*
X93059Y490370D01*
X93133Y490259D01*
X93191Y490140D01*
X93234Y490014D01*
X93260Y489883D01*
X93269Y489750D01*
Y470751D01*
Y470751D01*
X93266Y470709D01*
X93266Y470668D01*
X93262Y470643D01*
X93260Y470618D01*
X93252Y470577D01*
X93246Y470536D01*
X93239Y470512D01*
X93234Y470487D01*
X93221Y470448D01*
X93209Y470408D01*
X93200Y470385D01*
X93191Y470361D01*
X93173Y470324D01*
X93156Y470286D01*
X93144Y470264D01*
X93133Y470242D01*
X93109Y470207D01*
X93088Y470171D01*
X93073Y470152D01*
X93059Y470131D01*
X93031Y470100D01*
X93005Y470067D01*
X92987Y470050D01*
X92971Y470031D01*
X92939Y470003D01*
X92909Y469974D01*
X92889Y469959D01*
X92871Y469943D01*
X92836Y469920D01*
X92803Y469895D01*
X92781Y469883D01*
X92760Y469869D01*
X92723Y469851D01*
X92686Y469830D01*
X92262Y469630D01*
X91505Y469124D01*
X90878Y468497D01*
X90372Y467739D01*
X90171Y467315D01*
X90151Y467279D01*
X90133Y467242D01*
X90119Y467221D01*
X90107Y467199D01*
X90082Y467166D01*
X90059Y467131D01*
X90042Y467112D01*
X90027Y467092D01*
X89998Y467062D01*
X89971Y467031D01*
X89952Y467015D01*
X89935Y466996D01*
X89902Y466970D01*
X89871Y466943D01*
X89850Y466929D01*
X89830Y466914D01*
X89794Y466892D01*
X89760Y466869D01*
X89738Y466858D01*
X89716Y466845D01*
X89678Y466828D01*
X89641Y466810D01*
X89617Y466802D01*
X89594Y466792D01*
X89554Y466781D01*
X89514Y466767D01*
X89490Y466762D01*
X89466Y466756D01*
X89425Y466749D01*
X89384Y466741D01*
X89359Y466740D01*
X89334Y466736D01*
X89293Y466735D01*
X89251Y466733D01*
X70250Y466732D01*
X70250D01*
X70250D01*
X70117Y466740D01*
X69987Y466767D01*
X69901Y466796D01*
X69860Y466809D01*
X69741Y466868D01*
X69630Y466942D01*
X69530Y467030D01*
Y467030D01*
X69530D01*
X69442Y467130D01*
X69368Y467241D01*
X69309Y467360D01*
X69296Y467401D01*
X69267Y467486D01*
X69240Y467617D01*
X69232Y467750D01*
Y467750D01*
Y467750D01*
Y478620D01*
X69232Y478620D01*
X69235Y478665D01*
X69236Y478709D01*
X69239Y478731D01*
X69240Y478753D01*
X69249Y478796D01*
X69256Y478840D01*
X69262Y478862D01*
X69267Y478884D01*
X69281Y478926D01*
X69293Y478968D01*
X69302Y478988D01*
X69309Y479010D01*
X69329Y479050D01*
X69347Y479090D01*
X70271Y480866D01*
X70277Y480876D01*
X70282Y480886D01*
X70311Y480932D01*
X70340Y480980D01*
X70347Y480989D01*
X70353Y480998D01*
X72722Y484228D01*
X72729Y484236D01*
X72735Y484245D01*
X72771Y484287D01*
X72807Y484330D01*
X72815Y484337D01*
X72823Y484346D01*
X75654Y487177D01*
X75663Y487185D01*
X75670Y487193D01*
X75713Y487229D01*
X75754Y487265D01*
X75764Y487271D01*
X75772Y487279D01*
X79002Y489646D01*
X79011Y489652D01*
X79020Y489660D01*
X79068Y489688D01*
X79114Y489718D01*
X79124Y489723D01*
X79134Y489729D01*
X80910Y490653D01*
X80951Y490671D01*
X80990Y490691D01*
X81011Y490698D01*
X81032Y490707D01*
X81074Y490719D01*
X81116Y490733D01*
X81138Y490738D01*
X81160Y490744D01*
X81204Y490751D01*
X81247Y490760D01*
X81269Y490761D01*
X81291Y490764D01*
X81336Y490765D01*
X81380Y490768D01*
X92251D01*
X92384Y490760D01*
D02*
G37*
D44*
X73750Y89250D02*
D03*
X90750D02*
D03*
X234990Y216340D02*
D03*
X251990D02*
D03*
X236880Y232850D02*
D03*
X253880D02*
D03*
X153710Y216340D02*
D03*
X170710D02*
D03*
X333250Y137750D02*
D03*
X316250D02*
D03*
X212000Y305500D02*
D03*
X195000D02*
D03*
D45*
X302890Y207790D02*
D03*
Y202790D02*
D03*
Y197790D02*
D03*
Y192790D02*
D03*
Y187790D02*
D03*
Y182790D02*
D03*
Y177790D02*
D03*
X350390D02*
D03*
Y182790D02*
D03*
Y187790D02*
D03*
Y192790D02*
D03*
Y197790D02*
D03*
Y202790D02*
D03*
Y207790D02*
D03*
D46*
X311640Y169040D02*
D03*
X316640D02*
D03*
X321640D02*
D03*
X326640D02*
D03*
X331640D02*
D03*
X336640D02*
D03*
X341640D02*
D03*
Y216540D02*
D03*
X336640D02*
D03*
X331640D02*
D03*
X326640D02*
D03*
X321640D02*
D03*
X316640D02*
D03*
X311640D02*
D03*
D47*
X326640Y192790D02*
D03*
D48*
X27000Y132500D02*
D03*
Y47500D02*
D03*
X24500Y172500D02*
D03*
Y257500D02*
D03*
D49*
X27000Y90000D02*
D03*
X24500Y215000D02*
D03*
D50*
X259750Y343250D02*
D03*
Y360250D02*
D03*
X291000Y253750D02*
D03*
Y236750D02*
D03*
X253750Y253750D02*
D03*
Y270750D02*
D03*
X72660Y177360D02*
D03*
Y194360D02*
D03*
X124730Y176090D02*
D03*
Y193090D02*
D03*
Y269290D02*
D03*
Y252290D02*
D03*
X173640Y195630D02*
D03*
Y178630D02*
D03*
X183150Y248970D02*
D03*
Y231970D02*
D03*
X252500Y176250D02*
D03*
Y193250D02*
D03*
X341630Y242960D02*
D03*
Y259960D02*
D03*
X284750Y149250D02*
D03*
Y166250D02*
D03*
X436000Y306500D02*
D03*
Y323500D02*
D03*
X366000Y259750D02*
D03*
Y242750D02*
D03*
X309000Y343250D02*
D03*
Y360250D02*
D03*
D51*
X291000Y343500D02*
D03*
X279000D02*
D03*
D52*
X269510Y233470D02*
D03*
Y247470D02*
D03*
X190770Y183940D02*
D03*
Y197940D02*
D03*
X124730Y215690D02*
D03*
Y229690D02*
D03*
X269510Y201720D02*
D03*
Y215720D02*
D03*
D53*
X463250Y415250D02*
D03*
Y351250D02*
D03*
D54*
X394250Y415250D02*
D03*
D55*
X417250Y357250D02*
D03*
X394250D02*
D03*
X371250D02*
D03*
D56*
X153250Y231000D02*
D03*
X167250D02*
D03*
X202820Y232850D02*
D03*
X216820D02*
D03*
X202850Y216340D02*
D03*
X216850D02*
D03*
X89750Y215000D02*
D03*
X103750D02*
D03*
D57*
X249750Y459750D02*
D03*
X313750D02*
D03*
D58*
X107250Y452750D02*
D03*
X82250Y477750D02*
D03*
Y427750D02*
D03*
X132250D02*
D03*
Y477750D02*
D03*
D59*
X470000Y25000D02*
D03*
X30000Y470000D02*
D03*
X470000D02*
D03*
X30000Y25000D02*
D03*
D60*
X287500Y38500D02*
D03*
X320850Y95000D02*
D03*
X462500Y254750D02*
D03*
Y203950D02*
D03*
Y178550D02*
D03*
Y153150D02*
D03*
Y127750D02*
D03*
Y102350D02*
D03*
Y76950D02*
D03*
Y51550D02*
D03*
Y229350D02*
D03*
X367500Y38500D02*
D03*
X173500Y395900D02*
D03*
Y421300D02*
D03*
Y446700D02*
D03*
D61*
X287500Y63900D02*
D03*
X462500Y280150D02*
D03*
X367500Y63900D02*
D03*
X173500Y370500D02*
D03*
D62*
X346250Y95000D02*
D03*
D63*
X308900Y305750D02*
D03*
D64*
X260100D02*
D03*
D65*
X323750Y394500D02*
D03*
X285000Y132750D02*
D03*
X310250Y113500D02*
D03*
X349250Y121500D02*
D03*
X236250Y171250D02*
D03*
X336500Y382500D02*
D03*
X284000Y413000D02*
D03*
D66*
X315640Y203790D02*
D03*
X326640D02*
D03*
X337640D02*
D03*
X315640Y192790D02*
D03*
X326640D02*
D03*
X337640D02*
D03*
X315640Y181790D02*
D03*
X326640D02*
D03*
X337640D02*
D03*
D67*
X90250Y177000D02*
D03*
X108500Y176500D02*
D03*
X9500Y152500D02*
D03*
X26250Y152250D02*
D03*
X62500Y252500D02*
D03*
X107500Y269750D02*
D03*
X142500D02*
D03*
X156000Y179000D02*
D03*
X173250Y159250D02*
D03*
X190500Y166250D02*
D03*
X278250Y306500D02*
D03*
X233250Y279250D02*
D03*
X199750Y254250D02*
D03*
X153500Y252750D02*
D03*
X366750Y279000D02*
D03*
X352250Y342000D02*
D03*
X350000Y367000D02*
D03*
X371500Y332000D02*
D03*
X489250Y415250D02*
D03*
X440500Y415500D02*
D03*
X488750Y436500D02*
D03*
X486250Y211750D02*
D03*
X485750Y237250D02*
D03*
X350750Y277250D02*
D03*
X371000Y220500D02*
D03*
X89500Y198500D02*
D03*
X56500Y199000D02*
D03*
X56000Y231000D02*
D03*
X262250Y283250D02*
D03*
X243000Y292750D02*
D03*
X205750Y378500D02*
D03*
X294750Y379000D02*
D03*
X224250Y459750D02*
D03*
X224000Y440500D02*
D03*
X224250Y477250D02*
D03*
X150000Y406750D02*
D03*
X259500Y378000D02*
D03*
X235250Y321000D02*
D03*
X285000Y305000D02*
D03*
X11000Y278250D02*
D03*
X28250Y277750D02*
D03*
X46500D02*
D03*
X42500Y152750D02*
D03*
X62750Y270750D02*
D03*
X61000Y161000D02*
D03*
D68*
X326250Y192750D02*
D03*
M02*
