G04 Layer_Color=65535*
%FSLAX44Y44*%
%MOMM*%
G71*
G01*
G75*
%ADD25C,0.2000*%
%ADD26C,0.2540*%
%ADD40C,0.2500*%
D25*
X300200Y25800D02*
Y76600D01*
X274800D02*
X300200D01*
X274800Y25800D02*
Y76600D01*
Y25800D02*
X300200D01*
X306650Y108200D02*
X357450D01*
X306650Y82800D02*
Y108200D01*
Y82800D02*
X357450D01*
Y108200D01*
X255750Y334750D02*
X263750D01*
X273000Y338000D02*
Y350500D01*
X297000D01*
Y336500D02*
Y350500D01*
X273000Y336500D02*
X297000D01*
X273000D02*
Y338000D01*
X283500Y262000D02*
X291500D01*
X299390Y166040D02*
X310890D01*
X299390D02*
Y177540D01*
X341890Y166040D02*
X353390D01*
Y177540D01*
Y208540D02*
Y220040D01*
X341890D02*
X353390D01*
X299390D02*
X310890D01*
X299390Y208540D02*
Y220040D01*
X250750Y209250D02*
X258750D01*
X267010Y190470D02*
X274010D01*
X440250Y421250D02*
X440750D01*
X485750D02*
X486250D01*
Y345250D02*
Y421250D01*
X440250Y345250D02*
Y421250D01*
X485750Y345250D02*
X486250D01*
X440250D02*
X440750D01*
X440250Y368250D02*
X486250D01*
X427750Y372250D02*
Y400250D01*
X360750Y372250D02*
Y400250D01*
X427750D01*
X360750Y372250D02*
X427750D01*
X450550Y21350D02*
X475950D01*
X450550D02*
Y275350D01*
X475950D01*
Y256300D02*
Y275350D01*
Y21350D02*
Y256300D01*
X50500Y147500D02*
Y170000D01*
Y188000D02*
Y210500D01*
X227500Y282250D02*
X341500D01*
Y329250D01*
X227500D02*
X341500D01*
X227500Y282250D02*
Y329250D01*
X312750Y137500D02*
Y144500D01*
X69660Y132860D02*
X77660D01*
X121730Y131590D02*
X129730D01*
X121730Y241790D02*
X129730D01*
X227490Y176340D02*
Y184340D01*
X188270Y140940D02*
X195270D01*
X170640Y168130D02*
X178640D01*
X147250Y191500D02*
Y198500D01*
X122230Y172690D02*
X129230D01*
X180150Y221470D02*
X188150D01*
X196820Y193350D02*
Y200350D01*
X229380Y192850D02*
Y200850D01*
X196850Y176840D02*
Y183840D01*
X146210Y176340D02*
Y184340D01*
X83750Y175500D02*
Y182500D01*
X267010Y158720D02*
X274010D01*
X249500Y131750D02*
X257500D01*
X313200Y117920D02*
Y125920D01*
X243750Y436750D02*
Y437250D01*
Y482250D02*
Y482750D01*
X319750D01*
X243750Y436750D02*
X319750D01*
Y482250D02*
Y482750D01*
Y436750D02*
Y437250D01*
X296750Y436750D02*
Y482750D01*
X337630Y234460D02*
X345630D01*
X286000Y116000D02*
X294000D01*
X52498Y441000D02*
Y463000D01*
X73248Y420248D02*
X95248D01*
X116000Y440998D02*
Y462998D01*
X73250Y483750D02*
X95250D01*
X380200Y25800D02*
Y76600D01*
X354800D02*
X380200D01*
X354800Y25800D02*
Y76600D01*
Y25800D02*
X380200D01*
X432000Y298000D02*
X440000D01*
X362000Y268250D02*
X370000D01*
X160800Y459400D02*
X186200D01*
Y357800D02*
Y459400D01*
X160800Y357800D02*
Y459400D01*
Y357800D02*
X186200D01*
X305000Y334750D02*
X313000D01*
X220500Y301500D02*
Y309500D01*
D26*
X319447Y76403D02*
X309290D01*
Y61168D01*
X319447D01*
X309290Y68786D02*
X314368D01*
X324525Y76403D02*
X334682Y61168D01*
Y76403D02*
X324525Y61168D01*
X339760Y76403D02*
X349917D01*
X344838D01*
Y61168D01*
X309290Y52025D02*
Y41868D01*
X314368Y36790D01*
X319447Y41868D01*
Y52025D01*
X334682Y49486D02*
X332143Y52025D01*
X327064D01*
X324525Y49486D01*
Y39329D01*
X327064Y36790D01*
X332143D01*
X334682Y39329D01*
X347378Y52025D02*
X342299D01*
X339760Y49486D01*
Y39329D01*
X342299Y36790D01*
X347378D01*
X349917Y39329D01*
Y49486D01*
X347378Y52025D01*
X314157Y383446D02*
X311618Y385985D01*
X306539D01*
X304000Y383446D01*
Y373289D01*
X306539Y370750D01*
X311618D01*
X314157Y373289D01*
X319235Y370750D02*
X324313D01*
X321774D01*
Y385985D01*
X319235Y383446D01*
X194304Y338657D02*
X191765Y336118D01*
Y331039D01*
X194304Y328500D01*
X204461D01*
X207000Y331039D01*
Y336118D01*
X204461Y338657D01*
X207000Y353892D02*
Y343735D01*
X196843Y353892D01*
X194304D01*
X191765Y351353D01*
Y346274D01*
X194304Y343735D01*
X232907Y371946D02*
X230368Y374485D01*
X225289D01*
X222750Y371946D01*
Y361789D01*
X225289Y359250D01*
X230368D01*
X232907Y361789D01*
X237985Y371946D02*
X240524Y374485D01*
X245603D01*
X248142Y371946D01*
Y369407D01*
X245603Y366867D01*
X243063D01*
X245603D01*
X248142Y364328D01*
Y361789D01*
X245603Y359250D01*
X240524D01*
X237985Y361789D01*
X226804Y155157D02*
X224265Y152618D01*
Y147539D01*
X226804Y145000D01*
X236961D01*
X239500Y147539D01*
Y152618D01*
X236961Y155157D01*
X239500Y167853D02*
X224265D01*
X231882Y160235D01*
Y170392D01*
X228804Y219657D02*
X226265Y217118D01*
Y212039D01*
X228804Y209500D01*
X238961D01*
X241500Y212039D01*
Y217118D01*
X238961Y219657D01*
X226265Y234892D02*
Y224735D01*
X233883D01*
X231343Y229813D01*
Y232353D01*
X233883Y234892D01*
X238961D01*
X241500Y232353D01*
Y227274D01*
X238961Y224735D01*
X244054Y109657D02*
X241515Y107118D01*
Y102039D01*
X244054Y99500D01*
X254211D01*
X256750Y102039D01*
Y107118D01*
X254211Y109657D01*
X241515Y124892D02*
X244054Y119813D01*
X249132Y114735D01*
X254211D01*
X256750Y117274D01*
Y122353D01*
X254211Y124892D01*
X251672D01*
X249132Y122353D01*
Y114735D01*
X246054Y258907D02*
X243515Y256367D01*
Y251289D01*
X246054Y248750D01*
X256211D01*
X258750Y251289D01*
Y256367D01*
X256211Y258907D01*
X243515Y263985D02*
Y274142D01*
X246054D01*
X256211Y263985D01*
X258750D01*
X177804Y241297D02*
X175265Y238757D01*
Y233679D01*
X177804Y231140D01*
X187961D01*
X190500Y233679D01*
Y238757D01*
X187961Y241297D01*
X177804Y246375D02*
X175265Y248914D01*
Y253993D01*
X177804Y256532D01*
X180343D01*
X182882Y253993D01*
X185422Y256532D01*
X187961D01*
X190500Y253993D01*
Y248914D01*
X187961Y246375D01*
X185422D01*
X182882Y248914D01*
X180343Y246375D01*
X177804D01*
X182882Y248914D02*
Y253993D01*
X169804Y96907D02*
X167265Y94368D01*
Y89289D01*
X169804Y86750D01*
X179961D01*
X182500Y89289D01*
Y94368D01*
X179961Y96907D01*
Y101985D02*
X182500Y104524D01*
Y109603D01*
X179961Y112142D01*
X169804D01*
X167265Y109603D01*
Y104524D01*
X169804Y101985D01*
X172343D01*
X174883Y104524D01*
Y112142D01*
X147304Y141157D02*
X144765Y138617D01*
Y133539D01*
X147304Y131000D01*
X157461D01*
X160000Y133539D01*
Y138617D01*
X157461Y141157D01*
X160000Y146235D02*
Y151313D01*
Y148774D01*
X144765D01*
X147304Y146235D01*
Y158931D02*
X144765Y161470D01*
Y166549D01*
X147304Y169088D01*
X157461D01*
X160000Y166549D01*
Y161470D01*
X157461Y158931D01*
X147304D01*
X120647Y265426D02*
X118108Y267965D01*
X113029D01*
X110490Y265426D01*
Y255269D01*
X113029Y252730D01*
X118108D01*
X120647Y255269D01*
X125725Y252730D02*
X130803D01*
X128264D01*
Y267965D01*
X125725Y265426D01*
X138421Y252730D02*
X143499D01*
X140960D01*
Y267965D01*
X138421Y265426D01*
X120554Y98157D02*
X118015Y95618D01*
Y90539D01*
X120554Y88000D01*
X130711D01*
X133250Y90539D01*
Y95618D01*
X130711Y98157D01*
X133250Y103235D02*
Y108313D01*
Y105774D01*
X118015D01*
X120554Y103235D01*
X133250Y126088D02*
Y115931D01*
X123093Y126088D01*
X120554D01*
X118015Y123548D01*
Y118470D01*
X120554Y115931D01*
X76804Y98407D02*
X74265Y95868D01*
Y90789D01*
X76804Y88250D01*
X86961D01*
X89500Y90789D01*
Y95868D01*
X86961Y98407D01*
X89500Y103485D02*
Y108563D01*
Y106024D01*
X74265D01*
X76804Y103485D01*
Y116181D02*
X74265Y118720D01*
Y123799D01*
X76804Y126338D01*
X79343D01*
X81882Y123799D01*
Y121259D01*
Y123799D01*
X84422Y126338D01*
X86961D01*
X89500Y123799D01*
Y118720D01*
X86961Y116181D01*
X359407Y128446D02*
X356867Y130985D01*
X351789D01*
X349250Y128446D01*
Y118289D01*
X351789Y115750D01*
X356867D01*
X359407Y118289D01*
X364485Y115750D02*
X369563D01*
X367024D01*
Y130985D01*
X364485Y128446D01*
X384799Y115750D02*
Y130985D01*
X377181Y123368D01*
X387338D01*
X266304Y93657D02*
X263765Y91117D01*
Y86039D01*
X266304Y83500D01*
X276461D01*
X279000Y86039D01*
Y91117D01*
X276461Y93657D01*
X279000Y98735D02*
Y103813D01*
Y101274D01*
X263765D01*
X266304Y98735D01*
X263765Y121588D02*
Y111431D01*
X271383D01*
X268843Y116509D01*
Y119049D01*
X271383Y121588D01*
X276461D01*
X279000Y119049D01*
Y113970D01*
X276461Y111431D01*
X306657Y263946D02*
X304118Y266485D01*
X299039D01*
X296500Y263946D01*
Y253789D01*
X299039Y251250D01*
X304118D01*
X306657Y253789D01*
X311735Y251250D02*
X316813D01*
X314274D01*
Y266485D01*
X311735Y263946D01*
X334588Y266485D02*
X329509Y263946D01*
X324431Y258867D01*
Y253789D01*
X326970Y251250D01*
X332048D01*
X334588Y253789D01*
Y256328D01*
X332048Y258867D01*
X324431D01*
X410804Y292657D02*
X408265Y290117D01*
Y285039D01*
X410804Y282500D01*
X420961D01*
X423500Y285039D01*
Y290117D01*
X420961Y292657D01*
X423500Y297735D02*
Y302813D01*
Y300274D01*
X408265D01*
X410804Y297735D01*
X408265Y310431D02*
Y320588D01*
X410804D01*
X420961Y310431D01*
X423500D01*
X378804Y292907D02*
X376265Y290368D01*
Y285289D01*
X378804Y282750D01*
X388961D01*
X391500Y285289D01*
Y290368D01*
X388961Y292907D01*
X391500Y297985D02*
Y303064D01*
Y300524D01*
X376265D01*
X378804Y297985D01*
Y310681D02*
X376265Y313220D01*
Y318298D01*
X378804Y320838D01*
X381343D01*
X383882Y318298D01*
X386422Y320838D01*
X388961D01*
X391500Y318298D01*
Y313220D01*
X388961Y310681D01*
X386422D01*
X383882Y313220D01*
X381343Y310681D01*
X378804D01*
X383882Y313220D02*
Y318298D01*
X350554Y293157D02*
X348015Y290618D01*
Y285539D01*
X350554Y283000D01*
X360711D01*
X363250Y285539D01*
Y290618D01*
X360711Y293157D01*
X363250Y298235D02*
Y303313D01*
Y300774D01*
X348015D01*
X350554Y298235D01*
X360711Y310931D02*
X363250Y313470D01*
Y318549D01*
X360711Y321088D01*
X350554D01*
X348015Y318549D01*
Y313470D01*
X350554Y310931D01*
X353093D01*
X355633Y313470D01*
Y321088D01*
X344657Y483196D02*
X342118Y485735D01*
X337039D01*
X334500Y483196D01*
Y473039D01*
X337039Y470500D01*
X342118D01*
X344657Y473039D01*
X359892Y470500D02*
X349735D01*
X359892Y480657D01*
Y483196D01*
X357353Y485735D01*
X352274D01*
X349735Y483196D01*
X364970D02*
X367509Y485735D01*
X372588D01*
X375127Y483196D01*
Y473039D01*
X372588Y470500D01*
X367509D01*
X364970Y473039D01*
Y483196D01*
X450420Y449667D02*
X447881Y452206D01*
X442802D01*
X440263Y449667D01*
Y439510D01*
X442802Y436971D01*
X447881D01*
X450420Y439510D01*
X465655Y436971D02*
X455498D01*
X465655Y447128D01*
Y449667D01*
X463116Y452206D01*
X458037D01*
X455498Y449667D01*
X470733Y436971D02*
X475812D01*
X473272D01*
Y452206D01*
X470733Y449667D01*
X-83069Y254687D02*
X-88148D01*
X-85609D01*
Y241991D01*
X-88148Y239452D01*
X-90687D01*
X-93226Y241991D01*
X-77991Y239452D02*
X-72913D01*
X-75452D01*
Y254687D01*
X-77991Y252148D01*
X23907Y485985D02*
X18828D01*
X21367D01*
Y473289D01*
X18828Y470750D01*
X16289D01*
X13750Y473289D01*
X39142Y470750D02*
X28985D01*
X39142Y480907D01*
Y483446D01*
X36603Y485985D01*
X31524D01*
X28985Y483446D01*
X343070Y152015D02*
Y136780D01*
X353227D01*
X358305D02*
X363383D01*
X360844D01*
Y152015D01*
X358305Y149476D01*
X262895Y127000D02*
X278130D01*
Y137157D01*
Y152392D02*
Y142235D01*
X267973Y152392D01*
X265434D01*
X262895Y149853D01*
Y144774D01*
X265434Y142235D01*
X263765Y220500D02*
X279000D01*
Y230657D01*
X266304Y235735D02*
X263765Y238274D01*
Y243353D01*
X266304Y245892D01*
X268843D01*
X271383Y243353D01*
Y240813D01*
Y243353D01*
X273922Y245892D01*
X276461D01*
X279000Y243353D01*
Y238274D01*
X276461Y235735D01*
X201935Y144780D02*
X217170D01*
Y154937D01*
Y167633D02*
X201935D01*
X209552Y160015D01*
Y170172D01*
X199015Y210250D02*
X214250D01*
Y220407D01*
X199015Y235642D02*
Y225485D01*
X206632D01*
X204093Y230563D01*
Y233103D01*
X206632Y235642D01*
X211711D01*
X214250Y233103D01*
Y228024D01*
X211711Y225485D01*
X154905Y207700D02*
X170140D01*
Y217857D01*
X154905Y233092D02*
X157444Y228013D01*
X162523Y222935D01*
X167601D01*
X170140Y225474D01*
Y230553D01*
X167601Y233092D01*
X165062D01*
X162523Y230553D01*
Y222935D01*
X189015Y87000D02*
X204250D01*
Y97157D01*
X189015Y102235D02*
Y112392D01*
X191554D01*
X201711Y102235D01*
X204250D01*
X100335Y190500D02*
X115570D01*
Y200657D01*
X102874Y205735D02*
X100335Y208274D01*
Y213353D01*
X102874Y215892D01*
X105413D01*
X107952Y213353D01*
X110492Y215892D01*
X113031D01*
X115570Y213353D01*
Y208274D01*
X113031Y205735D01*
X110492D01*
X107952Y208274D01*
X105413Y205735D01*
X102874D01*
X107952Y208274D02*
Y213353D01*
X64730Y204395D02*
Y189160D01*
X74887D01*
X79965Y191699D02*
X82504Y189160D01*
X87583D01*
X90122Y191699D01*
Y201856D01*
X87583Y204395D01*
X82504D01*
X79965Y201856D01*
Y199317D01*
X82504Y196777D01*
X90122D01*
X452074Y283986D02*
Y299221D01*
X459692D01*
X462231Y296682D01*
Y291604D01*
X459692Y289064D01*
X452074D01*
X467309Y283986D02*
X472387D01*
X469848D01*
Y299221D01*
X467309Y296682D01*
X300250Y85000D02*
X285015D01*
Y92618D01*
X287554Y95157D01*
X292633D01*
X295172Y92618D01*
Y85000D01*
X300250Y110392D02*
Y100235D01*
X290093Y110392D01*
X287554D01*
X285015Y107853D01*
Y102774D01*
X287554Y100235D01*
X155000Y357750D02*
X139765D01*
Y365368D01*
X142304Y367907D01*
X147382D01*
X149922Y365368D01*
Y357750D01*
X142304Y372985D02*
X139765Y375524D01*
Y380603D01*
X142304Y383142D01*
X144843D01*
X147382Y380603D01*
Y378063D01*
Y380603D01*
X149922Y383142D01*
X152461D01*
X155000Y380603D01*
Y375524D01*
X152461Y372985D01*
X242250Y29250D02*
Y44485D01*
X249867D01*
X252407Y41946D01*
Y36867D01*
X249867Y34328D01*
X242250D01*
X265103Y29250D02*
Y44485D01*
X257485Y36867D01*
X267642D01*
X275250Y357000D02*
Y372235D01*
X282868D01*
X285407Y369696D01*
Y364618D01*
X282868Y362078D01*
X275250D01*
X280328D02*
X285407Y357000D01*
X290485D02*
X295563D01*
X293024D01*
Y372235D01*
X290485Y369696D01*
X299000Y245485D02*
Y232789D01*
X301539Y230250D01*
X306618D01*
X309157Y232789D01*
Y245485D01*
X314235Y230250D02*
X319313D01*
X316774D01*
Y245485D01*
X314235Y242946D01*
X360468Y452793D02*
Y440097D01*
X363007Y437558D01*
X368086D01*
X370625Y440097D01*
Y452793D01*
X385860Y437558D02*
X375703D01*
X385860Y447715D01*
Y450254D01*
X383321Y452793D01*
X378242D01*
X375703Y450254D01*
X229046Y353139D02*
Y350600D01*
X234124Y345522D01*
X239203Y350600D01*
Y353139D01*
X234124Y345522D02*
Y337904D01*
X244281D02*
X249359D01*
X246820D01*
Y353139D01*
X244281Y350600D01*
X380500Y81750D02*
X365265D01*
Y89368D01*
X367804Y91907D01*
X372882D01*
X375422Y89368D01*
Y81750D01*
X365265Y107142D02*
Y96985D01*
X372882D01*
X370343Y102063D01*
Y104603D01*
X372882Y107142D01*
X377961D01*
X380500Y104603D01*
Y99524D01*
X377961Y96985D01*
X26000Y259500D02*
X15843D01*
X10765Y264578D01*
X15843Y269657D01*
X26000D01*
X18383D01*
Y259500D01*
X26000Y274735D02*
X10765D01*
X26000Y284892D01*
X10765D01*
Y289970D02*
Y300127D01*
Y295049D01*
X26000D01*
X9765Y354907D02*
Y344750D01*
X25000D01*
Y354907D01*
X17383Y344750D02*
Y349828D01*
X9765Y359985D02*
X25000Y370142D01*
X9765D02*
X25000Y359985D01*
X9765Y375220D02*
Y385377D01*
Y380299D01*
X25000D01*
X12304Y415847D02*
X9765Y413308D01*
Y408229D01*
X12304Y405690D01*
X22461D01*
X25000Y408229D01*
Y413308D01*
X22461Y415847D01*
X9765Y420925D02*
X25000D01*
Y431082D01*
X9765Y436160D02*
X25000D01*
X19922D01*
X9765Y446317D01*
X17383Y438700D01*
X25000Y446317D01*
X400750Y270485D02*
Y260328D01*
X405828Y255250D01*
X410907Y260328D01*
Y270485D01*
X426142Y267946D02*
X423603Y270485D01*
X418524D01*
X415985Y267946D01*
Y257789D01*
X418524Y255250D01*
X423603D01*
X426142Y257789D01*
X441377Y267946D02*
X438838Y270485D01*
X433759D01*
X431220Y267946D01*
Y257789D01*
X433759Y255250D01*
X438838D01*
X441377Y257789D01*
X410907Y242696D02*
X408368Y245235D01*
X403289D01*
X400750Y242696D01*
Y232539D01*
X403289Y230000D01*
X408368D01*
X410907Y232539D01*
Y237617D01*
X405828D01*
X415985Y230000D02*
Y245235D01*
X426142Y230000D01*
Y245235D01*
X431220D02*
Y230000D01*
X438838D01*
X441377Y232539D01*
Y242696D01*
X438838Y245235D01*
X431220D01*
X410907Y214946D02*
X408368Y217485D01*
X403289D01*
X400750Y214946D01*
Y204789D01*
X403289Y202250D01*
X408368D01*
X410907Y204789D01*
Y209867D01*
X405828D01*
X415985Y202250D02*
Y217485D01*
X426142Y202250D01*
Y217485D01*
X431220D02*
Y202250D01*
X438838D01*
X441377Y204789D01*
Y214946D01*
X438838Y217485D01*
X431220D01*
X388750Y191196D02*
X391289Y193735D01*
X396367D01*
X398907Y191196D01*
Y188657D01*
X396367Y186117D01*
X393828D01*
X396367D01*
X398907Y183578D01*
Y181039D01*
X396367Y178500D01*
X391289D01*
X388750Y181039D01*
X403985Y178500D02*
Y181039D01*
X406524D01*
Y178500D01*
X403985D01*
X416681Y191196D02*
X419220Y193735D01*
X424299D01*
X426838Y191196D01*
Y188657D01*
X424299Y186117D01*
X421759D01*
X424299D01*
X426838Y183578D01*
Y181039D01*
X424299Y178500D01*
X419220D01*
X416681Y181039D01*
X431916Y193735D02*
Y183578D01*
X436994Y178500D01*
X442073Y183578D01*
Y193735D01*
X385750Y168985D02*
X395907D01*
X390828D01*
Y153750D01*
X411142Y166446D02*
X408603Y168985D01*
X403524D01*
X400985Y166446D01*
Y156289D01*
X403524Y153750D01*
X408603D01*
X411142Y156289D01*
X416220Y168985D02*
X426377Y153750D01*
Y168985D02*
X416220Y153750D01*
X439073Y168985D02*
X433994D01*
X431455Y166446D01*
Y156289D01*
X433994Y153750D01*
X439073D01*
X441612Y156289D01*
Y166446D01*
X439073Y168985D01*
X403250Y144485D02*
X408328D01*
X405789D01*
Y129250D01*
X403250D01*
X408328D01*
X415946D02*
Y144485D01*
X423563D01*
X426103Y141946D01*
Y136868D01*
X423563Y134328D01*
X415946D01*
X421024D02*
X426103Y129250D01*
X441338Y131789D02*
Y141946D01*
X438798Y144485D01*
X433720D01*
X431181Y141946D01*
Y131789D01*
X433720Y129250D01*
X438798D01*
X436259Y134328D02*
X441338Y129250D01*
X438798D02*
X441338Y131789D01*
X391250Y103500D02*
Y118735D01*
X396328Y113657D01*
X401407Y118735D01*
Y103500D01*
X414103Y118735D02*
X409024D01*
X406485Y116196D01*
Y106039D01*
X409024Y103500D01*
X414103D01*
X416642Y106039D01*
Y116196D01*
X414103Y118735D01*
X431877Y116196D02*
X429338Y118735D01*
X424259D01*
X421720Y116196D01*
Y113657D01*
X424259Y111117D01*
X429338D01*
X431877Y108578D01*
Y106039D01*
X429338Y103500D01*
X424259D01*
X421720Y106039D01*
X436955Y118735D02*
X442034D01*
X439494D01*
Y103500D01*
X436955D01*
X442034D01*
X389000Y77750D02*
Y92985D01*
X394078Y87907D01*
X399157Y92985D01*
Y77750D01*
X404235Y92985D02*
X409313D01*
X406774D01*
Y77750D01*
X404235D01*
X409313D01*
X427088Y90446D02*
X424548Y92985D01*
X419470D01*
X416931Y90446D01*
Y87907D01*
X419470Y85367D01*
X424548D01*
X427088Y82828D01*
Y80289D01*
X424548Y77750D01*
X419470D01*
X416931Y80289D01*
X439784Y92985D02*
X434705D01*
X432166Y90446D01*
Y80289D01*
X434705Y77750D01*
X439784D01*
X442323Y80289D01*
Y90446D01*
X439784Y92985D01*
X410657Y65446D02*
X408117Y67985D01*
X403039D01*
X400500Y65446D01*
Y55289D01*
X403039Y52750D01*
X408117D01*
X410657Y55289D01*
X415735Y67985D02*
Y52750D01*
X425892D01*
X430970Y67985D02*
Y52750D01*
Y57828D01*
X441127Y67985D01*
X433509Y60367D01*
X441127Y52750D01*
X413907Y40696D02*
X411367Y43235D01*
X406289D01*
X403750Y40696D01*
Y38157D01*
X406289Y35617D01*
X411367D01*
X413907Y33078D01*
Y30539D01*
X411367Y28000D01*
X406289D01*
X403750Y30539D01*
X429142Y43235D02*
X418985D01*
Y28000D01*
X429142D01*
X418985Y35617D02*
X424063D01*
X434220Y43235D02*
Y28000D01*
X444377D01*
X345407Y18446D02*
X342868Y20985D01*
X337789D01*
X335250Y18446D01*
Y15907D01*
X337789Y13368D01*
X342868D01*
X345407Y10828D01*
Y8289D01*
X342868Y5750D01*
X337789D01*
X335250Y8289D01*
X350485Y20985D02*
Y18446D01*
X355563Y13368D01*
X360642Y18446D01*
Y20985D01*
X355563Y13368D02*
Y5750D01*
X375877Y18446D02*
X373338Y20985D01*
X368259D01*
X365720Y18446D01*
Y15907D01*
X368259Y13368D01*
X373338D01*
X375877Y10828D01*
Y8289D01*
X373338Y5750D01*
X368259D01*
X365720Y8289D01*
X391112Y18446D02*
X388573Y20985D01*
X383494D01*
X380955Y18446D01*
Y8289D01*
X383494Y5750D01*
X388573D01*
X391112Y8289D01*
X396190Y20985D02*
Y5750D01*
X406347D01*
X411425Y20985D02*
Y5750D01*
Y10828D01*
X421582Y20985D01*
X413965Y13368D01*
X421582Y5750D01*
X99657Y71985D02*
X89500D01*
Y56750D01*
X99657D01*
X89500Y64367D02*
X94578D01*
X104735Y71985D02*
X114892Y56750D01*
Y71985D02*
X104735Y56750D01*
X119970Y71985D02*
X130127D01*
X125049D01*
Y56750D01*
X135205Y54211D02*
X145362D01*
X150440Y71985D02*
Y61828D01*
X155519Y56750D01*
X160597Y61828D01*
Y71985D01*
X175832Y69446D02*
X173293Y71985D01*
X168214D01*
X165675Y69446D01*
Y59289D01*
X168214Y56750D01*
X173293D01*
X175832Y59289D01*
X188528Y71985D02*
X183450D01*
X180910Y69446D01*
Y59289D01*
X183450Y56750D01*
X188528D01*
X191067Y59289D01*
Y69446D01*
X188528Y71985D01*
X196145Y54211D02*
X206302D01*
X211381Y71985D02*
X221537D01*
X216459D01*
Y56750D01*
X226616Y71985D02*
Y59289D01*
X229155Y56750D01*
X234233D01*
X236772Y59289D01*
Y71985D01*
X241851Y56750D02*
Y71985D01*
X252007Y56750D01*
Y71985D01*
X267243D02*
X257086D01*
Y56750D01*
X267243D01*
X257086Y64367D02*
X262164D01*
X204657Y425946D02*
X202118Y428485D01*
X197039D01*
X194500Y425946D01*
Y415789D01*
X197039Y413250D01*
X202118D01*
X204657Y415789D01*
Y420868D01*
X199578D01*
X209735Y413250D02*
Y428485D01*
X217353D01*
X219892Y425946D01*
Y420868D01*
X217353Y418328D01*
X209735D01*
X224970Y413250D02*
Y423407D01*
X230049Y428485D01*
X235127Y423407D01*
Y413250D01*
Y420868D01*
X224970D01*
X240205Y428485D02*
Y413250D01*
X247823D01*
X250362Y415789D01*
Y425946D01*
X247823Y428485D01*
X240205D01*
X265597Y425946D02*
X263058Y428485D01*
X257980D01*
X255440Y425946D01*
Y415789D01*
X257980Y413250D01*
X263058D01*
X265597Y415789D01*
X270675Y413250D02*
X275754D01*
X273214D01*
Y428485D01*
X270675Y425946D01*
X204407Y401446D02*
X201868Y403985D01*
X196789D01*
X194250Y401446D01*
Y391289D01*
X196789Y388750D01*
X201868D01*
X204407Y391289D01*
Y396367D01*
X199328D01*
X209485Y388750D02*
Y403985D01*
X217103D01*
X219642Y401446D01*
Y396367D01*
X217103Y393828D01*
X209485D01*
X224720Y388750D02*
Y398907D01*
X229799Y403985D01*
X234877Y398907D01*
Y388750D01*
Y396367D01*
X224720D01*
X239955Y403985D02*
Y388750D01*
X247573D01*
X250112Y391289D01*
Y401446D01*
X247573Y403985D01*
X239955D01*
X265347Y401446D02*
X262808Y403985D01*
X257729D01*
X255190Y401446D01*
Y391289D01*
X257729Y388750D01*
X262808D01*
X265347Y391289D01*
X280582Y388750D02*
X270425D01*
X280582Y398907D01*
Y401446D01*
X278043Y403985D01*
X272965D01*
X270425Y401446D01*
D40*
X294140Y218540D02*
G03*
X294140Y218540I-1250J0D01*
G01*
X441500Y338750D02*
G03*
X441500Y338750I-1250J0D01*
G01*
X362000Y357250D02*
G03*
X362000Y357250I-1250J0D01*
G01*
X327500Y436750D02*
G03*
X327500Y436750I-1250J0D01*
G01*
M02*
