G04 Layer_Color=16711935*
%FSLAX44Y44*%
%MOMM*%
G71*
G01*
G75*
%ADD51R,5.2032X1.6032*%
%ADD56C,1.7032*%
%ADD57R,1.7032X1.7032*%
%ADD58R,1.7032X1.7032*%
%ADD59C,1.6032*%
%ADD60P,1.7353X8X22.5*%
%ADD61C,0.7032*%
%ADD62C,1.4732*%
%ADD63C,0.8032*%
D51*
X25500Y136500D02*
D03*
Y221500D02*
D03*
D56*
X287500Y38500D02*
D03*
X344750Y95500D02*
D03*
X463250Y237250D02*
D03*
Y186450D02*
D03*
Y161050D02*
D03*
Y135650D02*
D03*
Y110250D02*
D03*
Y84850D02*
D03*
Y59450D02*
D03*
Y34050D02*
D03*
Y211850D02*
D03*
X367500Y38500D02*
D03*
X173500Y395900D02*
D03*
Y421300D02*
D03*
Y446700D02*
D03*
D57*
X287500Y63900D02*
D03*
X463250Y262650D02*
D03*
X367500Y63900D02*
D03*
X173500Y370500D02*
D03*
D58*
X319350Y95500D02*
D03*
D59*
X308900Y305750D02*
D03*
D60*
X260100D02*
D03*
D61*
X331890Y187540D02*
D03*
X320890D02*
D03*
X331890Y198540D02*
D03*
X320890D02*
D03*
D62*
X91250Y141000D02*
D03*
X109500Y140500D02*
D03*
X57000Y452250D02*
D03*
X112000Y453000D02*
D03*
X10500Y116500D02*
D03*
X27250Y116250D02*
D03*
X63500Y216500D02*
D03*
X108500Y233750D02*
D03*
X143500D02*
D03*
X157000Y143000D02*
D03*
X174250Y123250D02*
D03*
X191500Y130250D02*
D03*
X269250Y254250D02*
D03*
X279250Y270500D02*
D03*
X236500Y244750D02*
D03*
X200750Y218250D02*
D03*
X154500Y216750D02*
D03*
X237250Y135250D02*
D03*
X270250Y139750D02*
D03*
X282000Y106750D02*
D03*
X366750Y279000D02*
D03*
X352250Y342000D02*
D03*
X350000Y367000D02*
D03*
X371500Y332000D02*
D03*
X489250Y415250D02*
D03*
X440500Y415500D02*
D03*
X488750Y436500D02*
D03*
X486250Y211750D02*
D03*
X485750Y237250D02*
D03*
X350750Y277250D02*
D03*
X364250Y221250D02*
D03*
X301250Y160250D02*
D03*
X360000Y166000D02*
D03*
X90500Y162500D02*
D03*
X57500Y163000D02*
D03*
X57000Y195000D02*
D03*
X262250Y283250D02*
D03*
X243000Y292750D02*
D03*
X212250Y288000D02*
D03*
X189000Y287750D02*
D03*
X164000Y288250D02*
D03*
X145750Y297750D02*
D03*
X132750Y310250D02*
D03*
X120500Y323250D02*
D03*
X108250Y335000D02*
D03*
X95500Y347000D02*
D03*
X66750Y405750D02*
D03*
X84000Y359000D02*
D03*
X73250Y371750D02*
D03*
X67250Y388750D02*
D03*
X101750Y404250D02*
D03*
X155750Y333250D02*
D03*
X187250Y321250D02*
D03*
X205750Y378500D02*
D03*
X294750Y379000D02*
D03*
X320250Y394750D02*
D03*
X336500Y382500D02*
D03*
X224250Y459750D02*
D03*
X224000Y440500D02*
D03*
X224250Y477250D02*
D03*
X150000Y406750D02*
D03*
X259500Y378000D02*
D03*
X284000Y413000D02*
D03*
X101750Y389250D02*
D03*
X112000Y377250D02*
D03*
X122000Y365750D02*
D03*
X132500Y355500D02*
D03*
X144500Y344500D02*
D03*
X168750Y322000D02*
D03*
X212000Y321750D02*
D03*
X235250Y321000D02*
D03*
X285000Y305000D02*
D03*
X12000Y242250D02*
D03*
X29250Y241750D02*
D03*
X47500D02*
D03*
X43500Y116750D02*
D03*
X63750Y234750D02*
D03*
X62000Y125000D02*
D03*
D63*
X326250Y192750D02*
D03*
M02*
